%TF.GenerationSoftware,KiCad,Pcbnew,8.0.8*%
%TF.CreationDate,2025-02-18T11:48:07+02:00*%
%TF.ProjectId,E900M30S shield,45393030-4d33-4305-9320-736869656c64,rev?*%
%TF.SameCoordinates,Original*%
%TF.FileFunction,Copper,L2,Bot*%
%TF.FilePolarity,Positive*%
%FSLAX46Y46*%
G04 Gerber Fmt 4.6, Leading zero omitted, Abs format (unit mm)*
G04 Created by KiCad (PCBNEW 8.0.8) date 2025-02-18 11:48:07*
%MOMM*%
%LPD*%
G01*
G04 APERTURE LIST*
%TA.AperFunction,ComponentPad*%
%ADD10R,1.700000X1.700000*%
%TD*%
%TA.AperFunction,ComponentPad*%
%ADD11O,1.700000X1.700000*%
%TD*%
%TA.AperFunction,ViaPad*%
%ADD12C,0.600000*%
%TD*%
%TA.AperFunction,Conductor*%
%ADD13C,0.200000*%
%TD*%
G04 APERTURE END LIST*
D10*
%TO.P,J1,1*%
%TO.N,NSS*%
X119380000Y-128905000D03*
D11*
%TO.P,J1,2*%
%TO.N,SCK*%
X121920000Y-128905000D03*
%TO.P,J1,3*%
%TO.N,MOSI*%
X124460000Y-128905000D03*
%TO.P,J1,4*%
%TO.N,MISO*%
X127000000Y-128905000D03*
%TO.P,J1,5*%
%TO.N,RST*%
X129540000Y-128905000D03*
%TO.P,J1,6*%
%TO.N,BUSY*%
X132080000Y-128905000D03*
%TO.P,J1,7*%
%TO.N,RXEN*%
X134620000Y-128905000D03*
%TO.P,J1,8*%
%TO.N,TXEN*%
X137160000Y-128905000D03*
%TO.P,J1,9*%
%TO.N,DIO2*%
X139700000Y-128905000D03*
%TO.P,J1,10*%
%TO.N,DIO1*%
X142240000Y-128905000D03*
%TD*%
D10*
%TO.P,J2,1*%
%TO.N,+5V*%
X158750000Y-124460000D03*
D11*
%TO.P,J2,2*%
%TO.N,GND*%
X158750000Y-121920000D03*
%TD*%
D12*
%TO.N,GND*%
X131445000Y-121782000D03*
X145415000Y-119380000D03*
%TO.N,RST*%
X141840200Y-98572000D03*
%TO.N,SCK*%
X136280000Y-100726200D03*
%TO.N,BUSY*%
X148980000Y-100726200D03*
%TO.N,NSS*%
X133308700Y-100726200D03*
%TO.N,DIO1*%
X148980000Y-101611000D03*
%TO.N,MOSI*%
X138820000Y-100726200D03*
%TO.N,MISO*%
X139625700Y-97910200D03*
%TO.N,GND*%
X122357000Y-121782000D03*
X137550000Y-121782000D03*
X127410000Y-103174000D03*
X152790000Y-103174000D03*
X122330000Y-103174000D03*
X124917000Y-121782000D03*
X135010000Y-121782000D03*
X127429000Y-121782000D03*
X145415000Y-127000000D03*
%TD*%
D13*
%TO.N,RST*%
X129898000Y-127753300D02*
X129540000Y-127753300D01*
X141840200Y-115811100D02*
X129898000Y-127753300D01*
X141840200Y-98572000D02*
X141840200Y-115811100D01*
X129540000Y-128905000D02*
X129540000Y-127753300D01*
%TO.N,SCK*%
X122397300Y-127753300D02*
X121920000Y-127753300D01*
X136280000Y-113870600D02*
X122397300Y-127753300D01*
X136280000Y-100726200D02*
X136280000Y-113870600D01*
X121920000Y-128905000D02*
X121920000Y-127753300D01*
%TO.N,BUSY*%
X132438000Y-127753300D02*
X132080000Y-127753300D01*
X147125300Y-113066000D02*
X132438000Y-127753300D01*
X147125300Y-102580900D02*
X147125300Y-113066000D01*
X148980000Y-100726200D02*
X147125300Y-102580900D01*
X132080000Y-128905000D02*
X132080000Y-127753300D01*
%TO.N,NSS*%
X119811900Y-127753300D02*
X119380000Y-127753300D01*
X133308700Y-114256500D02*
X119811900Y-127753300D01*
X133308700Y-100726200D02*
X133308700Y-114256500D01*
X119380000Y-128905000D02*
X119380000Y-127753300D01*
%TO.N,DIO1*%
X148980000Y-121013300D02*
X142240000Y-127753300D01*
X148980000Y-101611000D02*
X148980000Y-121013300D01*
X142240000Y-128905000D02*
X142240000Y-127753300D01*
%TO.N,MOSI*%
X124460000Y-128905000D02*
X124460000Y-127753300D01*
X138820000Y-113393300D02*
X124460000Y-127753300D01*
X138820000Y-100726200D02*
X138820000Y-113393300D01*
%TO.N,MISO*%
X139625700Y-115127600D02*
X127000000Y-127753300D01*
X139625700Y-97910200D02*
X139625700Y-115127600D01*
X127000000Y-128905000D02*
X127000000Y-127753300D01*
%TD*%
%TA.AperFunction,Conductor*%
%TO.N,GND*%
G36*
X139173666Y-97040185D02*
G01*
X139219421Y-97092989D01*
X139229365Y-97162147D01*
X139200340Y-97225703D01*
X139172600Y-97249493D01*
X139123439Y-97280382D01*
X138995884Y-97407937D01*
X138899911Y-97560676D01*
X138840331Y-97730945D01*
X138840330Y-97730950D01*
X138820135Y-97910196D01*
X138820135Y-97910203D01*
X138840330Y-98089449D01*
X138840331Y-98089454D01*
X138899911Y-98259723D01*
X138995885Y-98412463D01*
X138998145Y-98415297D01*
X138999034Y-98417475D01*
X138999589Y-98418358D01*
X138999434Y-98418455D01*
X139024555Y-98479983D01*
X139025200Y-98492612D01*
X139025200Y-99804999D01*
X139005515Y-99872038D01*
X138952711Y-99917793D01*
X138887317Y-99928219D01*
X138820004Y-99920635D01*
X138819996Y-99920635D01*
X138640750Y-99940830D01*
X138640745Y-99940831D01*
X138470476Y-100000411D01*
X138317737Y-100096384D01*
X138190184Y-100223937D01*
X138094211Y-100376676D01*
X138034631Y-100546945D01*
X138034630Y-100546950D01*
X138014435Y-100726196D01*
X138014435Y-100726203D01*
X138034630Y-100905449D01*
X138034631Y-100905454D01*
X138094211Y-101075723D01*
X138111115Y-101102625D01*
X138181087Y-101213985D01*
X138190185Y-101228463D01*
X138192445Y-101231297D01*
X138193334Y-101233475D01*
X138193889Y-101234358D01*
X138193734Y-101234455D01*
X138218855Y-101295983D01*
X138219500Y-101308612D01*
X138219500Y-113093202D01*
X138199815Y-113160241D01*
X138183181Y-113180883D01*
X123979481Y-127384582D01*
X123979479Y-127384585D01*
X123929361Y-127471394D01*
X123929359Y-127471396D01*
X123900425Y-127521509D01*
X123900422Y-127521516D01*
X123868136Y-127642005D01*
X123831771Y-127701665D01*
X123800772Y-127722290D01*
X123782170Y-127730964D01*
X123782169Y-127730965D01*
X123588597Y-127866505D01*
X123421508Y-128033594D01*
X123291574Y-128219160D01*
X123236997Y-128262784D01*
X123167498Y-128269977D01*
X123105144Y-128238455D01*
X123088429Y-128219164D01*
X123021360Y-128123379D01*
X122999034Y-128057176D01*
X123016044Y-127989408D01*
X123035251Y-127964582D01*
X136760520Y-114239316D01*
X136839577Y-114102384D01*
X136880501Y-113949657D01*
X136880501Y-113791542D01*
X136880501Y-113783947D01*
X136880500Y-113783929D01*
X136880500Y-101308612D01*
X136900185Y-101241573D01*
X136907555Y-101231297D01*
X136909810Y-101228467D01*
X136909816Y-101228462D01*
X137005789Y-101075722D01*
X137065368Y-100905455D01*
X137079318Y-100781643D01*
X137085565Y-100726203D01*
X137085565Y-100726196D01*
X137065369Y-100546950D01*
X137065368Y-100546945D01*
X137005788Y-100376676D01*
X136909815Y-100223937D01*
X136782262Y-100096384D01*
X136629523Y-100000411D01*
X136459254Y-99940831D01*
X136459249Y-99940830D01*
X136280004Y-99920635D01*
X136279996Y-99920635D01*
X136100750Y-99940830D01*
X136100745Y-99940831D01*
X135930476Y-100000411D01*
X135777737Y-100096384D01*
X135650184Y-100223937D01*
X135554211Y-100376676D01*
X135494631Y-100546945D01*
X135494630Y-100546950D01*
X135474435Y-100726196D01*
X135474435Y-100726203D01*
X135494630Y-100905449D01*
X135494631Y-100905454D01*
X135554211Y-101075723D01*
X135571115Y-101102625D01*
X135641087Y-101213985D01*
X135650185Y-101228463D01*
X135652445Y-101231297D01*
X135653334Y-101233475D01*
X135653889Y-101234358D01*
X135653734Y-101234455D01*
X135678855Y-101295983D01*
X135679500Y-101308612D01*
X135679500Y-113570502D01*
X135659815Y-113637541D01*
X135643181Y-113658183D01*
X122184884Y-127116481D01*
X122123561Y-127149966D01*
X122097203Y-127152800D01*
X121840943Y-127152800D01*
X121688216Y-127193723D01*
X121688209Y-127193726D01*
X121551290Y-127272775D01*
X121551282Y-127272781D01*
X121439481Y-127384582D01*
X121439475Y-127384590D01*
X121360426Y-127521509D01*
X121360423Y-127521514D01*
X121360423Y-127521516D01*
X121328137Y-127642005D01*
X121291774Y-127701664D01*
X121260770Y-127722291D01*
X121242176Y-127730961D01*
X121242169Y-127730965D01*
X121048600Y-127866503D01*
X120926672Y-127988431D01*
X120865349Y-128021915D01*
X120795657Y-128016931D01*
X120739724Y-127975059D01*
X120722811Y-127944086D01*
X120682075Y-127834868D01*
X120677092Y-127765178D01*
X120710575Y-127703858D01*
X133789220Y-114625216D01*
X133868277Y-114488284D01*
X133909201Y-114335557D01*
X133909201Y-114177442D01*
X133909201Y-114169847D01*
X133909200Y-114169829D01*
X133909200Y-101308612D01*
X133928885Y-101241573D01*
X133936255Y-101231297D01*
X133938510Y-101228467D01*
X133938516Y-101228462D01*
X134034489Y-101075722D01*
X134094068Y-100905455D01*
X134108018Y-100781643D01*
X134114265Y-100726203D01*
X134114265Y-100726196D01*
X134094069Y-100546950D01*
X134094068Y-100546945D01*
X134034488Y-100376676D01*
X133938515Y-100223937D01*
X133810962Y-100096384D01*
X133658223Y-100000411D01*
X133487954Y-99940831D01*
X133487949Y-99940830D01*
X133308704Y-99920635D01*
X133308696Y-99920635D01*
X133129450Y-99940830D01*
X133129445Y-99940831D01*
X132959176Y-100000411D01*
X132806437Y-100096384D01*
X132678884Y-100223937D01*
X132582911Y-100376676D01*
X132523331Y-100546945D01*
X132523330Y-100546950D01*
X132503135Y-100726196D01*
X132503135Y-100726203D01*
X132523330Y-100905449D01*
X132523331Y-100905454D01*
X132582911Y-101075723D01*
X132599815Y-101102625D01*
X132669787Y-101213985D01*
X132678885Y-101228463D01*
X132681145Y-101231297D01*
X132682034Y-101233475D01*
X132682589Y-101234358D01*
X132682434Y-101234455D01*
X132707555Y-101295983D01*
X132708200Y-101308612D01*
X132708200Y-113956402D01*
X132688515Y-114023441D01*
X132671881Y-114044083D01*
X119599484Y-127116481D01*
X119538161Y-127149966D01*
X119511803Y-127152800D01*
X119300943Y-127152800D01*
X119148216Y-127193723D01*
X119148209Y-127193726D01*
X119011290Y-127272775D01*
X119011282Y-127272781D01*
X118899481Y-127384582D01*
X118899477Y-127384587D01*
X118837174Y-127492500D01*
X118786607Y-127540716D01*
X118729787Y-127554500D01*
X118482130Y-127554500D01*
X118482123Y-127554501D01*
X118422516Y-127560908D01*
X118287671Y-127611202D01*
X118287664Y-127611206D01*
X118172455Y-127697452D01*
X118172452Y-127697455D01*
X118086206Y-127812664D01*
X118086202Y-127812671D01*
X118035908Y-127947517D01*
X118029501Y-128007116D01*
X118029500Y-128007135D01*
X118029500Y-129802870D01*
X118029501Y-129802876D01*
X118035908Y-129862483D01*
X118086202Y-129997328D01*
X118086206Y-129997335D01*
X118172452Y-130112544D01*
X118172455Y-130112547D01*
X118287664Y-130198793D01*
X118287671Y-130198797D01*
X118422517Y-130249091D01*
X118422516Y-130249091D01*
X118429444Y-130249835D01*
X118482127Y-130255500D01*
X120277872Y-130255499D01*
X120337483Y-130249091D01*
X120472331Y-130198796D01*
X120587546Y-130112546D01*
X120673796Y-129997331D01*
X120722810Y-129865916D01*
X120764681Y-129809984D01*
X120830145Y-129785566D01*
X120898418Y-129800417D01*
X120926673Y-129821569D01*
X121048599Y-129943495D01*
X121145384Y-130011265D01*
X121242165Y-130079032D01*
X121242167Y-130079033D01*
X121242170Y-130079035D01*
X121456337Y-130178903D01*
X121684592Y-130240063D01*
X121861034Y-130255500D01*
X121919999Y-130260659D01*
X121920000Y-130260659D01*
X121920001Y-130260659D01*
X121978966Y-130255500D01*
X122155408Y-130240063D01*
X122383663Y-130178903D01*
X122597830Y-130079035D01*
X122791401Y-129943495D01*
X122958495Y-129776401D01*
X123088425Y-129590842D01*
X123143002Y-129547217D01*
X123212500Y-129540023D01*
X123274855Y-129571546D01*
X123291575Y-129590842D01*
X123421500Y-129776395D01*
X123421505Y-129776401D01*
X123588599Y-129943495D01*
X123685384Y-130011265D01*
X123782165Y-130079032D01*
X123782167Y-130079033D01*
X123782170Y-130079035D01*
X123996337Y-130178903D01*
X124224592Y-130240063D01*
X124401034Y-130255500D01*
X124459999Y-130260659D01*
X124460000Y-130260659D01*
X124460001Y-130260659D01*
X124518966Y-130255500D01*
X124695408Y-130240063D01*
X124923663Y-130178903D01*
X125137830Y-130079035D01*
X125331401Y-129943495D01*
X125498495Y-129776401D01*
X125628425Y-129590842D01*
X125683002Y-129547217D01*
X125752500Y-129540023D01*
X125814855Y-129571546D01*
X125831575Y-129590842D01*
X125961500Y-129776395D01*
X125961505Y-129776401D01*
X126128599Y-129943495D01*
X126225384Y-130011265D01*
X126322165Y-130079032D01*
X126322167Y-130079033D01*
X126322170Y-130079035D01*
X126536337Y-130178903D01*
X126764592Y-130240063D01*
X126941034Y-130255500D01*
X126999999Y-130260659D01*
X127000000Y-130260659D01*
X127000001Y-130260659D01*
X127058966Y-130255500D01*
X127235408Y-130240063D01*
X127463663Y-130178903D01*
X127677830Y-130079035D01*
X127871401Y-129943495D01*
X128038495Y-129776401D01*
X128168425Y-129590842D01*
X128223002Y-129547217D01*
X128292500Y-129540023D01*
X128354855Y-129571546D01*
X128371575Y-129590842D01*
X128501500Y-129776395D01*
X128501505Y-129776401D01*
X128668599Y-129943495D01*
X128765384Y-130011265D01*
X128862165Y-130079032D01*
X128862167Y-130079033D01*
X128862170Y-130079035D01*
X129076337Y-130178903D01*
X129304592Y-130240063D01*
X129481034Y-130255500D01*
X129539999Y-130260659D01*
X129540000Y-130260659D01*
X129540001Y-130260659D01*
X129598966Y-130255500D01*
X129775408Y-130240063D01*
X130003663Y-130178903D01*
X130217830Y-130079035D01*
X130411401Y-129943495D01*
X130578495Y-129776401D01*
X130708425Y-129590842D01*
X130763002Y-129547217D01*
X130832500Y-129540023D01*
X130894855Y-129571546D01*
X130911575Y-129590842D01*
X131041500Y-129776395D01*
X131041505Y-129776401D01*
X131208599Y-129943495D01*
X131305384Y-130011265D01*
X131402165Y-130079032D01*
X131402167Y-130079033D01*
X131402170Y-130079035D01*
X131616337Y-130178903D01*
X131844592Y-130240063D01*
X132021034Y-130255500D01*
X132079999Y-130260659D01*
X132080000Y-130260659D01*
X132080001Y-130260659D01*
X132138966Y-130255500D01*
X132315408Y-130240063D01*
X132543663Y-130178903D01*
X132757830Y-130079035D01*
X132951401Y-129943495D01*
X133118495Y-129776401D01*
X133248425Y-129590842D01*
X133303002Y-129547217D01*
X133372500Y-129540023D01*
X133434855Y-129571546D01*
X133451575Y-129590842D01*
X133581500Y-129776395D01*
X133581505Y-129776401D01*
X133748599Y-129943495D01*
X133845384Y-130011265D01*
X133942165Y-130079032D01*
X133942167Y-130079033D01*
X133942170Y-130079035D01*
X134156337Y-130178903D01*
X134384592Y-130240063D01*
X134561034Y-130255500D01*
X134619999Y-130260659D01*
X134620000Y-130260659D01*
X134620001Y-130260659D01*
X134678966Y-130255500D01*
X134855408Y-130240063D01*
X135083663Y-130178903D01*
X135297830Y-130079035D01*
X135491401Y-129943495D01*
X135658495Y-129776401D01*
X135788425Y-129590842D01*
X135843002Y-129547217D01*
X135912500Y-129540023D01*
X135974855Y-129571546D01*
X135991575Y-129590842D01*
X136121500Y-129776395D01*
X136121505Y-129776401D01*
X136288599Y-129943495D01*
X136385384Y-130011265D01*
X136482165Y-130079032D01*
X136482167Y-130079033D01*
X136482170Y-130079035D01*
X136696337Y-130178903D01*
X136924592Y-130240063D01*
X137101034Y-130255500D01*
X137159999Y-130260659D01*
X137160000Y-130260659D01*
X137160001Y-130260659D01*
X137218966Y-130255500D01*
X137395408Y-130240063D01*
X137623663Y-130178903D01*
X137837830Y-130079035D01*
X138031401Y-129943495D01*
X138198495Y-129776401D01*
X138328425Y-129590842D01*
X138383002Y-129547217D01*
X138452500Y-129540023D01*
X138514855Y-129571546D01*
X138531575Y-129590842D01*
X138661500Y-129776395D01*
X138661505Y-129776401D01*
X138828599Y-129943495D01*
X138925384Y-130011265D01*
X139022165Y-130079032D01*
X139022167Y-130079033D01*
X139022170Y-130079035D01*
X139236337Y-130178903D01*
X139464592Y-130240063D01*
X139641034Y-130255500D01*
X139699999Y-130260659D01*
X139700000Y-130260659D01*
X139700001Y-130260659D01*
X139758966Y-130255500D01*
X139935408Y-130240063D01*
X140163663Y-130178903D01*
X140377830Y-130079035D01*
X140571401Y-129943495D01*
X140738495Y-129776401D01*
X140868425Y-129590842D01*
X140923002Y-129547217D01*
X140992500Y-129540023D01*
X141054855Y-129571546D01*
X141071575Y-129590842D01*
X141201500Y-129776395D01*
X141201505Y-129776401D01*
X141368599Y-129943495D01*
X141465384Y-130011265D01*
X141562165Y-130079032D01*
X141562167Y-130079033D01*
X141562170Y-130079035D01*
X141776337Y-130178903D01*
X142004592Y-130240063D01*
X142181034Y-130255500D01*
X142239999Y-130260659D01*
X142240000Y-130260659D01*
X142240001Y-130260659D01*
X142298966Y-130255500D01*
X142475408Y-130240063D01*
X142703663Y-130178903D01*
X142917830Y-130079035D01*
X143111401Y-129943495D01*
X143278495Y-129776401D01*
X143414035Y-129582830D01*
X143513903Y-129368663D01*
X143575063Y-129140408D01*
X143595659Y-128905000D01*
X143575063Y-128669592D01*
X143513903Y-128441337D01*
X143414035Y-128227171D01*
X143408425Y-128219158D01*
X143278494Y-128033597D01*
X143131396Y-127886499D01*
X143097911Y-127825176D01*
X143102895Y-127755484D01*
X143131394Y-127711139D01*
X147280399Y-123562135D01*
X157399500Y-123562135D01*
X157399500Y-125357870D01*
X157399501Y-125357876D01*
X157405908Y-125417483D01*
X157456202Y-125552328D01*
X157456206Y-125552335D01*
X157542452Y-125667544D01*
X157542455Y-125667547D01*
X157657664Y-125753793D01*
X157657671Y-125753797D01*
X157792517Y-125804091D01*
X157792516Y-125804091D01*
X157799444Y-125804835D01*
X157852127Y-125810500D01*
X159647872Y-125810499D01*
X159707483Y-125804091D01*
X159842331Y-125753796D01*
X159957546Y-125667546D01*
X160043796Y-125552331D01*
X160094091Y-125417483D01*
X160100500Y-125357873D01*
X160100499Y-123562128D01*
X160094091Y-123502517D01*
X160043796Y-123367669D01*
X160043795Y-123367668D01*
X160043793Y-123367664D01*
X159957547Y-123252455D01*
X159957544Y-123252452D01*
X159842335Y-123166206D01*
X159842328Y-123166202D01*
X159710401Y-123116997D01*
X159654467Y-123075126D01*
X159630050Y-123009662D01*
X159644902Y-122941389D01*
X159666053Y-122913133D01*
X159788108Y-122791078D01*
X159923600Y-122597578D01*
X160023429Y-122383492D01*
X160023432Y-122383486D01*
X160080636Y-122170000D01*
X159183012Y-122170000D01*
X159215925Y-122112993D01*
X159250000Y-121985826D01*
X159250000Y-121854174D01*
X159215925Y-121727007D01*
X159183012Y-121670000D01*
X160080636Y-121670000D01*
X160080635Y-121669999D01*
X160023432Y-121456513D01*
X160023429Y-121456507D01*
X159923600Y-121242422D01*
X159923599Y-121242420D01*
X159788113Y-121048926D01*
X159788108Y-121048920D01*
X159621082Y-120881894D01*
X159427578Y-120746399D01*
X159213492Y-120646570D01*
X159213486Y-120646567D01*
X159000000Y-120589364D01*
X159000000Y-121486988D01*
X158942993Y-121454075D01*
X158815826Y-121420000D01*
X158684174Y-121420000D01*
X158557007Y-121454075D01*
X158500000Y-121486988D01*
X158500000Y-120589364D01*
X158499999Y-120589364D01*
X158286513Y-120646567D01*
X158286507Y-120646570D01*
X158072422Y-120746399D01*
X158072420Y-120746400D01*
X157878926Y-120881886D01*
X157878920Y-120881891D01*
X157711891Y-121048920D01*
X157711886Y-121048926D01*
X157576400Y-121242420D01*
X157576399Y-121242422D01*
X157476570Y-121456507D01*
X157476567Y-121456513D01*
X157419364Y-121669999D01*
X157419364Y-121670000D01*
X158316988Y-121670000D01*
X158284075Y-121727007D01*
X158250000Y-121854174D01*
X158250000Y-121985826D01*
X158284075Y-122112993D01*
X158316988Y-122170000D01*
X157419364Y-122170000D01*
X157476567Y-122383486D01*
X157476570Y-122383492D01*
X157576399Y-122597578D01*
X157711894Y-122791082D01*
X157833946Y-122913134D01*
X157867431Y-122974457D01*
X157862447Y-123044149D01*
X157820575Y-123100082D01*
X157789598Y-123116997D01*
X157657671Y-123166202D01*
X157657664Y-123166206D01*
X157542455Y-123252452D01*
X157542452Y-123252455D01*
X157456206Y-123367664D01*
X157456202Y-123367671D01*
X157405908Y-123502517D01*
X157399501Y-123562116D01*
X157399501Y-123562123D01*
X157399500Y-123562135D01*
X147280399Y-123562135D01*
X149338506Y-121504028D01*
X149338511Y-121504024D01*
X149348714Y-121493820D01*
X149348716Y-121493820D01*
X149460520Y-121382016D01*
X149539577Y-121245084D01*
X149580500Y-121092357D01*
X149580500Y-102193412D01*
X149600185Y-102126373D01*
X149607555Y-102116097D01*
X149609810Y-102113267D01*
X149609816Y-102113262D01*
X149705789Y-101960522D01*
X149765368Y-101790255D01*
X149780713Y-101654063D01*
X149785565Y-101611003D01*
X149785565Y-101610996D01*
X149765369Y-101431750D01*
X149765368Y-101431745D01*
X149751612Y-101392432D01*
X149705789Y-101261478D01*
X149688881Y-101234570D01*
X149669881Y-101167338D01*
X149688881Y-101102629D01*
X149705789Y-101075722D01*
X149765368Y-100905455D01*
X149779318Y-100781643D01*
X149785565Y-100726203D01*
X149785565Y-100726196D01*
X149765369Y-100546950D01*
X149765368Y-100546945D01*
X149705788Y-100376676D01*
X149609815Y-100223937D01*
X149482262Y-100096384D01*
X149360691Y-100019995D01*
X158964592Y-100019995D01*
X158964592Y-100020004D01*
X158984196Y-100281620D01*
X158984197Y-100281625D01*
X159042576Y-100537402D01*
X159042578Y-100537411D01*
X159042580Y-100537416D01*
X159138432Y-100781643D01*
X159269614Y-101008857D01*
X159322938Y-101075723D01*
X159433198Y-101213985D01*
X159521572Y-101295983D01*
X159625521Y-101392433D01*
X159842296Y-101540228D01*
X159842301Y-101540230D01*
X159842302Y-101540231D01*
X159842303Y-101540232D01*
X159967843Y-101600688D01*
X160078673Y-101654061D01*
X160078674Y-101654061D01*
X160078677Y-101654063D01*
X160329385Y-101731396D01*
X160588818Y-101770500D01*
X160851182Y-101770500D01*
X161110615Y-101731396D01*
X161361323Y-101654063D01*
X161597704Y-101540228D01*
X161814479Y-101392433D01*
X161984844Y-101234358D01*
X162006801Y-101213985D01*
X162006801Y-101213983D01*
X162006805Y-101213981D01*
X162170386Y-101008857D01*
X162301568Y-100781643D01*
X162397420Y-100537416D01*
X162455802Y-100281630D01*
X162455803Y-100281620D01*
X162475408Y-100020004D01*
X162475408Y-100019995D01*
X162455803Y-99758379D01*
X162455802Y-99758374D01*
X162455802Y-99758370D01*
X162397420Y-99502584D01*
X162301568Y-99258357D01*
X162170386Y-99031143D01*
X162006805Y-98826019D01*
X162006804Y-98826018D01*
X162006801Y-98826014D01*
X161814479Y-98647567D01*
X161597704Y-98499772D01*
X161597700Y-98499770D01*
X161597697Y-98499768D01*
X161597696Y-98499767D01*
X161361325Y-98385938D01*
X161361327Y-98385938D01*
X161110623Y-98308606D01*
X161110619Y-98308605D01*
X161110615Y-98308604D01*
X160985823Y-98289794D01*
X160851187Y-98269500D01*
X160851182Y-98269500D01*
X160588818Y-98269500D01*
X160588812Y-98269500D01*
X160440452Y-98291863D01*
X160329385Y-98308604D01*
X160329382Y-98308605D01*
X160329376Y-98308606D01*
X160078673Y-98385938D01*
X159842303Y-98499767D01*
X159842302Y-98499768D01*
X159625520Y-98647567D01*
X159433198Y-98826014D01*
X159269614Y-99031143D01*
X159138432Y-99258356D01*
X159042582Y-99502578D01*
X159042576Y-99502597D01*
X158984197Y-99758374D01*
X158984196Y-99758379D01*
X158964592Y-100019995D01*
X149360691Y-100019995D01*
X149329523Y-100000411D01*
X149159254Y-99940831D01*
X149159249Y-99940830D01*
X148980004Y-99920635D01*
X148979996Y-99920635D01*
X148800750Y-99940830D01*
X148800745Y-99940831D01*
X148630476Y-100000411D01*
X148477737Y-100096384D01*
X148350184Y-100223937D01*
X148254210Y-100376678D01*
X148194630Y-100546950D01*
X148184837Y-100633868D01*
X148157770Y-100698282D01*
X148149298Y-100707665D01*
X146756586Y-102100378D01*
X146644781Y-102212182D01*
X146644779Y-102212184D01*
X146624767Y-102246847D01*
X146616308Y-102261500D01*
X146565723Y-102349115D01*
X146524799Y-102501843D01*
X146524799Y-102501845D01*
X146524799Y-102669946D01*
X146524800Y-102669959D01*
X146524800Y-112765903D01*
X146505115Y-112832942D01*
X146488481Y-112853584D01*
X132225584Y-127116481D01*
X132164261Y-127149966D01*
X132137903Y-127152800D01*
X132000943Y-127152800D01*
X131848216Y-127193723D01*
X131848209Y-127193726D01*
X131711290Y-127272775D01*
X131711282Y-127272781D01*
X131599481Y-127384582D01*
X131599475Y-127384590D01*
X131520426Y-127521509D01*
X131520423Y-127521514D01*
X131520423Y-127521516D01*
X131488137Y-127642005D01*
X131451774Y-127701664D01*
X131420770Y-127722291D01*
X131402176Y-127730961D01*
X131402169Y-127730965D01*
X131208597Y-127866505D01*
X131041505Y-128033597D01*
X130911575Y-128219158D01*
X130856998Y-128262783D01*
X130787500Y-128269977D01*
X130725145Y-128238454D01*
X130708425Y-128219159D01*
X130641361Y-128123382D01*
X130592227Y-128053211D01*
X130569902Y-127987009D01*
X130586912Y-127919241D01*
X130606119Y-127894414D01*
X142208913Y-116291621D01*
X142208916Y-116291620D01*
X142320720Y-116179816D01*
X142370839Y-116093004D01*
X142399777Y-116042885D01*
X142440700Y-115890158D01*
X142440700Y-115732043D01*
X142440700Y-99154412D01*
X142460385Y-99087373D01*
X142467755Y-99077097D01*
X142470010Y-99074267D01*
X142470016Y-99074262D01*
X142565989Y-98921522D01*
X142625568Y-98751255D01*
X142637251Y-98647567D01*
X142645765Y-98572003D01*
X142645765Y-98571996D01*
X142625569Y-98392750D01*
X142625568Y-98392745D01*
X142587718Y-98284576D01*
X142565989Y-98222478D01*
X142470016Y-98069738D01*
X142342462Y-97942184D01*
X142291560Y-97910200D01*
X142189723Y-97846211D01*
X142019454Y-97786631D01*
X142019449Y-97786630D01*
X141840204Y-97766435D01*
X141840196Y-97766435D01*
X141660950Y-97786630D01*
X141660945Y-97786631D01*
X141490676Y-97846211D01*
X141337937Y-97942184D01*
X141210384Y-98069737D01*
X141114411Y-98222476D01*
X141054831Y-98392745D01*
X141054830Y-98392750D01*
X141034635Y-98571996D01*
X141034635Y-98572003D01*
X141054830Y-98751249D01*
X141054831Y-98751254D01*
X141114411Y-98921523D01*
X141210385Y-99074263D01*
X141212645Y-99077097D01*
X141213534Y-99079275D01*
X141214089Y-99080158D01*
X141213934Y-99080255D01*
X141239055Y-99141783D01*
X141239700Y-99154412D01*
X141239700Y-115511003D01*
X141220015Y-115578042D01*
X141203381Y-115598684D01*
X129685584Y-127116481D01*
X129624261Y-127149966D01*
X129597903Y-127152800D01*
X129460943Y-127152800D01*
X129308216Y-127193723D01*
X129308209Y-127193726D01*
X129171290Y-127272775D01*
X129171282Y-127272781D01*
X129059481Y-127384582D01*
X129059475Y-127384590D01*
X128980426Y-127521509D01*
X128980423Y-127521514D01*
X128980423Y-127521516D01*
X128948137Y-127642005D01*
X128911774Y-127701664D01*
X128880770Y-127722291D01*
X128862176Y-127730961D01*
X128862169Y-127730965D01*
X128668597Y-127866505D01*
X128501505Y-128033597D01*
X128371575Y-128219158D01*
X128316998Y-128262783D01*
X128247500Y-128269977D01*
X128185145Y-128238454D01*
X128168425Y-128219158D01*
X128038494Y-128033597D01*
X127891396Y-127886499D01*
X127857911Y-127825176D01*
X127862895Y-127755484D01*
X127891394Y-127711139D01*
X139994413Y-115608121D01*
X139994416Y-115608120D01*
X140106220Y-115496316D01*
X140156339Y-115409504D01*
X140185277Y-115359385D01*
X140226200Y-115206657D01*
X140226200Y-115048543D01*
X140226200Y-98492612D01*
X140245885Y-98425573D01*
X140253255Y-98415297D01*
X140255510Y-98412467D01*
X140255516Y-98412462D01*
X140351489Y-98259722D01*
X140411068Y-98089455D01*
X140414664Y-98057539D01*
X140431265Y-97910203D01*
X140431265Y-97910196D01*
X140411069Y-97730950D01*
X140411068Y-97730945D01*
X140351488Y-97560676D01*
X140312282Y-97498280D01*
X140255516Y-97407938D01*
X140127962Y-97280384D01*
X140127960Y-97280382D01*
X140078800Y-97249493D01*
X140032510Y-97197159D01*
X140021862Y-97128105D01*
X140050237Y-97064257D01*
X140108627Y-97025885D01*
X140144773Y-97020500D01*
X161594108Y-97020500D01*
X161655933Y-97020500D01*
X161664042Y-97020765D01*
X161687442Y-97022298D01*
X161920725Y-97037588D01*
X161936783Y-97039703D01*
X162185077Y-97089092D01*
X162200728Y-97093286D01*
X162440439Y-97174657D01*
X162455422Y-97180862D01*
X162488468Y-97197159D01*
X162682460Y-97292826D01*
X162696508Y-97300936D01*
X162906990Y-97441576D01*
X162919854Y-97451447D01*
X163110175Y-97618355D01*
X163121644Y-97629824D01*
X163288552Y-97820145D01*
X163298426Y-97833013D01*
X163439063Y-98043492D01*
X163447173Y-98057539D01*
X163559136Y-98284576D01*
X163565343Y-98299562D01*
X163646711Y-98539265D01*
X163650909Y-98554931D01*
X163700294Y-98803202D01*
X163702412Y-98819284D01*
X163719235Y-99075956D01*
X163719500Y-99084066D01*
X163719500Y-133955933D01*
X163719235Y-133964043D01*
X163702412Y-134220715D01*
X163700294Y-134236797D01*
X163650909Y-134485068D01*
X163646711Y-134500734D01*
X163565343Y-134740437D01*
X163559136Y-134755423D01*
X163447173Y-134982460D01*
X163439063Y-134996507D01*
X163298426Y-135206986D01*
X163288552Y-135219854D01*
X163121644Y-135410175D01*
X163110175Y-135421644D01*
X162919854Y-135588552D01*
X162906986Y-135598426D01*
X162696507Y-135739063D01*
X162682460Y-135747173D01*
X162455423Y-135859136D01*
X162440437Y-135865343D01*
X162200734Y-135946711D01*
X162185068Y-135950909D01*
X161936797Y-136000294D01*
X161920715Y-136002412D01*
X161664043Y-136019235D01*
X161655933Y-136019500D01*
X111784067Y-136019500D01*
X111775957Y-136019235D01*
X111519284Y-136002412D01*
X111503204Y-136000294D01*
X111383728Y-135976528D01*
X111254931Y-135950909D01*
X111239265Y-135946711D01*
X110999562Y-135865343D01*
X110984576Y-135859136D01*
X110757539Y-135747173D01*
X110743492Y-135739063D01*
X110533013Y-135598426D01*
X110520145Y-135588552D01*
X110329824Y-135421644D01*
X110318355Y-135410175D01*
X110151447Y-135219854D01*
X110141573Y-135206986D01*
X110000936Y-134996507D01*
X109992826Y-134982460D01*
X109880863Y-134755423D01*
X109874656Y-134740437D01*
X109871587Y-134731396D01*
X109793286Y-134500728D01*
X109789092Y-134485077D01*
X109739703Y-134236783D01*
X109737588Y-134220725D01*
X109720765Y-133964042D01*
X109720500Y-133955933D01*
X109720500Y-133019995D01*
X110964592Y-133019995D01*
X110964592Y-133020004D01*
X110984196Y-133281620D01*
X110984197Y-133281625D01*
X111042576Y-133537402D01*
X111042578Y-133537411D01*
X111042580Y-133537416D01*
X111138432Y-133781643D01*
X111269614Y-134008857D01*
X111358562Y-134120394D01*
X111433198Y-134213985D01*
X111614753Y-134382441D01*
X111625521Y-134392433D01*
X111842296Y-134540228D01*
X111842301Y-134540230D01*
X111842302Y-134540231D01*
X111842303Y-134540232D01*
X111967843Y-134600688D01*
X112078673Y-134654061D01*
X112078674Y-134654061D01*
X112078677Y-134654063D01*
X112329385Y-134731396D01*
X112588818Y-134770500D01*
X112851182Y-134770500D01*
X113110615Y-134731396D01*
X113361323Y-134654063D01*
X113597704Y-134540228D01*
X113814479Y-134392433D01*
X113982215Y-134236797D01*
X114006801Y-134213985D01*
X114006801Y-134213983D01*
X114006805Y-134213981D01*
X114170386Y-134008857D01*
X114301568Y-133781643D01*
X114397420Y-133537416D01*
X114455802Y-133281630D01*
X114475408Y-133020000D01*
X114475408Y-133019995D01*
X158964592Y-133019995D01*
X158964592Y-133020004D01*
X158984196Y-133281620D01*
X158984197Y-133281625D01*
X159042576Y-133537402D01*
X159042578Y-133537411D01*
X159042580Y-133537416D01*
X159138432Y-133781643D01*
X159269614Y-134008857D01*
X159358562Y-134120394D01*
X159433198Y-134213985D01*
X159614753Y-134382441D01*
X159625521Y-134392433D01*
X159842296Y-134540228D01*
X159842301Y-134540230D01*
X159842302Y-134540231D01*
X159842303Y-134540232D01*
X159967843Y-134600688D01*
X160078673Y-134654061D01*
X160078674Y-134654061D01*
X160078677Y-134654063D01*
X160329385Y-134731396D01*
X160588818Y-134770500D01*
X160851182Y-134770500D01*
X161110615Y-134731396D01*
X161361323Y-134654063D01*
X161597704Y-134540228D01*
X161814479Y-134392433D01*
X161982215Y-134236797D01*
X162006801Y-134213985D01*
X162006801Y-134213983D01*
X162006805Y-134213981D01*
X162170386Y-134008857D01*
X162301568Y-133781643D01*
X162397420Y-133537416D01*
X162455802Y-133281630D01*
X162475408Y-133020000D01*
X162455802Y-132758370D01*
X162397420Y-132502584D01*
X162301568Y-132258357D01*
X162170386Y-132031143D01*
X162006805Y-131826019D01*
X162006804Y-131826018D01*
X162006801Y-131826014D01*
X161814479Y-131647567D01*
X161597704Y-131499772D01*
X161597700Y-131499770D01*
X161597697Y-131499768D01*
X161597696Y-131499767D01*
X161361325Y-131385938D01*
X161361327Y-131385938D01*
X161110623Y-131308606D01*
X161110619Y-131308605D01*
X161110615Y-131308604D01*
X160985823Y-131289794D01*
X160851187Y-131269500D01*
X160851182Y-131269500D01*
X160588818Y-131269500D01*
X160588812Y-131269500D01*
X160427247Y-131293853D01*
X160329385Y-131308604D01*
X160329382Y-131308605D01*
X160329376Y-131308606D01*
X160078673Y-131385938D01*
X159842303Y-131499767D01*
X159842302Y-131499768D01*
X159625520Y-131647567D01*
X159433198Y-131826014D01*
X159269614Y-132031143D01*
X159138432Y-132258356D01*
X159042582Y-132502578D01*
X159042576Y-132502597D01*
X158984197Y-132758374D01*
X158984196Y-132758379D01*
X158964592Y-133019995D01*
X114475408Y-133019995D01*
X114455802Y-132758370D01*
X114397420Y-132502584D01*
X114301568Y-132258357D01*
X114170386Y-132031143D01*
X114006805Y-131826019D01*
X114006804Y-131826018D01*
X114006801Y-131826014D01*
X113814479Y-131647567D01*
X113597704Y-131499772D01*
X113597700Y-131499770D01*
X113597697Y-131499768D01*
X113597696Y-131499767D01*
X113361325Y-131385938D01*
X113361327Y-131385938D01*
X113110623Y-131308606D01*
X113110619Y-131308605D01*
X113110615Y-131308604D01*
X112985823Y-131289794D01*
X112851187Y-131269500D01*
X112851182Y-131269500D01*
X112588818Y-131269500D01*
X112588812Y-131269500D01*
X112427247Y-131293853D01*
X112329385Y-131308604D01*
X112329382Y-131308605D01*
X112329376Y-131308606D01*
X112078673Y-131385938D01*
X111842303Y-131499767D01*
X111842302Y-131499768D01*
X111625520Y-131647567D01*
X111433198Y-131826014D01*
X111269614Y-132031143D01*
X111138432Y-132258356D01*
X111042582Y-132502578D01*
X111042576Y-132502597D01*
X110984197Y-132758374D01*
X110984196Y-132758379D01*
X110964592Y-133019995D01*
X109720500Y-133019995D01*
X109720500Y-100019995D01*
X110964592Y-100019995D01*
X110964592Y-100020004D01*
X110984196Y-100281620D01*
X110984197Y-100281625D01*
X111042576Y-100537402D01*
X111042578Y-100537411D01*
X111042580Y-100537416D01*
X111138432Y-100781643D01*
X111269614Y-101008857D01*
X111322938Y-101075723D01*
X111433198Y-101213985D01*
X111521572Y-101295983D01*
X111625521Y-101392433D01*
X111842296Y-101540228D01*
X111842301Y-101540230D01*
X111842302Y-101540231D01*
X111842303Y-101540232D01*
X111967843Y-101600688D01*
X112078673Y-101654061D01*
X112078674Y-101654061D01*
X112078677Y-101654063D01*
X112329385Y-101731396D01*
X112588818Y-101770500D01*
X112851182Y-101770500D01*
X113110615Y-101731396D01*
X113361323Y-101654063D01*
X113597704Y-101540228D01*
X113814479Y-101392433D01*
X113984844Y-101234358D01*
X114006801Y-101213985D01*
X114006801Y-101213983D01*
X114006805Y-101213981D01*
X114170386Y-101008857D01*
X114301568Y-100781643D01*
X114397420Y-100537416D01*
X114455802Y-100281630D01*
X114455803Y-100281620D01*
X114475408Y-100020004D01*
X114475408Y-100019995D01*
X114455803Y-99758379D01*
X114455802Y-99758374D01*
X114455802Y-99758370D01*
X114397420Y-99502584D01*
X114301568Y-99258357D01*
X114170386Y-99031143D01*
X114006805Y-98826019D01*
X114006804Y-98826018D01*
X114006801Y-98826014D01*
X113814479Y-98647567D01*
X113597704Y-98499772D01*
X113597700Y-98499770D01*
X113597697Y-98499768D01*
X113597696Y-98499767D01*
X113361325Y-98385938D01*
X113361327Y-98385938D01*
X113110623Y-98308606D01*
X113110619Y-98308605D01*
X113110615Y-98308604D01*
X112985823Y-98289794D01*
X112851187Y-98269500D01*
X112851182Y-98269500D01*
X112588818Y-98269500D01*
X112588812Y-98269500D01*
X112440452Y-98291863D01*
X112329385Y-98308604D01*
X112329382Y-98308605D01*
X112329376Y-98308606D01*
X112078673Y-98385938D01*
X111842303Y-98499767D01*
X111842302Y-98499768D01*
X111625520Y-98647567D01*
X111433198Y-98826014D01*
X111269614Y-99031143D01*
X111138432Y-99258356D01*
X111042582Y-99502578D01*
X111042576Y-99502597D01*
X110984197Y-99758374D01*
X110984196Y-99758379D01*
X110964592Y-100019995D01*
X109720500Y-100019995D01*
X109720500Y-99084066D01*
X109720765Y-99075957D01*
X109724819Y-99014108D01*
X109737588Y-98819272D01*
X109739702Y-98803218D01*
X109789093Y-98554918D01*
X109793285Y-98539275D01*
X109874659Y-98299554D01*
X109880860Y-98284583D01*
X109992829Y-98057533D01*
X110000932Y-98043498D01*
X110141581Y-97833001D01*
X110151438Y-97820156D01*
X110318360Y-97629818D01*
X110329818Y-97618360D01*
X110520156Y-97451438D01*
X110533001Y-97441581D01*
X110743498Y-97300932D01*
X110757533Y-97292829D01*
X110984583Y-97180860D01*
X110999554Y-97174659D01*
X111239275Y-97093285D01*
X111254918Y-97089093D01*
X111503218Y-97039702D01*
X111519272Y-97037588D01*
X111754217Y-97022189D01*
X111775958Y-97020765D01*
X111784067Y-97020500D01*
X111845892Y-97020500D01*
X139106627Y-97020500D01*
X139173666Y-97040185D01*
G37*
%TD.AperFunction*%
%TA.AperFunction,Conductor*%
G36*
X138944534Y-114220514D02*
G01*
X139000467Y-114262386D01*
X139024884Y-114327850D01*
X139025200Y-114336696D01*
X139025200Y-114827502D01*
X139005515Y-114894541D01*
X138988881Y-114915183D01*
X126519481Y-127384582D01*
X126519479Y-127384585D01*
X126469361Y-127471394D01*
X126469359Y-127471396D01*
X126440425Y-127521509D01*
X126440422Y-127521516D01*
X126408136Y-127642005D01*
X126371771Y-127701665D01*
X126340772Y-127722290D01*
X126322170Y-127730964D01*
X126322169Y-127730965D01*
X126128597Y-127866505D01*
X125961505Y-128033597D01*
X125831575Y-128219158D01*
X125776998Y-128262783D01*
X125707500Y-128269977D01*
X125645145Y-128238454D01*
X125628425Y-128219158D01*
X125498494Y-128033597D01*
X125351396Y-127886499D01*
X125317911Y-127825176D01*
X125322895Y-127755484D01*
X125351394Y-127711139D01*
X138813521Y-114249013D01*
X138874842Y-114215530D01*
X138944534Y-114220514D01*
G37*
%TD.AperFunction*%
%TA.AperFunction,Conductor*%
G36*
X148298834Y-102359115D02*
G01*
X148354767Y-102400987D01*
X148379184Y-102466451D01*
X148379500Y-102475297D01*
X148379500Y-120713202D01*
X148359815Y-120780241D01*
X148343181Y-120800883D01*
X141759481Y-127384582D01*
X141759479Y-127384585D01*
X141709361Y-127471394D01*
X141709359Y-127471396D01*
X141680425Y-127521509D01*
X141680422Y-127521516D01*
X141648136Y-127642005D01*
X141611771Y-127701665D01*
X141580772Y-127722290D01*
X141562170Y-127730964D01*
X141562169Y-127730965D01*
X141368597Y-127866505D01*
X141201505Y-128033597D01*
X141071575Y-128219158D01*
X141016998Y-128262783D01*
X140947500Y-128269977D01*
X140885145Y-128238454D01*
X140868425Y-128219158D01*
X140738494Y-128033597D01*
X140571402Y-127866506D01*
X140571395Y-127866501D01*
X140377834Y-127730967D01*
X140377830Y-127730965D01*
X140335309Y-127711137D01*
X140163663Y-127631097D01*
X140163659Y-127631096D01*
X140163655Y-127631094D01*
X139935413Y-127569938D01*
X139935403Y-127569936D01*
X139700001Y-127549341D01*
X139699999Y-127549341D01*
X139464596Y-127569936D01*
X139464586Y-127569938D01*
X139236344Y-127631094D01*
X139236335Y-127631098D01*
X139022171Y-127730964D01*
X139022169Y-127730965D01*
X138828597Y-127866505D01*
X138661505Y-128033597D01*
X138531575Y-128219158D01*
X138476998Y-128262783D01*
X138407500Y-128269977D01*
X138345145Y-128238454D01*
X138328425Y-128219158D01*
X138198494Y-128033597D01*
X138031402Y-127866506D01*
X138031395Y-127866501D01*
X137837834Y-127730967D01*
X137837830Y-127730965D01*
X137795309Y-127711137D01*
X137623663Y-127631097D01*
X137623659Y-127631096D01*
X137623655Y-127631094D01*
X137395413Y-127569938D01*
X137395403Y-127569936D01*
X137160001Y-127549341D01*
X137159999Y-127549341D01*
X136924596Y-127569936D01*
X136924586Y-127569938D01*
X136696344Y-127631094D01*
X136696335Y-127631098D01*
X136482171Y-127730964D01*
X136482169Y-127730965D01*
X136288597Y-127866505D01*
X136121505Y-128033597D01*
X135991575Y-128219158D01*
X135936998Y-128262783D01*
X135867500Y-128269977D01*
X135805145Y-128238454D01*
X135788425Y-128219158D01*
X135658494Y-128033597D01*
X135491402Y-127866506D01*
X135491395Y-127866501D01*
X135297834Y-127730967D01*
X135297830Y-127730965D01*
X135255309Y-127711137D01*
X135083663Y-127631097D01*
X135083659Y-127631096D01*
X135083655Y-127631094D01*
X134855413Y-127569938D01*
X134855403Y-127569936D01*
X134620001Y-127549341D01*
X134619999Y-127549341D01*
X134384596Y-127569936D01*
X134384586Y-127569938D01*
X134156344Y-127631094D01*
X134156335Y-127631098D01*
X133942171Y-127730964D01*
X133942169Y-127730965D01*
X133748597Y-127866505D01*
X133581505Y-128033597D01*
X133451575Y-128219158D01*
X133396998Y-128262783D01*
X133327500Y-128269977D01*
X133265145Y-128238454D01*
X133248425Y-128219159D01*
X133181361Y-128123382D01*
X133132227Y-128053211D01*
X133109902Y-127987009D01*
X133126912Y-127919241D01*
X133146119Y-127894414D01*
X147483806Y-113556728D01*
X147483811Y-113556724D01*
X147494014Y-113546520D01*
X147494016Y-113546520D01*
X147605820Y-113434716D01*
X147677234Y-113311023D01*
X147684877Y-113297785D01*
X147725801Y-113145057D01*
X147725801Y-112986943D01*
X147725801Y-112979348D01*
X147725800Y-112979330D01*
X147725800Y-102880997D01*
X147745485Y-102813958D01*
X147762119Y-102793316D01*
X148167819Y-102387616D01*
X148229142Y-102354131D01*
X148298834Y-102359115D01*
G37*
%TD.AperFunction*%
%TD*%
M02*
