%TF.GenerationSoftware,KiCad,Pcbnew,8.0.8*%
%TF.CreationDate,2025-02-18T11:34:38+02:00*%
%TF.ProjectId,E900M30S shield,45393030-4d33-4305-9320-736869656c64,rev?*%
%TF.SameCoordinates,Original*%
%TF.FileFunction,Copper,L2,Bot*%
%TF.FilePolarity,Positive*%
%FSLAX46Y46*%
G04 Gerber Fmt 4.6, Leading zero omitted, Abs format (unit mm)*
G04 Created by KiCad (PCBNEW 8.0.8) date 2025-02-18 11:34:38*
%MOMM*%
%LPD*%
G01*
G04 APERTURE LIST*
%TA.AperFunction,ComponentPad*%
%ADD10R,1.700000X1.700000*%
%TD*%
%TA.AperFunction,ComponentPad*%
%ADD11O,1.700000X1.700000*%
%TD*%
%TA.AperFunction,ViaPad*%
%ADD12C,0.600000*%
%TD*%
%TA.AperFunction,Conductor*%
%ADD13C,0.200000*%
%TD*%
G04 APERTURE END LIST*
D10*
%TO.P,J1,1*%
%TO.N,NSS*%
X119380000Y-128905000D03*
D11*
%TO.P,J1,2*%
%TO.N,SCK*%
X121920000Y-128905000D03*
%TO.P,J1,3*%
%TO.N,MOSI*%
X124460000Y-128905000D03*
%TO.P,J1,4*%
%TO.N,MISO*%
X127000000Y-128905000D03*
%TO.P,J1,5*%
%TO.N,RST*%
X129540000Y-128905000D03*
%TO.P,J1,6*%
%TO.N,BUSY*%
X132080000Y-128905000D03*
%TO.P,J1,7*%
%TO.N,RXEN*%
X134620000Y-128905000D03*
%TO.P,J1,8*%
%TO.N,TXEN*%
X137160000Y-128905000D03*
%TO.P,J1,9*%
%TO.N,DIO2*%
X139700000Y-128905000D03*
%TO.P,J1,10*%
%TO.N,DIO1*%
X142240000Y-128905000D03*
%TD*%
D10*
%TO.P,J2,1*%
%TO.N,+5V*%
X158750000Y-124460000D03*
D11*
%TO.P,J2,2*%
%TO.N,GND*%
X158750000Y-121920000D03*
%TD*%
D12*
%TO.N,GND*%
X145415000Y-127000000D03*
%TO.N,RST*%
X157933800Y-129571000D03*
X157057500Y-97910200D03*
%TO.N,SCK*%
X115683700Y-101243400D03*
%TO.N,BUSY*%
X155257700Y-129595200D03*
X156366700Y-98572000D03*
%TO.N,NSS*%
X116311900Y-103597700D03*
%TO.N,DIO1*%
X156081200Y-100726200D03*
X151130100Y-129115400D03*
%TO.N,GND*%
X152790000Y-103174000D03*
X122330000Y-103174000D03*
X127410000Y-103174000D03*
X135010000Y-121782000D03*
X127429000Y-121782000D03*
X124917000Y-121782000D03*
X137550000Y-121782000D03*
X122357000Y-121782000D03*
%TD*%
D13*
%TO.N,RST*%
X157528900Y-98381600D02*
X157057500Y-97910200D01*
X157528900Y-129166100D02*
X157528900Y-98381600D01*
X157933800Y-129571000D02*
X157528900Y-129166100D01*
%TO.N,SCK*%
X121920000Y-128905000D02*
X120768300Y-128905000D01*
X115683700Y-127392500D02*
X115683700Y-101243400D01*
X118347900Y-130056700D02*
X115683700Y-127392500D01*
X120431100Y-130056700D02*
X118347900Y-130056700D01*
X120768300Y-129719500D02*
X120431100Y-130056700D01*
X120768300Y-128905000D02*
X120768300Y-129719500D01*
%TO.N,BUSY*%
X156682900Y-98888200D02*
X156366700Y-98572000D01*
X156682900Y-128170000D02*
X156682900Y-98888200D01*
X155257700Y-129595200D02*
X156682900Y-128170000D01*
%TO.N,NSS*%
X116311900Y-124685200D02*
X119380000Y-127753300D01*
X116311900Y-103597700D02*
X116311900Y-124685200D01*
X119380000Y-128905000D02*
X119380000Y-127753300D01*
%TO.N,DIO1*%
X156081200Y-124164300D02*
X151130100Y-129115400D01*
X156081200Y-100726200D02*
X156081200Y-124164300D01*
%TD*%
%TA.AperFunction,Conductor*%
%TO.N,GND*%
G36*
X156605466Y-97040185D02*
G01*
X156651221Y-97092989D01*
X156661165Y-97162147D01*
X156632140Y-97225703D01*
X156604400Y-97249493D01*
X156555239Y-97280382D01*
X156427684Y-97407937D01*
X156331710Y-97560678D01*
X156280941Y-97705770D01*
X156240219Y-97762547D01*
X156191510Y-97785703D01*
X156187454Y-97786629D01*
X156017178Y-97846210D01*
X155864437Y-97942184D01*
X155736884Y-98069737D01*
X155640911Y-98222476D01*
X155581331Y-98392745D01*
X155581330Y-98392750D01*
X155561135Y-98571996D01*
X155561135Y-98572003D01*
X155581330Y-98751249D01*
X155581331Y-98751254D01*
X155640911Y-98921523D01*
X155736884Y-99074262D01*
X155864438Y-99201816D01*
X155953020Y-99257476D01*
X156023074Y-99301494D01*
X156021584Y-99303865D01*
X156064058Y-99342210D01*
X156082400Y-99407113D01*
X156082400Y-99809686D01*
X156062715Y-99876725D01*
X156009911Y-99922480D01*
X155972284Y-99932906D01*
X155901949Y-99940830D01*
X155901945Y-99940831D01*
X155731676Y-100000411D01*
X155578937Y-100096384D01*
X155451384Y-100223937D01*
X155355411Y-100376676D01*
X155295831Y-100546945D01*
X155295830Y-100546950D01*
X155275635Y-100726196D01*
X155275635Y-100726203D01*
X155295830Y-100905449D01*
X155295831Y-100905454D01*
X155355411Y-101075723D01*
X155415715Y-101171696D01*
X155442287Y-101213985D01*
X155451385Y-101228463D01*
X155453645Y-101231297D01*
X155454534Y-101233475D01*
X155455089Y-101234358D01*
X155454934Y-101234455D01*
X155480055Y-101295983D01*
X155480700Y-101308612D01*
X155480700Y-123864202D01*
X155461015Y-123931241D01*
X155444381Y-123951883D01*
X151111565Y-128284698D01*
X151050242Y-128318183D01*
X151037768Y-128320237D01*
X150950850Y-128330030D01*
X150780578Y-128389610D01*
X150627837Y-128485584D01*
X150500284Y-128613137D01*
X150404311Y-128765876D01*
X150344731Y-128936145D01*
X150344730Y-128936150D01*
X150324535Y-129115396D01*
X150324535Y-129115403D01*
X150344730Y-129294649D01*
X150344731Y-129294654D01*
X150404311Y-129464923D01*
X150478400Y-129582834D01*
X150500284Y-129617662D01*
X150627838Y-129745216D01*
X150780578Y-129841189D01*
X150950845Y-129900768D01*
X150950850Y-129900769D01*
X151130096Y-129920965D01*
X151130100Y-129920965D01*
X151130104Y-129920965D01*
X151309349Y-129900769D01*
X151309352Y-129900768D01*
X151309355Y-129900768D01*
X151479622Y-129841189D01*
X151632362Y-129745216D01*
X151759916Y-129617662D01*
X151855889Y-129464922D01*
X151915468Y-129294655D01*
X151925261Y-129207729D01*
X151952326Y-129143318D01*
X151960790Y-129133943D01*
X155870721Y-125224013D01*
X155932042Y-125190530D01*
X156001734Y-125195514D01*
X156057667Y-125237386D01*
X156082084Y-125302850D01*
X156082400Y-125311696D01*
X156082400Y-127869902D01*
X156062715Y-127936941D01*
X156046081Y-127957583D01*
X155239165Y-128764498D01*
X155177842Y-128797983D01*
X155165368Y-128800037D01*
X155078450Y-128809830D01*
X154908178Y-128869410D01*
X154755437Y-128965384D01*
X154627884Y-129092937D01*
X154531911Y-129245676D01*
X154472331Y-129415945D01*
X154472330Y-129415950D01*
X154452135Y-129595196D01*
X154452135Y-129595203D01*
X154472330Y-129774449D01*
X154472331Y-129774454D01*
X154531911Y-129944723D01*
X154619064Y-130083425D01*
X154627884Y-130097462D01*
X154755438Y-130225016D01*
X154908178Y-130320989D01*
X155067005Y-130376565D01*
X155078445Y-130380568D01*
X155078450Y-130380569D01*
X155257696Y-130400765D01*
X155257700Y-130400765D01*
X155257704Y-130400765D01*
X155436949Y-130380569D01*
X155436952Y-130380568D01*
X155436955Y-130380568D01*
X155607222Y-130320989D01*
X155759962Y-130225016D01*
X155887516Y-130097462D01*
X155983489Y-129944722D01*
X156043068Y-129774455D01*
X156052861Y-129687529D01*
X156079926Y-129623118D01*
X156088390Y-129613743D01*
X156716720Y-128985414D01*
X156778042Y-128951930D01*
X156847734Y-128956914D01*
X156903667Y-128998786D01*
X156928084Y-129064250D01*
X156928400Y-129073096D01*
X156928400Y-129079430D01*
X156928399Y-129079448D01*
X156928399Y-129245154D01*
X156928398Y-129245154D01*
X156940556Y-129290527D01*
X156967679Y-129391750D01*
X156969324Y-129397887D01*
X156979749Y-129415943D01*
X156979750Y-129415945D01*
X157048377Y-129534812D01*
X157048381Y-129534817D01*
X157103098Y-129589534D01*
X157136583Y-129650857D01*
X157138637Y-129663331D01*
X157148430Y-129750249D01*
X157208010Y-129920521D01*
X157303984Y-130073262D01*
X157431538Y-130200816D01*
X157584278Y-130296789D01*
X157653435Y-130320988D01*
X157754545Y-130356368D01*
X157754550Y-130356369D01*
X157933796Y-130376565D01*
X157933800Y-130376565D01*
X157933804Y-130376565D01*
X158113049Y-130356369D01*
X158113052Y-130356368D01*
X158113055Y-130356368D01*
X158283322Y-130296789D01*
X158436062Y-130200816D01*
X158563616Y-130073262D01*
X158659589Y-129920522D01*
X158719168Y-129750255D01*
X158728962Y-129663331D01*
X158739365Y-129571003D01*
X158739365Y-129570996D01*
X158719169Y-129391750D01*
X158719168Y-129391745D01*
X158685194Y-129294654D01*
X158659589Y-129221478D01*
X158650952Y-129207733D01*
X158604581Y-129133933D01*
X158563616Y-129068738D01*
X158436062Y-128941184D01*
X158428050Y-128936150D01*
X158283324Y-128845212D01*
X158283323Y-128845211D01*
X158212444Y-128820409D01*
X158155668Y-128779687D01*
X158129922Y-128714734D01*
X158129400Y-128703368D01*
X158129400Y-125934499D01*
X158149085Y-125867460D01*
X158201889Y-125821705D01*
X158253400Y-125810499D01*
X159647871Y-125810499D01*
X159647872Y-125810499D01*
X159707483Y-125804091D01*
X159842331Y-125753796D01*
X159957546Y-125667546D01*
X160043796Y-125552331D01*
X160094091Y-125417483D01*
X160100500Y-125357873D01*
X160100499Y-123562128D01*
X160094091Y-123502517D01*
X160043796Y-123367669D01*
X160043795Y-123367668D01*
X160043793Y-123367664D01*
X159957547Y-123252455D01*
X159957544Y-123252452D01*
X159842335Y-123166206D01*
X159842328Y-123166202D01*
X159710401Y-123116997D01*
X159654467Y-123075126D01*
X159630050Y-123009662D01*
X159644902Y-122941389D01*
X159666053Y-122913133D01*
X159788108Y-122791078D01*
X159923600Y-122597578D01*
X160023429Y-122383492D01*
X160023432Y-122383486D01*
X160080636Y-122170000D01*
X159183012Y-122170000D01*
X159215925Y-122112993D01*
X159250000Y-121985826D01*
X159250000Y-121854174D01*
X159215925Y-121727007D01*
X159183012Y-121670000D01*
X160080636Y-121670000D01*
X160080635Y-121669999D01*
X160023432Y-121456513D01*
X160023429Y-121456507D01*
X159923600Y-121242422D01*
X159923599Y-121242420D01*
X159788113Y-121048926D01*
X159788108Y-121048920D01*
X159621082Y-120881894D01*
X159427578Y-120746399D01*
X159213492Y-120646570D01*
X159213486Y-120646567D01*
X159000000Y-120589364D01*
X159000000Y-121486988D01*
X158942993Y-121454075D01*
X158815826Y-121420000D01*
X158684174Y-121420000D01*
X158557007Y-121454075D01*
X158500000Y-121486988D01*
X158500000Y-120589364D01*
X158499999Y-120589363D01*
X158285493Y-120646840D01*
X158215643Y-120645177D01*
X158157781Y-120606014D01*
X158130277Y-120541786D01*
X158129400Y-120527065D01*
X158129400Y-100019995D01*
X158964592Y-100019995D01*
X158964592Y-100020004D01*
X158984196Y-100281620D01*
X158984197Y-100281625D01*
X159042576Y-100537402D01*
X159042578Y-100537411D01*
X159042580Y-100537416D01*
X159138432Y-100781643D01*
X159269614Y-101008857D01*
X159322938Y-101075723D01*
X159433198Y-101213985D01*
X159521572Y-101295983D01*
X159625521Y-101392433D01*
X159842296Y-101540228D01*
X159842301Y-101540230D01*
X159842302Y-101540231D01*
X159842303Y-101540232D01*
X159951716Y-101592922D01*
X160078673Y-101654061D01*
X160078674Y-101654061D01*
X160078677Y-101654063D01*
X160329385Y-101731396D01*
X160588818Y-101770500D01*
X160851182Y-101770500D01*
X161110615Y-101731396D01*
X161361323Y-101654063D01*
X161597704Y-101540228D01*
X161814479Y-101392433D01*
X161984844Y-101234358D01*
X162006801Y-101213985D01*
X162006801Y-101213983D01*
X162006805Y-101213981D01*
X162170386Y-101008857D01*
X162301568Y-100781643D01*
X162397420Y-100537416D01*
X162455802Y-100281630D01*
X162455803Y-100281620D01*
X162475408Y-100020004D01*
X162475408Y-100019995D01*
X162455803Y-99758379D01*
X162455802Y-99758374D01*
X162455802Y-99758370D01*
X162397420Y-99502584D01*
X162301568Y-99258357D01*
X162170386Y-99031143D01*
X162006805Y-98826019D01*
X162006804Y-98826018D01*
X162006801Y-98826014D01*
X161814479Y-98647567D01*
X161597704Y-98499772D01*
X161597700Y-98499770D01*
X161597697Y-98499768D01*
X161597696Y-98499767D01*
X161361325Y-98385938D01*
X161361327Y-98385938D01*
X161110623Y-98308606D01*
X161110619Y-98308605D01*
X161110615Y-98308604D01*
X160985823Y-98289794D01*
X160851187Y-98269500D01*
X160851182Y-98269500D01*
X160588818Y-98269500D01*
X160588812Y-98269500D01*
X160427247Y-98293853D01*
X160329385Y-98308604D01*
X160329382Y-98308605D01*
X160329376Y-98308606D01*
X160078673Y-98385938D01*
X159842303Y-98499767D01*
X159842302Y-98499768D01*
X159625520Y-98647567D01*
X159433198Y-98826014D01*
X159269614Y-99031143D01*
X159138432Y-99258356D01*
X159042582Y-99502578D01*
X159042576Y-99502597D01*
X158984197Y-99758374D01*
X158984196Y-99758379D01*
X158964592Y-100019995D01*
X158129400Y-100019995D01*
X158129400Y-98302541D01*
X158126540Y-98291866D01*
X158126540Y-98291867D01*
X158126539Y-98291863D01*
X158088477Y-98149815D01*
X158059539Y-98099695D01*
X158009420Y-98012884D01*
X157897616Y-97901080D01*
X157897615Y-97901079D01*
X157893285Y-97896749D01*
X157893274Y-97896739D01*
X157888200Y-97891665D01*
X157854715Y-97830342D01*
X157852663Y-97817886D01*
X157842868Y-97730945D01*
X157783289Y-97560678D01*
X157687316Y-97407938D01*
X157559762Y-97280384D01*
X157559760Y-97280382D01*
X157510600Y-97249493D01*
X157464310Y-97197159D01*
X157453662Y-97128105D01*
X157482037Y-97064257D01*
X157540427Y-97025885D01*
X157576573Y-97020500D01*
X161594108Y-97020500D01*
X161655933Y-97020500D01*
X161664042Y-97020765D01*
X161687442Y-97022298D01*
X161920725Y-97037588D01*
X161936783Y-97039703D01*
X162185077Y-97089092D01*
X162200728Y-97093286D01*
X162440439Y-97174657D01*
X162455422Y-97180862D01*
X162488468Y-97197159D01*
X162682460Y-97292826D01*
X162696508Y-97300936D01*
X162906990Y-97441576D01*
X162919854Y-97451447D01*
X163110175Y-97618355D01*
X163121644Y-97629824D01*
X163288552Y-97820145D01*
X163298426Y-97833013D01*
X163439063Y-98043492D01*
X163447173Y-98057539D01*
X163559136Y-98284576D01*
X163565343Y-98299562D01*
X163646711Y-98539265D01*
X163650909Y-98554931D01*
X163700294Y-98803202D01*
X163702412Y-98819284D01*
X163719235Y-99075956D01*
X163719500Y-99084066D01*
X163719500Y-133955933D01*
X163719235Y-133964043D01*
X163702412Y-134220715D01*
X163700294Y-134236797D01*
X163650909Y-134485068D01*
X163646711Y-134500734D01*
X163565343Y-134740437D01*
X163559136Y-134755423D01*
X163447173Y-134982460D01*
X163439063Y-134996507D01*
X163298426Y-135206986D01*
X163288552Y-135219854D01*
X163121644Y-135410175D01*
X163110175Y-135421644D01*
X162919854Y-135588552D01*
X162906986Y-135598426D01*
X162696507Y-135739063D01*
X162682460Y-135747173D01*
X162455423Y-135859136D01*
X162440437Y-135865343D01*
X162200734Y-135946711D01*
X162185068Y-135950909D01*
X161936797Y-136000294D01*
X161920715Y-136002412D01*
X161664043Y-136019235D01*
X161655933Y-136019500D01*
X111784067Y-136019500D01*
X111775957Y-136019235D01*
X111519284Y-136002412D01*
X111503204Y-136000294D01*
X111383728Y-135976528D01*
X111254931Y-135950909D01*
X111239265Y-135946711D01*
X110999562Y-135865343D01*
X110984576Y-135859136D01*
X110757539Y-135747173D01*
X110743492Y-135739063D01*
X110533013Y-135598426D01*
X110520145Y-135588552D01*
X110329824Y-135421644D01*
X110318355Y-135410175D01*
X110151447Y-135219854D01*
X110141573Y-135206986D01*
X110000936Y-134996507D01*
X109992826Y-134982460D01*
X109880863Y-134755423D01*
X109874656Y-134740437D01*
X109871587Y-134731396D01*
X109793286Y-134500728D01*
X109789092Y-134485077D01*
X109739703Y-134236783D01*
X109737588Y-134220725D01*
X109720765Y-133964042D01*
X109720500Y-133955933D01*
X109720500Y-133019995D01*
X110964592Y-133019995D01*
X110964592Y-133020004D01*
X110984196Y-133281620D01*
X110984197Y-133281625D01*
X111042576Y-133537402D01*
X111042578Y-133537411D01*
X111042580Y-133537416D01*
X111138432Y-133781643D01*
X111269614Y-134008857D01*
X111358562Y-134120394D01*
X111433198Y-134213985D01*
X111614753Y-134382441D01*
X111625521Y-134392433D01*
X111842296Y-134540228D01*
X111842301Y-134540230D01*
X111842302Y-134540231D01*
X111842303Y-134540232D01*
X111967843Y-134600688D01*
X112078673Y-134654061D01*
X112078674Y-134654061D01*
X112078677Y-134654063D01*
X112329385Y-134731396D01*
X112588818Y-134770500D01*
X112851182Y-134770500D01*
X113110615Y-134731396D01*
X113361323Y-134654063D01*
X113597704Y-134540228D01*
X113814479Y-134392433D01*
X113982215Y-134236797D01*
X114006801Y-134213985D01*
X114006801Y-134213983D01*
X114006805Y-134213981D01*
X114170386Y-134008857D01*
X114301568Y-133781643D01*
X114397420Y-133537416D01*
X114455802Y-133281630D01*
X114475408Y-133020000D01*
X114475408Y-133019995D01*
X158964592Y-133019995D01*
X158964592Y-133020004D01*
X158984196Y-133281620D01*
X158984197Y-133281625D01*
X159042576Y-133537402D01*
X159042578Y-133537411D01*
X159042580Y-133537416D01*
X159138432Y-133781643D01*
X159269614Y-134008857D01*
X159358562Y-134120394D01*
X159433198Y-134213985D01*
X159614753Y-134382441D01*
X159625521Y-134392433D01*
X159842296Y-134540228D01*
X159842301Y-134540230D01*
X159842302Y-134540231D01*
X159842303Y-134540232D01*
X159967843Y-134600688D01*
X160078673Y-134654061D01*
X160078674Y-134654061D01*
X160078677Y-134654063D01*
X160329385Y-134731396D01*
X160588818Y-134770500D01*
X160851182Y-134770500D01*
X161110615Y-134731396D01*
X161361323Y-134654063D01*
X161597704Y-134540228D01*
X161814479Y-134392433D01*
X161982215Y-134236797D01*
X162006801Y-134213985D01*
X162006801Y-134213983D01*
X162006805Y-134213981D01*
X162170386Y-134008857D01*
X162301568Y-133781643D01*
X162397420Y-133537416D01*
X162455802Y-133281630D01*
X162475408Y-133020000D01*
X162455802Y-132758370D01*
X162397420Y-132502584D01*
X162301568Y-132258357D01*
X162170386Y-132031143D01*
X162006805Y-131826019D01*
X162006804Y-131826018D01*
X162006801Y-131826014D01*
X161814479Y-131647567D01*
X161597704Y-131499772D01*
X161597700Y-131499770D01*
X161597697Y-131499768D01*
X161597696Y-131499767D01*
X161361325Y-131385938D01*
X161361327Y-131385938D01*
X161110623Y-131308606D01*
X161110619Y-131308605D01*
X161110615Y-131308604D01*
X160985823Y-131289794D01*
X160851187Y-131269500D01*
X160851182Y-131269500D01*
X160588818Y-131269500D01*
X160588812Y-131269500D01*
X160427247Y-131293853D01*
X160329385Y-131308604D01*
X160329382Y-131308605D01*
X160329376Y-131308606D01*
X160078673Y-131385938D01*
X159842303Y-131499767D01*
X159842302Y-131499768D01*
X159625520Y-131647567D01*
X159433198Y-131826014D01*
X159269614Y-132031143D01*
X159138432Y-132258356D01*
X159042582Y-132502578D01*
X159042576Y-132502597D01*
X158984197Y-132758374D01*
X158984196Y-132758379D01*
X158964592Y-133019995D01*
X114475408Y-133019995D01*
X114455802Y-132758370D01*
X114397420Y-132502584D01*
X114301568Y-132258357D01*
X114170386Y-132031143D01*
X114006805Y-131826019D01*
X114006804Y-131826018D01*
X114006801Y-131826014D01*
X113814479Y-131647567D01*
X113597704Y-131499772D01*
X113597700Y-131499770D01*
X113597697Y-131499768D01*
X113597696Y-131499767D01*
X113361325Y-131385938D01*
X113361327Y-131385938D01*
X113110623Y-131308606D01*
X113110619Y-131308605D01*
X113110615Y-131308604D01*
X112985823Y-131289794D01*
X112851187Y-131269500D01*
X112851182Y-131269500D01*
X112588818Y-131269500D01*
X112588812Y-131269500D01*
X112427247Y-131293853D01*
X112329385Y-131308604D01*
X112329382Y-131308605D01*
X112329376Y-131308606D01*
X112078673Y-131385938D01*
X111842303Y-131499767D01*
X111842302Y-131499768D01*
X111625520Y-131647567D01*
X111433198Y-131826014D01*
X111269614Y-132031143D01*
X111138432Y-132258356D01*
X111042582Y-132502578D01*
X111042576Y-132502597D01*
X110984197Y-132758374D01*
X110984196Y-132758379D01*
X110964592Y-133019995D01*
X109720500Y-133019995D01*
X109720500Y-100019995D01*
X110964592Y-100019995D01*
X110964592Y-100020004D01*
X110984196Y-100281620D01*
X110984197Y-100281625D01*
X111042576Y-100537402D01*
X111042578Y-100537411D01*
X111042580Y-100537416D01*
X111138432Y-100781643D01*
X111269614Y-101008857D01*
X111322938Y-101075723D01*
X111433198Y-101213985D01*
X111521572Y-101295983D01*
X111625521Y-101392433D01*
X111842296Y-101540228D01*
X111842301Y-101540230D01*
X111842302Y-101540231D01*
X111842303Y-101540232D01*
X111951716Y-101592922D01*
X112078673Y-101654061D01*
X112078674Y-101654061D01*
X112078677Y-101654063D01*
X112329385Y-101731396D01*
X112588818Y-101770500D01*
X112851182Y-101770500D01*
X113110615Y-101731396D01*
X113361323Y-101654063D01*
X113597704Y-101540228D01*
X113814479Y-101392433D01*
X113975103Y-101243396D01*
X114878135Y-101243396D01*
X114878135Y-101243403D01*
X114898330Y-101422649D01*
X114898331Y-101422654D01*
X114957911Y-101592923D01*
X115053885Y-101745663D01*
X115056145Y-101748497D01*
X115057034Y-101750675D01*
X115057589Y-101751558D01*
X115057434Y-101751655D01*
X115082555Y-101813183D01*
X115083200Y-101825812D01*
X115083200Y-127305830D01*
X115083199Y-127305848D01*
X115083199Y-127471554D01*
X115083198Y-127471554D01*
X115083199Y-127471557D01*
X115124123Y-127624285D01*
X115124124Y-127624286D01*
X115128054Y-127631095D01*
X115128056Y-127631097D01*
X115203177Y-127761212D01*
X115203181Y-127761217D01*
X115322049Y-127880085D01*
X115322054Y-127880089D01*
X117979184Y-130537220D01*
X117979186Y-130537221D01*
X117979190Y-130537224D01*
X118116109Y-130616273D01*
X118116116Y-130616277D01*
X118268843Y-130657201D01*
X118268845Y-130657201D01*
X118434554Y-130657201D01*
X118434570Y-130657200D01*
X120344431Y-130657200D01*
X120344447Y-130657201D01*
X120352043Y-130657201D01*
X120510154Y-130657201D01*
X120510157Y-130657201D01*
X120662885Y-130616277D01*
X120713004Y-130587339D01*
X120799816Y-130537220D01*
X120911620Y-130425416D01*
X120911620Y-130425414D01*
X120921828Y-130415207D01*
X120921830Y-130415204D01*
X121137013Y-130200021D01*
X121137016Y-130200020D01*
X121191574Y-130145461D01*
X121252893Y-130111979D01*
X121322585Y-130116963D01*
X121331648Y-130120759D01*
X121456337Y-130178903D01*
X121684592Y-130240063D01*
X121872918Y-130256539D01*
X121919999Y-130260659D01*
X121920000Y-130260659D01*
X121920001Y-130260659D01*
X121959234Y-130257226D01*
X122155408Y-130240063D01*
X122383663Y-130178903D01*
X122597830Y-130079035D01*
X122791401Y-129943495D01*
X122958495Y-129776401D01*
X123088425Y-129590842D01*
X123143002Y-129547217D01*
X123212500Y-129540023D01*
X123274855Y-129571546D01*
X123291575Y-129590842D01*
X123421500Y-129776395D01*
X123421505Y-129776401D01*
X123588599Y-129943495D01*
X123590353Y-129944723D01*
X123782165Y-130079032D01*
X123782167Y-130079033D01*
X123782170Y-130079035D01*
X123996337Y-130178903D01*
X124224592Y-130240063D01*
X124412918Y-130256539D01*
X124459999Y-130260659D01*
X124460000Y-130260659D01*
X124460001Y-130260659D01*
X124499234Y-130257226D01*
X124695408Y-130240063D01*
X124923663Y-130178903D01*
X125137830Y-130079035D01*
X125331401Y-129943495D01*
X125498495Y-129776401D01*
X125628425Y-129590842D01*
X125683002Y-129547217D01*
X125752500Y-129540023D01*
X125814855Y-129571546D01*
X125831575Y-129590842D01*
X125961500Y-129776395D01*
X125961505Y-129776401D01*
X126128599Y-129943495D01*
X126130353Y-129944723D01*
X126322165Y-130079032D01*
X126322167Y-130079033D01*
X126322170Y-130079035D01*
X126536337Y-130178903D01*
X126764592Y-130240063D01*
X126952918Y-130256539D01*
X126999999Y-130260659D01*
X127000000Y-130260659D01*
X127000001Y-130260659D01*
X127039234Y-130257226D01*
X127235408Y-130240063D01*
X127463663Y-130178903D01*
X127677830Y-130079035D01*
X127871401Y-129943495D01*
X128038495Y-129776401D01*
X128168425Y-129590842D01*
X128223002Y-129547217D01*
X128292500Y-129540023D01*
X128354855Y-129571546D01*
X128371575Y-129590842D01*
X128501500Y-129776395D01*
X128501505Y-129776401D01*
X128668599Y-129943495D01*
X128670353Y-129944723D01*
X128862165Y-130079032D01*
X128862167Y-130079033D01*
X128862170Y-130079035D01*
X129076337Y-130178903D01*
X129304592Y-130240063D01*
X129492918Y-130256539D01*
X129539999Y-130260659D01*
X129540000Y-130260659D01*
X129540001Y-130260659D01*
X129579234Y-130257226D01*
X129775408Y-130240063D01*
X130003663Y-130178903D01*
X130217830Y-130079035D01*
X130411401Y-129943495D01*
X130578495Y-129776401D01*
X130708425Y-129590842D01*
X130763002Y-129547217D01*
X130832500Y-129540023D01*
X130894855Y-129571546D01*
X130911575Y-129590842D01*
X131041500Y-129776395D01*
X131041505Y-129776401D01*
X131208599Y-129943495D01*
X131210353Y-129944723D01*
X131402165Y-130079032D01*
X131402167Y-130079033D01*
X131402170Y-130079035D01*
X131616337Y-130178903D01*
X131844592Y-130240063D01*
X132032918Y-130256539D01*
X132079999Y-130260659D01*
X132080000Y-130260659D01*
X132080001Y-130260659D01*
X132119234Y-130257226D01*
X132315408Y-130240063D01*
X132543663Y-130178903D01*
X132757830Y-130079035D01*
X132951401Y-129943495D01*
X133118495Y-129776401D01*
X133248425Y-129590842D01*
X133303002Y-129547217D01*
X133372500Y-129540023D01*
X133434855Y-129571546D01*
X133451575Y-129590842D01*
X133581500Y-129776395D01*
X133581505Y-129776401D01*
X133748599Y-129943495D01*
X133750353Y-129944723D01*
X133942165Y-130079032D01*
X133942167Y-130079033D01*
X133942170Y-130079035D01*
X134156337Y-130178903D01*
X134384592Y-130240063D01*
X134572918Y-130256539D01*
X134619999Y-130260659D01*
X134620000Y-130260659D01*
X134620001Y-130260659D01*
X134659234Y-130257226D01*
X134855408Y-130240063D01*
X135083663Y-130178903D01*
X135297830Y-130079035D01*
X135491401Y-129943495D01*
X135658495Y-129776401D01*
X135788425Y-129590842D01*
X135843002Y-129547217D01*
X135912500Y-129540023D01*
X135974855Y-129571546D01*
X135991575Y-129590842D01*
X136121500Y-129776395D01*
X136121505Y-129776401D01*
X136288599Y-129943495D01*
X136290353Y-129944723D01*
X136482165Y-130079032D01*
X136482167Y-130079033D01*
X136482170Y-130079035D01*
X136696337Y-130178903D01*
X136924592Y-130240063D01*
X137112918Y-130256539D01*
X137159999Y-130260659D01*
X137160000Y-130260659D01*
X137160001Y-130260659D01*
X137199234Y-130257226D01*
X137395408Y-130240063D01*
X137623663Y-130178903D01*
X137837830Y-130079035D01*
X138031401Y-129943495D01*
X138198495Y-129776401D01*
X138328425Y-129590842D01*
X138383002Y-129547217D01*
X138452500Y-129540023D01*
X138514855Y-129571546D01*
X138531575Y-129590842D01*
X138661500Y-129776395D01*
X138661505Y-129776401D01*
X138828599Y-129943495D01*
X138830353Y-129944723D01*
X139022165Y-130079032D01*
X139022167Y-130079033D01*
X139022170Y-130079035D01*
X139236337Y-130178903D01*
X139464592Y-130240063D01*
X139652918Y-130256539D01*
X139699999Y-130260659D01*
X139700000Y-130260659D01*
X139700001Y-130260659D01*
X139739234Y-130257226D01*
X139935408Y-130240063D01*
X140163663Y-130178903D01*
X140377830Y-130079035D01*
X140571401Y-129943495D01*
X140738495Y-129776401D01*
X140868425Y-129590842D01*
X140923002Y-129547217D01*
X140992500Y-129540023D01*
X141054855Y-129571546D01*
X141071575Y-129590842D01*
X141201500Y-129776395D01*
X141201505Y-129776401D01*
X141368599Y-129943495D01*
X141370353Y-129944723D01*
X141562165Y-130079032D01*
X141562167Y-130079033D01*
X141562170Y-130079035D01*
X141776337Y-130178903D01*
X142004592Y-130240063D01*
X142192918Y-130256539D01*
X142239999Y-130260659D01*
X142240000Y-130260659D01*
X142240001Y-130260659D01*
X142279234Y-130257226D01*
X142475408Y-130240063D01*
X142703663Y-130178903D01*
X142917830Y-130079035D01*
X143111401Y-129943495D01*
X143278495Y-129776401D01*
X143414035Y-129582830D01*
X143513903Y-129368663D01*
X143575063Y-129140408D01*
X143595659Y-128905000D01*
X143575063Y-128669592D01*
X143513903Y-128441337D01*
X143414035Y-128227171D01*
X143408425Y-128219158D01*
X143278494Y-128033597D01*
X143111402Y-127866506D01*
X143111395Y-127866501D01*
X142917834Y-127730967D01*
X142917830Y-127730965D01*
X142917828Y-127730964D01*
X142703663Y-127631097D01*
X142703659Y-127631096D01*
X142703655Y-127631094D01*
X142475413Y-127569938D01*
X142475403Y-127569936D01*
X142240001Y-127549341D01*
X142239999Y-127549341D01*
X142004596Y-127569936D01*
X142004586Y-127569938D01*
X141776344Y-127631094D01*
X141776335Y-127631098D01*
X141562171Y-127730964D01*
X141562169Y-127730965D01*
X141368597Y-127866505D01*
X141201505Y-128033597D01*
X141071575Y-128219158D01*
X141016998Y-128262783D01*
X140947500Y-128269977D01*
X140885145Y-128238454D01*
X140868425Y-128219158D01*
X140738494Y-128033597D01*
X140571402Y-127866506D01*
X140571395Y-127866501D01*
X140377834Y-127730967D01*
X140377830Y-127730965D01*
X140377828Y-127730964D01*
X140163663Y-127631097D01*
X140163659Y-127631096D01*
X140163655Y-127631094D01*
X139935413Y-127569938D01*
X139935403Y-127569936D01*
X139700001Y-127549341D01*
X139699999Y-127549341D01*
X139464596Y-127569936D01*
X139464586Y-127569938D01*
X139236344Y-127631094D01*
X139236335Y-127631098D01*
X139022171Y-127730964D01*
X139022169Y-127730965D01*
X138828597Y-127866505D01*
X138661505Y-128033597D01*
X138531575Y-128219158D01*
X138476998Y-128262783D01*
X138407500Y-128269977D01*
X138345145Y-128238454D01*
X138328425Y-128219158D01*
X138198494Y-128033597D01*
X138031402Y-127866506D01*
X138031395Y-127866501D01*
X137837834Y-127730967D01*
X137837830Y-127730965D01*
X137837828Y-127730964D01*
X137623663Y-127631097D01*
X137623659Y-127631096D01*
X137623655Y-127631094D01*
X137395413Y-127569938D01*
X137395403Y-127569936D01*
X137160001Y-127549341D01*
X137159999Y-127549341D01*
X136924596Y-127569936D01*
X136924586Y-127569938D01*
X136696344Y-127631094D01*
X136696335Y-127631098D01*
X136482171Y-127730964D01*
X136482169Y-127730965D01*
X136288597Y-127866505D01*
X136121505Y-128033597D01*
X135991575Y-128219158D01*
X135936998Y-128262783D01*
X135867500Y-128269977D01*
X135805145Y-128238454D01*
X135788425Y-128219158D01*
X135658494Y-128033597D01*
X135491402Y-127866506D01*
X135491395Y-127866501D01*
X135297834Y-127730967D01*
X135297830Y-127730965D01*
X135297828Y-127730964D01*
X135083663Y-127631097D01*
X135083659Y-127631096D01*
X135083655Y-127631094D01*
X134855413Y-127569938D01*
X134855403Y-127569936D01*
X134620001Y-127549341D01*
X134619999Y-127549341D01*
X134384596Y-127569936D01*
X134384586Y-127569938D01*
X134156344Y-127631094D01*
X134156335Y-127631098D01*
X133942171Y-127730964D01*
X133942169Y-127730965D01*
X133748597Y-127866505D01*
X133581505Y-128033597D01*
X133451575Y-128219158D01*
X133396998Y-128262783D01*
X133327500Y-128269977D01*
X133265145Y-128238454D01*
X133248425Y-128219158D01*
X133118494Y-128033597D01*
X132951402Y-127866506D01*
X132951395Y-127866501D01*
X132757834Y-127730967D01*
X132757830Y-127730965D01*
X132757828Y-127730964D01*
X132543663Y-127631097D01*
X132543659Y-127631096D01*
X132543655Y-127631094D01*
X132315413Y-127569938D01*
X132315403Y-127569936D01*
X132080001Y-127549341D01*
X132079999Y-127549341D01*
X131844596Y-127569936D01*
X131844586Y-127569938D01*
X131616344Y-127631094D01*
X131616335Y-127631098D01*
X131402171Y-127730964D01*
X131402169Y-127730965D01*
X131208597Y-127866505D01*
X131041505Y-128033597D01*
X130911575Y-128219158D01*
X130856998Y-128262783D01*
X130787500Y-128269977D01*
X130725145Y-128238454D01*
X130708425Y-128219158D01*
X130578494Y-128033597D01*
X130411402Y-127866506D01*
X130411395Y-127866501D01*
X130217834Y-127730967D01*
X130217830Y-127730965D01*
X130217828Y-127730964D01*
X130003663Y-127631097D01*
X130003659Y-127631096D01*
X130003655Y-127631094D01*
X129775413Y-127569938D01*
X129775403Y-127569936D01*
X129540001Y-127549341D01*
X129539999Y-127549341D01*
X129304596Y-127569936D01*
X129304586Y-127569938D01*
X129076344Y-127631094D01*
X129076335Y-127631098D01*
X128862171Y-127730964D01*
X128862169Y-127730965D01*
X128668597Y-127866505D01*
X128501505Y-128033597D01*
X128371575Y-128219158D01*
X128316998Y-128262783D01*
X128247500Y-128269977D01*
X128185145Y-128238454D01*
X128168425Y-128219158D01*
X128038494Y-128033597D01*
X127871402Y-127866506D01*
X127871395Y-127866501D01*
X127677834Y-127730967D01*
X127677830Y-127730965D01*
X127677828Y-127730964D01*
X127463663Y-127631097D01*
X127463659Y-127631096D01*
X127463655Y-127631094D01*
X127235413Y-127569938D01*
X127235403Y-127569936D01*
X127000001Y-127549341D01*
X126999999Y-127549341D01*
X126764596Y-127569936D01*
X126764586Y-127569938D01*
X126536344Y-127631094D01*
X126536335Y-127631098D01*
X126322171Y-127730964D01*
X126322169Y-127730965D01*
X126128597Y-127866505D01*
X125961505Y-128033597D01*
X125831575Y-128219158D01*
X125776998Y-128262783D01*
X125707500Y-128269977D01*
X125645145Y-128238454D01*
X125628425Y-128219158D01*
X125498494Y-128033597D01*
X125331402Y-127866506D01*
X125331395Y-127866501D01*
X125137834Y-127730967D01*
X125137830Y-127730965D01*
X125137828Y-127730964D01*
X124923663Y-127631097D01*
X124923659Y-127631096D01*
X124923655Y-127631094D01*
X124695413Y-127569938D01*
X124695403Y-127569936D01*
X124460001Y-127549341D01*
X124459999Y-127549341D01*
X124224596Y-127569936D01*
X124224586Y-127569938D01*
X123996344Y-127631094D01*
X123996335Y-127631098D01*
X123782171Y-127730964D01*
X123782169Y-127730965D01*
X123588597Y-127866505D01*
X123421505Y-128033597D01*
X123291575Y-128219158D01*
X123236998Y-128262783D01*
X123167500Y-128269977D01*
X123105145Y-128238454D01*
X123088425Y-128219158D01*
X122958494Y-128033597D01*
X122791402Y-127866506D01*
X122791395Y-127866501D01*
X122597834Y-127730967D01*
X122597830Y-127730965D01*
X122597828Y-127730964D01*
X122383663Y-127631097D01*
X122383659Y-127631096D01*
X122383655Y-127631094D01*
X122155413Y-127569938D01*
X122155403Y-127569936D01*
X121920001Y-127549341D01*
X121919999Y-127549341D01*
X121684596Y-127569936D01*
X121684586Y-127569938D01*
X121456344Y-127631094D01*
X121456335Y-127631098D01*
X121242171Y-127730964D01*
X121242169Y-127730965D01*
X121048600Y-127866503D01*
X120926673Y-127988430D01*
X120865350Y-128021914D01*
X120795658Y-128016930D01*
X120739725Y-127975058D01*
X120722810Y-127944081D01*
X120673797Y-127812671D01*
X120673793Y-127812664D01*
X120587547Y-127697455D01*
X120587544Y-127697452D01*
X120472335Y-127611206D01*
X120472328Y-127611202D01*
X120337482Y-127560908D01*
X120337483Y-127560908D01*
X120277883Y-127554501D01*
X120277881Y-127554500D01*
X120277873Y-127554500D01*
X120277865Y-127554500D01*
X120030212Y-127554500D01*
X119963173Y-127534815D01*
X119922825Y-127492499D01*
X119860524Y-127384590D01*
X119860518Y-127384582D01*
X116948719Y-124472783D01*
X116915234Y-124411460D01*
X116912400Y-124385102D01*
X116912400Y-104180112D01*
X116932085Y-104113073D01*
X116939455Y-104102797D01*
X116941710Y-104099967D01*
X116941716Y-104099962D01*
X117037689Y-103947222D01*
X117097268Y-103776955D01*
X117117465Y-103597700D01*
X117097268Y-103418445D01*
X117037689Y-103248178D01*
X116941716Y-103095438D01*
X116814162Y-102967884D01*
X116661423Y-102871911D01*
X116491154Y-102812331D01*
X116491150Y-102812330D01*
X116394316Y-102801420D01*
X116329902Y-102774353D01*
X116290347Y-102716758D01*
X116284200Y-102678200D01*
X116284200Y-101825812D01*
X116303885Y-101758773D01*
X116311255Y-101748497D01*
X116313510Y-101745667D01*
X116313516Y-101745662D01*
X116409489Y-101592922D01*
X116469068Y-101422655D01*
X116472473Y-101392433D01*
X116489265Y-101243403D01*
X116489265Y-101243396D01*
X116469069Y-101064150D01*
X116469068Y-101064145D01*
X116449722Y-101008857D01*
X116409489Y-100893878D01*
X116313516Y-100741138D01*
X116185962Y-100613584D01*
X116079907Y-100546945D01*
X116033223Y-100517611D01*
X115862954Y-100458031D01*
X115862949Y-100458030D01*
X115683704Y-100437835D01*
X115683696Y-100437835D01*
X115504450Y-100458030D01*
X115504445Y-100458031D01*
X115334176Y-100517611D01*
X115181437Y-100613584D01*
X115053884Y-100741137D01*
X114957911Y-100893876D01*
X114898331Y-101064145D01*
X114898330Y-101064150D01*
X114878135Y-101243396D01*
X113975103Y-101243396D01*
X113984844Y-101234358D01*
X114006801Y-101213985D01*
X114006801Y-101213983D01*
X114006805Y-101213981D01*
X114170386Y-101008857D01*
X114301568Y-100781643D01*
X114397420Y-100537416D01*
X114455802Y-100281630D01*
X114455803Y-100281620D01*
X114475408Y-100020004D01*
X114475408Y-100019995D01*
X114455803Y-99758379D01*
X114455802Y-99758374D01*
X114455802Y-99758370D01*
X114397420Y-99502584D01*
X114301568Y-99258357D01*
X114170386Y-99031143D01*
X114006805Y-98826019D01*
X114006804Y-98826018D01*
X114006801Y-98826014D01*
X113814479Y-98647567D01*
X113597704Y-98499772D01*
X113597700Y-98499770D01*
X113597697Y-98499768D01*
X113597696Y-98499767D01*
X113361325Y-98385938D01*
X113361327Y-98385938D01*
X113110623Y-98308606D01*
X113110619Y-98308605D01*
X113110615Y-98308604D01*
X112985823Y-98289794D01*
X112851187Y-98269500D01*
X112851182Y-98269500D01*
X112588818Y-98269500D01*
X112588812Y-98269500D01*
X112427247Y-98293853D01*
X112329385Y-98308604D01*
X112329382Y-98308605D01*
X112329376Y-98308606D01*
X112078673Y-98385938D01*
X111842303Y-98499767D01*
X111842302Y-98499768D01*
X111625520Y-98647567D01*
X111433198Y-98826014D01*
X111269614Y-99031143D01*
X111138432Y-99258356D01*
X111042582Y-99502578D01*
X111042576Y-99502597D01*
X110984197Y-99758374D01*
X110984196Y-99758379D01*
X110964592Y-100019995D01*
X109720500Y-100019995D01*
X109720500Y-99084066D01*
X109720765Y-99075957D01*
X109724819Y-99014108D01*
X109737588Y-98819272D01*
X109739702Y-98803218D01*
X109789093Y-98554918D01*
X109793285Y-98539275D01*
X109874659Y-98299554D01*
X109880860Y-98284583D01*
X109992829Y-98057533D01*
X110000932Y-98043498D01*
X110141581Y-97833001D01*
X110151438Y-97820156D01*
X110318360Y-97629818D01*
X110329818Y-97618360D01*
X110520156Y-97451438D01*
X110533001Y-97441581D01*
X110743498Y-97300932D01*
X110757533Y-97292829D01*
X110984583Y-97180860D01*
X110999554Y-97174659D01*
X111239275Y-97093285D01*
X111254918Y-97089093D01*
X111503218Y-97039702D01*
X111519272Y-97037588D01*
X111754217Y-97022189D01*
X111775958Y-97020765D01*
X111784067Y-97020500D01*
X111845892Y-97020500D01*
X156538427Y-97020500D01*
X156605466Y-97040185D01*
G37*
%TD.AperFunction*%
%TD*%
M02*
