M48
; DRILL file {KiCad 8.0.8} date 2025-02-18T11:48:03+0200
; FORMAT={-:-/ absolute / inch / decimal}
; #@! TF.CreationDate,2025-02-18T11:48:03+02:00
; #@! TF.GenerationSoftware,Kicad,Pcbnew,8.0.8
; #@! TF.FileFunction,Plated,1,2,PTH
FMAT,2
INCH
; #@! TA.AperFunction,Plated,PTH,ViaDrill
T1C0.0118
; #@! TA.AperFunction,Plated,PTH,ComponentDrill
T2C0.0394
%
G90
G05
T1
X4.8161Y-4.062
X4.8172Y-4.7946
X4.918Y-4.7946
X5.0161Y-4.062
X5.0169Y-4.7946
X5.175Y-4.7946
X5.2484Y-3.9656
X5.3154Y-4.7946
X5.3654Y-3.9656
X5.4154Y-4.7946
X5.4654Y-3.9656
X5.4971Y-3.8547
X5.5843Y-3.8808
X5.725Y-4.7
X5.725Y-5.0
X5.8654Y-3.9656
X5.8654Y-4.0004
X6.0154Y-4.062
T2
X4.7Y-5.075
X4.8Y-5.075
X4.9Y-5.075
X5.0Y-5.075
X5.1Y-5.075
X5.2Y-5.075
X5.3Y-5.075
X5.4Y-5.075
X5.5Y-5.075
X5.6Y-5.075
X6.25Y-4.8
X6.25Y-4.9
M30
