%TF.GenerationSoftware,KiCad,Pcbnew,8.0.8*%
%TF.CreationDate,2025-02-18T11:34:38+02:00*%
%TF.ProjectId,E900M30S shield,45393030-4d33-4305-9320-736869656c64,rev?*%
%TF.SameCoordinates,Original*%
%TF.FileFunction,Copper,L1,Top*%
%TF.FilePolarity,Positive*%
%FSLAX46Y46*%
G04 Gerber Fmt 4.6, Leading zero omitted, Abs format (unit mm)*
G04 Created by KiCad (PCBNEW 8.0.8) date 2025-02-18 11:34:38*
%MOMM*%
%LPD*%
G01*
G04 APERTURE LIST*
G04 Aperture macros list*
%AMRoundRect*
0 Rectangle with rounded corners*
0 $1 Rounding radius*
0 $2 $3 $4 $5 $6 $7 $8 $9 X,Y pos of 4 corners*
0 Add a 4 corners polygon primitive as box body*
4,1,4,$2,$3,$4,$5,$6,$7,$8,$9,$2,$3,0*
0 Add four circle primitives for the rounded corners*
1,1,$1+$1,$2,$3*
1,1,$1+$1,$4,$5*
1,1,$1+$1,$6,$7*
1,1,$1+$1,$8,$9*
0 Add four rect primitives between the rounded corners*
20,1,$1+$1,$2,$3,$4,$5,0*
20,1,$1+$1,$4,$5,$6,$7,0*
20,1,$1+$1,$6,$7,$8,$9,0*
20,1,$1+$1,$8,$9,$2,$3,0*%
G04 Aperture macros list end*
%TA.AperFunction,ComponentPad*%
%ADD10R,1.700000X1.700000*%
%TD*%
%TA.AperFunction,ComponentPad*%
%ADD11O,1.700000X1.700000*%
%TD*%
%TA.AperFunction,SMDPad,CuDef*%
%ADD12RoundRect,0.250000X-1.100000X0.325000X-1.100000X-0.325000X1.100000X-0.325000X1.100000X0.325000X0*%
%TD*%
%TA.AperFunction,SMDPad,CuDef*%
%ADD13R,1.510000X2.080000*%
%TD*%
%TA.AperFunction,ViaPad*%
%ADD14C,0.600000*%
%TD*%
%TA.AperFunction,Conductor*%
%ADD15C,0.200000*%
%TD*%
%TA.AperFunction,Conductor*%
%ADD16C,0.400000*%
%TD*%
G04 APERTURE END LIST*
D10*
%TO.P,J1,1*%
%TO.N,NSS*%
X119380000Y-128905000D03*
D11*
%TO.P,J1,2*%
%TO.N,SCK*%
X121920000Y-128905000D03*
%TO.P,J1,3*%
%TO.N,MOSI*%
X124460000Y-128905000D03*
%TO.P,J1,4*%
%TO.N,MISO*%
X127000000Y-128905000D03*
%TO.P,J1,5*%
%TO.N,RST*%
X129540000Y-128905000D03*
%TO.P,J1,6*%
%TO.N,BUSY*%
X132080000Y-128905000D03*
%TO.P,J1,7*%
%TO.N,RXEN*%
X134620000Y-128905000D03*
%TO.P,J1,8*%
%TO.N,TXEN*%
X137160000Y-128905000D03*
%TO.P,J1,9*%
%TO.N,DIO2*%
X139700000Y-128905000D03*
%TO.P,J1,10*%
%TO.N,DIO1*%
X142240000Y-128905000D03*
%TD*%
D10*
%TO.P,J2,1*%
%TO.N,+5V*%
X158750000Y-124460000D03*
D11*
%TO.P,J2,2*%
%TO.N,GND*%
X158750000Y-121920000D03*
%TD*%
D12*
%TO.P,C1,1*%
%TO.N,+5V*%
X148590000Y-128065000D03*
%TO.P,C1,2*%
%TO.N,GND*%
X148590000Y-131015000D03*
%TD*%
D13*
%TO.P,U1,1,GND*%
%TO.N,GND*%
X122330000Y-124110000D03*
%TO.P,U1,2,GND*%
X124870000Y-124110000D03*
%TO.P,U1,3,GND*%
X127410000Y-124110000D03*
%TO.P,U1,4,GND*%
X135010000Y-124110000D03*
%TO.P,U1,5,GND*%
X137550000Y-124110000D03*
%TO.P,U1,6,RXEN*%
%TO.N,RXEN*%
X140090000Y-124110000D03*
%TO.P,U1,7,TXEN*%
%TO.N,TXEN*%
X142630000Y-124110000D03*
%TO.P,U1,8,DIO2*%
%TO.N,DIO2*%
X145170000Y-124110000D03*
%TO.P,U1,9,VCC*%
%TO.N,+5V*%
X147710000Y-124110000D03*
%TO.P,U1,10,VCC*%
X150250000Y-124110000D03*
%TO.P,U1,11,GND*%
%TO.N,GND*%
X152790000Y-124110000D03*
%TO.P,U1,12,GND*%
X152790000Y-100960000D03*
%TO.P,U1,13,DIO1*%
%TO.N,DIO1*%
X150250000Y-100960000D03*
%TO.P,U1,14,BUSY*%
%TO.N,BUSY*%
X147710000Y-100960000D03*
%TO.P,U1,15,~{RST}*%
%TO.N,RST*%
X145170000Y-100960000D03*
%TO.P,U1,16,MISO*%
%TO.N,MISO*%
X142630000Y-100960000D03*
%TO.P,U1,17,MOSI*%
%TO.N,MOSI*%
X140090000Y-100960000D03*
%TO.P,U1,18,SCK*%
%TO.N,SCK*%
X137550000Y-100960000D03*
%TO.P,U1,19,NSS*%
%TO.N,NSS*%
X135010000Y-100960000D03*
%TO.P,U1,20,GND*%
%TO.N,GND*%
X127410000Y-100960000D03*
%TO.P,U1,21,ANT*%
%TO.N,unconnected-(U1-ANT-Pad21)*%
X124870000Y-100960000D03*
%TO.P,U1,22,GND*%
%TO.N,GND*%
X122330000Y-100960000D03*
%TD*%
D12*
%TO.P,C2,1*%
%TO.N,+5V*%
X153670000Y-128065000D03*
%TO.P,C2,2*%
%TO.N,GND*%
X153670000Y-131015000D03*
%TD*%
D14*
%TO.N,GND*%
X145415000Y-127000000D03*
%TO.N,RST*%
X157933800Y-129571000D03*
X157057500Y-97910200D03*
%TO.N,SCK*%
X115683700Y-101243400D03*
%TO.N,BUSY*%
X155257700Y-129595200D03*
X156366700Y-98572000D03*
%TO.N,NSS*%
X116311900Y-103597700D03*
%TO.N,DIO1*%
X156081200Y-100726200D03*
X151130100Y-129115400D03*
%TO.N,GND*%
X152790000Y-103174000D03*
X122330000Y-103174000D03*
X127410000Y-103174000D03*
X135010000Y-121782000D03*
X127429000Y-121782000D03*
X124917000Y-121782000D03*
X137550000Y-121782000D03*
X122357000Y-121782000D03*
%TD*%
D15*
%TO.N,RST*%
X157933800Y-129606200D02*
X157933800Y-129571000D01*
X155211100Y-132328900D02*
X157933800Y-129606200D01*
X133827700Y-132328900D02*
X155211100Y-132328900D01*
X130691700Y-129192900D02*
X133827700Y-132328900D01*
X130691700Y-128905000D02*
X130691700Y-129192900D01*
X146226700Y-100167500D02*
X146226700Y-100960000D01*
X148484000Y-97910200D02*
X146226700Y-100167500D01*
X157057500Y-97910200D02*
X148484000Y-97910200D01*
X129540000Y-128905000D02*
X130691700Y-128905000D01*
X145170000Y-100960000D02*
X146226700Y-100960000D01*
%TO.N,SCK*%
X137550000Y-100960000D02*
X136493300Y-100960000D01*
X136493300Y-100167500D02*
X136493300Y-100960000D01*
X135213600Y-98887800D02*
X136493300Y-100167500D01*
X118039300Y-98887800D02*
X135213600Y-98887800D01*
X115683700Y-101243400D02*
X118039300Y-98887800D01*
%TO.N,BUSY*%
X154787100Y-130065800D02*
X155257700Y-129595200D01*
X134104600Y-130065800D02*
X154787100Y-130065800D01*
X133231700Y-129192900D02*
X134104600Y-130065800D01*
X133231700Y-128905000D02*
X133231700Y-129192900D01*
X148766700Y-100167500D02*
X148766700Y-100960000D01*
X150362200Y-98572000D02*
X148766700Y-100167500D01*
X156366700Y-98572000D02*
X150362200Y-98572000D01*
X147710000Y-100960000D02*
X148766700Y-100960000D01*
X132080000Y-128905000D02*
X133231700Y-128905000D01*
%TO.N,TXEN*%
X137795000Y-128905000D02*
X137160000Y-128905000D01*
X142590000Y-124110000D02*
X137795000Y-128905000D01*
X142630000Y-124110000D02*
X142590000Y-124110000D01*
%TO.N,DIO2*%
X140375000Y-128905000D02*
X139700000Y-128905000D01*
X145170000Y-124110000D02*
X140375000Y-128905000D01*
%TO.N,NSS*%
X116311900Y-102262300D02*
X116311900Y-103597700D01*
X118955900Y-99618300D02*
X116311900Y-102262300D01*
X132611600Y-99618300D02*
X118955900Y-99618300D01*
X133953300Y-100960000D02*
X132611600Y-99618300D01*
X135010000Y-100960000D02*
X133953300Y-100960000D01*
%TO.N,DIO1*%
X154973300Y-99618300D02*
X156081200Y-100726200D01*
X151855900Y-99618300D02*
X154973300Y-99618300D01*
X151306700Y-100167500D02*
X151855900Y-99618300D01*
X151306700Y-100960000D02*
X151306700Y-100167500D01*
X143602100Y-129115400D02*
X143391700Y-128905000D01*
X151130100Y-129115400D02*
X143602100Y-129115400D01*
X142240000Y-128905000D02*
X143391700Y-128905000D01*
X150250000Y-100960000D02*
X151306700Y-100960000D01*
%TO.N,MOSI*%
X140090000Y-100960000D02*
X139033300Y-100960000D01*
X124460000Y-128905000D02*
X123308300Y-128905000D01*
X139033300Y-100167500D02*
X139033300Y-100960000D01*
X137329600Y-98463800D02*
X139033300Y-100167500D01*
X117607500Y-98463800D02*
X137329600Y-98463800D01*
X115060300Y-101011000D02*
X117607500Y-98463800D01*
X115060300Y-121234600D02*
X115060300Y-101011000D01*
X121202000Y-127376300D02*
X115060300Y-121234600D01*
X122048100Y-127376300D02*
X121202000Y-127376300D01*
X123308300Y-128636500D02*
X122048100Y-127376300D01*
X123308300Y-128905000D02*
X123308300Y-128636500D01*
%TO.N,RXEN*%
X135295000Y-128905000D02*
X134620000Y-128905000D01*
X140090000Y-124110000D02*
X135295000Y-128905000D01*
%TO.N,MISO*%
X125848300Y-129173500D02*
X125848300Y-128905000D01*
X124964500Y-130057300D02*
X125848300Y-129173500D01*
X118399400Y-130057300D02*
X124964500Y-130057300D01*
X114624300Y-126282200D02*
X118399400Y-130057300D01*
X114624300Y-100875700D02*
X114624300Y-126282200D01*
X117495900Y-98004100D02*
X114624300Y-100875700D01*
X139409900Y-98004100D02*
X117495900Y-98004100D01*
X141573300Y-100167500D02*
X139409900Y-98004100D01*
X141573300Y-100960000D02*
X141573300Y-100167500D01*
X142630000Y-100960000D02*
X141573300Y-100960000D01*
X127000000Y-128905000D02*
X125848300Y-128905000D01*
D16*
%TO.N,+5V*%
X147710000Y-124110000D02*
X150250000Y-124110000D01*
X147710000Y-127185000D02*
X147710000Y-124110000D01*
X148590000Y-128065000D02*
X147710000Y-127185000D01*
X153670000Y-128065000D02*
X148590000Y-128065000D01*
X150250000Y-126405000D02*
X150250000Y-124110000D01*
X148590000Y-128065000D02*
X150250000Y-126405000D01*
X156415000Y-128065000D02*
X153670000Y-128065000D01*
X158750000Y-125730000D02*
X156415000Y-128065000D01*
X158750000Y-124460000D02*
X158750000Y-125730000D01*
%TD*%
%TA.AperFunction,Conductor*%
%TO.N,GND*%
G36*
X156605466Y-97040185D02*
G01*
X156651221Y-97092989D01*
X156661165Y-97162147D01*
X156632140Y-97225703D01*
X156604400Y-97249493D01*
X156555238Y-97280383D01*
X156552403Y-97282645D01*
X156550223Y-97283535D01*
X156549343Y-97284088D01*
X156549246Y-97283933D01*
X156487717Y-97309055D01*
X156475088Y-97309700D01*
X148563057Y-97309700D01*
X148404942Y-97309700D01*
X148252215Y-97350623D01*
X148252214Y-97350623D01*
X148252212Y-97350624D01*
X148252209Y-97350625D01*
X148217066Y-97370916D01*
X148217064Y-97370917D01*
X148115290Y-97429675D01*
X148115282Y-97429681D01*
X148003478Y-97541486D01*
X146151406Y-99393557D01*
X146090083Y-99427042D01*
X146040209Y-99426599D01*
X146040195Y-99426738D01*
X146038787Y-99426586D01*
X146035220Y-99426555D01*
X146032485Y-99425909D01*
X145972883Y-99419501D01*
X145972881Y-99419500D01*
X145972873Y-99419500D01*
X145972864Y-99419500D01*
X144367129Y-99419500D01*
X144367123Y-99419501D01*
X144307516Y-99425908D01*
X144172671Y-99476202D01*
X144172664Y-99476206D01*
X144057455Y-99562452D01*
X144057452Y-99562455D01*
X143999266Y-99640182D01*
X143943332Y-99682053D01*
X143873641Y-99687037D01*
X143812318Y-99653551D01*
X143800734Y-99640182D01*
X143742547Y-99562455D01*
X143742544Y-99562452D01*
X143627335Y-99476206D01*
X143627328Y-99476202D01*
X143492482Y-99425908D01*
X143492483Y-99425908D01*
X143432883Y-99419501D01*
X143432881Y-99419500D01*
X143432873Y-99419500D01*
X143432864Y-99419500D01*
X141827129Y-99419500D01*
X141827123Y-99419501D01*
X141767514Y-99425909D01*
X141764785Y-99426554D01*
X141762604Y-99426436D01*
X141759804Y-99426738D01*
X141759755Y-99426284D01*
X141695015Y-99422811D01*
X141648593Y-99393557D01*
X139897490Y-97642455D01*
X139897488Y-97642452D01*
X139778617Y-97523581D01*
X139778616Y-97523580D01*
X139691804Y-97473460D01*
X139691804Y-97473459D01*
X139691800Y-97473458D01*
X139641685Y-97444523D01*
X139488957Y-97403599D01*
X139330843Y-97403599D01*
X139323247Y-97403599D01*
X139323231Y-97403600D01*
X117582570Y-97403600D01*
X117582554Y-97403599D01*
X117574958Y-97403599D01*
X117416843Y-97403599D01*
X117340479Y-97424061D01*
X117264114Y-97444523D01*
X117264109Y-97444526D01*
X117127190Y-97523575D01*
X117127182Y-97523581D01*
X114677373Y-99973390D01*
X114616050Y-100006875D01*
X114546358Y-100001891D01*
X114490425Y-99960019D01*
X114466039Y-99894975D01*
X114455803Y-99758378D01*
X114455802Y-99758374D01*
X114455802Y-99758370D01*
X114397420Y-99502584D01*
X114301568Y-99258357D01*
X114170386Y-99031143D01*
X114006805Y-98826019D01*
X114006804Y-98826018D01*
X114006801Y-98826014D01*
X113814479Y-98647567D01*
X113787735Y-98629333D01*
X113597704Y-98499772D01*
X113597700Y-98499770D01*
X113597697Y-98499768D01*
X113597696Y-98499767D01*
X113361325Y-98385938D01*
X113361327Y-98385938D01*
X113110623Y-98308606D01*
X113110619Y-98308605D01*
X113110615Y-98308604D01*
X112985823Y-98289794D01*
X112851187Y-98269500D01*
X112851182Y-98269500D01*
X112588818Y-98269500D01*
X112588812Y-98269500D01*
X112440452Y-98291863D01*
X112329385Y-98308604D01*
X112329382Y-98308605D01*
X112329376Y-98308606D01*
X112078673Y-98385938D01*
X111842303Y-98499767D01*
X111842302Y-98499768D01*
X111625520Y-98647567D01*
X111433198Y-98826014D01*
X111269614Y-99031143D01*
X111138432Y-99258356D01*
X111042582Y-99502578D01*
X111042576Y-99502597D01*
X110984197Y-99758374D01*
X110984196Y-99758379D01*
X110964592Y-100019995D01*
X110964592Y-100020004D01*
X110984196Y-100281620D01*
X110984197Y-100281625D01*
X111042576Y-100537402D01*
X111042578Y-100537411D01*
X111042580Y-100537416D01*
X111138432Y-100781643D01*
X111269614Y-101008857D01*
X111322938Y-101075723D01*
X111433198Y-101213985D01*
X111586273Y-101356016D01*
X111625521Y-101392433D01*
X111842296Y-101540228D01*
X111842301Y-101540230D01*
X111842302Y-101540231D01*
X111842303Y-101540232D01*
X111967843Y-101600688D01*
X112078673Y-101654061D01*
X112078674Y-101654061D01*
X112078677Y-101654063D01*
X112329385Y-101731396D01*
X112588818Y-101770500D01*
X112851182Y-101770500D01*
X113110615Y-101731396D01*
X113361323Y-101654063D01*
X113597704Y-101540228D01*
X113814479Y-101392433D01*
X113815459Y-101391523D01*
X113815886Y-101391310D01*
X113818104Y-101389542D01*
X113818482Y-101390016D01*
X113877990Y-101360355D01*
X113947447Y-101367942D01*
X114001776Y-101411875D01*
X114023728Y-101478206D01*
X114023800Y-101482422D01*
X114023800Y-126195530D01*
X114023799Y-126195548D01*
X114023799Y-126361254D01*
X114023798Y-126361254D01*
X114064723Y-126513985D01*
X114093658Y-126564100D01*
X114093659Y-126564104D01*
X114093660Y-126564104D01*
X114143779Y-126650914D01*
X114143781Y-126650917D01*
X114262649Y-126769785D01*
X114262654Y-126769789D01*
X118030684Y-130537820D01*
X118030686Y-130537821D01*
X118030690Y-130537824D01*
X118132216Y-130596439D01*
X118167616Y-130616877D01*
X118320343Y-130657801D01*
X118320345Y-130657801D01*
X118486054Y-130657801D01*
X118486070Y-130657800D01*
X124877831Y-130657800D01*
X124877847Y-130657801D01*
X124885443Y-130657801D01*
X125043554Y-130657801D01*
X125043557Y-130657801D01*
X125196285Y-130616877D01*
X125246404Y-130587939D01*
X125333216Y-130537820D01*
X125445020Y-130426016D01*
X125445020Y-130426014D01*
X125455228Y-130415807D01*
X125455230Y-130415804D01*
X125940388Y-129930646D01*
X126001711Y-129897161D01*
X126071403Y-129902145D01*
X126115750Y-129930646D01*
X126128599Y-129943495D01*
X126130353Y-129944723D01*
X126322165Y-130079032D01*
X126322167Y-130079033D01*
X126322170Y-130079035D01*
X126536337Y-130178903D01*
X126764592Y-130240063D01*
X126952918Y-130256539D01*
X126999999Y-130260659D01*
X127000000Y-130260659D01*
X127000001Y-130260659D01*
X127039234Y-130257226D01*
X127235408Y-130240063D01*
X127463663Y-130178903D01*
X127677830Y-130079035D01*
X127871401Y-129943495D01*
X128038495Y-129776401D01*
X128168425Y-129590842D01*
X128223002Y-129547217D01*
X128292500Y-129540023D01*
X128354855Y-129571546D01*
X128371575Y-129590842D01*
X128500141Y-129774454D01*
X128501505Y-129776401D01*
X128668599Y-129943495D01*
X128670353Y-129944723D01*
X128862165Y-130079032D01*
X128862167Y-130079033D01*
X128862170Y-130079035D01*
X129076337Y-130178903D01*
X129304592Y-130240063D01*
X129492918Y-130256539D01*
X129539999Y-130260659D01*
X129540000Y-130260659D01*
X129540001Y-130260659D01*
X129579234Y-130257226D01*
X129775408Y-130240063D01*
X130003663Y-130178903D01*
X130217830Y-130079035D01*
X130411401Y-129943495D01*
X130414546Y-129940349D01*
X130475863Y-129906863D01*
X130545555Y-129911842D01*
X130589910Y-129940345D01*
X133458984Y-132809420D01*
X133458986Y-132809421D01*
X133458990Y-132809424D01*
X133595909Y-132888473D01*
X133595912Y-132888475D01*
X133595916Y-132888477D01*
X133748643Y-132929401D01*
X133748645Y-132929401D01*
X133914354Y-132929401D01*
X133914370Y-132929400D01*
X155124431Y-132929400D01*
X155124447Y-132929401D01*
X155132043Y-132929401D01*
X155290154Y-132929401D01*
X155290157Y-132929401D01*
X155442885Y-132888477D01*
X155503950Y-132853221D01*
X155579816Y-132809420D01*
X155691620Y-132697616D01*
X155691620Y-132697614D01*
X155701824Y-132687411D01*
X155701828Y-132687406D01*
X157992004Y-130397229D01*
X158053325Y-130363746D01*
X158065783Y-130361693D01*
X158113055Y-130356368D01*
X158283322Y-130296789D01*
X158436062Y-130200816D01*
X158563616Y-130073262D01*
X158659589Y-129920522D01*
X158719168Y-129750255D01*
X158736638Y-129595203D01*
X158739365Y-129571003D01*
X158739365Y-129570996D01*
X158719169Y-129391750D01*
X158719168Y-129391745D01*
X158714020Y-129377032D01*
X158659589Y-129221478D01*
X158563616Y-129068738D01*
X158436062Y-128941184D01*
X158283323Y-128845211D01*
X158113054Y-128785631D01*
X158113049Y-128785630D01*
X157933804Y-128765435D01*
X157933796Y-128765435D01*
X157754550Y-128785630D01*
X157754545Y-128785631D01*
X157584276Y-128845211D01*
X157431537Y-128941184D01*
X157303984Y-129068737D01*
X157208010Y-129221478D01*
X157148430Y-129391750D01*
X157134167Y-129518338D01*
X157107100Y-129582752D01*
X157098628Y-129592135D01*
X155731680Y-130959084D01*
X155670357Y-130992569D01*
X155600665Y-130987585D01*
X155544732Y-130945713D01*
X155520315Y-130880249D01*
X155519999Y-130871403D01*
X155519999Y-130640028D01*
X155519998Y-130640013D01*
X155509505Y-130537302D01*
X155493788Y-130489870D01*
X155491386Y-130420042D01*
X155527118Y-130360000D01*
X155570540Y-130333824D01*
X155607222Y-130320989D01*
X155759962Y-130225016D01*
X155887516Y-130097462D01*
X155983489Y-129944722D01*
X156043068Y-129774455D01*
X156045795Y-129750254D01*
X156063265Y-129595203D01*
X156063265Y-129595196D01*
X156043069Y-129415950D01*
X156043068Y-129415945D01*
X156029452Y-129377032D01*
X155983489Y-129245678D01*
X155887516Y-129092938D01*
X155771759Y-128977181D01*
X155738274Y-128915858D01*
X155743258Y-128846166D01*
X155785130Y-128790233D01*
X155850594Y-128765816D01*
X155859440Y-128765500D01*
X156483996Y-128765500D01*
X156575040Y-128747389D01*
X156619328Y-128738580D01*
X156683069Y-128712177D01*
X156746807Y-128685777D01*
X156746808Y-128685776D01*
X156746811Y-128685775D01*
X156861543Y-128609114D01*
X159294114Y-126176543D01*
X159370775Y-126061811D01*
X159423580Y-125934328D01*
X159428358Y-125910306D01*
X159460742Y-125848398D01*
X159521457Y-125813823D01*
X159549975Y-125810499D01*
X159647871Y-125810499D01*
X159647872Y-125810499D01*
X159707483Y-125804091D01*
X159842331Y-125753796D01*
X159957546Y-125667546D01*
X160043796Y-125552331D01*
X160094091Y-125417483D01*
X160100500Y-125357873D01*
X160100499Y-123562128D01*
X160094091Y-123502517D01*
X160043796Y-123367669D01*
X160043795Y-123367668D01*
X160043793Y-123367664D01*
X159957547Y-123252455D01*
X159957544Y-123252452D01*
X159842335Y-123166206D01*
X159842328Y-123166202D01*
X159710401Y-123116997D01*
X159654467Y-123075126D01*
X159630050Y-123009662D01*
X159644902Y-122941389D01*
X159666053Y-122913133D01*
X159788108Y-122791078D01*
X159923600Y-122597578D01*
X160023429Y-122383492D01*
X160023432Y-122383486D01*
X160080636Y-122170000D01*
X159183012Y-122170000D01*
X159215925Y-122112993D01*
X159250000Y-121985826D01*
X159250000Y-121854174D01*
X159215925Y-121727007D01*
X159183012Y-121670000D01*
X160080636Y-121670000D01*
X160080635Y-121669999D01*
X160023432Y-121456513D01*
X160023429Y-121456507D01*
X159923600Y-121242422D01*
X159923599Y-121242420D01*
X159788113Y-121048926D01*
X159788108Y-121048920D01*
X159621082Y-120881894D01*
X159427578Y-120746399D01*
X159213492Y-120646570D01*
X159213486Y-120646567D01*
X159000000Y-120589364D01*
X159000000Y-121486988D01*
X158942993Y-121454075D01*
X158815826Y-121420000D01*
X158684174Y-121420000D01*
X158557007Y-121454075D01*
X158500000Y-121486988D01*
X158500000Y-120589364D01*
X158499999Y-120589364D01*
X158286513Y-120646567D01*
X158286507Y-120646570D01*
X158072422Y-120746399D01*
X158072420Y-120746400D01*
X157878926Y-120881886D01*
X157878920Y-120881891D01*
X157711891Y-121048920D01*
X157711886Y-121048926D01*
X157576400Y-121242420D01*
X157576399Y-121242422D01*
X157476570Y-121456507D01*
X157476567Y-121456513D01*
X157419364Y-121669999D01*
X157419364Y-121670000D01*
X158316988Y-121670000D01*
X158284075Y-121727007D01*
X158250000Y-121854174D01*
X158250000Y-121985826D01*
X158284075Y-122112993D01*
X158316988Y-122170000D01*
X157419364Y-122170000D01*
X157476567Y-122383486D01*
X157476570Y-122383492D01*
X157576399Y-122597578D01*
X157711894Y-122791082D01*
X157833946Y-122913134D01*
X157867431Y-122974457D01*
X157862447Y-123044149D01*
X157820575Y-123100082D01*
X157789598Y-123116997D01*
X157657671Y-123166202D01*
X157657664Y-123166206D01*
X157542455Y-123252452D01*
X157542452Y-123252455D01*
X157456206Y-123367664D01*
X157456202Y-123367671D01*
X157405908Y-123502517D01*
X157399501Y-123562116D01*
X157399501Y-123562123D01*
X157399500Y-123562135D01*
X157399500Y-125357870D01*
X157399501Y-125357876D01*
X157405908Y-125417483D01*
X157456202Y-125552328D01*
X157456206Y-125552335D01*
X157542452Y-125667544D01*
X157542455Y-125667547D01*
X157587647Y-125701378D01*
X157629518Y-125757311D01*
X157634502Y-125827003D01*
X157601017Y-125888325D01*
X156161162Y-127328181D01*
X156099839Y-127361666D01*
X156073481Y-127364500D01*
X155489378Y-127364500D01*
X155422339Y-127344815D01*
X155383839Y-127305597D01*
X155375459Y-127292011D01*
X155362712Y-127271344D01*
X155238656Y-127147288D01*
X155089334Y-127055186D01*
X154922797Y-127000001D01*
X154922795Y-127000000D01*
X154820010Y-126989500D01*
X152519998Y-126989500D01*
X152519981Y-126989501D01*
X152417203Y-127000000D01*
X152417200Y-127000001D01*
X152250668Y-127055185D01*
X152250663Y-127055187D01*
X152101342Y-127147289D01*
X151977289Y-127271342D01*
X151956161Y-127305597D01*
X151904213Y-127352321D01*
X151850622Y-127364500D01*
X150580519Y-127364500D01*
X150513480Y-127344815D01*
X150467725Y-127292011D01*
X150457781Y-127222853D01*
X150486806Y-127159297D01*
X150492838Y-127152819D01*
X150794112Y-126851545D01*
X150794112Y-126851544D01*
X150794114Y-126851543D01*
X150870775Y-126736811D01*
X150923580Y-126609328D01*
X150950500Y-126473993D01*
X150950500Y-126336006D01*
X150950500Y-125772888D01*
X150970185Y-125705849D01*
X151022989Y-125660094D01*
X151061244Y-125649598D01*
X151112483Y-125644091D01*
X151247331Y-125593796D01*
X151362546Y-125507546D01*
X151388618Y-125472717D01*
X151421046Y-125429401D01*
X151476979Y-125387530D01*
X151546671Y-125382546D01*
X151607994Y-125416032D01*
X151619578Y-125429401D01*
X151677809Y-125507187D01*
X151677812Y-125507190D01*
X151792906Y-125593350D01*
X151792913Y-125593354D01*
X151927620Y-125643596D01*
X151927627Y-125643598D01*
X151987155Y-125649999D01*
X151987172Y-125650000D01*
X152540000Y-125650000D01*
X153040000Y-125650000D01*
X153592828Y-125650000D01*
X153592844Y-125649999D01*
X153652372Y-125643598D01*
X153652379Y-125643596D01*
X153787086Y-125593354D01*
X153787093Y-125593350D01*
X153902187Y-125507190D01*
X153902190Y-125507187D01*
X153988350Y-125392093D01*
X153988354Y-125392086D01*
X154038596Y-125257379D01*
X154038598Y-125257372D01*
X154044999Y-125197844D01*
X154045000Y-125197827D01*
X154045000Y-124360000D01*
X153040000Y-124360000D01*
X153040000Y-125650000D01*
X152540000Y-125650000D01*
X152540000Y-123860000D01*
X153040000Y-123860000D01*
X154045000Y-123860000D01*
X154045000Y-123022172D01*
X154044999Y-123022155D01*
X154038598Y-122962627D01*
X154038596Y-122962620D01*
X153988354Y-122827913D01*
X153988350Y-122827906D01*
X153902190Y-122712812D01*
X153902187Y-122712809D01*
X153787093Y-122626649D01*
X153787086Y-122626645D01*
X153652379Y-122576403D01*
X153652372Y-122576401D01*
X153592844Y-122570000D01*
X153040000Y-122570000D01*
X153040000Y-123860000D01*
X152540000Y-123860000D01*
X152540000Y-122570000D01*
X151987155Y-122570000D01*
X151927627Y-122576401D01*
X151927620Y-122576403D01*
X151792913Y-122626645D01*
X151792906Y-122626649D01*
X151677812Y-122712809D01*
X151619578Y-122790599D01*
X151563644Y-122832469D01*
X151493952Y-122837453D01*
X151432629Y-122803967D01*
X151421046Y-122790599D01*
X151362814Y-122712812D01*
X151362546Y-122712454D01*
X151362544Y-122712453D01*
X151362544Y-122712452D01*
X151247335Y-122626206D01*
X151247328Y-122626202D01*
X151112482Y-122575908D01*
X151112483Y-122575908D01*
X151052883Y-122569501D01*
X151052881Y-122569500D01*
X151052873Y-122569500D01*
X151052864Y-122569500D01*
X149447129Y-122569500D01*
X149447123Y-122569501D01*
X149387516Y-122575908D01*
X149252671Y-122626202D01*
X149252664Y-122626206D01*
X149137455Y-122712452D01*
X149137452Y-122712455D01*
X149079266Y-122790182D01*
X149023332Y-122832053D01*
X148953641Y-122837037D01*
X148892318Y-122803551D01*
X148880734Y-122790182D01*
X148822547Y-122712455D01*
X148822544Y-122712452D01*
X148707335Y-122626206D01*
X148707328Y-122626202D01*
X148572482Y-122575908D01*
X148572483Y-122575908D01*
X148512883Y-122569501D01*
X148512881Y-122569500D01*
X148512873Y-122569500D01*
X148512864Y-122569500D01*
X146907129Y-122569500D01*
X146907123Y-122569501D01*
X146847516Y-122575908D01*
X146712671Y-122626202D01*
X146712664Y-122626206D01*
X146597455Y-122712452D01*
X146597452Y-122712455D01*
X146539266Y-122790182D01*
X146483332Y-122832053D01*
X146413641Y-122837037D01*
X146352318Y-122803551D01*
X146340734Y-122790182D01*
X146282547Y-122712455D01*
X146282544Y-122712452D01*
X146167335Y-122626206D01*
X146167328Y-122626202D01*
X146032482Y-122575908D01*
X146032483Y-122575908D01*
X145972883Y-122569501D01*
X145972881Y-122569500D01*
X145972873Y-122569500D01*
X145972864Y-122569500D01*
X144367129Y-122569500D01*
X144367123Y-122569501D01*
X144307516Y-122575908D01*
X144172671Y-122626202D01*
X144172664Y-122626206D01*
X144057455Y-122712452D01*
X144057452Y-122712455D01*
X143999266Y-122790182D01*
X143943332Y-122832053D01*
X143873641Y-122837037D01*
X143812318Y-122803551D01*
X143800734Y-122790182D01*
X143742547Y-122712455D01*
X143742544Y-122712452D01*
X143627335Y-122626206D01*
X143627328Y-122626202D01*
X143492482Y-122575908D01*
X143492483Y-122575908D01*
X143432883Y-122569501D01*
X143432881Y-122569500D01*
X143432873Y-122569500D01*
X143432864Y-122569500D01*
X141827129Y-122569500D01*
X141827123Y-122569501D01*
X141767516Y-122575908D01*
X141632671Y-122626202D01*
X141632664Y-122626206D01*
X141517455Y-122712452D01*
X141517452Y-122712455D01*
X141459266Y-122790182D01*
X141403332Y-122832053D01*
X141333641Y-122837037D01*
X141272318Y-122803551D01*
X141260734Y-122790182D01*
X141202547Y-122712455D01*
X141202544Y-122712452D01*
X141087335Y-122626206D01*
X141087328Y-122626202D01*
X140952482Y-122575908D01*
X140952483Y-122575908D01*
X140892883Y-122569501D01*
X140892881Y-122569500D01*
X140892873Y-122569500D01*
X140892864Y-122569500D01*
X139287129Y-122569500D01*
X139287123Y-122569501D01*
X139227516Y-122575908D01*
X139092671Y-122626202D01*
X139092664Y-122626206D01*
X138977455Y-122712452D01*
X138977454Y-122712453D01*
X138918952Y-122790600D01*
X138863018Y-122832470D01*
X138793326Y-122837453D01*
X138732004Y-122803966D01*
X138720421Y-122790598D01*
X138662190Y-122712812D01*
X138662187Y-122712809D01*
X138547093Y-122626649D01*
X138547086Y-122626645D01*
X138412379Y-122576403D01*
X138412372Y-122576401D01*
X138352844Y-122570000D01*
X137800000Y-122570000D01*
X137800000Y-123986000D01*
X137780315Y-124053039D01*
X137727511Y-124098794D01*
X137676000Y-124110000D01*
X137550000Y-124110000D01*
X137550000Y-124236000D01*
X137530315Y-124303039D01*
X137477511Y-124348794D01*
X137426000Y-124360000D01*
X135260000Y-124360000D01*
X135260000Y-125650000D01*
X135812828Y-125650000D01*
X135812844Y-125649999D01*
X135872372Y-125643598D01*
X135872379Y-125643596D01*
X136007086Y-125593354D01*
X136007093Y-125593350D01*
X136122187Y-125507190D01*
X136122190Y-125507187D01*
X136180734Y-125428984D01*
X136236668Y-125387113D01*
X136306359Y-125382129D01*
X136367682Y-125415615D01*
X136379266Y-125428984D01*
X136437809Y-125507187D01*
X136437812Y-125507190D01*
X136552906Y-125593350D01*
X136552913Y-125593354D01*
X136687620Y-125643596D01*
X136687627Y-125643598D01*
X136747155Y-125649999D01*
X136747172Y-125650000D01*
X137401402Y-125650000D01*
X137468441Y-125669685D01*
X137514196Y-125722489D01*
X137524140Y-125791647D01*
X137495115Y-125855203D01*
X137489083Y-125861681D01*
X135560773Y-127789990D01*
X135499450Y-127823475D01*
X135429758Y-127818491D01*
X135401970Y-127803885D01*
X135297830Y-127730965D01*
X135297829Y-127730964D01*
X135297827Y-127730963D01*
X135184387Y-127678065D01*
X135083663Y-127631097D01*
X135083659Y-127631096D01*
X135083655Y-127631094D01*
X134855413Y-127569938D01*
X134855403Y-127569936D01*
X134620001Y-127549341D01*
X134619999Y-127549341D01*
X134384596Y-127569936D01*
X134384586Y-127569938D01*
X134156344Y-127631094D01*
X134156335Y-127631098D01*
X133942171Y-127730964D01*
X133942169Y-127730965D01*
X133748597Y-127866505D01*
X133581508Y-128033594D01*
X133451574Y-128219160D01*
X133396997Y-128262784D01*
X133327498Y-128269977D01*
X133265144Y-128238455D01*
X133248429Y-128219164D01*
X133118495Y-128033599D01*
X133118493Y-128033596D01*
X132951402Y-127866506D01*
X132951395Y-127866501D01*
X132923673Y-127847090D01*
X132874518Y-127812671D01*
X132757834Y-127730967D01*
X132757830Y-127730965D01*
X132757826Y-127730963D01*
X132543663Y-127631097D01*
X132543659Y-127631096D01*
X132543655Y-127631094D01*
X132315413Y-127569938D01*
X132315403Y-127569936D01*
X132080001Y-127549341D01*
X132079999Y-127549341D01*
X131844596Y-127569936D01*
X131844586Y-127569938D01*
X131616344Y-127631094D01*
X131616335Y-127631098D01*
X131402171Y-127730964D01*
X131402169Y-127730965D01*
X131208597Y-127866505D01*
X131041508Y-128033594D01*
X130911574Y-128219160D01*
X130856997Y-128262784D01*
X130787498Y-128269977D01*
X130725144Y-128238455D01*
X130708429Y-128219164D01*
X130578495Y-128033599D01*
X130578493Y-128033596D01*
X130411402Y-127866506D01*
X130411395Y-127866501D01*
X130383673Y-127847090D01*
X130334518Y-127812671D01*
X130217834Y-127730967D01*
X130217830Y-127730965D01*
X130217826Y-127730963D01*
X130003663Y-127631097D01*
X130003659Y-127631096D01*
X130003655Y-127631094D01*
X129775413Y-127569938D01*
X129775403Y-127569936D01*
X129540001Y-127549341D01*
X129539999Y-127549341D01*
X129304596Y-127569936D01*
X129304586Y-127569938D01*
X129076344Y-127631094D01*
X129076335Y-127631098D01*
X128862171Y-127730964D01*
X128862169Y-127730965D01*
X128668597Y-127866505D01*
X128501505Y-128033597D01*
X128371575Y-128219158D01*
X128316998Y-128262783D01*
X128247500Y-128269977D01*
X128185145Y-128238454D01*
X128168425Y-128219158D01*
X128038494Y-128033597D01*
X127871402Y-127866506D01*
X127871395Y-127866501D01*
X127843673Y-127847090D01*
X127794518Y-127812671D01*
X127677834Y-127730967D01*
X127677830Y-127730965D01*
X127677826Y-127730963D01*
X127463663Y-127631097D01*
X127463659Y-127631096D01*
X127463655Y-127631094D01*
X127235413Y-127569938D01*
X127235403Y-127569936D01*
X127000001Y-127549341D01*
X126999999Y-127549341D01*
X126764596Y-127569936D01*
X126764586Y-127569938D01*
X126536344Y-127631094D01*
X126536335Y-127631098D01*
X126322171Y-127730964D01*
X126322169Y-127730965D01*
X126128597Y-127866505D01*
X125961506Y-128033596D01*
X125831575Y-128219159D01*
X125776998Y-128262784D01*
X125707500Y-128269978D01*
X125645145Y-128238455D01*
X125628425Y-128219159D01*
X125498494Y-128033597D01*
X125331402Y-127866506D01*
X125331395Y-127866501D01*
X125303673Y-127847090D01*
X125254518Y-127812671D01*
X125137834Y-127730967D01*
X125137830Y-127730965D01*
X125137826Y-127730963D01*
X124923663Y-127631097D01*
X124923659Y-127631096D01*
X124923655Y-127631094D01*
X124695413Y-127569938D01*
X124695403Y-127569936D01*
X124460001Y-127549341D01*
X124459999Y-127549341D01*
X124224596Y-127569936D01*
X124224586Y-127569938D01*
X123996344Y-127631094D01*
X123996335Y-127631098D01*
X123782171Y-127730964D01*
X123782169Y-127730965D01*
X123588595Y-127866507D01*
X123575744Y-127879357D01*
X123514419Y-127912839D01*
X123444727Y-127907850D01*
X123400387Y-127879352D01*
X122535690Y-127014655D01*
X122535688Y-127014652D01*
X122416817Y-126895781D01*
X122416816Y-126895780D01*
X122323279Y-126841777D01*
X122323278Y-126841776D01*
X122279883Y-126816722D01*
X122223981Y-126801743D01*
X122127157Y-126775799D01*
X121969043Y-126775799D01*
X121961447Y-126775799D01*
X121961431Y-126775800D01*
X121502097Y-126775800D01*
X121435058Y-126756115D01*
X121414416Y-126739481D01*
X119872779Y-125197844D01*
X121075000Y-125197844D01*
X121081401Y-125257372D01*
X121081403Y-125257379D01*
X121131645Y-125392086D01*
X121131649Y-125392093D01*
X121217809Y-125507187D01*
X121217812Y-125507190D01*
X121332906Y-125593350D01*
X121332913Y-125593354D01*
X121467620Y-125643596D01*
X121467627Y-125643598D01*
X121527155Y-125649999D01*
X121527172Y-125650000D01*
X122080000Y-125650000D01*
X122580000Y-125650000D01*
X123132828Y-125650000D01*
X123132844Y-125649999D01*
X123192372Y-125643598D01*
X123192379Y-125643596D01*
X123327086Y-125593354D01*
X123327093Y-125593350D01*
X123442187Y-125507190D01*
X123442190Y-125507187D01*
X123500734Y-125428984D01*
X123556668Y-125387113D01*
X123626359Y-125382129D01*
X123687682Y-125415615D01*
X123699266Y-125428984D01*
X123757809Y-125507187D01*
X123757812Y-125507190D01*
X123872906Y-125593350D01*
X123872913Y-125593354D01*
X124007620Y-125643596D01*
X124007627Y-125643598D01*
X124067155Y-125649999D01*
X124067172Y-125650000D01*
X124620000Y-125650000D01*
X125120000Y-125650000D01*
X125672828Y-125650000D01*
X125672844Y-125649999D01*
X125732372Y-125643598D01*
X125732379Y-125643596D01*
X125867086Y-125593354D01*
X125867093Y-125593350D01*
X125982187Y-125507190D01*
X125982190Y-125507187D01*
X126040734Y-125428984D01*
X126096668Y-125387113D01*
X126166359Y-125382129D01*
X126227682Y-125415615D01*
X126239266Y-125428984D01*
X126297809Y-125507187D01*
X126297812Y-125507190D01*
X126412906Y-125593350D01*
X126412913Y-125593354D01*
X126547620Y-125643596D01*
X126547627Y-125643598D01*
X126607155Y-125649999D01*
X126607172Y-125650000D01*
X127160000Y-125650000D01*
X127660000Y-125650000D01*
X128212828Y-125650000D01*
X128212844Y-125649999D01*
X128272372Y-125643598D01*
X128272379Y-125643596D01*
X128407086Y-125593354D01*
X128407093Y-125593350D01*
X128522187Y-125507190D01*
X128522190Y-125507187D01*
X128608350Y-125392093D01*
X128608354Y-125392086D01*
X128658596Y-125257379D01*
X128658598Y-125257372D01*
X128664999Y-125197844D01*
X133755000Y-125197844D01*
X133761401Y-125257372D01*
X133761403Y-125257379D01*
X133811645Y-125392086D01*
X133811649Y-125392093D01*
X133897809Y-125507187D01*
X133897812Y-125507190D01*
X134012906Y-125593350D01*
X134012913Y-125593354D01*
X134147620Y-125643596D01*
X134147627Y-125643598D01*
X134207155Y-125649999D01*
X134207172Y-125650000D01*
X134760000Y-125650000D01*
X134760000Y-124360000D01*
X133755000Y-124360000D01*
X133755000Y-125197844D01*
X128664999Y-125197844D01*
X128665000Y-125197827D01*
X128665000Y-124360000D01*
X127660000Y-124360000D01*
X127660000Y-125650000D01*
X127160000Y-125650000D01*
X127160000Y-124360000D01*
X125120000Y-124360000D01*
X125120000Y-125650000D01*
X124620000Y-125650000D01*
X124620000Y-124360000D01*
X122580000Y-124360000D01*
X122580000Y-125650000D01*
X122080000Y-125650000D01*
X122080000Y-124360000D01*
X121075000Y-124360000D01*
X121075000Y-125197844D01*
X119872779Y-125197844D01*
X117697090Y-123022155D01*
X121075000Y-123022155D01*
X121075000Y-123860000D01*
X122080000Y-123860000D01*
X122580000Y-123860000D01*
X124620000Y-123860000D01*
X125120000Y-123860000D01*
X127160000Y-123860000D01*
X127660000Y-123860000D01*
X128665000Y-123860000D01*
X128665000Y-123022172D01*
X128664999Y-123022155D01*
X133755000Y-123022155D01*
X133755000Y-123860000D01*
X134760000Y-123860000D01*
X135260000Y-123860000D01*
X137300000Y-123860000D01*
X137300000Y-122570000D01*
X136747155Y-122570000D01*
X136687627Y-122576401D01*
X136687620Y-122576403D01*
X136552913Y-122626645D01*
X136552906Y-122626649D01*
X136437812Y-122712809D01*
X136379266Y-122791016D01*
X136323332Y-122832886D01*
X136253640Y-122837870D01*
X136192317Y-122804384D01*
X136180734Y-122791016D01*
X136122187Y-122712809D01*
X136007093Y-122626649D01*
X136007086Y-122626645D01*
X135872379Y-122576403D01*
X135872372Y-122576401D01*
X135812844Y-122570000D01*
X135260000Y-122570000D01*
X135260000Y-123860000D01*
X134760000Y-123860000D01*
X134760000Y-122570000D01*
X134207155Y-122570000D01*
X134147627Y-122576401D01*
X134147620Y-122576403D01*
X134012913Y-122626645D01*
X134012906Y-122626649D01*
X133897812Y-122712809D01*
X133897809Y-122712812D01*
X133811649Y-122827906D01*
X133811645Y-122827913D01*
X133761403Y-122962620D01*
X133761401Y-122962627D01*
X133755000Y-123022155D01*
X128664999Y-123022155D01*
X128658598Y-122962627D01*
X128658596Y-122962620D01*
X128608354Y-122827913D01*
X128608350Y-122827906D01*
X128522190Y-122712812D01*
X128522187Y-122712809D01*
X128407093Y-122626649D01*
X128407086Y-122626645D01*
X128272379Y-122576403D01*
X128272372Y-122576401D01*
X128212844Y-122570000D01*
X127660000Y-122570000D01*
X127660000Y-123860000D01*
X127160000Y-123860000D01*
X127160000Y-122570000D01*
X126607155Y-122570000D01*
X126547627Y-122576401D01*
X126547620Y-122576403D01*
X126412913Y-122626645D01*
X126412906Y-122626649D01*
X126297812Y-122712809D01*
X126239266Y-122791016D01*
X126183332Y-122832886D01*
X126113640Y-122837870D01*
X126052317Y-122804384D01*
X126040734Y-122791016D01*
X125982187Y-122712809D01*
X125867093Y-122626649D01*
X125867086Y-122626645D01*
X125732379Y-122576403D01*
X125732372Y-122576401D01*
X125672844Y-122570000D01*
X125120000Y-122570000D01*
X125120000Y-123860000D01*
X124620000Y-123860000D01*
X124620000Y-122570000D01*
X124067155Y-122570000D01*
X124007627Y-122576401D01*
X124007620Y-122576403D01*
X123872913Y-122626645D01*
X123872906Y-122626649D01*
X123757812Y-122712809D01*
X123699266Y-122791016D01*
X123643332Y-122832886D01*
X123573640Y-122837870D01*
X123512317Y-122804384D01*
X123500734Y-122791016D01*
X123442187Y-122712809D01*
X123327093Y-122626649D01*
X123327086Y-122626645D01*
X123192379Y-122576403D01*
X123192372Y-122576401D01*
X123132844Y-122570000D01*
X122580000Y-122570000D01*
X122580000Y-123860000D01*
X122080000Y-123860000D01*
X122080000Y-122570000D01*
X121527155Y-122570000D01*
X121467627Y-122576401D01*
X121467620Y-122576403D01*
X121332913Y-122626645D01*
X121332906Y-122626649D01*
X121217812Y-122712809D01*
X121217809Y-122712812D01*
X121131649Y-122827906D01*
X121131645Y-122827913D01*
X121081403Y-122962620D01*
X121081401Y-122962627D01*
X121075000Y-123022155D01*
X117697090Y-123022155D01*
X115697119Y-121022184D01*
X115663634Y-120960861D01*
X115660800Y-120934503D01*
X115660800Y-104358356D01*
X115680485Y-104291317D01*
X115733289Y-104245562D01*
X115802447Y-104235618D01*
X115850771Y-104253361D01*
X115962378Y-104323489D01*
X116132645Y-104383068D01*
X116132650Y-104383069D01*
X116311896Y-104403265D01*
X116311900Y-104403265D01*
X116311904Y-104403265D01*
X116491149Y-104383069D01*
X116491152Y-104383068D01*
X116491155Y-104383068D01*
X116661422Y-104323489D01*
X116814162Y-104227516D01*
X116941716Y-104099962D01*
X117037689Y-103947222D01*
X117097268Y-103776955D01*
X117117465Y-103597700D01*
X117097268Y-103418445D01*
X117037689Y-103248178D01*
X116941716Y-103095438D01*
X116941714Y-103095436D01*
X116941713Y-103095434D01*
X116939450Y-103092596D01*
X116938559Y-103090415D01*
X116938011Y-103089542D01*
X116938164Y-103089445D01*
X116913044Y-103027909D01*
X116912400Y-103015287D01*
X116912400Y-102562397D01*
X116932085Y-102495358D01*
X116948719Y-102474716D01*
X117375591Y-102047844D01*
X121075000Y-102047844D01*
X121081401Y-102107372D01*
X121081403Y-102107379D01*
X121131645Y-102242086D01*
X121131649Y-102242093D01*
X121217809Y-102357187D01*
X121217812Y-102357190D01*
X121332906Y-102443350D01*
X121332913Y-102443354D01*
X121467620Y-102493596D01*
X121467627Y-102493598D01*
X121527155Y-102499999D01*
X121527172Y-102500000D01*
X122080000Y-102500000D01*
X122080000Y-101210000D01*
X121075000Y-101210000D01*
X121075000Y-102047844D01*
X117375591Y-102047844D01*
X119168317Y-100255119D01*
X119229640Y-100221634D01*
X119255998Y-100218800D01*
X120951000Y-100218800D01*
X121018039Y-100238485D01*
X121063794Y-100291289D01*
X121075000Y-100342800D01*
X121075000Y-100710000D01*
X122206000Y-100710000D01*
X122273039Y-100729685D01*
X122318794Y-100782489D01*
X122330000Y-100834000D01*
X122330000Y-100960000D01*
X122456000Y-100960000D01*
X122523039Y-100979685D01*
X122568794Y-101032489D01*
X122580000Y-101084000D01*
X122580000Y-102500000D01*
X123132828Y-102500000D01*
X123132844Y-102499999D01*
X123192372Y-102493598D01*
X123192379Y-102493596D01*
X123327086Y-102443354D01*
X123327093Y-102443350D01*
X123442186Y-102357191D01*
X123500420Y-102279401D01*
X123556354Y-102237530D01*
X123626045Y-102232546D01*
X123687368Y-102266031D01*
X123698953Y-102279400D01*
X123744337Y-102340024D01*
X123757187Y-102357190D01*
X123757455Y-102357547D01*
X123872664Y-102443793D01*
X123872671Y-102443797D01*
X124007517Y-102494091D01*
X124007516Y-102494091D01*
X124014444Y-102494835D01*
X124067127Y-102500500D01*
X125672872Y-102500499D01*
X125732483Y-102494091D01*
X125867331Y-102443796D01*
X125982546Y-102357546D01*
X126008618Y-102322717D01*
X126041046Y-102279401D01*
X126096979Y-102237530D01*
X126166671Y-102232546D01*
X126227994Y-102266032D01*
X126239578Y-102279401D01*
X126297809Y-102357187D01*
X126297812Y-102357190D01*
X126412906Y-102443350D01*
X126412913Y-102443354D01*
X126547620Y-102493596D01*
X126547627Y-102493598D01*
X126607155Y-102499999D01*
X126607172Y-102500000D01*
X127160000Y-102500000D01*
X127660000Y-102500000D01*
X128212828Y-102500000D01*
X128212844Y-102499999D01*
X128272372Y-102493598D01*
X128272379Y-102493596D01*
X128407086Y-102443354D01*
X128407093Y-102443350D01*
X128522187Y-102357190D01*
X128522190Y-102357187D01*
X128608350Y-102242093D01*
X128608354Y-102242086D01*
X128658596Y-102107379D01*
X128658598Y-102107372D01*
X128664999Y-102047844D01*
X128665000Y-102047827D01*
X128665000Y-101210000D01*
X127660000Y-101210000D01*
X127660000Y-102500000D01*
X127160000Y-102500000D01*
X127160000Y-101084000D01*
X127179685Y-101016961D01*
X127232489Y-100971206D01*
X127284000Y-100960000D01*
X127410000Y-100960000D01*
X127410000Y-100834000D01*
X127429685Y-100766961D01*
X127482489Y-100721206D01*
X127534000Y-100710000D01*
X128665000Y-100710000D01*
X128665000Y-100342800D01*
X128684685Y-100275761D01*
X128737489Y-100230006D01*
X128789000Y-100218800D01*
X132311503Y-100218800D01*
X132378542Y-100238485D01*
X132399184Y-100255119D01*
X133468439Y-101324374D01*
X133468449Y-101324385D01*
X133472779Y-101328715D01*
X133472780Y-101328716D01*
X133584584Y-101440520D01*
X133692501Y-101502825D01*
X133740715Y-101553390D01*
X133754500Y-101610211D01*
X133754500Y-102047870D01*
X133754501Y-102047876D01*
X133760908Y-102107483D01*
X133811202Y-102242328D01*
X133811206Y-102242335D01*
X133897452Y-102357544D01*
X133897455Y-102357547D01*
X134012664Y-102443793D01*
X134012671Y-102443797D01*
X134147517Y-102494091D01*
X134147516Y-102494091D01*
X134154444Y-102494835D01*
X134207127Y-102500500D01*
X135812872Y-102500499D01*
X135872483Y-102494091D01*
X136007331Y-102443796D01*
X136122546Y-102357546D01*
X136180735Y-102279815D01*
X136236667Y-102237946D01*
X136306359Y-102232962D01*
X136367682Y-102266447D01*
X136379259Y-102279808D01*
X136437454Y-102357546D01*
X136437455Y-102357546D01*
X136437456Y-102357548D01*
X136552664Y-102443793D01*
X136552671Y-102443797D01*
X136687517Y-102494091D01*
X136687516Y-102494091D01*
X136694444Y-102494835D01*
X136747127Y-102500500D01*
X138352872Y-102500499D01*
X138412483Y-102494091D01*
X138547331Y-102443796D01*
X138662546Y-102357546D01*
X138720735Y-102279815D01*
X138776667Y-102237946D01*
X138846359Y-102232962D01*
X138907682Y-102266447D01*
X138919259Y-102279808D01*
X138977454Y-102357546D01*
X138977455Y-102357546D01*
X138977456Y-102357548D01*
X139092664Y-102443793D01*
X139092671Y-102443797D01*
X139227517Y-102494091D01*
X139227516Y-102494091D01*
X139234444Y-102494835D01*
X139287127Y-102500500D01*
X140892872Y-102500499D01*
X140952483Y-102494091D01*
X141087331Y-102443796D01*
X141202546Y-102357546D01*
X141260735Y-102279815D01*
X141316667Y-102237946D01*
X141386359Y-102232962D01*
X141447682Y-102266447D01*
X141459259Y-102279808D01*
X141517454Y-102357546D01*
X141517455Y-102357546D01*
X141517456Y-102357548D01*
X141632664Y-102443793D01*
X141632671Y-102443797D01*
X141767517Y-102494091D01*
X141767516Y-102494091D01*
X141774444Y-102494835D01*
X141827127Y-102500500D01*
X143432872Y-102500499D01*
X143492483Y-102494091D01*
X143627331Y-102443796D01*
X143742546Y-102357546D01*
X143800735Y-102279815D01*
X143856667Y-102237946D01*
X143926359Y-102232962D01*
X143987682Y-102266447D01*
X143999259Y-102279808D01*
X144057454Y-102357546D01*
X144057455Y-102357546D01*
X144057456Y-102357548D01*
X144172664Y-102443793D01*
X144172671Y-102443797D01*
X144307517Y-102494091D01*
X144307516Y-102494091D01*
X144314444Y-102494835D01*
X144367127Y-102500500D01*
X145972872Y-102500499D01*
X146032483Y-102494091D01*
X146167331Y-102443796D01*
X146282546Y-102357546D01*
X146340735Y-102279815D01*
X146396667Y-102237946D01*
X146466359Y-102232962D01*
X146527682Y-102266447D01*
X146539259Y-102279808D01*
X146597454Y-102357546D01*
X146597455Y-102357546D01*
X146597456Y-102357548D01*
X146712664Y-102443793D01*
X146712671Y-102443797D01*
X146847517Y-102494091D01*
X146847516Y-102494091D01*
X146854444Y-102494835D01*
X146907127Y-102500500D01*
X148512872Y-102500499D01*
X148572483Y-102494091D01*
X148707331Y-102443796D01*
X148822546Y-102357546D01*
X148880735Y-102279815D01*
X148936667Y-102237946D01*
X149006359Y-102232962D01*
X149067682Y-102266447D01*
X149079259Y-102279808D01*
X149137454Y-102357546D01*
X149137455Y-102357546D01*
X149137456Y-102357548D01*
X149252664Y-102443793D01*
X149252671Y-102443797D01*
X149387517Y-102494091D01*
X149387516Y-102494091D01*
X149394444Y-102494835D01*
X149447127Y-102500500D01*
X151052872Y-102500499D01*
X151112483Y-102494091D01*
X151247331Y-102443796D01*
X151362546Y-102357546D01*
X151388618Y-102322717D01*
X151421046Y-102279401D01*
X151476979Y-102237530D01*
X151546671Y-102232546D01*
X151607994Y-102266032D01*
X151619578Y-102279401D01*
X151677809Y-102357187D01*
X151677812Y-102357190D01*
X151792906Y-102443350D01*
X151792913Y-102443354D01*
X151927620Y-102493596D01*
X151927627Y-102493598D01*
X151987155Y-102499999D01*
X151987172Y-102500000D01*
X152540000Y-102500000D01*
X153040000Y-102500000D01*
X153592828Y-102500000D01*
X153592844Y-102499999D01*
X153652372Y-102493598D01*
X153652379Y-102493596D01*
X153787086Y-102443354D01*
X153787093Y-102443350D01*
X153902187Y-102357190D01*
X153902190Y-102357187D01*
X153988350Y-102242093D01*
X153988354Y-102242086D01*
X154038596Y-102107379D01*
X154038598Y-102107372D01*
X154044999Y-102047844D01*
X154045000Y-102047827D01*
X154045000Y-101210000D01*
X153040000Y-101210000D01*
X153040000Y-102500000D01*
X152540000Y-102500000D01*
X152540000Y-101084000D01*
X152559685Y-101016961D01*
X152612489Y-100971206D01*
X152664000Y-100960000D01*
X152790000Y-100960000D01*
X152790000Y-100834000D01*
X152809685Y-100766961D01*
X152862489Y-100721206D01*
X152914000Y-100710000D01*
X154045000Y-100710000D01*
X154045000Y-100342800D01*
X154064685Y-100275761D01*
X154117489Y-100230006D01*
X154169000Y-100218800D01*
X154673203Y-100218800D01*
X154740242Y-100238485D01*
X154760884Y-100255119D01*
X155250498Y-100744733D01*
X155283983Y-100806056D01*
X155286037Y-100818530D01*
X155295830Y-100905449D01*
X155355410Y-101075721D01*
X155442285Y-101213981D01*
X155451384Y-101228462D01*
X155578938Y-101356016D01*
X155731678Y-101451989D01*
X155806602Y-101478206D01*
X155901945Y-101511568D01*
X155901950Y-101511569D01*
X156081196Y-101531765D01*
X156081200Y-101531765D01*
X156081204Y-101531765D01*
X156260449Y-101511569D01*
X156260452Y-101511568D01*
X156260455Y-101511568D01*
X156430722Y-101451989D01*
X156583462Y-101356016D01*
X156711016Y-101228462D01*
X156806989Y-101075722D01*
X156866568Y-100905455D01*
X156876362Y-100818530D01*
X156886765Y-100726203D01*
X156886765Y-100726196D01*
X156866569Y-100546950D01*
X156866568Y-100546945D01*
X156845699Y-100487306D01*
X156806989Y-100376678D01*
X156711016Y-100223938D01*
X156583462Y-100096384D01*
X156461890Y-100019995D01*
X158964592Y-100019995D01*
X158964592Y-100020004D01*
X158984196Y-100281620D01*
X158984197Y-100281625D01*
X159042576Y-100537402D01*
X159042578Y-100537411D01*
X159042580Y-100537416D01*
X159138432Y-100781643D01*
X159269614Y-101008857D01*
X159322938Y-101075723D01*
X159433198Y-101213985D01*
X159586273Y-101356016D01*
X159625521Y-101392433D01*
X159842296Y-101540228D01*
X159842301Y-101540230D01*
X159842302Y-101540231D01*
X159842303Y-101540232D01*
X159967843Y-101600688D01*
X160078673Y-101654061D01*
X160078674Y-101654061D01*
X160078677Y-101654063D01*
X160329385Y-101731396D01*
X160588818Y-101770500D01*
X160851182Y-101770500D01*
X161110615Y-101731396D01*
X161361323Y-101654063D01*
X161597704Y-101540228D01*
X161814479Y-101392433D01*
X162006805Y-101213981D01*
X162170386Y-101008857D01*
X162301568Y-100781643D01*
X162397420Y-100537416D01*
X162455802Y-100281630D01*
X162459671Y-100230006D01*
X162475408Y-100020004D01*
X162475408Y-100019995D01*
X162455803Y-99758379D01*
X162455802Y-99758374D01*
X162455802Y-99758370D01*
X162397420Y-99502584D01*
X162301568Y-99258357D01*
X162170386Y-99031143D01*
X162006805Y-98826019D01*
X162006804Y-98826018D01*
X162006801Y-98826014D01*
X161814479Y-98647567D01*
X161787735Y-98629333D01*
X161597704Y-98499772D01*
X161597700Y-98499770D01*
X161597697Y-98499768D01*
X161597696Y-98499767D01*
X161361325Y-98385938D01*
X161361327Y-98385938D01*
X161110623Y-98308606D01*
X161110619Y-98308605D01*
X161110615Y-98308604D01*
X160985823Y-98289794D01*
X160851187Y-98269500D01*
X160851182Y-98269500D01*
X160588818Y-98269500D01*
X160588812Y-98269500D01*
X160440452Y-98291863D01*
X160329385Y-98308604D01*
X160329382Y-98308605D01*
X160329376Y-98308606D01*
X160078673Y-98385938D01*
X159842303Y-98499767D01*
X159842302Y-98499768D01*
X159625520Y-98647567D01*
X159433198Y-98826014D01*
X159269614Y-99031143D01*
X159138432Y-99258356D01*
X159042582Y-99502578D01*
X159042576Y-99502597D01*
X158984197Y-99758374D01*
X158984196Y-99758379D01*
X158964592Y-100019995D01*
X156461890Y-100019995D01*
X156430721Y-100000410D01*
X156260449Y-99940830D01*
X156173530Y-99931037D01*
X156109116Y-99903970D01*
X156099733Y-99895498D01*
X155588416Y-99384181D01*
X155554931Y-99322858D01*
X155559915Y-99253166D01*
X155601787Y-99197233D01*
X155667251Y-99172816D01*
X155676097Y-99172500D01*
X155784288Y-99172500D01*
X155851327Y-99192185D01*
X155861603Y-99199555D01*
X155864436Y-99201814D01*
X155864438Y-99201816D01*
X156017178Y-99297789D01*
X156187445Y-99357368D01*
X156187450Y-99357369D01*
X156366696Y-99377565D01*
X156366700Y-99377565D01*
X156366704Y-99377565D01*
X156545949Y-99357369D01*
X156545952Y-99357368D01*
X156545955Y-99357368D01*
X156716222Y-99297789D01*
X156868962Y-99201816D01*
X156996516Y-99074262D01*
X157092489Y-98921522D01*
X157143260Y-98776426D01*
X157183981Y-98719652D01*
X157232719Y-98696488D01*
X157236740Y-98695569D01*
X157236755Y-98695568D01*
X157407022Y-98635989D01*
X157559762Y-98540016D01*
X157687316Y-98412462D01*
X157783289Y-98259722D01*
X157842868Y-98089455D01*
X157846464Y-98057539D01*
X157863065Y-97910203D01*
X157863065Y-97910196D01*
X157842869Y-97730950D01*
X157842868Y-97730945D01*
X157783288Y-97560676D01*
X157728485Y-97473458D01*
X157687316Y-97407938D01*
X157559762Y-97280384D01*
X157559760Y-97280382D01*
X157510600Y-97249493D01*
X157464310Y-97197159D01*
X157453662Y-97128105D01*
X157482037Y-97064257D01*
X157540427Y-97025885D01*
X157576573Y-97020500D01*
X161594108Y-97020500D01*
X161655933Y-97020500D01*
X161664042Y-97020765D01*
X161687442Y-97022298D01*
X161920725Y-97037588D01*
X161936783Y-97039703D01*
X162185077Y-97089092D01*
X162200728Y-97093286D01*
X162440439Y-97174657D01*
X162455422Y-97180862D01*
X162488468Y-97197159D01*
X162682460Y-97292826D01*
X162696508Y-97300936D01*
X162906990Y-97441576D01*
X162919850Y-97451444D01*
X163022521Y-97541484D01*
X163110175Y-97618355D01*
X163121644Y-97629824D01*
X163288552Y-97820145D01*
X163298426Y-97833013D01*
X163439063Y-98043492D01*
X163447173Y-98057539D01*
X163559136Y-98284576D01*
X163565343Y-98299562D01*
X163646711Y-98539265D01*
X163650909Y-98554931D01*
X163690697Y-98754958D01*
X163700294Y-98803202D01*
X163702412Y-98819284D01*
X163719235Y-99075956D01*
X163719500Y-99084066D01*
X163719500Y-133955933D01*
X163719235Y-133964043D01*
X163702412Y-134220715D01*
X163700294Y-134236797D01*
X163650909Y-134485068D01*
X163646711Y-134500734D01*
X163565343Y-134740437D01*
X163559136Y-134755423D01*
X163447173Y-134982460D01*
X163439063Y-134996507D01*
X163298426Y-135206986D01*
X163288552Y-135219854D01*
X163121644Y-135410175D01*
X163110175Y-135421644D01*
X162919854Y-135588552D01*
X162906986Y-135598426D01*
X162696507Y-135739063D01*
X162682460Y-135747173D01*
X162455423Y-135859136D01*
X162440437Y-135865343D01*
X162200734Y-135946711D01*
X162185068Y-135950909D01*
X161936797Y-136000294D01*
X161920715Y-136002412D01*
X161664043Y-136019235D01*
X161655933Y-136019500D01*
X111784067Y-136019500D01*
X111775957Y-136019235D01*
X111519284Y-136002412D01*
X111503204Y-136000294D01*
X111383728Y-135976528D01*
X111254931Y-135950909D01*
X111239265Y-135946711D01*
X110999562Y-135865343D01*
X110984576Y-135859136D01*
X110757539Y-135747173D01*
X110743492Y-135739063D01*
X110533013Y-135598426D01*
X110520145Y-135588552D01*
X110329824Y-135421644D01*
X110318355Y-135410175D01*
X110151447Y-135219854D01*
X110141573Y-135206986D01*
X110000936Y-134996507D01*
X109992826Y-134982460D01*
X109880863Y-134755423D01*
X109874656Y-134740437D01*
X109871587Y-134731396D01*
X109793286Y-134500728D01*
X109789092Y-134485077D01*
X109739703Y-134236783D01*
X109737588Y-134220725D01*
X109720765Y-133964042D01*
X109720500Y-133955933D01*
X109720500Y-133019995D01*
X110964592Y-133019995D01*
X110964592Y-133020004D01*
X110984196Y-133281620D01*
X110984197Y-133281625D01*
X111042576Y-133537402D01*
X111042578Y-133537411D01*
X111042580Y-133537416D01*
X111138432Y-133781643D01*
X111269614Y-134008857D01*
X111358562Y-134120394D01*
X111433198Y-134213985D01*
X111614753Y-134382441D01*
X111625521Y-134392433D01*
X111842296Y-134540228D01*
X111842301Y-134540230D01*
X111842302Y-134540231D01*
X111842303Y-134540232D01*
X111967843Y-134600688D01*
X112078673Y-134654061D01*
X112078674Y-134654061D01*
X112078677Y-134654063D01*
X112329385Y-134731396D01*
X112588818Y-134770500D01*
X112851182Y-134770500D01*
X113110615Y-134731396D01*
X113361323Y-134654063D01*
X113597704Y-134540228D01*
X113814479Y-134392433D01*
X113982215Y-134236797D01*
X114006801Y-134213985D01*
X114006801Y-134213983D01*
X114006805Y-134213981D01*
X114170386Y-134008857D01*
X114301568Y-133781643D01*
X114397420Y-133537416D01*
X114455802Y-133281630D01*
X114475408Y-133020000D01*
X114475408Y-133019995D01*
X158964592Y-133019995D01*
X158964592Y-133020004D01*
X158984196Y-133281620D01*
X158984197Y-133281625D01*
X159042576Y-133537402D01*
X159042578Y-133537411D01*
X159042580Y-133537416D01*
X159138432Y-133781643D01*
X159269614Y-134008857D01*
X159358562Y-134120394D01*
X159433198Y-134213985D01*
X159614753Y-134382441D01*
X159625521Y-134392433D01*
X159842296Y-134540228D01*
X159842301Y-134540230D01*
X159842302Y-134540231D01*
X159842303Y-134540232D01*
X159967843Y-134600688D01*
X160078673Y-134654061D01*
X160078674Y-134654061D01*
X160078677Y-134654063D01*
X160329385Y-134731396D01*
X160588818Y-134770500D01*
X160851182Y-134770500D01*
X161110615Y-134731396D01*
X161361323Y-134654063D01*
X161597704Y-134540228D01*
X161814479Y-134392433D01*
X161982215Y-134236797D01*
X162006801Y-134213985D01*
X162006801Y-134213983D01*
X162006805Y-134213981D01*
X162170386Y-134008857D01*
X162301568Y-133781643D01*
X162397420Y-133537416D01*
X162455802Y-133281630D01*
X162475408Y-133020000D01*
X162459627Y-132809418D01*
X162455803Y-132758379D01*
X162455802Y-132758374D01*
X162455802Y-132758370D01*
X162397420Y-132502584D01*
X162301568Y-132258357D01*
X162170386Y-132031143D01*
X162006805Y-131826019D01*
X162006804Y-131826018D01*
X162006801Y-131826014D01*
X161814479Y-131647567D01*
X161725281Y-131586753D01*
X161597704Y-131499772D01*
X161597700Y-131499770D01*
X161597697Y-131499768D01*
X161597696Y-131499767D01*
X161361325Y-131385938D01*
X161361327Y-131385938D01*
X161110623Y-131308606D01*
X161110619Y-131308605D01*
X161110615Y-131308604D01*
X160985823Y-131289794D01*
X160851187Y-131269500D01*
X160851182Y-131269500D01*
X160588818Y-131269500D01*
X160588812Y-131269500D01*
X160427247Y-131293853D01*
X160329385Y-131308604D01*
X160329382Y-131308605D01*
X160329376Y-131308606D01*
X160078673Y-131385938D01*
X159842303Y-131499767D01*
X159842302Y-131499768D01*
X159625520Y-131647567D01*
X159433198Y-131826014D01*
X159269614Y-132031143D01*
X159138432Y-132258356D01*
X159042582Y-132502578D01*
X159042576Y-132502597D01*
X158984197Y-132758374D01*
X158984196Y-132758379D01*
X158964592Y-133019995D01*
X114475408Y-133019995D01*
X114459627Y-132809418D01*
X114455803Y-132758379D01*
X114455802Y-132758374D01*
X114455802Y-132758370D01*
X114397420Y-132502584D01*
X114301568Y-132258357D01*
X114170386Y-132031143D01*
X114006805Y-131826019D01*
X114006804Y-131826018D01*
X114006801Y-131826014D01*
X113814479Y-131647567D01*
X113725281Y-131586753D01*
X113597704Y-131499772D01*
X113597700Y-131499770D01*
X113597697Y-131499768D01*
X113597696Y-131499767D01*
X113361325Y-131385938D01*
X113361327Y-131385938D01*
X113110623Y-131308606D01*
X113110619Y-131308605D01*
X113110615Y-131308604D01*
X112985823Y-131289794D01*
X112851187Y-131269500D01*
X112851182Y-131269500D01*
X112588818Y-131269500D01*
X112588812Y-131269500D01*
X112427247Y-131293853D01*
X112329385Y-131308604D01*
X112329382Y-131308605D01*
X112329376Y-131308606D01*
X112078673Y-131385938D01*
X111842303Y-131499767D01*
X111842302Y-131499768D01*
X111625520Y-131647567D01*
X111433198Y-131826014D01*
X111269614Y-132031143D01*
X111138432Y-132258356D01*
X111042582Y-132502578D01*
X111042576Y-132502597D01*
X110984197Y-132758374D01*
X110984196Y-132758379D01*
X110964592Y-133019995D01*
X109720500Y-133019995D01*
X109720500Y-99084066D01*
X109720765Y-99075957D01*
X109724819Y-99014108D01*
X109737588Y-98819272D01*
X109739702Y-98803218D01*
X109789093Y-98554918D01*
X109793285Y-98539275D01*
X109874659Y-98299554D01*
X109880860Y-98284583D01*
X109992829Y-98057533D01*
X110000932Y-98043498D01*
X110141581Y-97833001D01*
X110151438Y-97820156D01*
X110318360Y-97629818D01*
X110329818Y-97618360D01*
X110520156Y-97451438D01*
X110533001Y-97441581D01*
X110743498Y-97300932D01*
X110757533Y-97292829D01*
X110984583Y-97180860D01*
X110999554Y-97174659D01*
X111239275Y-97093285D01*
X111254918Y-97089093D01*
X111503218Y-97039702D01*
X111519272Y-97037588D01*
X111754217Y-97022189D01*
X111775958Y-97020765D01*
X111784067Y-97020500D01*
X111845892Y-97020500D01*
X156538427Y-97020500D01*
X156605466Y-97040185D01*
G37*
%TD.AperFunction*%
%TA.AperFunction,Conductor*%
G36*
X133085555Y-129911842D02*
G01*
X133129911Y-129940346D01*
X133619739Y-130430174D01*
X133619749Y-130430185D01*
X133624079Y-130434515D01*
X133624080Y-130434516D01*
X133735884Y-130546320D01*
X133822695Y-130596439D01*
X133822697Y-130596441D01*
X133858086Y-130616873D01*
X133872815Y-130625377D01*
X134025543Y-130666301D01*
X134025546Y-130666301D01*
X134191253Y-130666301D01*
X134191269Y-130666300D01*
X146616000Y-130666300D01*
X146683039Y-130685985D01*
X146728794Y-130738789D01*
X146732965Y-130757965D01*
X146740000Y-130765000D01*
X150439999Y-130765000D01*
X150450516Y-130754482D01*
X150459684Y-130723261D01*
X150512488Y-130677506D01*
X150563999Y-130666300D01*
X151696000Y-130666300D01*
X151763039Y-130685985D01*
X151808794Y-130738789D01*
X151812965Y-130757965D01*
X151820000Y-130765000D01*
X153546000Y-130765000D01*
X153613039Y-130784685D01*
X153658794Y-130837489D01*
X153670000Y-130889000D01*
X153670000Y-131141000D01*
X153650315Y-131208039D01*
X153597511Y-131253794D01*
X153546000Y-131265000D01*
X151820001Y-131265000D01*
X151820001Y-131389986D01*
X151830494Y-131492697D01*
X151854584Y-131565396D01*
X151856986Y-131635225D01*
X151821254Y-131695266D01*
X151758733Y-131726459D01*
X151736878Y-131728400D01*
X150523121Y-131728400D01*
X150456082Y-131708715D01*
X150410327Y-131655911D01*
X150400383Y-131586753D01*
X150405415Y-131565396D01*
X150429505Y-131492697D01*
X150429506Y-131492690D01*
X150439999Y-131389986D01*
X150440000Y-131389973D01*
X150440000Y-131265000D01*
X146740001Y-131265000D01*
X146740001Y-131389986D01*
X146750494Y-131492697D01*
X146774584Y-131565396D01*
X146776986Y-131635225D01*
X146741254Y-131695266D01*
X146678733Y-131726459D01*
X146656878Y-131728400D01*
X134127798Y-131728400D01*
X134060759Y-131708715D01*
X134040117Y-131692081D01*
X133489036Y-131141000D01*
X132657477Y-130309442D01*
X132623993Y-130248120D01*
X132628977Y-130178428D01*
X132670849Y-130122495D01*
X132692755Y-130109380D01*
X132757830Y-130079035D01*
X132951401Y-129943495D01*
X132954546Y-129940349D01*
X133015863Y-129906863D01*
X133085555Y-129911842D01*
G37*
%TD.AperFunction*%
%TA.AperFunction,Conductor*%
G36*
X146527682Y-125416447D02*
G01*
X146539259Y-125429808D01*
X146597454Y-125507546D01*
X146597455Y-125507546D01*
X146597456Y-125507548D01*
X146712664Y-125593793D01*
X146712671Y-125593797D01*
X146847517Y-125644091D01*
X146847516Y-125644091D01*
X146898755Y-125649600D01*
X146963306Y-125676338D01*
X147003154Y-125733730D01*
X147009500Y-125772889D01*
X147009500Y-127107770D01*
X146989815Y-127174809D01*
X146973181Y-127195451D01*
X146897289Y-127271342D01*
X146805187Y-127420663D01*
X146805185Y-127420668D01*
X146792042Y-127460331D01*
X146750001Y-127587203D01*
X146750001Y-127587204D01*
X146750000Y-127587204D01*
X146739500Y-127689983D01*
X146739500Y-127689996D01*
X146739501Y-128390900D01*
X146719817Y-128457939D01*
X146667013Y-128503694D01*
X146615501Y-128514900D01*
X143902198Y-128514900D01*
X143835159Y-128495215D01*
X143814517Y-128478581D01*
X143760417Y-128424481D01*
X143760416Y-128424480D01*
X143673604Y-128374360D01*
X143673604Y-128374359D01*
X143673600Y-128374358D01*
X143656112Y-128364260D01*
X143623486Y-128345423D01*
X143502994Y-128313137D01*
X143443334Y-128276771D01*
X143422708Y-128245768D01*
X143414038Y-128227176D01*
X143414034Y-128227169D01*
X143278494Y-128033597D01*
X143111402Y-127866506D01*
X143111395Y-127866501D01*
X143083673Y-127847090D01*
X143034518Y-127812671D01*
X142917834Y-127730967D01*
X142917830Y-127730965D01*
X142917826Y-127730963D01*
X142723992Y-127640576D01*
X142671555Y-127594406D01*
X142652403Y-127527212D01*
X142672619Y-127460331D01*
X142688713Y-127440520D01*
X144442416Y-125686818D01*
X144503739Y-125653333D01*
X144530097Y-125650499D01*
X145972871Y-125650499D01*
X145972872Y-125650499D01*
X146032483Y-125644091D01*
X146167331Y-125593796D01*
X146282546Y-125507546D01*
X146340735Y-125429815D01*
X146396667Y-125387946D01*
X146466359Y-125382962D01*
X146527682Y-125416447D01*
G37*
%TD.AperFunction*%
%TD*%
M02*
