M48
; DRILL file {KiCad 8.0.8} date 2025-02-18T11:34:30+0200
; FORMAT={-:-/ absolute / inch / decimal}
; #@! TF.CreationDate,2025-02-18T11:34:30+02:00
; #@! TF.GenerationSoftware,Kicad,Pcbnew,8.0.8
; #@! TF.FileFunction,Plated,1,2,PTH
FMAT,2
INCH
; #@! TA.AperFunction,Plated,PTH,ViaDrill
T1C0.0118
; #@! TA.AperFunction,Plated,PTH,ComponentDrill
T2C0.0394
%
G90
G05
T1
X4.5545Y-3.986
X4.5792Y-4.0786
X4.8161Y-4.062
X4.8172Y-4.7946
X4.918Y-4.7946
X5.0161Y-4.062
X5.0169Y-4.7946
X5.3154Y-4.7946
X5.4154Y-4.7946
X5.725Y-5.0
X5.95Y-5.0833
X6.0154Y-4.062
X6.1125Y-5.1022
X6.1449Y-3.9656
X6.1562Y-3.8808
X6.1834Y-3.8547
X6.2179Y-5.1012
T2
X4.7Y-5.075
X4.8Y-5.075
X4.9Y-5.075
X5.0Y-5.075
X5.1Y-5.075
X5.2Y-5.075
X5.3Y-5.075
X5.4Y-5.075
X5.5Y-5.075
X5.6Y-5.075
X6.25Y-4.8
X6.25Y-4.9
M30
