%TF.GenerationSoftware,KiCad,Pcbnew,8.0.8*%
%TF.CreationDate,2025-02-15T12:45:03+02:00*%
%TF.ProjectId,E900M30S shield,45393030-4d33-4305-9320-736869656c64,rev?*%
%TF.SameCoordinates,Original*%
%TF.FileFunction,Drillmap*%
%TF.FilePolarity,Positive*%
%FSLAX45Y45*%
G04 Gerber Fmt 4.5, Leading zero omitted, Abs format (unit mm)*
G04 Created by KiCad (PCBNEW 8.0.8) date 2025-02-15 12:45:03*
%MOMM*%
%LPD*%
G01*
G04 APERTURE LIST*
%ADD10C,0.200000*%
G04 APERTURE END LIST*
D10*
X16422000Y-13396000D02*
G75*
G02*
X16166000Y-13652000I-256000J0D01*
G01*
X11397000Y-13302000D02*
G75*
G02*
X11147000Y-13302000I-125000J0D01*
G01*
X11147000Y-13302000D02*
G75*
G02*
X11397000Y-13302000I125000J0D01*
G01*
X10922000Y-13396000D02*
X10922000Y-9908000D01*
X16197000Y-13302000D02*
G75*
G02*
X15947000Y-13302000I-125000J0D01*
G01*
X15947000Y-13302000D02*
G75*
G02*
X16197000Y-13302000I125000J0D01*
G01*
X10922000Y-9908000D02*
G75*
G02*
X11178000Y-9652000I256000J0D01*
G01*
X11397000Y-10002000D02*
G75*
G02*
X11147000Y-10002000I-125000J0D01*
G01*
X11147000Y-10002000D02*
G75*
G02*
X11397000Y-10002000I125000J0D01*
G01*
X16166000Y-13652000D02*
X11178000Y-13652000D01*
X16422000Y-9908000D02*
X16422000Y-13396000D01*
X16166000Y-9652000D02*
G75*
G02*
X16422000Y-9908000I0J-256000D01*
G01*
X16197000Y-10002000D02*
G75*
G02*
X15947000Y-10002000I-125000J0D01*
G01*
X15947000Y-10002000D02*
G75*
G02*
X16197000Y-10002000I125000J0D01*
G01*
X11178000Y-13652000D02*
G75*
G02*
X10922000Y-13396000I0J256000D01*
G01*
X11178000Y-9652000D02*
X16166000Y-9652000D01*
X11172777Y-13973484D02*
X11172777Y-13773484D01*
X11172777Y-13773484D02*
X11220396Y-13773484D01*
X11220396Y-13773484D02*
X11248967Y-13783008D01*
X11248967Y-13783008D02*
X11268015Y-13802055D01*
X11268015Y-13802055D02*
X11277539Y-13821103D01*
X11277539Y-13821103D02*
X11287062Y-13859198D01*
X11287062Y-13859198D02*
X11287062Y-13887769D01*
X11287062Y-13887769D02*
X11277539Y-13925865D01*
X11277539Y-13925865D02*
X11268015Y-13944912D01*
X11268015Y-13944912D02*
X11248967Y-13963960D01*
X11248967Y-13963960D02*
X11220396Y-13973484D01*
X11220396Y-13973484D02*
X11172777Y-13973484D01*
X11372777Y-13973484D02*
X11372777Y-13840150D01*
X11372777Y-13878246D02*
X11382301Y-13859198D01*
X11382301Y-13859198D02*
X11391824Y-13849674D01*
X11391824Y-13849674D02*
X11410872Y-13840150D01*
X11410872Y-13840150D02*
X11429920Y-13840150D01*
X11496586Y-13973484D02*
X11496586Y-13840150D01*
X11496586Y-13773484D02*
X11487062Y-13783008D01*
X11487062Y-13783008D02*
X11496586Y-13792531D01*
X11496586Y-13792531D02*
X11506110Y-13783008D01*
X11506110Y-13783008D02*
X11496586Y-13773484D01*
X11496586Y-13773484D02*
X11496586Y-13792531D01*
X11620396Y-13973484D02*
X11601348Y-13963960D01*
X11601348Y-13963960D02*
X11591824Y-13944912D01*
X11591824Y-13944912D02*
X11591824Y-13773484D01*
X11725158Y-13973484D02*
X11706110Y-13963960D01*
X11706110Y-13963960D02*
X11696586Y-13944912D01*
X11696586Y-13944912D02*
X11696586Y-13773484D01*
X11953729Y-13973484D02*
X11953729Y-13773484D01*
X11953729Y-13773484D02*
X12020396Y-13916341D01*
X12020396Y-13916341D02*
X12087062Y-13773484D01*
X12087062Y-13773484D02*
X12087062Y-13973484D01*
X12268015Y-13973484D02*
X12268015Y-13868722D01*
X12268015Y-13868722D02*
X12258491Y-13849674D01*
X12258491Y-13849674D02*
X12239443Y-13840150D01*
X12239443Y-13840150D02*
X12201348Y-13840150D01*
X12201348Y-13840150D02*
X12182301Y-13849674D01*
X12268015Y-13963960D02*
X12248967Y-13973484D01*
X12248967Y-13973484D02*
X12201348Y-13973484D01*
X12201348Y-13973484D02*
X12182301Y-13963960D01*
X12182301Y-13963960D02*
X12172777Y-13944912D01*
X12172777Y-13944912D02*
X12172777Y-13925865D01*
X12172777Y-13925865D02*
X12182301Y-13906817D01*
X12182301Y-13906817D02*
X12201348Y-13897293D01*
X12201348Y-13897293D02*
X12248967Y-13897293D01*
X12248967Y-13897293D02*
X12268015Y-13887769D01*
X12363253Y-13840150D02*
X12363253Y-14040150D01*
X12363253Y-13849674D02*
X12382301Y-13840150D01*
X12382301Y-13840150D02*
X12420396Y-13840150D01*
X12420396Y-13840150D02*
X12439443Y-13849674D01*
X12439443Y-13849674D02*
X12448967Y-13859198D01*
X12448967Y-13859198D02*
X12458491Y-13878246D01*
X12458491Y-13878246D02*
X12458491Y-13935388D01*
X12458491Y-13935388D02*
X12448967Y-13954436D01*
X12448967Y-13954436D02*
X12439443Y-13963960D01*
X12439443Y-13963960D02*
X12420396Y-13973484D01*
X12420396Y-13973484D02*
X12382301Y-13973484D01*
X12382301Y-13973484D02*
X12363253Y-13963960D01*
X12544205Y-13954436D02*
X12553729Y-13963960D01*
X12553729Y-13963960D02*
X12544205Y-13973484D01*
X12544205Y-13973484D02*
X12534682Y-13963960D01*
X12534682Y-13963960D02*
X12544205Y-13954436D01*
X12544205Y-13954436D02*
X12544205Y-13973484D01*
X12544205Y-13849674D02*
X12553729Y-13859198D01*
X12553729Y-13859198D02*
X12544205Y-13868722D01*
X12544205Y-13868722D02*
X12534682Y-13859198D01*
X12534682Y-13859198D02*
X12544205Y-13849674D01*
X12544205Y-13849674D02*
X12544205Y-13868722D01*
M02*
