M48
; DRILL file {KiCad 8.0.8} date 2025-02-15T12:45:03+0200
; FORMAT={-:-/ absolute / metric / decimal}
; #@! TF.CreationDate,2025-02-15T12:45:03+02:00
; #@! TF.GenerationSoftware,Kicad,Pcbnew,8.0.8
; #@! TF.FileFunction,Plated,1,2,PTH
FMAT,2
METRIC
; #@! TA.AperFunction,Plated,PTH,ViaDrill
T1C0.300
; #@! TA.AperFunction,Plated,PTH,ComponentDrill
T2C1.000
%
G90
G05
T1
X122.31Y-103.174
X122.357Y-121.782
X124.917Y-121.782
X127.382Y-103.174
X127.429Y-121.782
X130.89Y-121.782
X133.307Y-116.947
X135.108Y-121.782
X137.621Y-121.782
X152.742Y-121.782
X152.784Y-103.174
T2
X119.38Y-128.905
X121.92Y-128.905
X124.46Y-128.905
X127.0Y-128.905
X129.54Y-128.905
X132.08Y-128.905
X134.62Y-128.905
X137.16Y-128.905
X139.7Y-128.905
X142.24Y-128.905
X158.75Y-121.92
X158.75Y-124.46
M30
