%TF.GenerationSoftware,KiCad,Pcbnew,9.0.0*%
%TF.CreationDate,2025-02-26T09:21:49+02:00*%
%TF.ProjectId,E900M30S shield,45393030-4d33-4305-9320-736869656c64,rev?*%
%TF.SameCoordinates,Original*%
%TF.FileFunction,Legend,Top*%
%TF.FilePolarity,Positive*%
%FSLAX46Y46*%
G04 Gerber Fmt 4.6, Leading zero omitted, Abs format (unit mm)*
G04 Created by KiCad (PCBNEW 9.0.0) date 2025-02-26 09:21:49*
%MOMM*%
%LPD*%
G01*
G04 APERTURE LIST*
%ADD10C,0.100000*%
%ADD11C,0.150000*%
%ADD12C,0.120000*%
%ADD13C,0.127000*%
%ADD14C,0.200000*%
G04 APERTURE END LIST*
D10*
X147512693Y-133857419D02*
X146941265Y-133857419D01*
X147226979Y-133857419D02*
X147226979Y-132857419D01*
X147226979Y-132857419D02*
X147131741Y-133000276D01*
X147131741Y-133000276D02*
X147036503Y-133095514D01*
X147036503Y-133095514D02*
X146941265Y-133143133D01*
X148131741Y-132857419D02*
X148226979Y-132857419D01*
X148226979Y-132857419D02*
X148322217Y-132905038D01*
X148322217Y-132905038D02*
X148369836Y-132952657D01*
X148369836Y-132952657D02*
X148417455Y-133047895D01*
X148417455Y-133047895D02*
X148465074Y-133238371D01*
X148465074Y-133238371D02*
X148465074Y-133476466D01*
X148465074Y-133476466D02*
X148417455Y-133666942D01*
X148417455Y-133666942D02*
X148369836Y-133762180D01*
X148369836Y-133762180D02*
X148322217Y-133809800D01*
X148322217Y-133809800D02*
X148226979Y-133857419D01*
X148226979Y-133857419D02*
X148131741Y-133857419D01*
X148131741Y-133857419D02*
X148036503Y-133809800D01*
X148036503Y-133809800D02*
X147988884Y-133762180D01*
X147988884Y-133762180D02*
X147941265Y-133666942D01*
X147941265Y-133666942D02*
X147893646Y-133476466D01*
X147893646Y-133476466D02*
X147893646Y-133238371D01*
X147893646Y-133238371D02*
X147941265Y-133047895D01*
X147941265Y-133047895D02*
X147988884Y-132952657D01*
X147988884Y-132952657D02*
X148036503Y-132905038D01*
X148036503Y-132905038D02*
X148131741Y-132857419D01*
X149322217Y-133190752D02*
X149322217Y-133857419D01*
X148893646Y-133190752D02*
X148893646Y-133714561D01*
X148893646Y-133714561D02*
X148941265Y-133809800D01*
X148941265Y-133809800D02*
X149036503Y-133857419D01*
X149036503Y-133857419D02*
X149179360Y-133857419D01*
X149179360Y-133857419D02*
X149274598Y-133809800D01*
X149274598Y-133809800D02*
X149322217Y-133762180D01*
X150131741Y-133333609D02*
X149798408Y-133333609D01*
X149798408Y-133857419D02*
X149798408Y-132857419D01*
X149798408Y-132857419D02*
X150274598Y-132857419D01*
X124967419Y-134316115D02*
X123967419Y-134316115D01*
X123967419Y-134316115D02*
X124681704Y-133982782D01*
X124681704Y-133982782D02*
X123967419Y-133649449D01*
X123967419Y-133649449D02*
X124967419Y-133649449D01*
X123967419Y-132982782D02*
X123967419Y-132792306D01*
X123967419Y-132792306D02*
X124015038Y-132697068D01*
X124015038Y-132697068D02*
X124110276Y-132601830D01*
X124110276Y-132601830D02*
X124300752Y-132554211D01*
X124300752Y-132554211D02*
X124634085Y-132554211D01*
X124634085Y-132554211D02*
X124824561Y-132601830D01*
X124824561Y-132601830D02*
X124919800Y-132697068D01*
X124919800Y-132697068D02*
X124967419Y-132792306D01*
X124967419Y-132792306D02*
X124967419Y-132982782D01*
X124967419Y-132982782D02*
X124919800Y-133078020D01*
X124919800Y-133078020D02*
X124824561Y-133173258D01*
X124824561Y-133173258D02*
X124634085Y-133220877D01*
X124634085Y-133220877D02*
X124300752Y-133220877D01*
X124300752Y-133220877D02*
X124110276Y-133173258D01*
X124110276Y-133173258D02*
X124015038Y-133078020D01*
X124015038Y-133078020D02*
X123967419Y-132982782D01*
X124919800Y-132173258D02*
X124967419Y-132030401D01*
X124967419Y-132030401D02*
X124967419Y-131792306D01*
X124967419Y-131792306D02*
X124919800Y-131697068D01*
X124919800Y-131697068D02*
X124872180Y-131649449D01*
X124872180Y-131649449D02*
X124776942Y-131601830D01*
X124776942Y-131601830D02*
X124681704Y-131601830D01*
X124681704Y-131601830D02*
X124586466Y-131649449D01*
X124586466Y-131649449D02*
X124538847Y-131697068D01*
X124538847Y-131697068D02*
X124491228Y-131792306D01*
X124491228Y-131792306D02*
X124443609Y-131982782D01*
X124443609Y-131982782D02*
X124395990Y-132078020D01*
X124395990Y-132078020D02*
X124348371Y-132125639D01*
X124348371Y-132125639D02*
X124253133Y-132173258D01*
X124253133Y-132173258D02*
X124157895Y-132173258D01*
X124157895Y-132173258D02*
X124062657Y-132125639D01*
X124062657Y-132125639D02*
X124015038Y-132078020D01*
X124015038Y-132078020D02*
X123967419Y-131982782D01*
X123967419Y-131982782D02*
X123967419Y-131744687D01*
X123967419Y-131744687D02*
X124015038Y-131601830D01*
X124967419Y-131173258D02*
X123967419Y-131173258D01*
X160323884Y-124586466D02*
X161085789Y-124586466D01*
X160704836Y-124967419D02*
X160704836Y-124205514D01*
X162038169Y-123967419D02*
X161561979Y-123967419D01*
X161561979Y-123967419D02*
X161514360Y-124443609D01*
X161514360Y-124443609D02*
X161561979Y-124395990D01*
X161561979Y-124395990D02*
X161657217Y-124348371D01*
X161657217Y-124348371D02*
X161895312Y-124348371D01*
X161895312Y-124348371D02*
X161990550Y-124395990D01*
X161990550Y-124395990D02*
X162038169Y-124443609D01*
X162038169Y-124443609D02*
X162085788Y-124538847D01*
X162085788Y-124538847D02*
X162085788Y-124776942D01*
X162085788Y-124776942D02*
X162038169Y-124872180D01*
X162038169Y-124872180D02*
X161990550Y-124919800D01*
X161990550Y-124919800D02*
X161895312Y-124967419D01*
X161895312Y-124967419D02*
X161657217Y-124967419D01*
X161657217Y-124967419D02*
X161561979Y-124919800D01*
X161561979Y-124919800D02*
X161514360Y-124872180D01*
X162371503Y-123967419D02*
X162704836Y-124967419D01*
X162704836Y-124967419D02*
X163038169Y-123967419D01*
X127507419Y-134316115D02*
X126507419Y-134316115D01*
X126507419Y-134316115D02*
X127221704Y-133982782D01*
X127221704Y-133982782D02*
X126507419Y-133649449D01*
X126507419Y-133649449D02*
X127507419Y-133649449D01*
X127507419Y-133173258D02*
X126507419Y-133173258D01*
X127459800Y-132744687D02*
X127507419Y-132601830D01*
X127507419Y-132601830D02*
X127507419Y-132363735D01*
X127507419Y-132363735D02*
X127459800Y-132268497D01*
X127459800Y-132268497D02*
X127412180Y-132220878D01*
X127412180Y-132220878D02*
X127316942Y-132173259D01*
X127316942Y-132173259D02*
X127221704Y-132173259D01*
X127221704Y-132173259D02*
X127126466Y-132220878D01*
X127126466Y-132220878D02*
X127078847Y-132268497D01*
X127078847Y-132268497D02*
X127031228Y-132363735D01*
X127031228Y-132363735D02*
X126983609Y-132554211D01*
X126983609Y-132554211D02*
X126935990Y-132649449D01*
X126935990Y-132649449D02*
X126888371Y-132697068D01*
X126888371Y-132697068D02*
X126793133Y-132744687D01*
X126793133Y-132744687D02*
X126697895Y-132744687D01*
X126697895Y-132744687D02*
X126602657Y-132697068D01*
X126602657Y-132697068D02*
X126555038Y-132649449D01*
X126555038Y-132649449D02*
X126507419Y-132554211D01*
X126507419Y-132554211D02*
X126507419Y-132316116D01*
X126507419Y-132316116D02*
X126555038Y-132173259D01*
X126507419Y-131554211D02*
X126507419Y-131363735D01*
X126507419Y-131363735D02*
X126555038Y-131268497D01*
X126555038Y-131268497D02*
X126650276Y-131173259D01*
X126650276Y-131173259D02*
X126840752Y-131125640D01*
X126840752Y-131125640D02*
X127174085Y-131125640D01*
X127174085Y-131125640D02*
X127364561Y-131173259D01*
X127364561Y-131173259D02*
X127459800Y-131268497D01*
X127459800Y-131268497D02*
X127507419Y-131363735D01*
X127507419Y-131363735D02*
X127507419Y-131554211D01*
X127507419Y-131554211D02*
X127459800Y-131649449D01*
X127459800Y-131649449D02*
X127364561Y-131744687D01*
X127364561Y-131744687D02*
X127174085Y-131792306D01*
X127174085Y-131792306D02*
X126840752Y-131792306D01*
X126840752Y-131792306D02*
X126650276Y-131744687D01*
X126650276Y-131744687D02*
X126555038Y-131649449D01*
X126555038Y-131649449D02*
X126507419Y-131554211D01*
X160847693Y-121475038D02*
X160752455Y-121427419D01*
X160752455Y-121427419D02*
X160609598Y-121427419D01*
X160609598Y-121427419D02*
X160466741Y-121475038D01*
X160466741Y-121475038D02*
X160371503Y-121570276D01*
X160371503Y-121570276D02*
X160323884Y-121665514D01*
X160323884Y-121665514D02*
X160276265Y-121855990D01*
X160276265Y-121855990D02*
X160276265Y-121998847D01*
X160276265Y-121998847D02*
X160323884Y-122189323D01*
X160323884Y-122189323D02*
X160371503Y-122284561D01*
X160371503Y-122284561D02*
X160466741Y-122379800D01*
X160466741Y-122379800D02*
X160609598Y-122427419D01*
X160609598Y-122427419D02*
X160704836Y-122427419D01*
X160704836Y-122427419D02*
X160847693Y-122379800D01*
X160847693Y-122379800D02*
X160895312Y-122332180D01*
X160895312Y-122332180D02*
X160895312Y-121998847D01*
X160895312Y-121998847D02*
X160704836Y-121998847D01*
X161323884Y-122427419D02*
X161323884Y-121427419D01*
X161323884Y-121427419D02*
X161895312Y-122427419D01*
X161895312Y-122427419D02*
X161895312Y-121427419D01*
X162371503Y-122427419D02*
X162371503Y-121427419D01*
X162371503Y-121427419D02*
X162609598Y-121427419D01*
X162609598Y-121427419D02*
X162752455Y-121475038D01*
X162752455Y-121475038D02*
X162847693Y-121570276D01*
X162847693Y-121570276D02*
X162895312Y-121665514D01*
X162895312Y-121665514D02*
X162942931Y-121855990D01*
X162942931Y-121855990D02*
X162942931Y-121998847D01*
X162942931Y-121998847D02*
X162895312Y-122189323D01*
X162895312Y-122189323D02*
X162847693Y-122284561D01*
X162847693Y-122284561D02*
X162752455Y-122379800D01*
X162752455Y-122379800D02*
X162609598Y-122427419D01*
X162609598Y-122427419D02*
X162371503Y-122427419D01*
X140207419Y-134316115D02*
X139207419Y-134316115D01*
X139207419Y-134316115D02*
X139207419Y-134078020D01*
X139207419Y-134078020D02*
X139255038Y-133935163D01*
X139255038Y-133935163D02*
X139350276Y-133839925D01*
X139350276Y-133839925D02*
X139445514Y-133792306D01*
X139445514Y-133792306D02*
X139635990Y-133744687D01*
X139635990Y-133744687D02*
X139778847Y-133744687D01*
X139778847Y-133744687D02*
X139969323Y-133792306D01*
X139969323Y-133792306D02*
X140064561Y-133839925D01*
X140064561Y-133839925D02*
X140159800Y-133935163D01*
X140159800Y-133935163D02*
X140207419Y-134078020D01*
X140207419Y-134078020D02*
X140207419Y-134316115D01*
X140207419Y-133316115D02*
X139207419Y-133316115D01*
X139207419Y-132649449D02*
X139207419Y-132458973D01*
X139207419Y-132458973D02*
X139255038Y-132363735D01*
X139255038Y-132363735D02*
X139350276Y-132268497D01*
X139350276Y-132268497D02*
X139540752Y-132220878D01*
X139540752Y-132220878D02*
X139874085Y-132220878D01*
X139874085Y-132220878D02*
X140064561Y-132268497D01*
X140064561Y-132268497D02*
X140159800Y-132363735D01*
X140159800Y-132363735D02*
X140207419Y-132458973D01*
X140207419Y-132458973D02*
X140207419Y-132649449D01*
X140207419Y-132649449D02*
X140159800Y-132744687D01*
X140159800Y-132744687D02*
X140064561Y-132839925D01*
X140064561Y-132839925D02*
X139874085Y-132887544D01*
X139874085Y-132887544D02*
X139540752Y-132887544D01*
X139540752Y-132887544D02*
X139350276Y-132839925D01*
X139350276Y-132839925D02*
X139255038Y-132744687D01*
X139255038Y-132744687D02*
X139207419Y-132649449D01*
X139302657Y-131839925D02*
X139255038Y-131792306D01*
X139255038Y-131792306D02*
X139207419Y-131697068D01*
X139207419Y-131697068D02*
X139207419Y-131458973D01*
X139207419Y-131458973D02*
X139255038Y-131363735D01*
X139255038Y-131363735D02*
X139302657Y-131316116D01*
X139302657Y-131316116D02*
X139397895Y-131268497D01*
X139397895Y-131268497D02*
X139493133Y-131268497D01*
X139493133Y-131268497D02*
X139635990Y-131316116D01*
X139635990Y-131316116D02*
X140207419Y-131887544D01*
X140207419Y-131887544D02*
X140207419Y-131268497D01*
X122379800Y-134363734D02*
X122427419Y-134220877D01*
X122427419Y-134220877D02*
X122427419Y-133982782D01*
X122427419Y-133982782D02*
X122379800Y-133887544D01*
X122379800Y-133887544D02*
X122332180Y-133839925D01*
X122332180Y-133839925D02*
X122236942Y-133792306D01*
X122236942Y-133792306D02*
X122141704Y-133792306D01*
X122141704Y-133792306D02*
X122046466Y-133839925D01*
X122046466Y-133839925D02*
X121998847Y-133887544D01*
X121998847Y-133887544D02*
X121951228Y-133982782D01*
X121951228Y-133982782D02*
X121903609Y-134173258D01*
X121903609Y-134173258D02*
X121855990Y-134268496D01*
X121855990Y-134268496D02*
X121808371Y-134316115D01*
X121808371Y-134316115D02*
X121713133Y-134363734D01*
X121713133Y-134363734D02*
X121617895Y-134363734D01*
X121617895Y-134363734D02*
X121522657Y-134316115D01*
X121522657Y-134316115D02*
X121475038Y-134268496D01*
X121475038Y-134268496D02*
X121427419Y-134173258D01*
X121427419Y-134173258D02*
X121427419Y-133935163D01*
X121427419Y-133935163D02*
X121475038Y-133792306D01*
X122332180Y-132792306D02*
X122379800Y-132839925D01*
X122379800Y-132839925D02*
X122427419Y-132982782D01*
X122427419Y-132982782D02*
X122427419Y-133078020D01*
X122427419Y-133078020D02*
X122379800Y-133220877D01*
X122379800Y-133220877D02*
X122284561Y-133316115D01*
X122284561Y-133316115D02*
X122189323Y-133363734D01*
X122189323Y-133363734D02*
X121998847Y-133411353D01*
X121998847Y-133411353D02*
X121855990Y-133411353D01*
X121855990Y-133411353D02*
X121665514Y-133363734D01*
X121665514Y-133363734D02*
X121570276Y-133316115D01*
X121570276Y-133316115D02*
X121475038Y-133220877D01*
X121475038Y-133220877D02*
X121427419Y-133078020D01*
X121427419Y-133078020D02*
X121427419Y-132982782D01*
X121427419Y-132982782D02*
X121475038Y-132839925D01*
X121475038Y-132839925D02*
X121522657Y-132792306D01*
X122427419Y-132363734D02*
X121427419Y-132363734D01*
X122427419Y-131792306D02*
X121855990Y-132220877D01*
X121427419Y-131792306D02*
X121998847Y-132363734D01*
X119887419Y-134316115D02*
X118887419Y-134316115D01*
X118887419Y-134316115D02*
X119887419Y-133744687D01*
X119887419Y-133744687D02*
X118887419Y-133744687D01*
X119839800Y-133316115D02*
X119887419Y-133173258D01*
X119887419Y-133173258D02*
X119887419Y-132935163D01*
X119887419Y-132935163D02*
X119839800Y-132839925D01*
X119839800Y-132839925D02*
X119792180Y-132792306D01*
X119792180Y-132792306D02*
X119696942Y-132744687D01*
X119696942Y-132744687D02*
X119601704Y-132744687D01*
X119601704Y-132744687D02*
X119506466Y-132792306D01*
X119506466Y-132792306D02*
X119458847Y-132839925D01*
X119458847Y-132839925D02*
X119411228Y-132935163D01*
X119411228Y-132935163D02*
X119363609Y-133125639D01*
X119363609Y-133125639D02*
X119315990Y-133220877D01*
X119315990Y-133220877D02*
X119268371Y-133268496D01*
X119268371Y-133268496D02*
X119173133Y-133316115D01*
X119173133Y-133316115D02*
X119077895Y-133316115D01*
X119077895Y-133316115D02*
X118982657Y-133268496D01*
X118982657Y-133268496D02*
X118935038Y-133220877D01*
X118935038Y-133220877D02*
X118887419Y-133125639D01*
X118887419Y-133125639D02*
X118887419Y-132887544D01*
X118887419Y-132887544D02*
X118935038Y-132744687D01*
X119839800Y-132363734D02*
X119887419Y-132220877D01*
X119887419Y-132220877D02*
X119887419Y-131982782D01*
X119887419Y-131982782D02*
X119839800Y-131887544D01*
X119839800Y-131887544D02*
X119792180Y-131839925D01*
X119792180Y-131839925D02*
X119696942Y-131792306D01*
X119696942Y-131792306D02*
X119601704Y-131792306D01*
X119601704Y-131792306D02*
X119506466Y-131839925D01*
X119506466Y-131839925D02*
X119458847Y-131887544D01*
X119458847Y-131887544D02*
X119411228Y-131982782D01*
X119411228Y-131982782D02*
X119363609Y-132173258D01*
X119363609Y-132173258D02*
X119315990Y-132268496D01*
X119315990Y-132268496D02*
X119268371Y-132316115D01*
X119268371Y-132316115D02*
X119173133Y-132363734D01*
X119173133Y-132363734D02*
X119077895Y-132363734D01*
X119077895Y-132363734D02*
X118982657Y-132316115D01*
X118982657Y-132316115D02*
X118935038Y-132268496D01*
X118935038Y-132268496D02*
X118887419Y-132173258D01*
X118887419Y-132173258D02*
X118887419Y-131935163D01*
X118887419Y-131935163D02*
X118935038Y-131792306D01*
X135127419Y-133744687D02*
X134651228Y-134078020D01*
X135127419Y-134316115D02*
X134127419Y-134316115D01*
X134127419Y-134316115D02*
X134127419Y-133935163D01*
X134127419Y-133935163D02*
X134175038Y-133839925D01*
X134175038Y-133839925D02*
X134222657Y-133792306D01*
X134222657Y-133792306D02*
X134317895Y-133744687D01*
X134317895Y-133744687D02*
X134460752Y-133744687D01*
X134460752Y-133744687D02*
X134555990Y-133792306D01*
X134555990Y-133792306D02*
X134603609Y-133839925D01*
X134603609Y-133839925D02*
X134651228Y-133935163D01*
X134651228Y-133935163D02*
X134651228Y-134316115D01*
X134127419Y-133411353D02*
X135127419Y-132744687D01*
X134127419Y-132744687D02*
X135127419Y-133411353D01*
X134603609Y-132363734D02*
X134603609Y-132030401D01*
X135127419Y-131887544D02*
X135127419Y-132363734D01*
X135127419Y-132363734D02*
X134127419Y-132363734D01*
X134127419Y-132363734D02*
X134127419Y-131887544D01*
X135127419Y-131458972D02*
X134127419Y-131458972D01*
X134127419Y-131458972D02*
X135127419Y-130887544D01*
X135127419Y-130887544D02*
X134127419Y-130887544D01*
X132063609Y-133982782D02*
X132111228Y-133839925D01*
X132111228Y-133839925D02*
X132158847Y-133792306D01*
X132158847Y-133792306D02*
X132254085Y-133744687D01*
X132254085Y-133744687D02*
X132396942Y-133744687D01*
X132396942Y-133744687D02*
X132492180Y-133792306D01*
X132492180Y-133792306D02*
X132539800Y-133839925D01*
X132539800Y-133839925D02*
X132587419Y-133935163D01*
X132587419Y-133935163D02*
X132587419Y-134316115D01*
X132587419Y-134316115D02*
X131587419Y-134316115D01*
X131587419Y-134316115D02*
X131587419Y-133982782D01*
X131587419Y-133982782D02*
X131635038Y-133887544D01*
X131635038Y-133887544D02*
X131682657Y-133839925D01*
X131682657Y-133839925D02*
X131777895Y-133792306D01*
X131777895Y-133792306D02*
X131873133Y-133792306D01*
X131873133Y-133792306D02*
X131968371Y-133839925D01*
X131968371Y-133839925D02*
X132015990Y-133887544D01*
X132015990Y-133887544D02*
X132063609Y-133982782D01*
X132063609Y-133982782D02*
X132063609Y-134316115D01*
X131587419Y-133316115D02*
X132396942Y-133316115D01*
X132396942Y-133316115D02*
X132492180Y-133268496D01*
X132492180Y-133268496D02*
X132539800Y-133220877D01*
X132539800Y-133220877D02*
X132587419Y-133125639D01*
X132587419Y-133125639D02*
X132587419Y-132935163D01*
X132587419Y-132935163D02*
X132539800Y-132839925D01*
X132539800Y-132839925D02*
X132492180Y-132792306D01*
X132492180Y-132792306D02*
X132396942Y-132744687D01*
X132396942Y-132744687D02*
X131587419Y-132744687D01*
X132539800Y-132316115D02*
X132587419Y-132173258D01*
X132587419Y-132173258D02*
X132587419Y-131935163D01*
X132587419Y-131935163D02*
X132539800Y-131839925D01*
X132539800Y-131839925D02*
X132492180Y-131792306D01*
X132492180Y-131792306D02*
X132396942Y-131744687D01*
X132396942Y-131744687D02*
X132301704Y-131744687D01*
X132301704Y-131744687D02*
X132206466Y-131792306D01*
X132206466Y-131792306D02*
X132158847Y-131839925D01*
X132158847Y-131839925D02*
X132111228Y-131935163D01*
X132111228Y-131935163D02*
X132063609Y-132125639D01*
X132063609Y-132125639D02*
X132015990Y-132220877D01*
X132015990Y-132220877D02*
X131968371Y-132268496D01*
X131968371Y-132268496D02*
X131873133Y-132316115D01*
X131873133Y-132316115D02*
X131777895Y-132316115D01*
X131777895Y-132316115D02*
X131682657Y-132268496D01*
X131682657Y-132268496D02*
X131635038Y-132220877D01*
X131635038Y-132220877D02*
X131587419Y-132125639D01*
X131587419Y-132125639D02*
X131587419Y-131887544D01*
X131587419Y-131887544D02*
X131635038Y-131744687D01*
X132111228Y-131125639D02*
X132587419Y-131125639D01*
X131587419Y-131458972D02*
X132111228Y-131125639D01*
X132111228Y-131125639D02*
X131587419Y-130792306D01*
X142747419Y-134316115D02*
X141747419Y-134316115D01*
X141747419Y-134316115D02*
X141747419Y-134078020D01*
X141747419Y-134078020D02*
X141795038Y-133935163D01*
X141795038Y-133935163D02*
X141890276Y-133839925D01*
X141890276Y-133839925D02*
X141985514Y-133792306D01*
X141985514Y-133792306D02*
X142175990Y-133744687D01*
X142175990Y-133744687D02*
X142318847Y-133744687D01*
X142318847Y-133744687D02*
X142509323Y-133792306D01*
X142509323Y-133792306D02*
X142604561Y-133839925D01*
X142604561Y-133839925D02*
X142699800Y-133935163D01*
X142699800Y-133935163D02*
X142747419Y-134078020D01*
X142747419Y-134078020D02*
X142747419Y-134316115D01*
X142747419Y-133316115D02*
X141747419Y-133316115D01*
X141747419Y-132649449D02*
X141747419Y-132458973D01*
X141747419Y-132458973D02*
X141795038Y-132363735D01*
X141795038Y-132363735D02*
X141890276Y-132268497D01*
X141890276Y-132268497D02*
X142080752Y-132220878D01*
X142080752Y-132220878D02*
X142414085Y-132220878D01*
X142414085Y-132220878D02*
X142604561Y-132268497D01*
X142604561Y-132268497D02*
X142699800Y-132363735D01*
X142699800Y-132363735D02*
X142747419Y-132458973D01*
X142747419Y-132458973D02*
X142747419Y-132649449D01*
X142747419Y-132649449D02*
X142699800Y-132744687D01*
X142699800Y-132744687D02*
X142604561Y-132839925D01*
X142604561Y-132839925D02*
X142414085Y-132887544D01*
X142414085Y-132887544D02*
X142080752Y-132887544D01*
X142080752Y-132887544D02*
X141890276Y-132839925D01*
X141890276Y-132839925D02*
X141795038Y-132744687D01*
X141795038Y-132744687D02*
X141747419Y-132649449D01*
X142747419Y-131268497D02*
X142747419Y-131839925D01*
X142747419Y-131554211D02*
X141747419Y-131554211D01*
X141747419Y-131554211D02*
X141890276Y-131649449D01*
X141890276Y-131649449D02*
X141985514Y-131744687D01*
X141985514Y-131744687D02*
X142033133Y-131839925D01*
X152592693Y-133857419D02*
X152021265Y-133857419D01*
X152306979Y-133857419D02*
X152306979Y-132857419D01*
X152306979Y-132857419D02*
X152211741Y-133000276D01*
X152211741Y-133000276D02*
X152116503Y-133095514D01*
X152116503Y-133095514D02*
X152021265Y-133143133D01*
X153211741Y-132857419D02*
X153306979Y-132857419D01*
X153306979Y-132857419D02*
X153402217Y-132905038D01*
X153402217Y-132905038D02*
X153449836Y-132952657D01*
X153449836Y-132952657D02*
X153497455Y-133047895D01*
X153497455Y-133047895D02*
X153545074Y-133238371D01*
X153545074Y-133238371D02*
X153545074Y-133476466D01*
X153545074Y-133476466D02*
X153497455Y-133666942D01*
X153497455Y-133666942D02*
X153449836Y-133762180D01*
X153449836Y-133762180D02*
X153402217Y-133809800D01*
X153402217Y-133809800D02*
X153306979Y-133857419D01*
X153306979Y-133857419D02*
X153211741Y-133857419D01*
X153211741Y-133857419D02*
X153116503Y-133809800D01*
X153116503Y-133809800D02*
X153068884Y-133762180D01*
X153068884Y-133762180D02*
X153021265Y-133666942D01*
X153021265Y-133666942D02*
X152973646Y-133476466D01*
X152973646Y-133476466D02*
X152973646Y-133238371D01*
X152973646Y-133238371D02*
X153021265Y-133047895D01*
X153021265Y-133047895D02*
X153068884Y-132952657D01*
X153068884Y-132952657D02*
X153116503Y-132905038D01*
X153116503Y-132905038D02*
X153211741Y-132857419D01*
X154164122Y-132857419D02*
X154259360Y-132857419D01*
X154259360Y-132857419D02*
X154354598Y-132905038D01*
X154354598Y-132905038D02*
X154402217Y-132952657D01*
X154402217Y-132952657D02*
X154449836Y-133047895D01*
X154449836Y-133047895D02*
X154497455Y-133238371D01*
X154497455Y-133238371D02*
X154497455Y-133476466D01*
X154497455Y-133476466D02*
X154449836Y-133666942D01*
X154449836Y-133666942D02*
X154402217Y-133762180D01*
X154402217Y-133762180D02*
X154354598Y-133809800D01*
X154354598Y-133809800D02*
X154259360Y-133857419D01*
X154259360Y-133857419D02*
X154164122Y-133857419D01*
X154164122Y-133857419D02*
X154068884Y-133809800D01*
X154068884Y-133809800D02*
X154021265Y-133762180D01*
X154021265Y-133762180D02*
X153973646Y-133666942D01*
X153973646Y-133666942D02*
X153926027Y-133476466D01*
X153926027Y-133476466D02*
X153926027Y-133238371D01*
X153926027Y-133238371D02*
X153973646Y-133047895D01*
X153973646Y-133047895D02*
X154021265Y-132952657D01*
X154021265Y-132952657D02*
X154068884Y-132905038D01*
X154068884Y-132905038D02*
X154164122Y-132857419D01*
X155354598Y-133190752D02*
X155354598Y-133857419D01*
X154926027Y-133190752D02*
X154926027Y-133714561D01*
X154926027Y-133714561D02*
X154973646Y-133809800D01*
X154973646Y-133809800D02*
X155068884Y-133857419D01*
X155068884Y-133857419D02*
X155211741Y-133857419D01*
X155211741Y-133857419D02*
X155306979Y-133809800D01*
X155306979Y-133809800D02*
X155354598Y-133762180D01*
X156164122Y-133333609D02*
X155830789Y-133333609D01*
X155830789Y-133857419D02*
X155830789Y-132857419D01*
X155830789Y-132857419D02*
X156306979Y-132857419D01*
X136667419Y-134458972D02*
X136667419Y-133887544D01*
X137667419Y-134173258D02*
X136667419Y-134173258D01*
X136667419Y-133649448D02*
X137667419Y-132982782D01*
X136667419Y-132982782D02*
X137667419Y-133649448D01*
X137143609Y-132601829D02*
X137143609Y-132268496D01*
X137667419Y-132125639D02*
X137667419Y-132601829D01*
X137667419Y-132601829D02*
X136667419Y-132601829D01*
X136667419Y-132601829D02*
X136667419Y-132125639D01*
X137667419Y-131697067D02*
X136667419Y-131697067D01*
X136667419Y-131697067D02*
X137667419Y-131125639D01*
X137667419Y-131125639D02*
X136667419Y-131125639D01*
X130047419Y-133744687D02*
X129571228Y-134078020D01*
X130047419Y-134316115D02*
X129047419Y-134316115D01*
X129047419Y-134316115D02*
X129047419Y-133935163D01*
X129047419Y-133935163D02*
X129095038Y-133839925D01*
X129095038Y-133839925D02*
X129142657Y-133792306D01*
X129142657Y-133792306D02*
X129237895Y-133744687D01*
X129237895Y-133744687D02*
X129380752Y-133744687D01*
X129380752Y-133744687D02*
X129475990Y-133792306D01*
X129475990Y-133792306D02*
X129523609Y-133839925D01*
X129523609Y-133839925D02*
X129571228Y-133935163D01*
X129571228Y-133935163D02*
X129571228Y-134316115D01*
X129999800Y-133363734D02*
X130047419Y-133220877D01*
X130047419Y-133220877D02*
X130047419Y-132982782D01*
X130047419Y-132982782D02*
X129999800Y-132887544D01*
X129999800Y-132887544D02*
X129952180Y-132839925D01*
X129952180Y-132839925D02*
X129856942Y-132792306D01*
X129856942Y-132792306D02*
X129761704Y-132792306D01*
X129761704Y-132792306D02*
X129666466Y-132839925D01*
X129666466Y-132839925D02*
X129618847Y-132887544D01*
X129618847Y-132887544D02*
X129571228Y-132982782D01*
X129571228Y-132982782D02*
X129523609Y-133173258D01*
X129523609Y-133173258D02*
X129475990Y-133268496D01*
X129475990Y-133268496D02*
X129428371Y-133316115D01*
X129428371Y-133316115D02*
X129333133Y-133363734D01*
X129333133Y-133363734D02*
X129237895Y-133363734D01*
X129237895Y-133363734D02*
X129142657Y-133316115D01*
X129142657Y-133316115D02*
X129095038Y-133268496D01*
X129095038Y-133268496D02*
X129047419Y-133173258D01*
X129047419Y-133173258D02*
X129047419Y-132935163D01*
X129047419Y-132935163D02*
X129095038Y-132792306D01*
X129047419Y-132506591D02*
X129047419Y-131935163D01*
X130047419Y-132220877D02*
X129047419Y-132220877D01*
D11*
X116504819Y-129238333D02*
X117219104Y-129238333D01*
X117219104Y-129238333D02*
X117361961Y-129285952D01*
X117361961Y-129285952D02*
X117457200Y-129381190D01*
X117457200Y-129381190D02*
X117504819Y-129524047D01*
X117504819Y-129524047D02*
X117504819Y-129619285D01*
X117504819Y-128238333D02*
X117504819Y-128809761D01*
X117504819Y-128524047D02*
X116504819Y-128524047D01*
X116504819Y-128524047D02*
X116647676Y-128619285D01*
X116647676Y-128619285D02*
X116742914Y-128714523D01*
X116742914Y-128714523D02*
X116790533Y-128809761D01*
X158416666Y-126244819D02*
X158416666Y-126959104D01*
X158416666Y-126959104D02*
X158369047Y-127101961D01*
X158369047Y-127101961D02*
X158273809Y-127197200D01*
X158273809Y-127197200D02*
X158130952Y-127244819D01*
X158130952Y-127244819D02*
X158035714Y-127244819D01*
X158845238Y-126340057D02*
X158892857Y-126292438D01*
X158892857Y-126292438D02*
X158988095Y-126244819D01*
X158988095Y-126244819D02*
X159226190Y-126244819D01*
X159226190Y-126244819D02*
X159321428Y-126292438D01*
X159321428Y-126292438D02*
X159369047Y-126340057D01*
X159369047Y-126340057D02*
X159416666Y-126435295D01*
X159416666Y-126435295D02*
X159416666Y-126530533D01*
X159416666Y-126530533D02*
X159369047Y-126673390D01*
X159369047Y-126673390D02*
X158797619Y-127244819D01*
X158797619Y-127244819D02*
X159416666Y-127244819D01*
X151249580Y-129706666D02*
X151297200Y-129754285D01*
X151297200Y-129754285D02*
X151344819Y-129897142D01*
X151344819Y-129897142D02*
X151344819Y-129992380D01*
X151344819Y-129992380D02*
X151297200Y-130135237D01*
X151297200Y-130135237D02*
X151201961Y-130230475D01*
X151201961Y-130230475D02*
X151106723Y-130278094D01*
X151106723Y-130278094D02*
X150916247Y-130325713D01*
X150916247Y-130325713D02*
X150773390Y-130325713D01*
X150773390Y-130325713D02*
X150582914Y-130278094D01*
X150582914Y-130278094D02*
X150487676Y-130230475D01*
X150487676Y-130230475D02*
X150392438Y-130135237D01*
X150392438Y-130135237D02*
X150344819Y-129992380D01*
X150344819Y-129992380D02*
X150344819Y-129897142D01*
X150344819Y-129897142D02*
X150392438Y-129754285D01*
X150392438Y-129754285D02*
X150440057Y-129706666D01*
X151344819Y-128754285D02*
X151344819Y-129325713D01*
X151344819Y-129039999D02*
X150344819Y-129039999D01*
X150344819Y-129039999D02*
X150487676Y-129135237D01*
X150487676Y-129135237D02*
X150582914Y-129230475D01*
X150582914Y-129230475D02*
X150630533Y-129325713D01*
X156739819Y-103606904D02*
X157549342Y-103606904D01*
X157549342Y-103606904D02*
X157644580Y-103559285D01*
X157644580Y-103559285D02*
X157692200Y-103511666D01*
X157692200Y-103511666D02*
X157739819Y-103416428D01*
X157739819Y-103416428D02*
X157739819Y-103225952D01*
X157739819Y-103225952D02*
X157692200Y-103130714D01*
X157692200Y-103130714D02*
X157644580Y-103083095D01*
X157644580Y-103083095D02*
X157549342Y-103035476D01*
X157549342Y-103035476D02*
X156739819Y-103035476D01*
X157739819Y-102035476D02*
X157739819Y-102606904D01*
X157739819Y-102321190D02*
X156739819Y-102321190D01*
X156739819Y-102321190D02*
X156882676Y-102416428D01*
X156882676Y-102416428D02*
X156977914Y-102511666D01*
X156977914Y-102511666D02*
X157025533Y-102606904D01*
X156329580Y-129706666D02*
X156377200Y-129754285D01*
X156377200Y-129754285D02*
X156424819Y-129897142D01*
X156424819Y-129897142D02*
X156424819Y-129992380D01*
X156424819Y-129992380D02*
X156377200Y-130135237D01*
X156377200Y-130135237D02*
X156281961Y-130230475D01*
X156281961Y-130230475D02*
X156186723Y-130278094D01*
X156186723Y-130278094D02*
X155996247Y-130325713D01*
X155996247Y-130325713D02*
X155853390Y-130325713D01*
X155853390Y-130325713D02*
X155662914Y-130278094D01*
X155662914Y-130278094D02*
X155567676Y-130230475D01*
X155567676Y-130230475D02*
X155472438Y-130135237D01*
X155472438Y-130135237D02*
X155424819Y-129992380D01*
X155424819Y-129992380D02*
X155424819Y-129897142D01*
X155424819Y-129897142D02*
X155472438Y-129754285D01*
X155472438Y-129754285D02*
X155520057Y-129706666D01*
X155520057Y-129325713D02*
X155472438Y-129278094D01*
X155472438Y-129278094D02*
X155424819Y-129182856D01*
X155424819Y-129182856D02*
X155424819Y-128944761D01*
X155424819Y-128944761D02*
X155472438Y-128849523D01*
X155472438Y-128849523D02*
X155520057Y-128801904D01*
X155520057Y-128801904D02*
X155615295Y-128754285D01*
X155615295Y-128754285D02*
X155710533Y-128754285D01*
X155710533Y-128754285D02*
X155853390Y-128801904D01*
X155853390Y-128801904D02*
X156424819Y-129373332D01*
X156424819Y-129373332D02*
X156424819Y-128754285D01*
D12*
%TO.C,J1*%
X118050000Y-130235000D02*
X118050000Y-128905000D01*
X119380000Y-130235000D02*
X118050000Y-130235000D01*
X120650000Y-127575000D02*
X143570000Y-127575000D01*
X120650000Y-130235000D02*
X120650000Y-127575000D01*
X120650000Y-130235000D02*
X143570000Y-130235000D01*
X143570000Y-130235000D02*
X143570000Y-127575000D01*
%TO.C,J2*%
X157420000Y-123190000D02*
X157420000Y-120590000D01*
X160080000Y-120590000D02*
X157420000Y-120590000D01*
X160080000Y-123190000D02*
X157420000Y-123190000D01*
X160080000Y-123190000D02*
X160080000Y-120590000D01*
X160080000Y-124460000D02*
X160080000Y-125790000D01*
X160080000Y-125790000D02*
X158750000Y-125790000D01*
%TO.C,C1*%
X147230000Y-128828748D02*
X147230000Y-130251252D01*
X149950000Y-128828748D02*
X149950000Y-130251252D01*
D13*
%TO.C,U1*%
X116900000Y-100535000D02*
X121255000Y-100535000D01*
X116900000Y-124535000D02*
X116900000Y-100535000D01*
X116900000Y-124535000D02*
X121255000Y-124535000D01*
X153865000Y-100535000D02*
X155400000Y-100535000D01*
X155400000Y-100535000D02*
X155400000Y-124535000D01*
X155400000Y-124535000D02*
X153865000Y-124535000D01*
D14*
X122430000Y-126150000D02*
G75*
G02*
X122230000Y-126150000I-100000J0D01*
G01*
X122230000Y-126150000D02*
G75*
G02*
X122430000Y-126150000I100000J0D01*
G01*
D12*
%TO.C,C2*%
X152310000Y-128828748D02*
X152310000Y-130251252D01*
X155030000Y-128828748D02*
X155030000Y-130251252D01*
%TD*%
M02*
