G04 #@! TF.GenerationSoftware,KiCad,Pcbnew,8.0.8*
G04 #@! TF.CreationDate,2025-02-15T12:45:03+02:00*
G04 #@! TF.ProjectId,E900M30S shield,45393030-4d33-4305-9320-736869656c64,rev?*
G04 #@! TF.SameCoordinates,Original*
G04 #@! TF.FileFunction,Copper,L2,Bot*
G04 #@! TF.FilePolarity,Positive*
%FSLAX46Y46*%
G04 Gerber Fmt 4.6, Leading zero omitted, Abs format (unit mm)*
G04 Created by KiCad (PCBNEW 8.0.8) date 2025-02-15 12:45:03*
%MOMM*%
%LPD*%
G01*
G04 APERTURE LIST*
G04 #@! TA.AperFunction,ComponentPad*
%ADD10R,1.700000X1.700000*%
G04 #@! TD*
G04 #@! TA.AperFunction,ComponentPad*
%ADD11O,1.700000X1.700000*%
G04 #@! TD*
G04 #@! TA.AperFunction,ViaPad*
%ADD12C,0.600000*%
G04 #@! TD*
G04 APERTURE END LIST*
D10*
G04 #@! TO.P,J1,1*
G04 #@! TO.N,NSS*
X119380000Y-128905000D03*
D11*
G04 #@! TO.P,J1,2*
G04 #@! TO.N,SCK*
X121920000Y-128905000D03*
G04 #@! TO.P,J1,3*
G04 #@! TO.N,MOSI*
X124460000Y-128905000D03*
G04 #@! TO.P,J1,4*
G04 #@! TO.N,MISO*
X127000000Y-128905000D03*
G04 #@! TO.P,J1,5*
G04 #@! TO.N,RST*
X129540000Y-128905000D03*
G04 #@! TO.P,J1,6*
G04 #@! TO.N,BUSY*
X132080000Y-128905000D03*
G04 #@! TO.P,J1,7*
G04 #@! TO.N,RXEN*
X134620000Y-128905000D03*
G04 #@! TO.P,J1,8*
G04 #@! TO.N,TXEN*
X137160000Y-128905000D03*
G04 #@! TO.P,J1,9*
G04 #@! TO.N,DIO2*
X139700000Y-128905000D03*
G04 #@! TO.P,J1,10*
G04 #@! TO.N,DIO1*
X142240000Y-128905000D03*
G04 #@! TD*
D10*
G04 #@! TO.P,J2,1*
G04 #@! TO.N,+5V*
X158750000Y-124460000D03*
D11*
G04 #@! TO.P,J2,2*
G04 #@! TO.N,GND*
X158750000Y-121920000D03*
G04 #@! TD*
D12*
G04 #@! TO.N,GND*
X130889632Y-121781551D03*
X122309986Y-103173605D03*
X152741659Y-121781551D03*
X127381931Y-103173605D03*
X133307102Y-116946612D03*
X135108353Y-121781551D03*
X152783863Y-103173605D03*
X127429333Y-121781551D03*
X124917061Y-121781551D03*
X137620625Y-121781551D03*
X122357387Y-121781551D03*
G04 #@! TD*
G04 #@! TA.AperFunction,Conductor*
G04 #@! TO.N,GND*
G36*
X160721121Y-98020020D02*
G01*
X160805223Y-98021520D01*
X160871901Y-98042397D01*
X160916707Y-98096008D01*
X160925416Y-98165333D01*
X160895262Y-98228361D01*
X160835820Y-98265081D01*
X160803012Y-98269500D01*
X160588812Y-98269500D01*
X160440452Y-98291863D01*
X160329385Y-98308604D01*
X160329382Y-98308605D01*
X160329376Y-98308606D01*
X160078673Y-98385938D01*
X159842303Y-98499767D01*
X159842302Y-98499768D01*
X159625520Y-98647567D01*
X159433198Y-98826014D01*
X159269614Y-99031143D01*
X159138432Y-99258356D01*
X159042582Y-99502578D01*
X159042576Y-99502597D01*
X158984197Y-99758374D01*
X158984196Y-99758379D01*
X158964592Y-100019995D01*
X158964592Y-100020004D01*
X158984196Y-100281620D01*
X158984197Y-100281625D01*
X159042576Y-100537402D01*
X159042578Y-100537411D01*
X159042580Y-100537416D01*
X159138432Y-100781643D01*
X159269614Y-101008857D01*
X159401736Y-101174533D01*
X159433198Y-101213985D01*
X159614753Y-101382441D01*
X159625521Y-101392433D01*
X159842296Y-101540228D01*
X159842301Y-101540230D01*
X159842302Y-101540231D01*
X159842303Y-101540232D01*
X159967843Y-101600688D01*
X160078673Y-101654061D01*
X160078674Y-101654061D01*
X160078677Y-101654063D01*
X160329385Y-101731396D01*
X160588818Y-101770500D01*
X160851182Y-101770500D01*
X161110615Y-101731396D01*
X161361323Y-101654063D01*
X161597704Y-101540228D01*
X161814479Y-101392433D01*
X162006805Y-101213981D01*
X162170386Y-101008857D01*
X162301568Y-100781643D01*
X162397420Y-100537416D01*
X162455802Y-100281630D01*
X162462910Y-100186779D01*
X162472347Y-100060852D01*
X162496986Y-99995471D01*
X162553061Y-99953790D01*
X162622769Y-99949042D01*
X162683979Y-99982735D01*
X162717255Y-100044172D01*
X162720000Y-100070118D01*
X162720000Y-132969881D01*
X162700315Y-133036920D01*
X162647511Y-133082675D01*
X162578353Y-133092619D01*
X162514797Y-133063594D01*
X162477023Y-133004816D01*
X162472347Y-132979147D01*
X162455803Y-132758379D01*
X162455802Y-132758374D01*
X162455802Y-132758370D01*
X162397420Y-132502584D01*
X162301568Y-132258357D01*
X162170386Y-132031143D01*
X162006805Y-131826019D01*
X162006804Y-131826018D01*
X162006801Y-131826014D01*
X161814479Y-131647567D01*
X161597704Y-131499772D01*
X161597700Y-131499770D01*
X161597697Y-131499768D01*
X161597696Y-131499767D01*
X161361325Y-131385938D01*
X161361327Y-131385938D01*
X161110623Y-131308606D01*
X161110619Y-131308605D01*
X161110615Y-131308604D01*
X160985823Y-131289794D01*
X160851187Y-131269500D01*
X160851182Y-131269500D01*
X160588818Y-131269500D01*
X160588812Y-131269500D01*
X160427247Y-131293853D01*
X160329385Y-131308604D01*
X160329382Y-131308605D01*
X160329376Y-131308606D01*
X160078673Y-131385938D01*
X159842303Y-131499767D01*
X159842302Y-131499768D01*
X159625520Y-131647567D01*
X159433198Y-131826014D01*
X159269614Y-132031143D01*
X159138432Y-132258356D01*
X159042582Y-132502578D01*
X159042576Y-132502597D01*
X158984197Y-132758374D01*
X158984196Y-132758379D01*
X158964592Y-133019995D01*
X158964592Y-133020004D01*
X158984196Y-133281620D01*
X158984197Y-133281625D01*
X159042576Y-133537402D01*
X159042578Y-133537411D01*
X159042580Y-133537416D01*
X159138432Y-133781643D01*
X159269614Y-134008857D01*
X159358562Y-134120394D01*
X159433198Y-134213985D01*
X159614753Y-134382441D01*
X159625521Y-134392433D01*
X159842296Y-134540228D01*
X159842301Y-134540230D01*
X159842302Y-134540231D01*
X159842303Y-134540232D01*
X159967843Y-134600688D01*
X160078673Y-134654061D01*
X160078674Y-134654061D01*
X160078677Y-134654063D01*
X160329385Y-134731396D01*
X160588818Y-134770500D01*
X160803012Y-134770500D01*
X160870051Y-134790185D01*
X160915806Y-134842989D01*
X160925750Y-134912147D01*
X160896725Y-134975703D01*
X160837947Y-135013477D01*
X160805223Y-135018480D01*
X160721121Y-135019980D01*
X160718910Y-135020000D01*
X112721090Y-135020000D01*
X112718879Y-135019980D01*
X112634777Y-135018480D01*
X112568099Y-134997603D01*
X112523293Y-134943992D01*
X112514584Y-134874667D01*
X112544738Y-134811639D01*
X112604180Y-134774919D01*
X112636988Y-134770500D01*
X112851182Y-134770500D01*
X113110615Y-134731396D01*
X113361323Y-134654063D01*
X113597704Y-134540228D01*
X113814479Y-134392433D01*
X113963733Y-134253945D01*
X114006801Y-134213985D01*
X114006801Y-134213983D01*
X114006805Y-134213981D01*
X114170386Y-134008857D01*
X114301568Y-133781643D01*
X114397420Y-133537416D01*
X114455802Y-133281630D01*
X114470091Y-133090957D01*
X114475408Y-133020004D01*
X114475408Y-133019995D01*
X114455803Y-132758379D01*
X114455802Y-132758374D01*
X114455802Y-132758370D01*
X114397420Y-132502584D01*
X114301568Y-132258357D01*
X114170386Y-132031143D01*
X114006805Y-131826019D01*
X114006804Y-131826018D01*
X114006801Y-131826014D01*
X113814479Y-131647567D01*
X113597704Y-131499772D01*
X113597700Y-131499770D01*
X113597697Y-131499768D01*
X113597696Y-131499767D01*
X113361325Y-131385938D01*
X113361327Y-131385938D01*
X113110623Y-131308606D01*
X113110619Y-131308605D01*
X113110615Y-131308604D01*
X112985823Y-131289794D01*
X112851187Y-131269500D01*
X112851182Y-131269500D01*
X112588818Y-131269500D01*
X112588812Y-131269500D01*
X112427247Y-131293853D01*
X112329385Y-131308604D01*
X112329382Y-131308605D01*
X112329376Y-131308606D01*
X112078673Y-131385938D01*
X111842303Y-131499767D01*
X111842302Y-131499768D01*
X111625520Y-131647567D01*
X111433198Y-131826014D01*
X111269614Y-132031143D01*
X111138432Y-132258356D01*
X111042582Y-132502578D01*
X111042576Y-132502597D01*
X110984197Y-132758374D01*
X110984196Y-132758379D01*
X110967653Y-132979147D01*
X110943014Y-133044528D01*
X110886939Y-133086209D01*
X110817230Y-133090957D01*
X110756021Y-133057264D01*
X110722745Y-132995827D01*
X110720000Y-132969881D01*
X110720000Y-128007135D01*
X118029500Y-128007135D01*
X118029500Y-129802870D01*
X118029501Y-129802876D01*
X118035908Y-129862483D01*
X118086202Y-129997328D01*
X118086206Y-129997335D01*
X118172452Y-130112544D01*
X118172455Y-130112547D01*
X118287664Y-130198793D01*
X118287671Y-130198797D01*
X118422517Y-130249091D01*
X118422516Y-130249091D01*
X118429444Y-130249835D01*
X118482127Y-130255500D01*
X120277872Y-130255499D01*
X120337483Y-130249091D01*
X120472331Y-130198796D01*
X120587546Y-130112546D01*
X120673796Y-129997331D01*
X120722810Y-129865916D01*
X120764681Y-129809984D01*
X120830145Y-129785566D01*
X120898418Y-129800417D01*
X120926673Y-129821569D01*
X121048599Y-129943495D01*
X121145384Y-130011265D01*
X121242165Y-130079032D01*
X121242167Y-130079033D01*
X121242170Y-130079035D01*
X121456337Y-130178903D01*
X121684592Y-130240063D01*
X121861034Y-130255500D01*
X121919999Y-130260659D01*
X121920000Y-130260659D01*
X121920001Y-130260659D01*
X121978966Y-130255500D01*
X122155408Y-130240063D01*
X122383663Y-130178903D01*
X122597830Y-130079035D01*
X122791401Y-129943495D01*
X122958495Y-129776401D01*
X123088425Y-129590842D01*
X123143002Y-129547217D01*
X123212500Y-129540023D01*
X123274855Y-129571546D01*
X123291575Y-129590842D01*
X123421500Y-129776395D01*
X123421505Y-129776401D01*
X123588599Y-129943495D01*
X123685384Y-130011265D01*
X123782165Y-130079032D01*
X123782167Y-130079033D01*
X123782170Y-130079035D01*
X123996337Y-130178903D01*
X124224592Y-130240063D01*
X124401034Y-130255500D01*
X124459999Y-130260659D01*
X124460000Y-130260659D01*
X124460001Y-130260659D01*
X124518966Y-130255500D01*
X124695408Y-130240063D01*
X124923663Y-130178903D01*
X125137830Y-130079035D01*
X125331401Y-129943495D01*
X125498495Y-129776401D01*
X125628425Y-129590842D01*
X125683002Y-129547217D01*
X125752500Y-129540023D01*
X125814855Y-129571546D01*
X125831575Y-129590842D01*
X125961500Y-129776395D01*
X125961505Y-129776401D01*
X126128599Y-129943495D01*
X126225384Y-130011265D01*
X126322165Y-130079032D01*
X126322167Y-130079033D01*
X126322170Y-130079035D01*
X126536337Y-130178903D01*
X126764592Y-130240063D01*
X126941034Y-130255500D01*
X126999999Y-130260659D01*
X127000000Y-130260659D01*
X127000001Y-130260659D01*
X127058966Y-130255500D01*
X127235408Y-130240063D01*
X127463663Y-130178903D01*
X127677830Y-130079035D01*
X127871401Y-129943495D01*
X128038495Y-129776401D01*
X128168425Y-129590842D01*
X128223002Y-129547217D01*
X128292500Y-129540023D01*
X128354855Y-129571546D01*
X128371575Y-129590842D01*
X128501500Y-129776395D01*
X128501505Y-129776401D01*
X128668599Y-129943495D01*
X128765384Y-130011265D01*
X128862165Y-130079032D01*
X128862167Y-130079033D01*
X128862170Y-130079035D01*
X129076337Y-130178903D01*
X129304592Y-130240063D01*
X129481034Y-130255500D01*
X129539999Y-130260659D01*
X129540000Y-130260659D01*
X129540001Y-130260659D01*
X129598966Y-130255500D01*
X129775408Y-130240063D01*
X130003663Y-130178903D01*
X130217830Y-130079035D01*
X130411401Y-129943495D01*
X130578495Y-129776401D01*
X130708425Y-129590842D01*
X130763002Y-129547217D01*
X130832500Y-129540023D01*
X130894855Y-129571546D01*
X130911575Y-129590842D01*
X131041500Y-129776395D01*
X131041505Y-129776401D01*
X131208599Y-129943495D01*
X131305384Y-130011265D01*
X131402165Y-130079032D01*
X131402167Y-130079033D01*
X131402170Y-130079035D01*
X131616337Y-130178903D01*
X131844592Y-130240063D01*
X132021034Y-130255500D01*
X132079999Y-130260659D01*
X132080000Y-130260659D01*
X132080001Y-130260659D01*
X132138966Y-130255500D01*
X132315408Y-130240063D01*
X132543663Y-130178903D01*
X132757830Y-130079035D01*
X132951401Y-129943495D01*
X133118495Y-129776401D01*
X133248425Y-129590842D01*
X133303002Y-129547217D01*
X133372500Y-129540023D01*
X133434855Y-129571546D01*
X133451575Y-129590842D01*
X133581500Y-129776395D01*
X133581505Y-129776401D01*
X133748599Y-129943495D01*
X133845384Y-130011265D01*
X133942165Y-130079032D01*
X133942167Y-130079033D01*
X133942170Y-130079035D01*
X134156337Y-130178903D01*
X134384592Y-130240063D01*
X134561034Y-130255500D01*
X134619999Y-130260659D01*
X134620000Y-130260659D01*
X134620001Y-130260659D01*
X134678966Y-130255500D01*
X134855408Y-130240063D01*
X135083663Y-130178903D01*
X135297830Y-130079035D01*
X135491401Y-129943495D01*
X135658495Y-129776401D01*
X135788425Y-129590842D01*
X135843002Y-129547217D01*
X135912500Y-129540023D01*
X135974855Y-129571546D01*
X135991575Y-129590842D01*
X136121500Y-129776395D01*
X136121505Y-129776401D01*
X136288599Y-129943495D01*
X136385384Y-130011265D01*
X136482165Y-130079032D01*
X136482167Y-130079033D01*
X136482170Y-130079035D01*
X136696337Y-130178903D01*
X136924592Y-130240063D01*
X137101034Y-130255500D01*
X137159999Y-130260659D01*
X137160000Y-130260659D01*
X137160001Y-130260659D01*
X137218966Y-130255500D01*
X137395408Y-130240063D01*
X137623663Y-130178903D01*
X137837830Y-130079035D01*
X138031401Y-129943495D01*
X138198495Y-129776401D01*
X138328425Y-129590842D01*
X138383002Y-129547217D01*
X138452500Y-129540023D01*
X138514855Y-129571546D01*
X138531575Y-129590842D01*
X138661500Y-129776395D01*
X138661505Y-129776401D01*
X138828599Y-129943495D01*
X138925384Y-130011265D01*
X139022165Y-130079032D01*
X139022167Y-130079033D01*
X139022170Y-130079035D01*
X139236337Y-130178903D01*
X139464592Y-130240063D01*
X139641034Y-130255500D01*
X139699999Y-130260659D01*
X139700000Y-130260659D01*
X139700001Y-130260659D01*
X139758966Y-130255500D01*
X139935408Y-130240063D01*
X140163663Y-130178903D01*
X140377830Y-130079035D01*
X140571401Y-129943495D01*
X140738495Y-129776401D01*
X140868425Y-129590842D01*
X140923002Y-129547217D01*
X140992500Y-129540023D01*
X141054855Y-129571546D01*
X141071575Y-129590842D01*
X141201500Y-129776395D01*
X141201505Y-129776401D01*
X141368599Y-129943495D01*
X141465384Y-130011265D01*
X141562165Y-130079032D01*
X141562167Y-130079033D01*
X141562170Y-130079035D01*
X141776337Y-130178903D01*
X142004592Y-130240063D01*
X142181034Y-130255500D01*
X142239999Y-130260659D01*
X142240000Y-130260659D01*
X142240001Y-130260659D01*
X142298966Y-130255500D01*
X142475408Y-130240063D01*
X142703663Y-130178903D01*
X142917830Y-130079035D01*
X143111401Y-129943495D01*
X143278495Y-129776401D01*
X143414035Y-129582830D01*
X143513903Y-129368663D01*
X143575063Y-129140408D01*
X143595659Y-128905000D01*
X143575063Y-128669592D01*
X143513903Y-128441337D01*
X143414035Y-128227171D01*
X143408425Y-128219158D01*
X143278494Y-128033597D01*
X143111402Y-127866506D01*
X143111395Y-127866501D01*
X142917834Y-127730967D01*
X142917830Y-127730965D01*
X142917828Y-127730964D01*
X142703663Y-127631097D01*
X142703659Y-127631096D01*
X142703655Y-127631094D01*
X142475413Y-127569938D01*
X142475403Y-127569936D01*
X142240001Y-127549341D01*
X142239999Y-127549341D01*
X142004596Y-127569936D01*
X142004586Y-127569938D01*
X141776344Y-127631094D01*
X141776335Y-127631098D01*
X141562171Y-127730964D01*
X141562169Y-127730965D01*
X141368597Y-127866505D01*
X141201505Y-128033597D01*
X141071575Y-128219158D01*
X141016998Y-128262783D01*
X140947500Y-128269977D01*
X140885145Y-128238454D01*
X140868425Y-128219158D01*
X140738494Y-128033597D01*
X140571402Y-127866506D01*
X140571395Y-127866501D01*
X140377834Y-127730967D01*
X140377830Y-127730965D01*
X140377828Y-127730964D01*
X140163663Y-127631097D01*
X140163659Y-127631096D01*
X140163655Y-127631094D01*
X139935413Y-127569938D01*
X139935403Y-127569936D01*
X139700001Y-127549341D01*
X139699999Y-127549341D01*
X139464596Y-127569936D01*
X139464586Y-127569938D01*
X139236344Y-127631094D01*
X139236335Y-127631098D01*
X139022171Y-127730964D01*
X139022169Y-127730965D01*
X138828597Y-127866505D01*
X138661505Y-128033597D01*
X138531575Y-128219158D01*
X138476998Y-128262783D01*
X138407500Y-128269977D01*
X138345145Y-128238454D01*
X138328425Y-128219158D01*
X138198494Y-128033597D01*
X138031402Y-127866506D01*
X138031395Y-127866501D01*
X137837834Y-127730967D01*
X137837830Y-127730965D01*
X137837828Y-127730964D01*
X137623663Y-127631097D01*
X137623659Y-127631096D01*
X137623655Y-127631094D01*
X137395413Y-127569938D01*
X137395403Y-127569936D01*
X137160001Y-127549341D01*
X137159999Y-127549341D01*
X136924596Y-127569936D01*
X136924586Y-127569938D01*
X136696344Y-127631094D01*
X136696335Y-127631098D01*
X136482171Y-127730964D01*
X136482169Y-127730965D01*
X136288597Y-127866505D01*
X136121505Y-128033597D01*
X135991575Y-128219158D01*
X135936998Y-128262783D01*
X135867500Y-128269977D01*
X135805145Y-128238454D01*
X135788425Y-128219158D01*
X135658494Y-128033597D01*
X135491402Y-127866506D01*
X135491395Y-127866501D01*
X135297834Y-127730967D01*
X135297830Y-127730965D01*
X135297828Y-127730964D01*
X135083663Y-127631097D01*
X135083659Y-127631096D01*
X135083655Y-127631094D01*
X134855413Y-127569938D01*
X134855403Y-127569936D01*
X134620001Y-127549341D01*
X134619999Y-127549341D01*
X134384596Y-127569936D01*
X134384586Y-127569938D01*
X134156344Y-127631094D01*
X134156335Y-127631098D01*
X133942171Y-127730964D01*
X133942169Y-127730965D01*
X133748597Y-127866505D01*
X133581505Y-128033597D01*
X133451575Y-128219158D01*
X133396998Y-128262783D01*
X133327500Y-128269977D01*
X133265145Y-128238454D01*
X133248425Y-128219158D01*
X133118494Y-128033597D01*
X132951402Y-127866506D01*
X132951395Y-127866501D01*
X132757834Y-127730967D01*
X132757830Y-127730965D01*
X132757828Y-127730964D01*
X132543663Y-127631097D01*
X132543659Y-127631096D01*
X132543655Y-127631094D01*
X132315413Y-127569938D01*
X132315403Y-127569936D01*
X132080001Y-127549341D01*
X132079999Y-127549341D01*
X131844596Y-127569936D01*
X131844586Y-127569938D01*
X131616344Y-127631094D01*
X131616335Y-127631098D01*
X131402171Y-127730964D01*
X131402169Y-127730965D01*
X131208597Y-127866505D01*
X131041505Y-128033597D01*
X130911575Y-128219158D01*
X130856998Y-128262783D01*
X130787500Y-128269977D01*
X130725145Y-128238454D01*
X130708425Y-128219158D01*
X130578494Y-128033597D01*
X130411402Y-127866506D01*
X130411395Y-127866501D01*
X130217834Y-127730967D01*
X130217830Y-127730965D01*
X130217828Y-127730964D01*
X130003663Y-127631097D01*
X130003659Y-127631096D01*
X130003655Y-127631094D01*
X129775413Y-127569938D01*
X129775403Y-127569936D01*
X129540001Y-127549341D01*
X129539999Y-127549341D01*
X129304596Y-127569936D01*
X129304586Y-127569938D01*
X129076344Y-127631094D01*
X129076335Y-127631098D01*
X128862171Y-127730964D01*
X128862169Y-127730965D01*
X128668597Y-127866505D01*
X128501505Y-128033597D01*
X128371575Y-128219158D01*
X128316998Y-128262783D01*
X128247500Y-128269977D01*
X128185145Y-128238454D01*
X128168425Y-128219158D01*
X128038494Y-128033597D01*
X127871402Y-127866506D01*
X127871395Y-127866501D01*
X127677834Y-127730967D01*
X127677830Y-127730965D01*
X127677828Y-127730964D01*
X127463663Y-127631097D01*
X127463659Y-127631096D01*
X127463655Y-127631094D01*
X127235413Y-127569938D01*
X127235403Y-127569936D01*
X127000001Y-127549341D01*
X126999999Y-127549341D01*
X126764596Y-127569936D01*
X126764586Y-127569938D01*
X126536344Y-127631094D01*
X126536335Y-127631098D01*
X126322171Y-127730964D01*
X126322169Y-127730965D01*
X126128597Y-127866505D01*
X125961505Y-128033597D01*
X125831575Y-128219158D01*
X125776998Y-128262783D01*
X125707500Y-128269977D01*
X125645145Y-128238454D01*
X125628425Y-128219158D01*
X125498494Y-128033597D01*
X125331402Y-127866506D01*
X125331395Y-127866501D01*
X125137834Y-127730967D01*
X125137830Y-127730965D01*
X125137828Y-127730964D01*
X124923663Y-127631097D01*
X124923659Y-127631096D01*
X124923655Y-127631094D01*
X124695413Y-127569938D01*
X124695403Y-127569936D01*
X124460001Y-127549341D01*
X124459999Y-127549341D01*
X124224596Y-127569936D01*
X124224586Y-127569938D01*
X123996344Y-127631094D01*
X123996335Y-127631098D01*
X123782171Y-127730964D01*
X123782169Y-127730965D01*
X123588597Y-127866505D01*
X123421505Y-128033597D01*
X123291575Y-128219158D01*
X123236998Y-128262783D01*
X123167500Y-128269977D01*
X123105145Y-128238454D01*
X123088425Y-128219158D01*
X122958494Y-128033597D01*
X122791402Y-127866506D01*
X122791395Y-127866501D01*
X122597834Y-127730967D01*
X122597830Y-127730965D01*
X122597828Y-127730964D01*
X122383663Y-127631097D01*
X122383659Y-127631096D01*
X122383655Y-127631094D01*
X122155413Y-127569938D01*
X122155403Y-127569936D01*
X121920001Y-127549341D01*
X121919999Y-127549341D01*
X121684596Y-127569936D01*
X121684586Y-127569938D01*
X121456344Y-127631094D01*
X121456335Y-127631098D01*
X121242171Y-127730964D01*
X121242169Y-127730965D01*
X121048600Y-127866503D01*
X120926673Y-127988430D01*
X120865350Y-128021914D01*
X120795658Y-128016930D01*
X120739725Y-127975058D01*
X120722810Y-127944081D01*
X120673797Y-127812671D01*
X120673793Y-127812664D01*
X120587547Y-127697455D01*
X120587544Y-127697452D01*
X120472335Y-127611206D01*
X120472328Y-127611202D01*
X120337482Y-127560908D01*
X120337483Y-127560908D01*
X120277883Y-127554501D01*
X120277881Y-127554500D01*
X120277873Y-127554500D01*
X120277864Y-127554500D01*
X118482129Y-127554500D01*
X118482123Y-127554501D01*
X118422516Y-127560908D01*
X118287671Y-127611202D01*
X118287664Y-127611206D01*
X118172455Y-127697452D01*
X118172452Y-127697455D01*
X118086206Y-127812664D01*
X118086202Y-127812671D01*
X118035908Y-127947517D01*
X118029501Y-128007116D01*
X118029500Y-128007135D01*
X110720000Y-128007135D01*
X110720000Y-123562135D01*
X157399500Y-123562135D01*
X157399500Y-125357870D01*
X157399501Y-125357876D01*
X157405908Y-125417483D01*
X157456202Y-125552328D01*
X157456206Y-125552335D01*
X157542452Y-125667544D01*
X157542455Y-125667547D01*
X157657664Y-125753793D01*
X157657671Y-125753797D01*
X157792517Y-125804091D01*
X157792516Y-125804091D01*
X157799444Y-125804835D01*
X157852127Y-125810500D01*
X159647872Y-125810499D01*
X159707483Y-125804091D01*
X159842331Y-125753796D01*
X159957546Y-125667546D01*
X160043796Y-125552331D01*
X160094091Y-125417483D01*
X160100500Y-125357873D01*
X160100499Y-123562128D01*
X160094091Y-123502517D01*
X160043796Y-123367669D01*
X160043795Y-123367668D01*
X160043793Y-123367664D01*
X159957547Y-123252455D01*
X159957544Y-123252452D01*
X159842335Y-123166206D01*
X159842328Y-123166202D01*
X159710401Y-123116997D01*
X159654467Y-123075126D01*
X159630050Y-123009662D01*
X159644902Y-122941389D01*
X159666053Y-122913133D01*
X159788108Y-122791078D01*
X159923600Y-122597578D01*
X160023429Y-122383492D01*
X160023432Y-122383486D01*
X160080636Y-122170000D01*
X159183012Y-122170000D01*
X159215925Y-122112993D01*
X159250000Y-121985826D01*
X159250000Y-121854174D01*
X159215925Y-121727007D01*
X159183012Y-121670000D01*
X160080636Y-121670000D01*
X160080635Y-121669999D01*
X160023432Y-121456513D01*
X160023429Y-121456507D01*
X159923600Y-121242422D01*
X159923599Y-121242420D01*
X159788113Y-121048926D01*
X159788108Y-121048920D01*
X159621082Y-120881894D01*
X159427578Y-120746399D01*
X159213492Y-120646570D01*
X159213486Y-120646567D01*
X159000000Y-120589364D01*
X159000000Y-121486988D01*
X158942993Y-121454075D01*
X158815826Y-121420000D01*
X158684174Y-121420000D01*
X158557007Y-121454075D01*
X158500000Y-121486988D01*
X158500000Y-120589364D01*
X158499999Y-120589364D01*
X158286513Y-120646567D01*
X158286507Y-120646570D01*
X158072422Y-120746399D01*
X158072420Y-120746400D01*
X157878926Y-120881886D01*
X157878920Y-120881891D01*
X157711891Y-121048920D01*
X157711886Y-121048926D01*
X157576400Y-121242420D01*
X157576399Y-121242422D01*
X157476570Y-121456507D01*
X157476567Y-121456513D01*
X157419364Y-121669999D01*
X157419364Y-121670000D01*
X158316988Y-121670000D01*
X158284075Y-121727007D01*
X158250000Y-121854174D01*
X158250000Y-121985826D01*
X158284075Y-122112993D01*
X158316988Y-122170000D01*
X157419364Y-122170000D01*
X157476567Y-122383486D01*
X157476570Y-122383492D01*
X157576399Y-122597578D01*
X157711894Y-122791082D01*
X157833946Y-122913134D01*
X157867431Y-122974457D01*
X157862447Y-123044149D01*
X157820575Y-123100082D01*
X157789598Y-123116997D01*
X157657671Y-123166202D01*
X157657664Y-123166206D01*
X157542455Y-123252452D01*
X157542452Y-123252455D01*
X157456206Y-123367664D01*
X157456202Y-123367671D01*
X157405908Y-123502517D01*
X157399501Y-123562116D01*
X157399501Y-123562123D01*
X157399500Y-123562135D01*
X110720000Y-123562135D01*
X110720000Y-100070118D01*
X110739685Y-100003079D01*
X110792489Y-99957324D01*
X110861647Y-99947380D01*
X110925203Y-99976405D01*
X110962977Y-100035183D01*
X110967653Y-100060852D01*
X110984196Y-100281620D01*
X110984197Y-100281625D01*
X111042576Y-100537402D01*
X111042578Y-100537411D01*
X111042580Y-100537416D01*
X111138432Y-100781643D01*
X111269614Y-101008857D01*
X111401736Y-101174533D01*
X111433198Y-101213985D01*
X111614753Y-101382441D01*
X111625521Y-101392433D01*
X111842296Y-101540228D01*
X111842301Y-101540230D01*
X111842302Y-101540231D01*
X111842303Y-101540232D01*
X111967843Y-101600688D01*
X112078673Y-101654061D01*
X112078674Y-101654061D01*
X112078677Y-101654063D01*
X112329385Y-101731396D01*
X112588818Y-101770500D01*
X112851182Y-101770500D01*
X113110615Y-101731396D01*
X113361323Y-101654063D01*
X113597704Y-101540228D01*
X113814479Y-101392433D01*
X114006805Y-101213981D01*
X114170386Y-101008857D01*
X114301568Y-100781643D01*
X114397420Y-100537416D01*
X114455802Y-100281630D01*
X114462910Y-100186779D01*
X114475408Y-100020004D01*
X114475408Y-100019995D01*
X114455803Y-99758379D01*
X114455802Y-99758374D01*
X114455802Y-99758370D01*
X114397420Y-99502584D01*
X114301568Y-99258357D01*
X114170386Y-99031143D01*
X114006805Y-98826019D01*
X114006804Y-98826018D01*
X114006801Y-98826014D01*
X113814479Y-98647567D01*
X113597704Y-98499772D01*
X113597700Y-98499770D01*
X113597697Y-98499768D01*
X113597696Y-98499767D01*
X113361325Y-98385938D01*
X113361327Y-98385938D01*
X113110623Y-98308606D01*
X113110619Y-98308605D01*
X113110615Y-98308604D01*
X112985823Y-98289794D01*
X112851187Y-98269500D01*
X112851182Y-98269500D01*
X112636988Y-98269500D01*
X112569949Y-98249815D01*
X112524194Y-98197011D01*
X112514250Y-98127853D01*
X112543275Y-98064297D01*
X112602053Y-98026523D01*
X112634777Y-98021520D01*
X112718879Y-98020020D01*
X112721090Y-98020000D01*
X160718910Y-98020000D01*
X160721121Y-98020020D01*
G37*
G04 #@! TD.AperFunction*
G04 #@! TD*
M02*
