%TF.GenerationSoftware,KiCad,Pcbnew,9.0.0*%
%TF.CreationDate,2025-02-26T09:21:49+02:00*%
%TF.ProjectId,E900M30S shield,45393030-4d33-4305-9320-736869656c64,rev?*%
%TF.SameCoordinates,Original*%
%TF.FileFunction,Copper,L1,Top*%
%TF.FilePolarity,Positive*%
%FSLAX46Y46*%
G04 Gerber Fmt 4.6, Leading zero omitted, Abs format (unit mm)*
G04 Created by KiCad (PCBNEW 9.0.0) date 2025-02-26 09:21:49*
%MOMM*%
%LPD*%
G01*
G04 APERTURE LIST*
G04 Aperture macros list*
%AMRoundRect*
0 Rectangle with rounded corners*
0 $1 Rounding radius*
0 $2 $3 $4 $5 $6 $7 $8 $9 X,Y pos of 4 corners*
0 Add a 4 corners polygon primitive as box body*
4,1,4,$2,$3,$4,$5,$6,$7,$8,$9,$2,$3,0*
0 Add four circle primitives for the rounded corners*
1,1,$1+$1,$2,$3*
1,1,$1+$1,$4,$5*
1,1,$1+$1,$6,$7*
1,1,$1+$1,$8,$9*
0 Add four rect primitives between the rounded corners*
20,1,$1+$1,$2,$3,$4,$5,0*
20,1,$1+$1,$4,$5,$6,$7,0*
20,1,$1+$1,$6,$7,$8,$9,0*
20,1,$1+$1,$8,$9,$2,$3,0*%
G04 Aperture macros list end*
%TA.AperFunction,ComponentPad*%
%ADD10R,1.700000X1.700000*%
%TD*%
%TA.AperFunction,ComponentPad*%
%ADD11O,1.700000X1.700000*%
%TD*%
%TA.AperFunction,SMDPad,CuDef*%
%ADD12RoundRect,0.250000X-1.100000X0.325000X-1.100000X-0.325000X1.100000X-0.325000X1.100000X0.325000X0*%
%TD*%
%TA.AperFunction,SMDPad,CuDef*%
%ADD13R,1.510000X2.080000*%
%TD*%
%TA.AperFunction,ViaPad*%
%ADD14C,0.600000*%
%TD*%
%TA.AperFunction,Conductor*%
%ADD15C,0.400000*%
%TD*%
%TA.AperFunction,Conductor*%
%ADD16C,0.200000*%
%TD*%
G04 APERTURE END LIST*
D10*
%TO.P,J1,1*%
%TO.N,NSS*%
X119380000Y-128905000D03*
D11*
%TO.P,J1,2*%
%TO.N,SCK*%
X121920000Y-128905000D03*
%TO.P,J1,3*%
%TO.N,MOSI*%
X124460000Y-128905000D03*
%TO.P,J1,4*%
%TO.N,MISO*%
X127000000Y-128905000D03*
%TO.P,J1,5*%
%TO.N,RST*%
X129540000Y-128905000D03*
%TO.P,J1,6*%
%TO.N,BUSY*%
X132080000Y-128905000D03*
%TO.P,J1,7*%
%TO.N,RXEN*%
X134620000Y-128905000D03*
%TO.P,J1,8*%
%TO.N,TXEN*%
X137160000Y-128905000D03*
%TO.P,J1,9*%
%TO.N,DIO2*%
X139700000Y-128905000D03*
%TO.P,J1,10*%
%TO.N,DIO1*%
X142240000Y-128905000D03*
%TD*%
D10*
%TO.P,J2,1*%
%TO.N,+5V*%
X158750000Y-124460000D03*
D11*
%TO.P,J2,2*%
%TO.N,GND*%
X158750000Y-121920000D03*
%TD*%
D12*
%TO.P,C1,1*%
%TO.N,+5V*%
X148590000Y-128065000D03*
%TO.P,C1,2*%
%TO.N,GND*%
X148590000Y-131015000D03*
%TD*%
D13*
%TO.P,U1,1,GND*%
%TO.N,GND*%
X122330000Y-124110000D03*
%TO.P,U1,2,GND*%
X124870000Y-124110000D03*
%TO.P,U1,3,GND*%
X127410000Y-124110000D03*
%TO.P,U1,4,GND*%
X135010000Y-124110000D03*
%TO.P,U1,5,GND*%
X137550000Y-124110000D03*
%TO.P,U1,6,RXEN*%
%TO.N,RXEN*%
X140090000Y-124110000D03*
%TO.P,U1,7,TXEN*%
%TO.N,TXEN*%
X142630000Y-124110000D03*
%TO.P,U1,8,DIO2*%
%TO.N,DIO2*%
X145170000Y-124110000D03*
%TO.P,U1,9,VCC*%
%TO.N,+5V*%
X147710000Y-124110000D03*
%TO.P,U1,10,VCC*%
X150250000Y-124110000D03*
%TO.P,U1,11,GND*%
%TO.N,GND*%
X152790000Y-124110000D03*
%TO.P,U1,12,GND*%
X152790000Y-100960000D03*
%TO.P,U1,13,DIO1*%
%TO.N,DIO1*%
X150250000Y-100960000D03*
%TO.P,U1,14,BUSY*%
%TO.N,BUSY*%
X147710000Y-100960000D03*
%TO.P,U1,15,~{RST}*%
%TO.N,RST*%
X145170000Y-100960000D03*
%TO.P,U1,16,MISO*%
%TO.N,MISO*%
X142630000Y-100960000D03*
%TO.P,U1,17,MOSI*%
%TO.N,MOSI*%
X140090000Y-100960000D03*
%TO.P,U1,18,SCK*%
%TO.N,SCK*%
X137550000Y-100960000D03*
%TO.P,U1,19,NSS*%
%TO.N,NSS*%
X135010000Y-100960000D03*
%TO.P,U1,20,GND*%
%TO.N,GND*%
X127410000Y-100960000D03*
%TO.P,U1,21,ANT*%
%TO.N,unconnected-(U1-ANT-Pad21)*%
X124870000Y-100960000D03*
%TO.P,U1,22,GND*%
%TO.N,GND*%
X122330000Y-100960000D03*
%TD*%
D12*
%TO.P,C2,1*%
%TO.N,+5V*%
X153670000Y-128065000D03*
%TO.P,C2,2*%
%TO.N,GND*%
X153670000Y-131015000D03*
%TD*%
D14*
%TO.N,GND*%
X131445000Y-121782000D03*
X145415000Y-119380000D03*
X122357000Y-121782000D03*
X135010000Y-121782000D03*
X127410000Y-103174000D03*
X122330000Y-103174000D03*
X127429000Y-121782000D03*
X145415000Y-127000000D03*
X152790000Y-103174000D03*
X124917000Y-121782000D03*
X137550000Y-121782000D03*
%TO.N,MISO*%
X139625700Y-97910200D03*
%TO.N,MOSI*%
X138820000Y-100726200D03*
%TO.N,DIO1*%
X148980000Y-101611000D03*
%TO.N,NSS*%
X133308700Y-100726200D03*
%TO.N,BUSY*%
X148980000Y-100726200D03*
%TO.N,SCK*%
X136280000Y-100726200D03*
%TO.N,RST*%
X141840200Y-98572000D03*
%TD*%
D15*
%TO.N,+5V*%
X148590000Y-128065000D02*
X147710000Y-127185000D01*
X158750000Y-125730000D02*
X156415000Y-128065000D01*
X147710000Y-127185000D02*
X147710000Y-124110000D01*
X147710000Y-124110000D02*
X150250000Y-124110000D01*
X148590000Y-128065000D02*
X150250000Y-126405000D01*
X156415000Y-128065000D02*
X153670000Y-128065000D01*
X153670000Y-128065000D02*
X148590000Y-128065000D01*
X150250000Y-126405000D02*
X150250000Y-124110000D01*
X158750000Y-124460000D02*
X158750000Y-125730000D01*
D16*
%TO.N,MISO*%
X141573300Y-100960000D02*
X141573300Y-99857800D01*
X142630000Y-100960000D02*
X141573300Y-100960000D01*
X141573300Y-99857800D02*
X139625700Y-97910200D01*
%TO.N,RXEN*%
X140090000Y-124110000D02*
X135295000Y-128905000D01*
X135295000Y-128905000D02*
X134620000Y-128905000D01*
%TO.N,MOSI*%
X140090000Y-100960000D02*
X139033300Y-100960000D01*
X139033300Y-100939500D02*
X139033300Y-100960000D01*
X138820000Y-100726200D02*
X139033300Y-100939500D01*
%TO.N,DIO1*%
X149599000Y-101611000D02*
X150250000Y-100960000D01*
X148980000Y-101611000D02*
X149599000Y-101611000D01*
%TO.N,NSS*%
X133719500Y-100726200D02*
X133953300Y-100960000D01*
X133308700Y-100726200D02*
X133719500Y-100726200D01*
X135010000Y-100960000D02*
X133953300Y-100960000D01*
%TO.N,DIO2*%
X145170000Y-124110000D02*
X140375000Y-128905000D01*
X140375000Y-128905000D02*
X139700000Y-128905000D01*
%TO.N,TXEN*%
X142630000Y-124110000D02*
X142590000Y-124110000D01*
X137795000Y-128905000D02*
X137160000Y-128905000D01*
X142590000Y-124110000D02*
X137795000Y-128905000D01*
%TO.N,BUSY*%
X148980000Y-100726200D02*
X148766700Y-100939500D01*
X147710000Y-100960000D02*
X148766700Y-100960000D01*
X148766700Y-100939500D02*
X148766700Y-100960000D01*
%TO.N,SCK*%
X136280000Y-100726200D02*
X136493300Y-100939500D01*
X136493300Y-100939500D02*
X136493300Y-100960000D01*
X137550000Y-100960000D02*
X136493300Y-100960000D01*
%TO.N,RST*%
X145170000Y-100960000D02*
X144113300Y-100960000D01*
X144113300Y-100960000D02*
X144113300Y-100138800D01*
X144113300Y-100138800D02*
X142546500Y-98572000D01*
X142546500Y-98572000D02*
X141840200Y-98572000D01*
%TD*%
%TA.AperFunction,Conductor*%
%TO.N,GND*%
G36*
X139174633Y-97040185D02*
G01*
X139220388Y-97092989D01*
X139230332Y-97162147D01*
X139201307Y-97225703D01*
X139176485Y-97247602D01*
X139115411Y-97288410D01*
X139115407Y-97288413D01*
X139003913Y-97399907D01*
X139003910Y-97399911D01*
X138916309Y-97531014D01*
X138916302Y-97531027D01*
X138855964Y-97676698D01*
X138855961Y-97676710D01*
X138825200Y-97831353D01*
X138825200Y-97989046D01*
X138855961Y-98143689D01*
X138855964Y-98143701D01*
X138916302Y-98289372D01*
X138916309Y-98289385D01*
X139003910Y-98420488D01*
X139003913Y-98420492D01*
X139115407Y-98531986D01*
X139115411Y-98531989D01*
X139246514Y-98619590D01*
X139246527Y-98619597D01*
X139392198Y-98679935D01*
X139392203Y-98679937D01*
X139456847Y-98692795D01*
X139547549Y-98710838D01*
X139609460Y-98743223D01*
X139611039Y-98744774D01*
X140074084Y-99207819D01*
X140107569Y-99269142D01*
X140102585Y-99338834D01*
X140060713Y-99394767D01*
X139995249Y-99419184D01*
X139986403Y-99419500D01*
X139287129Y-99419500D01*
X139287123Y-99419501D01*
X139227516Y-99425908D01*
X139092671Y-99476202D01*
X139092664Y-99476206D01*
X138977455Y-99562452D01*
X138977452Y-99562455D01*
X138919266Y-99640182D01*
X138863332Y-99682053D01*
X138793641Y-99687037D01*
X138732318Y-99653551D01*
X138720734Y-99640182D01*
X138662547Y-99562455D01*
X138662544Y-99562452D01*
X138547335Y-99476206D01*
X138547328Y-99476202D01*
X138412482Y-99425908D01*
X138412483Y-99425908D01*
X138352883Y-99419501D01*
X138352881Y-99419500D01*
X138352873Y-99419500D01*
X138352864Y-99419500D01*
X136747129Y-99419500D01*
X136747123Y-99419501D01*
X136687516Y-99425908D01*
X136552671Y-99476202D01*
X136552664Y-99476206D01*
X136437455Y-99562452D01*
X136437452Y-99562455D01*
X136379266Y-99640182D01*
X136323332Y-99682053D01*
X136253641Y-99687037D01*
X136192318Y-99653551D01*
X136180734Y-99640182D01*
X136122547Y-99562455D01*
X136122544Y-99562452D01*
X136007335Y-99476206D01*
X136007328Y-99476202D01*
X135872482Y-99425908D01*
X135872483Y-99425908D01*
X135812883Y-99419501D01*
X135812881Y-99419500D01*
X135812873Y-99419500D01*
X135812864Y-99419500D01*
X134207129Y-99419500D01*
X134207123Y-99419501D01*
X134147516Y-99425908D01*
X134012671Y-99476202D01*
X134012664Y-99476206D01*
X133897455Y-99562452D01*
X133897452Y-99562455D01*
X133811206Y-99677664D01*
X133811202Y-99677671D01*
X133760908Y-99812516D01*
X133754474Y-99872363D01*
X133727736Y-99936913D01*
X133670343Y-99976761D01*
X133600517Y-99979254D01*
X133583737Y-99973669D01*
X133542197Y-99956463D01*
X133542192Y-99956462D01*
X133542189Y-99956461D01*
X133387545Y-99925700D01*
X133387542Y-99925700D01*
X133229858Y-99925700D01*
X133229855Y-99925700D01*
X133075210Y-99956461D01*
X133075198Y-99956464D01*
X132929527Y-100016802D01*
X132929514Y-100016809D01*
X132798411Y-100104410D01*
X132798407Y-100104413D01*
X132686913Y-100215907D01*
X132686910Y-100215911D01*
X132599309Y-100347014D01*
X132599302Y-100347027D01*
X132538964Y-100492698D01*
X132538961Y-100492710D01*
X132508200Y-100647353D01*
X132508200Y-100805046D01*
X132538961Y-100959689D01*
X132538964Y-100959701D01*
X132599302Y-101105372D01*
X132599309Y-101105385D01*
X132686910Y-101236488D01*
X132686913Y-101236492D01*
X132798407Y-101347986D01*
X132798411Y-101347989D01*
X132929514Y-101435590D01*
X132929527Y-101435597D01*
X133050143Y-101485557D01*
X133075203Y-101495937D01*
X133194049Y-101519577D01*
X133229853Y-101526699D01*
X133229856Y-101526700D01*
X133229858Y-101526700D01*
X133387544Y-101526700D01*
X133387545Y-101526699D01*
X133542197Y-101495937D01*
X133566272Y-101485964D01*
X133570062Y-101485557D01*
X133573170Y-101483344D01*
X133604527Y-101481850D01*
X133635737Y-101478495D01*
X133640255Y-101480149D01*
X133642960Y-101480021D01*
X133675722Y-101493137D01*
X133692503Y-101502826D01*
X133740717Y-101553393D01*
X133754500Y-101610211D01*
X133754500Y-102047870D01*
X133754501Y-102047876D01*
X133760908Y-102107483D01*
X133811202Y-102242328D01*
X133811206Y-102242335D01*
X133897452Y-102357544D01*
X133897455Y-102357547D01*
X134012664Y-102443793D01*
X134012671Y-102443797D01*
X134147517Y-102494091D01*
X134147516Y-102494091D01*
X134154444Y-102494835D01*
X134207127Y-102500500D01*
X135812872Y-102500499D01*
X135872483Y-102494091D01*
X136007331Y-102443796D01*
X136122546Y-102357546D01*
X136180735Y-102279815D01*
X136236667Y-102237946D01*
X136306359Y-102232962D01*
X136367682Y-102266447D01*
X136379259Y-102279808D01*
X136437454Y-102357546D01*
X136437455Y-102357546D01*
X136437456Y-102357548D01*
X136552664Y-102443793D01*
X136552671Y-102443797D01*
X136687517Y-102494091D01*
X136687516Y-102494091D01*
X136694444Y-102494835D01*
X136747127Y-102500500D01*
X138352872Y-102500499D01*
X138412483Y-102494091D01*
X138547331Y-102443796D01*
X138662546Y-102357546D01*
X138720735Y-102279815D01*
X138776667Y-102237946D01*
X138846359Y-102232962D01*
X138907682Y-102266447D01*
X138919259Y-102279808D01*
X138977454Y-102357546D01*
X138977455Y-102357546D01*
X138977456Y-102357548D01*
X139092664Y-102443793D01*
X139092671Y-102443797D01*
X139227517Y-102494091D01*
X139227516Y-102494091D01*
X139234444Y-102494835D01*
X139287127Y-102500500D01*
X140892872Y-102500499D01*
X140952483Y-102494091D01*
X141087331Y-102443796D01*
X141202546Y-102357546D01*
X141260735Y-102279815D01*
X141316667Y-102237946D01*
X141386359Y-102232962D01*
X141447682Y-102266447D01*
X141459259Y-102279808D01*
X141517454Y-102357546D01*
X141517455Y-102357546D01*
X141517456Y-102357548D01*
X141632664Y-102443793D01*
X141632671Y-102443797D01*
X141767517Y-102494091D01*
X141767516Y-102494091D01*
X141774444Y-102494835D01*
X141827127Y-102500500D01*
X143432872Y-102500499D01*
X143492483Y-102494091D01*
X143627331Y-102443796D01*
X143742546Y-102357546D01*
X143800735Y-102279815D01*
X143856667Y-102237946D01*
X143926359Y-102232962D01*
X143987682Y-102266447D01*
X143999259Y-102279808D01*
X144057454Y-102357546D01*
X144057455Y-102357546D01*
X144057456Y-102357548D01*
X144172664Y-102443793D01*
X144172671Y-102443797D01*
X144307517Y-102494091D01*
X144307516Y-102494091D01*
X144314444Y-102494835D01*
X144367127Y-102500500D01*
X145972872Y-102500499D01*
X146032483Y-102494091D01*
X146167331Y-102443796D01*
X146282546Y-102357546D01*
X146340735Y-102279815D01*
X146396667Y-102237946D01*
X146466359Y-102232962D01*
X146527682Y-102266447D01*
X146539259Y-102279808D01*
X146597454Y-102357546D01*
X146597455Y-102357546D01*
X146597456Y-102357548D01*
X146712664Y-102443793D01*
X146712671Y-102443797D01*
X146847517Y-102494091D01*
X146847516Y-102494091D01*
X146854444Y-102494835D01*
X146907127Y-102500500D01*
X148512872Y-102500499D01*
X148572483Y-102494091D01*
X148707331Y-102443796D01*
X148737838Y-102420958D01*
X148803299Y-102396540D01*
X148836341Y-102398607D01*
X148901155Y-102411500D01*
X148901158Y-102411500D01*
X149058843Y-102411500D01*
X149076306Y-102408026D01*
X149123657Y-102398607D01*
X149193248Y-102404834D01*
X149222159Y-102420956D01*
X149252073Y-102443350D01*
X149252668Y-102443795D01*
X149252671Y-102443797D01*
X149387517Y-102494091D01*
X149387516Y-102494091D01*
X149394444Y-102494835D01*
X149447127Y-102500500D01*
X151052872Y-102500499D01*
X151112483Y-102494091D01*
X151247331Y-102443796D01*
X151362546Y-102357546D01*
X151388618Y-102322717D01*
X151421046Y-102279401D01*
X151476979Y-102237530D01*
X151546671Y-102232546D01*
X151607994Y-102266032D01*
X151619578Y-102279401D01*
X151677809Y-102357187D01*
X151677812Y-102357190D01*
X151792906Y-102443350D01*
X151792913Y-102443354D01*
X151927620Y-102493596D01*
X151927627Y-102493598D01*
X151987155Y-102499999D01*
X151987172Y-102500000D01*
X152540000Y-102500000D01*
X153040000Y-102500000D01*
X153592828Y-102500000D01*
X153592844Y-102499999D01*
X153652372Y-102493598D01*
X153652379Y-102493596D01*
X153787086Y-102443354D01*
X153787093Y-102443350D01*
X153902187Y-102357190D01*
X153902190Y-102357187D01*
X153988350Y-102242093D01*
X153988354Y-102242086D01*
X154038596Y-102107379D01*
X154038598Y-102107372D01*
X154044999Y-102047844D01*
X154045000Y-102047827D01*
X154045000Y-101210000D01*
X153040000Y-101210000D01*
X153040000Y-102500000D01*
X152540000Y-102500000D01*
X152540000Y-100710000D01*
X153040000Y-100710000D01*
X154045000Y-100710000D01*
X154045000Y-99905258D01*
X158969500Y-99905258D01*
X158969500Y-100134741D01*
X158994446Y-100324215D01*
X158999452Y-100362238D01*
X159035153Y-100495478D01*
X159058842Y-100583887D01*
X159146650Y-100795876D01*
X159146657Y-100795890D01*
X159261392Y-100994617D01*
X159401081Y-101176661D01*
X159401089Y-101176670D01*
X159563330Y-101338911D01*
X159563338Y-101338918D01*
X159563339Y-101338919D01*
X159575159Y-101347989D01*
X159745382Y-101478607D01*
X159745385Y-101478608D01*
X159745388Y-101478611D01*
X159944112Y-101593344D01*
X159944117Y-101593346D01*
X159944123Y-101593349D01*
X159984832Y-101610211D01*
X160156113Y-101681158D01*
X160377762Y-101740548D01*
X160605266Y-101770500D01*
X160605273Y-101770500D01*
X160834727Y-101770500D01*
X160834734Y-101770500D01*
X161062238Y-101740548D01*
X161283887Y-101681158D01*
X161495888Y-101593344D01*
X161694612Y-101478611D01*
X161876661Y-101338919D01*
X161876665Y-101338914D01*
X161876670Y-101338911D01*
X162038911Y-101176670D01*
X162038914Y-101176665D01*
X162038919Y-101176661D01*
X162178611Y-100994612D01*
X162293344Y-100795888D01*
X162381158Y-100583887D01*
X162440548Y-100362238D01*
X162470500Y-100134734D01*
X162470500Y-99905266D01*
X162440548Y-99677762D01*
X162381158Y-99456113D01*
X162308787Y-99281394D01*
X162293349Y-99244123D01*
X162293346Y-99244117D01*
X162293344Y-99244112D01*
X162178611Y-99045388D01*
X162178608Y-99045385D01*
X162178607Y-99045382D01*
X162038918Y-98863338D01*
X162038911Y-98863330D01*
X161876670Y-98701089D01*
X161876661Y-98701081D01*
X161694617Y-98561392D01*
X161669623Y-98546962D01*
X161495888Y-98446656D01*
X161495876Y-98446650D01*
X161283887Y-98358842D01*
X161230305Y-98344485D01*
X161062238Y-98299452D01*
X161024215Y-98294446D01*
X160834741Y-98269500D01*
X160834734Y-98269500D01*
X160605266Y-98269500D01*
X160605258Y-98269500D01*
X160388715Y-98298009D01*
X160377762Y-98299452D01*
X160284076Y-98324554D01*
X160156112Y-98358842D01*
X159944123Y-98446650D01*
X159944109Y-98446657D01*
X159745382Y-98561392D01*
X159563338Y-98701081D01*
X159401081Y-98863338D01*
X159261392Y-99045382D01*
X159146657Y-99244109D01*
X159146650Y-99244123D01*
X159058842Y-99456112D01*
X159053339Y-99476649D01*
X158999477Y-99677671D01*
X158999453Y-99677759D01*
X158999451Y-99677770D01*
X158969500Y-99905258D01*
X154045000Y-99905258D01*
X154045000Y-99872172D01*
X154044999Y-99872155D01*
X154038598Y-99812627D01*
X154038596Y-99812620D01*
X153988354Y-99677913D01*
X153988350Y-99677906D01*
X153902190Y-99562812D01*
X153902187Y-99562809D01*
X153787093Y-99476649D01*
X153787086Y-99476645D01*
X153652379Y-99426403D01*
X153652372Y-99426401D01*
X153592844Y-99420000D01*
X153040000Y-99420000D01*
X153040000Y-100710000D01*
X152540000Y-100710000D01*
X152540000Y-99420000D01*
X151987155Y-99420000D01*
X151927627Y-99426401D01*
X151927620Y-99426403D01*
X151792913Y-99476645D01*
X151792906Y-99476649D01*
X151677812Y-99562809D01*
X151619578Y-99640599D01*
X151563644Y-99682469D01*
X151493952Y-99687453D01*
X151432629Y-99653967D01*
X151421046Y-99640599D01*
X151362814Y-99562812D01*
X151362546Y-99562454D01*
X151362544Y-99562453D01*
X151362544Y-99562452D01*
X151247335Y-99476206D01*
X151247328Y-99476202D01*
X151112482Y-99425908D01*
X151112483Y-99425908D01*
X151052883Y-99419501D01*
X151052881Y-99419500D01*
X151052873Y-99419500D01*
X151052864Y-99419500D01*
X149447129Y-99419500D01*
X149447123Y-99419501D01*
X149387516Y-99425908D01*
X149252671Y-99476202D01*
X149252664Y-99476206D01*
X149137455Y-99562452D01*
X149137452Y-99562455D01*
X149079266Y-99640182D01*
X149023332Y-99682053D01*
X148953641Y-99687037D01*
X148892318Y-99653551D01*
X148880734Y-99640182D01*
X148822547Y-99562455D01*
X148822544Y-99562452D01*
X148707335Y-99476206D01*
X148707328Y-99476202D01*
X148572482Y-99425908D01*
X148572483Y-99425908D01*
X148512883Y-99419501D01*
X148512881Y-99419500D01*
X148512873Y-99419500D01*
X148512864Y-99419500D01*
X146907129Y-99419500D01*
X146907123Y-99419501D01*
X146847516Y-99425908D01*
X146712671Y-99476202D01*
X146712664Y-99476206D01*
X146597455Y-99562452D01*
X146597452Y-99562455D01*
X146539266Y-99640182D01*
X146483332Y-99682053D01*
X146413641Y-99687037D01*
X146352318Y-99653551D01*
X146340734Y-99640182D01*
X146282547Y-99562455D01*
X146282544Y-99562452D01*
X146167335Y-99476206D01*
X146167328Y-99476202D01*
X146032482Y-99425908D01*
X146032483Y-99425908D01*
X145972883Y-99419501D01*
X145972881Y-99419500D01*
X145972873Y-99419500D01*
X145972864Y-99419500D01*
X144367129Y-99419500D01*
X144367120Y-99419501D01*
X144314244Y-99425185D01*
X144245485Y-99412778D01*
X144213311Y-99389576D01*
X143034090Y-98210355D01*
X143034088Y-98210352D01*
X142915217Y-98091481D01*
X142915216Y-98091480D01*
X142828404Y-98041360D01*
X142828404Y-98041359D01*
X142828400Y-98041358D01*
X142778285Y-98012423D01*
X142625557Y-97971499D01*
X142467443Y-97971499D01*
X142459847Y-97971499D01*
X142459831Y-97971500D01*
X142419966Y-97971500D01*
X142352927Y-97951815D01*
X142351075Y-97950602D01*
X142219385Y-97862609D01*
X142219372Y-97862602D01*
X142073701Y-97802264D01*
X142073689Y-97802261D01*
X141919045Y-97771500D01*
X141919042Y-97771500D01*
X141761358Y-97771500D01*
X141761355Y-97771500D01*
X141606710Y-97802261D01*
X141606698Y-97802264D01*
X141461027Y-97862602D01*
X141461014Y-97862609D01*
X141329911Y-97950210D01*
X141329907Y-97950213D01*
X141218413Y-98061707D01*
X141218410Y-98061711D01*
X141130809Y-98192814D01*
X141130804Y-98192824D01*
X141092501Y-98285296D01*
X141048660Y-98339699D01*
X140982365Y-98361764D01*
X140914666Y-98344485D01*
X140890259Y-98325524D01*
X140460274Y-97895539D01*
X140426789Y-97834216D01*
X140426338Y-97832049D01*
X140395438Y-97676710D01*
X140395437Y-97676703D01*
X140376019Y-97629824D01*
X140335097Y-97531027D01*
X140335090Y-97531014D01*
X140247489Y-97399911D01*
X140247486Y-97399907D01*
X140135992Y-97288413D01*
X140135988Y-97288410D01*
X140074915Y-97247602D01*
X140030110Y-97193990D01*
X140021403Y-97124665D01*
X140051558Y-97061637D01*
X140111001Y-97024918D01*
X140143806Y-97020500D01*
X161594108Y-97020500D01*
X161655933Y-97020500D01*
X161664042Y-97020765D01*
X161687442Y-97022298D01*
X161920725Y-97037588D01*
X161936783Y-97039703D01*
X162185077Y-97089092D01*
X162200728Y-97093286D01*
X162440439Y-97174657D01*
X162455423Y-97180863D01*
X162682460Y-97292826D01*
X162696508Y-97300936D01*
X162906990Y-97441576D01*
X162919854Y-97451447D01*
X163110175Y-97618355D01*
X163121644Y-97629824D01*
X163288552Y-97820145D01*
X163298426Y-97833013D01*
X163439063Y-98043492D01*
X163447173Y-98057539D01*
X163559136Y-98284576D01*
X163565343Y-98299562D01*
X163646711Y-98539265D01*
X163650909Y-98554931D01*
X163700294Y-98803202D01*
X163702412Y-98819284D01*
X163719235Y-99075956D01*
X163719500Y-99084066D01*
X163719500Y-133955933D01*
X163719235Y-133964043D01*
X163702412Y-134220715D01*
X163700294Y-134236797D01*
X163650909Y-134485068D01*
X163646711Y-134500734D01*
X163565343Y-134740437D01*
X163559136Y-134755423D01*
X163447173Y-134982460D01*
X163439063Y-134996507D01*
X163298426Y-135206986D01*
X163288552Y-135219854D01*
X163121644Y-135410175D01*
X163110175Y-135421644D01*
X162919854Y-135588552D01*
X162906986Y-135598426D01*
X162696507Y-135739063D01*
X162682460Y-135747173D01*
X162455423Y-135859136D01*
X162440437Y-135865343D01*
X162200734Y-135946711D01*
X162185068Y-135950909D01*
X161936797Y-136000294D01*
X161920715Y-136002412D01*
X161664043Y-136019235D01*
X161655933Y-136019500D01*
X111784067Y-136019500D01*
X111775957Y-136019235D01*
X111519284Y-136002412D01*
X111503204Y-136000294D01*
X111383728Y-135976528D01*
X111254931Y-135950909D01*
X111239265Y-135946711D01*
X110999562Y-135865343D01*
X110984576Y-135859136D01*
X110757539Y-135747173D01*
X110743492Y-135739063D01*
X110533013Y-135598426D01*
X110520145Y-135588552D01*
X110329824Y-135421644D01*
X110318355Y-135410175D01*
X110151447Y-135219854D01*
X110141573Y-135206986D01*
X110000936Y-134996507D01*
X109992826Y-134982460D01*
X109880863Y-134755423D01*
X109874656Y-134740437D01*
X109854533Y-134681157D01*
X109793286Y-134500728D01*
X109789092Y-134485077D01*
X109739703Y-134236783D01*
X109737588Y-134220725D01*
X109720765Y-133964042D01*
X109720500Y-133955933D01*
X109720500Y-132905258D01*
X110969500Y-132905258D01*
X110969500Y-133134741D01*
X110994446Y-133324215D01*
X110999452Y-133362238D01*
X111035153Y-133495478D01*
X111058842Y-133583887D01*
X111146650Y-133795876D01*
X111146656Y-133795888D01*
X111243739Y-133964042D01*
X111261392Y-133994617D01*
X111401081Y-134176661D01*
X111401089Y-134176670D01*
X111563330Y-134338911D01*
X111563338Y-134338918D01*
X111745382Y-134478607D01*
X111745385Y-134478608D01*
X111745388Y-134478611D01*
X111944112Y-134593344D01*
X111944117Y-134593346D01*
X111944123Y-134593349D01*
X112035480Y-134631190D01*
X112156113Y-134681158D01*
X112377762Y-134740548D01*
X112605266Y-134770500D01*
X112605273Y-134770500D01*
X112834727Y-134770500D01*
X112834734Y-134770500D01*
X113062238Y-134740548D01*
X113283887Y-134681158D01*
X113495888Y-134593344D01*
X113694612Y-134478611D01*
X113876661Y-134338919D01*
X113876665Y-134338914D01*
X113876670Y-134338911D01*
X114038911Y-134176670D01*
X114038914Y-134176665D01*
X114038919Y-134176661D01*
X114178611Y-133994612D01*
X114293344Y-133795888D01*
X114381158Y-133583887D01*
X114440548Y-133362238D01*
X114470500Y-133134734D01*
X114470500Y-132905266D01*
X114470499Y-132905258D01*
X158969500Y-132905258D01*
X158969500Y-133134741D01*
X158994446Y-133324215D01*
X158999452Y-133362238D01*
X159035153Y-133495478D01*
X159058842Y-133583887D01*
X159146650Y-133795876D01*
X159146656Y-133795888D01*
X159243739Y-133964042D01*
X159261392Y-133994617D01*
X159401081Y-134176661D01*
X159401089Y-134176670D01*
X159563330Y-134338911D01*
X159563338Y-134338918D01*
X159745382Y-134478607D01*
X159745385Y-134478608D01*
X159745388Y-134478611D01*
X159944112Y-134593344D01*
X159944117Y-134593346D01*
X159944123Y-134593349D01*
X160035480Y-134631190D01*
X160156113Y-134681158D01*
X160377762Y-134740548D01*
X160605266Y-134770500D01*
X160605273Y-134770500D01*
X160834727Y-134770500D01*
X160834734Y-134770500D01*
X161062238Y-134740548D01*
X161283887Y-134681158D01*
X161495888Y-134593344D01*
X161694612Y-134478611D01*
X161876661Y-134338919D01*
X161876665Y-134338914D01*
X161876670Y-134338911D01*
X162038911Y-134176670D01*
X162038914Y-134176665D01*
X162038919Y-134176661D01*
X162178611Y-133994612D01*
X162293344Y-133795888D01*
X162381158Y-133583887D01*
X162440548Y-133362238D01*
X162470500Y-133134734D01*
X162470500Y-132905266D01*
X162440548Y-132677762D01*
X162381158Y-132456113D01*
X162317642Y-132302773D01*
X162293349Y-132244123D01*
X162293346Y-132244117D01*
X162293344Y-132244112D01*
X162178611Y-132045388D01*
X162178608Y-132045385D01*
X162178607Y-132045382D01*
X162038918Y-131863338D01*
X162038911Y-131863330D01*
X161876670Y-131701089D01*
X161876661Y-131701081D01*
X161694617Y-131561392D01*
X161495890Y-131446657D01*
X161495876Y-131446650D01*
X161283887Y-131358842D01*
X161062238Y-131299452D01*
X161024215Y-131294446D01*
X160834741Y-131269500D01*
X160834734Y-131269500D01*
X160605266Y-131269500D01*
X160605258Y-131269500D01*
X160388715Y-131298009D01*
X160377762Y-131299452D01*
X160284076Y-131324554D01*
X160156112Y-131358842D01*
X159944123Y-131446650D01*
X159944109Y-131446657D01*
X159745382Y-131561392D01*
X159563338Y-131701081D01*
X159401081Y-131863338D01*
X159261392Y-132045382D01*
X159146657Y-132244109D01*
X159146650Y-132244123D01*
X159058842Y-132456112D01*
X158999453Y-132677759D01*
X158999451Y-132677770D01*
X158969500Y-132905258D01*
X114470499Y-132905258D01*
X114440548Y-132677762D01*
X114381158Y-132456113D01*
X114317642Y-132302773D01*
X114293349Y-132244123D01*
X114293346Y-132244117D01*
X114293344Y-132244112D01*
X114178611Y-132045388D01*
X114178608Y-132045385D01*
X114178607Y-132045382D01*
X114038918Y-131863338D01*
X114038911Y-131863330D01*
X113876670Y-131701089D01*
X113876661Y-131701081D01*
X113694617Y-131561392D01*
X113495890Y-131446657D01*
X113495876Y-131446650D01*
X113359076Y-131389986D01*
X146740001Y-131389986D01*
X146750494Y-131492697D01*
X146805641Y-131659119D01*
X146805643Y-131659124D01*
X146897684Y-131808345D01*
X147021654Y-131932315D01*
X147170875Y-132024356D01*
X147170880Y-132024358D01*
X147337302Y-132079505D01*
X147337309Y-132079506D01*
X147440019Y-132089999D01*
X148339999Y-132089999D01*
X148840000Y-132089999D01*
X149739972Y-132089999D01*
X149739986Y-132089998D01*
X149842697Y-132079505D01*
X150009119Y-132024358D01*
X150009124Y-132024356D01*
X150158345Y-131932315D01*
X150282315Y-131808345D01*
X150374356Y-131659124D01*
X150374358Y-131659119D01*
X150429505Y-131492697D01*
X150429506Y-131492690D01*
X150439999Y-131389986D01*
X151820001Y-131389986D01*
X151830494Y-131492697D01*
X151885641Y-131659119D01*
X151885643Y-131659124D01*
X151977684Y-131808345D01*
X152101654Y-131932315D01*
X152250875Y-132024356D01*
X152250880Y-132024358D01*
X152417302Y-132079505D01*
X152417309Y-132079506D01*
X152520019Y-132089999D01*
X153419999Y-132089999D01*
X153920000Y-132089999D01*
X154819972Y-132089999D01*
X154819986Y-132089998D01*
X154922697Y-132079505D01*
X155089119Y-132024358D01*
X155089124Y-132024356D01*
X155238345Y-131932315D01*
X155362315Y-131808345D01*
X155454356Y-131659124D01*
X155454358Y-131659119D01*
X155509505Y-131492697D01*
X155509506Y-131492690D01*
X155519999Y-131389986D01*
X155520000Y-131389973D01*
X155520000Y-131265000D01*
X153920000Y-131265000D01*
X153920000Y-132089999D01*
X153419999Y-132089999D01*
X153420000Y-132089998D01*
X153420000Y-131265000D01*
X151820001Y-131265000D01*
X151820001Y-131389986D01*
X150439999Y-131389986D01*
X150440000Y-131389973D01*
X150440000Y-131265000D01*
X148840000Y-131265000D01*
X148840000Y-132089999D01*
X148339999Y-132089999D01*
X148340000Y-132089998D01*
X148340000Y-131265000D01*
X146740001Y-131265000D01*
X146740001Y-131389986D01*
X113359076Y-131389986D01*
X113283887Y-131358842D01*
X113062238Y-131299452D01*
X113024215Y-131294446D01*
X112834741Y-131269500D01*
X112834734Y-131269500D01*
X112605266Y-131269500D01*
X112605258Y-131269500D01*
X112388715Y-131298009D01*
X112377762Y-131299452D01*
X112284076Y-131324554D01*
X112156112Y-131358842D01*
X111944123Y-131446650D01*
X111944109Y-131446657D01*
X111745382Y-131561392D01*
X111563338Y-131701081D01*
X111401081Y-131863338D01*
X111261392Y-132045382D01*
X111146657Y-132244109D01*
X111146650Y-132244123D01*
X111058842Y-132456112D01*
X110999453Y-132677759D01*
X110999451Y-132677770D01*
X110969500Y-132905258D01*
X109720500Y-132905258D01*
X109720500Y-130640013D01*
X146740000Y-130640013D01*
X146740000Y-130765000D01*
X148340000Y-130765000D01*
X148840000Y-130765000D01*
X150439999Y-130765000D01*
X150439999Y-130640029D01*
X150439998Y-130640013D01*
X151820000Y-130640013D01*
X151820000Y-130765000D01*
X153420000Y-130765000D01*
X153920000Y-130765000D01*
X155519999Y-130765000D01*
X155519999Y-130640028D01*
X155519998Y-130640013D01*
X155509505Y-130537302D01*
X155454358Y-130370880D01*
X155454356Y-130370875D01*
X155362315Y-130221654D01*
X155238345Y-130097684D01*
X155089124Y-130005643D01*
X155089119Y-130005641D01*
X154922697Y-129950494D01*
X154922690Y-129950493D01*
X154819986Y-129940000D01*
X153920000Y-129940000D01*
X153920000Y-130765000D01*
X153420000Y-130765000D01*
X153420000Y-129940000D01*
X152520028Y-129940000D01*
X152520012Y-129940001D01*
X152417302Y-129950494D01*
X152250880Y-130005641D01*
X152250875Y-130005643D01*
X152101654Y-130097684D01*
X151977684Y-130221654D01*
X151885643Y-130370875D01*
X151885641Y-130370880D01*
X151830494Y-130537302D01*
X151830493Y-130537309D01*
X151820000Y-130640013D01*
X150439998Y-130640013D01*
X150439998Y-130640012D01*
X150429505Y-130537302D01*
X150374358Y-130370880D01*
X150374356Y-130370875D01*
X150282315Y-130221654D01*
X150158345Y-130097684D01*
X150009124Y-130005643D01*
X150009119Y-130005641D01*
X149842697Y-129950494D01*
X149842690Y-129950493D01*
X149739986Y-129940000D01*
X148840000Y-129940000D01*
X148840000Y-130765000D01*
X148340000Y-130765000D01*
X148340000Y-129940000D01*
X147440028Y-129940000D01*
X147440012Y-129940001D01*
X147337302Y-129950494D01*
X147170880Y-130005641D01*
X147170875Y-130005643D01*
X147021654Y-130097684D01*
X146897684Y-130221654D01*
X146805643Y-130370875D01*
X146805641Y-130370880D01*
X146750494Y-130537302D01*
X146750493Y-130537309D01*
X146740000Y-130640013D01*
X109720500Y-130640013D01*
X109720500Y-128007135D01*
X118029500Y-128007135D01*
X118029500Y-129802870D01*
X118029501Y-129802876D01*
X118035908Y-129862483D01*
X118086202Y-129997328D01*
X118086206Y-129997335D01*
X118172452Y-130112544D01*
X118172455Y-130112547D01*
X118287664Y-130198793D01*
X118287671Y-130198797D01*
X118422517Y-130249091D01*
X118422516Y-130249091D01*
X118429444Y-130249835D01*
X118482127Y-130255500D01*
X120277872Y-130255499D01*
X120337483Y-130249091D01*
X120472331Y-130198796D01*
X120587546Y-130112546D01*
X120673796Y-129997331D01*
X120722810Y-129865916D01*
X120764681Y-129809984D01*
X120830145Y-129785566D01*
X120898418Y-129800417D01*
X120926673Y-129821569D01*
X121040213Y-129935109D01*
X121212179Y-130060048D01*
X121212181Y-130060049D01*
X121212184Y-130060051D01*
X121401588Y-130156557D01*
X121603757Y-130222246D01*
X121813713Y-130255500D01*
X121813714Y-130255500D01*
X122026286Y-130255500D01*
X122026287Y-130255500D01*
X122236243Y-130222246D01*
X122438412Y-130156557D01*
X122627816Y-130060051D01*
X122702703Y-130005643D01*
X122799786Y-129935109D01*
X122799788Y-129935106D01*
X122799792Y-129935104D01*
X122950104Y-129784792D01*
X122950106Y-129784788D01*
X122950109Y-129784786D01*
X123075048Y-129612820D01*
X123075047Y-129612820D01*
X123075051Y-129612816D01*
X123079514Y-129604054D01*
X123127488Y-129553259D01*
X123195308Y-129536463D01*
X123261444Y-129558999D01*
X123300486Y-129604056D01*
X123304951Y-129612820D01*
X123429890Y-129784786D01*
X123580213Y-129935109D01*
X123752179Y-130060048D01*
X123752181Y-130060049D01*
X123752184Y-130060051D01*
X123941588Y-130156557D01*
X124143757Y-130222246D01*
X124353713Y-130255500D01*
X124353714Y-130255500D01*
X124566286Y-130255500D01*
X124566287Y-130255500D01*
X124776243Y-130222246D01*
X124978412Y-130156557D01*
X125167816Y-130060051D01*
X125242703Y-130005643D01*
X125339786Y-129935109D01*
X125339788Y-129935106D01*
X125339792Y-129935104D01*
X125490104Y-129784792D01*
X125490106Y-129784788D01*
X125490109Y-129784786D01*
X125615048Y-129612820D01*
X125615047Y-129612820D01*
X125615051Y-129612816D01*
X125619514Y-129604054D01*
X125667488Y-129553259D01*
X125735308Y-129536463D01*
X125801444Y-129558999D01*
X125840486Y-129604056D01*
X125844951Y-129612820D01*
X125969890Y-129784786D01*
X126120213Y-129935109D01*
X126292179Y-130060048D01*
X126292181Y-130060049D01*
X126292184Y-130060051D01*
X126481588Y-130156557D01*
X126683757Y-130222246D01*
X126893713Y-130255500D01*
X126893714Y-130255500D01*
X127106286Y-130255500D01*
X127106287Y-130255500D01*
X127316243Y-130222246D01*
X127518412Y-130156557D01*
X127707816Y-130060051D01*
X127782703Y-130005643D01*
X127879786Y-129935109D01*
X127879788Y-129935106D01*
X127879792Y-129935104D01*
X128030104Y-129784792D01*
X128030106Y-129784788D01*
X128030109Y-129784786D01*
X128155048Y-129612820D01*
X128155047Y-129612820D01*
X128155051Y-129612816D01*
X128159514Y-129604054D01*
X128207488Y-129553259D01*
X128275308Y-129536463D01*
X128341444Y-129558999D01*
X128380486Y-129604056D01*
X128384951Y-129612820D01*
X128509890Y-129784786D01*
X128660213Y-129935109D01*
X128832179Y-130060048D01*
X128832181Y-130060049D01*
X128832184Y-130060051D01*
X129021588Y-130156557D01*
X129223757Y-130222246D01*
X129433713Y-130255500D01*
X129433714Y-130255500D01*
X129646286Y-130255500D01*
X129646287Y-130255500D01*
X129856243Y-130222246D01*
X130058412Y-130156557D01*
X130247816Y-130060051D01*
X130322703Y-130005643D01*
X130419786Y-129935109D01*
X130419788Y-129935106D01*
X130419792Y-129935104D01*
X130570104Y-129784792D01*
X130570106Y-129784788D01*
X130570109Y-129784786D01*
X130695048Y-129612820D01*
X130695047Y-129612820D01*
X130695051Y-129612816D01*
X130699514Y-129604054D01*
X130747488Y-129553259D01*
X130815308Y-129536463D01*
X130881444Y-129558999D01*
X130920486Y-129604056D01*
X130924951Y-129612820D01*
X131049890Y-129784786D01*
X131200213Y-129935109D01*
X131372179Y-130060048D01*
X131372181Y-130060049D01*
X131372184Y-130060051D01*
X131561588Y-130156557D01*
X131763757Y-130222246D01*
X131973713Y-130255500D01*
X131973714Y-130255500D01*
X132186286Y-130255500D01*
X132186287Y-130255500D01*
X132396243Y-130222246D01*
X132598412Y-130156557D01*
X132787816Y-130060051D01*
X132862703Y-130005643D01*
X132959786Y-129935109D01*
X132959788Y-129935106D01*
X132959792Y-129935104D01*
X133110104Y-129784792D01*
X133110106Y-129784788D01*
X133110109Y-129784786D01*
X133235048Y-129612820D01*
X133235047Y-129612820D01*
X133235051Y-129612816D01*
X133239514Y-129604054D01*
X133287488Y-129553259D01*
X133355308Y-129536463D01*
X133421444Y-129558999D01*
X133460486Y-129604056D01*
X133464951Y-129612820D01*
X133589890Y-129784786D01*
X133740213Y-129935109D01*
X133912179Y-130060048D01*
X133912181Y-130060049D01*
X133912184Y-130060051D01*
X134101588Y-130156557D01*
X134303757Y-130222246D01*
X134513713Y-130255500D01*
X134513714Y-130255500D01*
X134726286Y-130255500D01*
X134726287Y-130255500D01*
X134936243Y-130222246D01*
X135138412Y-130156557D01*
X135327816Y-130060051D01*
X135402703Y-130005643D01*
X135499786Y-129935109D01*
X135499788Y-129935106D01*
X135499792Y-129935104D01*
X135650104Y-129784792D01*
X135650106Y-129784788D01*
X135650109Y-129784786D01*
X135775048Y-129612820D01*
X135775047Y-129612820D01*
X135775051Y-129612816D01*
X135779514Y-129604054D01*
X135827488Y-129553259D01*
X135895308Y-129536463D01*
X135961444Y-129558999D01*
X136000486Y-129604056D01*
X136004951Y-129612820D01*
X136129890Y-129784786D01*
X136280213Y-129935109D01*
X136452179Y-130060048D01*
X136452181Y-130060049D01*
X136452184Y-130060051D01*
X136641588Y-130156557D01*
X136843757Y-130222246D01*
X137053713Y-130255500D01*
X137053714Y-130255500D01*
X137266286Y-130255500D01*
X137266287Y-130255500D01*
X137476243Y-130222246D01*
X137678412Y-130156557D01*
X137867816Y-130060051D01*
X137942703Y-130005643D01*
X138039786Y-129935109D01*
X138039788Y-129935106D01*
X138039792Y-129935104D01*
X138190104Y-129784792D01*
X138190106Y-129784788D01*
X138190109Y-129784786D01*
X138315048Y-129612820D01*
X138315047Y-129612820D01*
X138315051Y-129612816D01*
X138319514Y-129604054D01*
X138367488Y-129553259D01*
X138435308Y-129536463D01*
X138501444Y-129558999D01*
X138540486Y-129604056D01*
X138544951Y-129612820D01*
X138669890Y-129784786D01*
X138820213Y-129935109D01*
X138992179Y-130060048D01*
X138992181Y-130060049D01*
X138992184Y-130060051D01*
X139181588Y-130156557D01*
X139383757Y-130222246D01*
X139593713Y-130255500D01*
X139593714Y-130255500D01*
X139806286Y-130255500D01*
X139806287Y-130255500D01*
X140016243Y-130222246D01*
X140218412Y-130156557D01*
X140407816Y-130060051D01*
X140482703Y-130005643D01*
X140579786Y-129935109D01*
X140579788Y-129935106D01*
X140579792Y-129935104D01*
X140730104Y-129784792D01*
X140730106Y-129784788D01*
X140730109Y-129784786D01*
X140855048Y-129612820D01*
X140855047Y-129612820D01*
X140855051Y-129612816D01*
X140859514Y-129604054D01*
X140907488Y-129553259D01*
X140975308Y-129536463D01*
X141041444Y-129558999D01*
X141080486Y-129604056D01*
X141084951Y-129612820D01*
X141209890Y-129784786D01*
X141360213Y-129935109D01*
X141532179Y-130060048D01*
X141532181Y-130060049D01*
X141532184Y-130060051D01*
X141721588Y-130156557D01*
X141923757Y-130222246D01*
X142133713Y-130255500D01*
X142133714Y-130255500D01*
X142346286Y-130255500D01*
X142346287Y-130255500D01*
X142556243Y-130222246D01*
X142758412Y-130156557D01*
X142947816Y-130060051D01*
X143022703Y-130005643D01*
X143119786Y-129935109D01*
X143119788Y-129935106D01*
X143119792Y-129935104D01*
X143270104Y-129784792D01*
X143270106Y-129784788D01*
X143270109Y-129784786D01*
X143395048Y-129612820D01*
X143395047Y-129612820D01*
X143395051Y-129612816D01*
X143491557Y-129423412D01*
X143557246Y-129221243D01*
X143590500Y-129011287D01*
X143590500Y-128798713D01*
X143557246Y-128588757D01*
X143491557Y-128386588D01*
X143395051Y-128197184D01*
X143395049Y-128197181D01*
X143395048Y-128197179D01*
X143270109Y-128025213D01*
X143119786Y-127874890D01*
X142947820Y-127749951D01*
X142758416Y-127653444D01*
X142750141Y-127650755D01*
X142737542Y-127646662D01*
X142679869Y-127607225D01*
X142652671Y-127542866D01*
X142664586Y-127474020D01*
X142688179Y-127441054D01*
X144442416Y-125686818D01*
X144503739Y-125653333D01*
X144530097Y-125650499D01*
X145972871Y-125650499D01*
X145972872Y-125650499D01*
X146032483Y-125644091D01*
X146167331Y-125593796D01*
X146282546Y-125507546D01*
X146340735Y-125429815D01*
X146396667Y-125387946D01*
X146466359Y-125382962D01*
X146527682Y-125416447D01*
X146539259Y-125429808D01*
X146597454Y-125507546D01*
X146597455Y-125507546D01*
X146597456Y-125507548D01*
X146712664Y-125593793D01*
X146712671Y-125593797D01*
X146847517Y-125644091D01*
X146847516Y-125644091D01*
X146898755Y-125649600D01*
X146963306Y-125676338D01*
X147003154Y-125733730D01*
X147009500Y-125772889D01*
X147009500Y-127107770D01*
X146989815Y-127174809D01*
X146973181Y-127195451D01*
X146897289Y-127271342D01*
X146805187Y-127420663D01*
X146805185Y-127420668D01*
X146798431Y-127441051D01*
X146750001Y-127587203D01*
X146750001Y-127587204D01*
X146750000Y-127587204D01*
X146739500Y-127689983D01*
X146739500Y-128440001D01*
X146739501Y-128440019D01*
X146750000Y-128542796D01*
X146750001Y-128542799D01*
X146805185Y-128709331D01*
X146805187Y-128709336D01*
X146839829Y-128765500D01*
X146897288Y-128858656D01*
X147021344Y-128982712D01*
X147170666Y-129074814D01*
X147337203Y-129129999D01*
X147439991Y-129140500D01*
X149740008Y-129140499D01*
X149842797Y-129129999D01*
X150009334Y-129074814D01*
X150158656Y-128982712D01*
X150282712Y-128858656D01*
X150303839Y-128824402D01*
X150355787Y-128777679D01*
X150409378Y-128765500D01*
X151850622Y-128765500D01*
X151917661Y-128785185D01*
X151956159Y-128824401D01*
X151977288Y-128858656D01*
X152101344Y-128982712D01*
X152250666Y-129074814D01*
X152417203Y-129129999D01*
X152519991Y-129140500D01*
X154820008Y-129140499D01*
X154922797Y-129129999D01*
X155089334Y-129074814D01*
X155238656Y-128982712D01*
X155362712Y-128858656D01*
X155383839Y-128824402D01*
X155435787Y-128777679D01*
X155489378Y-128765500D01*
X156483996Y-128765500D01*
X156575040Y-128747389D01*
X156619328Y-128738580D01*
X156689942Y-128709331D01*
X156746807Y-128685777D01*
X156746808Y-128685776D01*
X156746811Y-128685775D01*
X156861543Y-128609114D01*
X159294114Y-126176543D01*
X159370775Y-126061811D01*
X159423580Y-125934328D01*
X159428358Y-125910306D01*
X159460742Y-125848398D01*
X159521457Y-125813823D01*
X159549975Y-125810499D01*
X159647871Y-125810499D01*
X159647872Y-125810499D01*
X159707483Y-125804091D01*
X159842331Y-125753796D01*
X159957546Y-125667546D01*
X160043796Y-125552331D01*
X160094091Y-125417483D01*
X160100500Y-125357873D01*
X160100499Y-123562128D01*
X160094091Y-123502517D01*
X160043796Y-123367669D01*
X160043795Y-123367668D01*
X160043793Y-123367664D01*
X159957547Y-123252455D01*
X159957544Y-123252452D01*
X159842335Y-123166206D01*
X159842328Y-123166202D01*
X159710401Y-123116997D01*
X159654467Y-123075126D01*
X159630050Y-123009662D01*
X159644902Y-122941389D01*
X159666053Y-122913133D01*
X159779728Y-122799458D01*
X159904620Y-122627557D01*
X160001095Y-122438217D01*
X160066757Y-122236129D01*
X160066757Y-122236126D01*
X160077231Y-122170000D01*
X159183012Y-122170000D01*
X159215925Y-122112993D01*
X159250000Y-121985826D01*
X159250000Y-121854174D01*
X159215925Y-121727007D01*
X159183012Y-121670000D01*
X160077231Y-121670000D01*
X160066757Y-121603873D01*
X160066757Y-121603870D01*
X160001095Y-121401782D01*
X159904620Y-121212442D01*
X159779727Y-121040540D01*
X159779723Y-121040535D01*
X159629464Y-120890276D01*
X159629459Y-120890272D01*
X159457557Y-120765379D01*
X159268215Y-120668903D01*
X159066124Y-120603241D01*
X159000000Y-120592768D01*
X159000000Y-121486988D01*
X158942993Y-121454075D01*
X158815826Y-121420000D01*
X158684174Y-121420000D01*
X158557007Y-121454075D01*
X158500000Y-121486988D01*
X158500000Y-120592768D01*
X158499999Y-120592768D01*
X158433875Y-120603241D01*
X158231784Y-120668903D01*
X158042442Y-120765379D01*
X157870540Y-120890272D01*
X157870535Y-120890276D01*
X157720276Y-121040535D01*
X157720272Y-121040540D01*
X157595379Y-121212442D01*
X157498904Y-121401782D01*
X157433242Y-121603870D01*
X157433242Y-121603873D01*
X157422769Y-121670000D01*
X158316988Y-121670000D01*
X158284075Y-121727007D01*
X158250000Y-121854174D01*
X158250000Y-121985826D01*
X158284075Y-122112993D01*
X158316988Y-122170000D01*
X157422769Y-122170000D01*
X157433242Y-122236126D01*
X157433242Y-122236129D01*
X157498904Y-122438217D01*
X157595379Y-122627557D01*
X157720272Y-122799459D01*
X157720276Y-122799464D01*
X157833946Y-122913134D01*
X157867431Y-122974457D01*
X157862447Y-123044149D01*
X157820575Y-123100082D01*
X157789598Y-123116997D01*
X157657671Y-123166202D01*
X157657664Y-123166206D01*
X157542455Y-123252452D01*
X157542452Y-123252455D01*
X157456206Y-123367664D01*
X157456202Y-123367671D01*
X157405908Y-123502517D01*
X157399501Y-123562116D01*
X157399501Y-123562123D01*
X157399500Y-123562135D01*
X157399500Y-125357870D01*
X157399501Y-125357876D01*
X157405908Y-125417483D01*
X157456202Y-125552328D01*
X157456206Y-125552335D01*
X157542452Y-125667544D01*
X157542455Y-125667547D01*
X157587647Y-125701378D01*
X157629518Y-125757311D01*
X157634502Y-125827003D01*
X157601017Y-125888325D01*
X156161162Y-127328181D01*
X156099839Y-127361666D01*
X156073481Y-127364500D01*
X155489378Y-127364500D01*
X155422339Y-127344815D01*
X155383839Y-127305597D01*
X155375459Y-127292011D01*
X155362712Y-127271344D01*
X155238656Y-127147288D01*
X155089334Y-127055186D01*
X154922797Y-127000001D01*
X154922795Y-127000000D01*
X154820010Y-126989500D01*
X152519998Y-126989500D01*
X152519981Y-126989501D01*
X152417203Y-127000000D01*
X152417200Y-127000001D01*
X152250668Y-127055185D01*
X152250663Y-127055187D01*
X152101342Y-127147289D01*
X151977289Y-127271342D01*
X151956161Y-127305597D01*
X151904213Y-127352321D01*
X151850622Y-127364500D01*
X150580519Y-127364500D01*
X150513480Y-127344815D01*
X150467725Y-127292011D01*
X150457781Y-127222853D01*
X150486806Y-127159297D01*
X150492838Y-127152819D01*
X150794112Y-126851545D01*
X150794112Y-126851544D01*
X150794114Y-126851543D01*
X150870775Y-126736811D01*
X150923580Y-126609328D01*
X150950500Y-126473993D01*
X150950500Y-126336006D01*
X150950500Y-125772888D01*
X150970185Y-125705849D01*
X151022989Y-125660094D01*
X151061244Y-125649598D01*
X151112483Y-125644091D01*
X151247331Y-125593796D01*
X151362546Y-125507546D01*
X151388618Y-125472717D01*
X151421046Y-125429401D01*
X151476979Y-125387530D01*
X151546671Y-125382546D01*
X151607994Y-125416032D01*
X151619578Y-125429401D01*
X151677809Y-125507187D01*
X151677812Y-125507190D01*
X151792906Y-125593350D01*
X151792913Y-125593354D01*
X151927620Y-125643596D01*
X151927627Y-125643598D01*
X151987155Y-125649999D01*
X151987172Y-125650000D01*
X152540000Y-125650000D01*
X153040000Y-125650000D01*
X153592828Y-125650000D01*
X153592844Y-125649999D01*
X153652372Y-125643598D01*
X153652379Y-125643596D01*
X153787086Y-125593354D01*
X153787093Y-125593350D01*
X153902187Y-125507190D01*
X153902190Y-125507187D01*
X153988350Y-125392093D01*
X153988354Y-125392086D01*
X154038596Y-125257379D01*
X154038598Y-125257372D01*
X154044999Y-125197844D01*
X154045000Y-125197827D01*
X154045000Y-124360000D01*
X153040000Y-124360000D01*
X153040000Y-125650000D01*
X152540000Y-125650000D01*
X152540000Y-123860000D01*
X153040000Y-123860000D01*
X154045000Y-123860000D01*
X154045000Y-123022172D01*
X154044999Y-123022155D01*
X154038598Y-122962627D01*
X154038596Y-122962620D01*
X153988354Y-122827913D01*
X153988350Y-122827906D01*
X153902190Y-122712812D01*
X153902187Y-122712809D01*
X153787093Y-122626649D01*
X153787086Y-122626645D01*
X153652379Y-122576403D01*
X153652372Y-122576401D01*
X153592844Y-122570000D01*
X153040000Y-122570000D01*
X153040000Y-123860000D01*
X152540000Y-123860000D01*
X152540000Y-122570000D01*
X151987155Y-122570000D01*
X151927627Y-122576401D01*
X151927620Y-122576403D01*
X151792913Y-122626645D01*
X151792906Y-122626649D01*
X151677812Y-122712809D01*
X151619578Y-122790599D01*
X151563644Y-122832469D01*
X151493952Y-122837453D01*
X151432629Y-122803967D01*
X151421046Y-122790599D01*
X151362814Y-122712812D01*
X151362546Y-122712454D01*
X151362544Y-122712453D01*
X151362544Y-122712452D01*
X151247335Y-122626206D01*
X151247328Y-122626202D01*
X151112482Y-122575908D01*
X151112483Y-122575908D01*
X151052883Y-122569501D01*
X151052881Y-122569500D01*
X151052873Y-122569500D01*
X151052864Y-122569500D01*
X149447129Y-122569500D01*
X149447123Y-122569501D01*
X149387516Y-122575908D01*
X149252671Y-122626202D01*
X149252664Y-122626206D01*
X149137455Y-122712452D01*
X149137452Y-122712455D01*
X149079266Y-122790182D01*
X149023332Y-122832053D01*
X148953641Y-122837037D01*
X148892318Y-122803551D01*
X148880734Y-122790182D01*
X148822547Y-122712455D01*
X148822544Y-122712452D01*
X148707335Y-122626206D01*
X148707328Y-122626202D01*
X148572482Y-122575908D01*
X148572483Y-122575908D01*
X148512883Y-122569501D01*
X148512881Y-122569500D01*
X148512873Y-122569500D01*
X148512864Y-122569500D01*
X146907129Y-122569500D01*
X146907123Y-122569501D01*
X146847516Y-122575908D01*
X146712671Y-122626202D01*
X146712664Y-122626206D01*
X146597455Y-122712452D01*
X146597452Y-122712455D01*
X146539266Y-122790182D01*
X146483332Y-122832053D01*
X146413641Y-122837037D01*
X146352318Y-122803551D01*
X146340734Y-122790182D01*
X146282547Y-122712455D01*
X146282544Y-122712452D01*
X146167335Y-122626206D01*
X146167328Y-122626202D01*
X146032482Y-122575908D01*
X146032483Y-122575908D01*
X145972883Y-122569501D01*
X145972881Y-122569500D01*
X145972873Y-122569500D01*
X145972864Y-122569500D01*
X144367129Y-122569500D01*
X144367123Y-122569501D01*
X144307516Y-122575908D01*
X144172671Y-122626202D01*
X144172664Y-122626206D01*
X144057455Y-122712452D01*
X144057452Y-122712455D01*
X143999266Y-122790182D01*
X143943332Y-122832053D01*
X143873641Y-122837037D01*
X143812318Y-122803551D01*
X143800734Y-122790182D01*
X143742547Y-122712455D01*
X143742544Y-122712452D01*
X143627335Y-122626206D01*
X143627328Y-122626202D01*
X143492482Y-122575908D01*
X143492483Y-122575908D01*
X143432883Y-122569501D01*
X143432881Y-122569500D01*
X143432873Y-122569500D01*
X143432864Y-122569500D01*
X141827129Y-122569500D01*
X141827123Y-122569501D01*
X141767516Y-122575908D01*
X141632671Y-122626202D01*
X141632664Y-122626206D01*
X141517455Y-122712452D01*
X141517452Y-122712455D01*
X141459266Y-122790182D01*
X141403332Y-122832053D01*
X141333641Y-122837037D01*
X141272318Y-122803551D01*
X141260734Y-122790182D01*
X141202547Y-122712455D01*
X141202544Y-122712452D01*
X141087335Y-122626206D01*
X141087328Y-122626202D01*
X140952482Y-122575908D01*
X140952483Y-122575908D01*
X140892883Y-122569501D01*
X140892881Y-122569500D01*
X140892873Y-122569500D01*
X140892864Y-122569500D01*
X139287129Y-122569500D01*
X139287123Y-122569501D01*
X139227516Y-122575908D01*
X139092671Y-122626202D01*
X139092664Y-122626206D01*
X138977455Y-122712452D01*
X138977454Y-122712453D01*
X138918952Y-122790600D01*
X138863018Y-122832470D01*
X138793326Y-122837453D01*
X138732004Y-122803966D01*
X138720421Y-122790598D01*
X138662190Y-122712812D01*
X138662187Y-122712809D01*
X138547093Y-122626649D01*
X138547086Y-122626645D01*
X138412379Y-122576403D01*
X138412372Y-122576401D01*
X138352844Y-122570000D01*
X137800000Y-122570000D01*
X137800000Y-123986000D01*
X137780315Y-124053039D01*
X137727511Y-124098794D01*
X137676000Y-124110000D01*
X137550000Y-124110000D01*
X137550000Y-124236000D01*
X137530315Y-124303039D01*
X137477511Y-124348794D01*
X137426000Y-124360000D01*
X135260000Y-124360000D01*
X135260000Y-125650000D01*
X135812828Y-125650000D01*
X135812844Y-125649999D01*
X135872372Y-125643598D01*
X135872379Y-125643596D01*
X136007086Y-125593354D01*
X136007093Y-125593350D01*
X136122187Y-125507190D01*
X136122190Y-125507187D01*
X136180734Y-125428984D01*
X136236668Y-125387113D01*
X136306359Y-125382129D01*
X136367682Y-125415615D01*
X136379266Y-125428984D01*
X136437809Y-125507187D01*
X136437812Y-125507190D01*
X136552906Y-125593350D01*
X136552913Y-125593354D01*
X136687620Y-125643596D01*
X136687627Y-125643598D01*
X136747155Y-125649999D01*
X136747172Y-125650000D01*
X137401402Y-125650000D01*
X137468441Y-125669685D01*
X137514196Y-125722489D01*
X137524140Y-125791647D01*
X137495115Y-125855203D01*
X137489083Y-125861681D01*
X135560821Y-127789942D01*
X135499498Y-127823427D01*
X135429806Y-127818443D01*
X135400258Y-127802581D01*
X135327816Y-127749949D01*
X135138412Y-127653443D01*
X134936243Y-127587754D01*
X134936241Y-127587753D01*
X134936240Y-127587753D01*
X134774957Y-127562208D01*
X134726287Y-127554500D01*
X134513713Y-127554500D01*
X134465042Y-127562208D01*
X134303760Y-127587753D01*
X134101585Y-127653444D01*
X133912179Y-127749951D01*
X133740213Y-127874890D01*
X133589890Y-128025213D01*
X133464949Y-128197182D01*
X133460484Y-128205946D01*
X133412509Y-128256742D01*
X133344688Y-128273536D01*
X133278553Y-128250998D01*
X133239516Y-128205946D01*
X133235050Y-128197182D01*
X133110109Y-128025213D01*
X132959786Y-127874890D01*
X132787820Y-127749951D01*
X132598414Y-127653444D01*
X132598413Y-127653443D01*
X132598412Y-127653443D01*
X132396243Y-127587754D01*
X132396241Y-127587753D01*
X132396240Y-127587753D01*
X132234957Y-127562208D01*
X132186287Y-127554500D01*
X131973713Y-127554500D01*
X131925042Y-127562208D01*
X131763760Y-127587753D01*
X131561585Y-127653444D01*
X131372179Y-127749951D01*
X131200213Y-127874890D01*
X131049890Y-128025213D01*
X130924949Y-128197182D01*
X130920484Y-128205946D01*
X130872509Y-128256742D01*
X130804688Y-128273536D01*
X130738553Y-128250998D01*
X130699516Y-128205946D01*
X130695050Y-128197182D01*
X130570109Y-128025213D01*
X130419786Y-127874890D01*
X130247820Y-127749951D01*
X130058414Y-127653444D01*
X130058413Y-127653443D01*
X130058412Y-127653443D01*
X129856243Y-127587754D01*
X129856241Y-127587753D01*
X129856240Y-127587753D01*
X129694957Y-127562208D01*
X129646287Y-127554500D01*
X129433713Y-127554500D01*
X129385042Y-127562208D01*
X129223760Y-127587753D01*
X129021585Y-127653444D01*
X128832179Y-127749951D01*
X128660213Y-127874890D01*
X128509890Y-128025213D01*
X128384949Y-128197182D01*
X128380484Y-128205946D01*
X128332509Y-128256742D01*
X128264688Y-128273536D01*
X128198553Y-128250998D01*
X128159516Y-128205946D01*
X128155050Y-128197182D01*
X128030109Y-128025213D01*
X127879786Y-127874890D01*
X127707820Y-127749951D01*
X127518414Y-127653444D01*
X127518413Y-127653443D01*
X127518412Y-127653443D01*
X127316243Y-127587754D01*
X127316241Y-127587753D01*
X127316240Y-127587753D01*
X127154957Y-127562208D01*
X127106287Y-127554500D01*
X126893713Y-127554500D01*
X126845042Y-127562208D01*
X126683760Y-127587753D01*
X126481585Y-127653444D01*
X126292179Y-127749951D01*
X126120213Y-127874890D01*
X125969890Y-128025213D01*
X125844949Y-128197182D01*
X125840484Y-128205946D01*
X125792509Y-128256742D01*
X125724688Y-128273536D01*
X125658553Y-128250998D01*
X125619516Y-128205946D01*
X125615050Y-128197182D01*
X125490109Y-128025213D01*
X125339786Y-127874890D01*
X125167820Y-127749951D01*
X124978414Y-127653444D01*
X124978413Y-127653443D01*
X124978412Y-127653443D01*
X124776243Y-127587754D01*
X124776241Y-127587753D01*
X124776240Y-127587753D01*
X124614957Y-127562208D01*
X124566287Y-127554500D01*
X124353713Y-127554500D01*
X124305042Y-127562208D01*
X124143760Y-127587753D01*
X123941585Y-127653444D01*
X123752179Y-127749951D01*
X123580213Y-127874890D01*
X123429890Y-128025213D01*
X123304949Y-128197182D01*
X123300484Y-128205946D01*
X123252509Y-128256742D01*
X123184688Y-128273536D01*
X123118553Y-128250998D01*
X123079516Y-128205946D01*
X123075050Y-128197182D01*
X122950109Y-128025213D01*
X122799786Y-127874890D01*
X122627820Y-127749951D01*
X122438414Y-127653444D01*
X122438413Y-127653443D01*
X122438412Y-127653443D01*
X122236243Y-127587754D01*
X122236241Y-127587753D01*
X122236240Y-127587753D01*
X122074957Y-127562208D01*
X122026287Y-127554500D01*
X121813713Y-127554500D01*
X121765042Y-127562208D01*
X121603760Y-127587753D01*
X121401585Y-127653444D01*
X121212179Y-127749951D01*
X121040215Y-127874889D01*
X120926673Y-127988431D01*
X120865350Y-128021915D01*
X120795658Y-128016931D01*
X120739725Y-127975059D01*
X120722810Y-127944082D01*
X120673797Y-127812671D01*
X120673793Y-127812664D01*
X120587547Y-127697455D01*
X120587544Y-127697452D01*
X120472335Y-127611206D01*
X120472328Y-127611202D01*
X120337482Y-127560908D01*
X120337483Y-127560908D01*
X120277883Y-127554501D01*
X120277881Y-127554500D01*
X120277873Y-127554500D01*
X120277864Y-127554500D01*
X118482129Y-127554500D01*
X118482123Y-127554501D01*
X118422516Y-127560908D01*
X118287671Y-127611202D01*
X118287664Y-127611206D01*
X118172455Y-127697452D01*
X118172452Y-127697455D01*
X118086206Y-127812664D01*
X118086202Y-127812671D01*
X118035908Y-127947517D01*
X118029501Y-128007116D01*
X118029500Y-128007135D01*
X109720500Y-128007135D01*
X109720500Y-125197844D01*
X121075000Y-125197844D01*
X121081401Y-125257372D01*
X121081403Y-125257379D01*
X121131645Y-125392086D01*
X121131649Y-125392093D01*
X121217809Y-125507187D01*
X121217812Y-125507190D01*
X121332906Y-125593350D01*
X121332913Y-125593354D01*
X121467620Y-125643596D01*
X121467627Y-125643598D01*
X121527155Y-125649999D01*
X121527172Y-125650000D01*
X122080000Y-125650000D01*
X122580000Y-125650000D01*
X123132828Y-125650000D01*
X123132844Y-125649999D01*
X123192372Y-125643598D01*
X123192379Y-125643596D01*
X123327086Y-125593354D01*
X123327093Y-125593350D01*
X123442187Y-125507190D01*
X123442190Y-125507187D01*
X123500734Y-125428984D01*
X123556668Y-125387113D01*
X123626359Y-125382129D01*
X123687682Y-125415615D01*
X123699266Y-125428984D01*
X123757809Y-125507187D01*
X123757812Y-125507190D01*
X123872906Y-125593350D01*
X123872913Y-125593354D01*
X124007620Y-125643596D01*
X124007627Y-125643598D01*
X124067155Y-125649999D01*
X124067172Y-125650000D01*
X124620000Y-125650000D01*
X125120000Y-125650000D01*
X125672828Y-125650000D01*
X125672844Y-125649999D01*
X125732372Y-125643598D01*
X125732379Y-125643596D01*
X125867086Y-125593354D01*
X125867093Y-125593350D01*
X125982187Y-125507190D01*
X125982190Y-125507187D01*
X126040734Y-125428984D01*
X126096668Y-125387113D01*
X126166359Y-125382129D01*
X126227682Y-125415615D01*
X126239266Y-125428984D01*
X126297809Y-125507187D01*
X126297812Y-125507190D01*
X126412906Y-125593350D01*
X126412913Y-125593354D01*
X126547620Y-125643596D01*
X126547627Y-125643598D01*
X126607155Y-125649999D01*
X126607172Y-125650000D01*
X127160000Y-125650000D01*
X127660000Y-125650000D01*
X128212828Y-125650000D01*
X128212844Y-125649999D01*
X128272372Y-125643598D01*
X128272379Y-125643596D01*
X128407086Y-125593354D01*
X128407093Y-125593350D01*
X128522187Y-125507190D01*
X128522190Y-125507187D01*
X128608350Y-125392093D01*
X128608354Y-125392086D01*
X128658596Y-125257379D01*
X128658598Y-125257372D01*
X128664999Y-125197844D01*
X133755000Y-125197844D01*
X133761401Y-125257372D01*
X133761403Y-125257379D01*
X133811645Y-125392086D01*
X133811649Y-125392093D01*
X133897809Y-125507187D01*
X133897812Y-125507190D01*
X134012906Y-125593350D01*
X134012913Y-125593354D01*
X134147620Y-125643596D01*
X134147627Y-125643598D01*
X134207155Y-125649999D01*
X134207172Y-125650000D01*
X134760000Y-125650000D01*
X134760000Y-124360000D01*
X133755000Y-124360000D01*
X133755000Y-125197844D01*
X128664999Y-125197844D01*
X128665000Y-125197827D01*
X128665000Y-124360000D01*
X127660000Y-124360000D01*
X127660000Y-125650000D01*
X127160000Y-125650000D01*
X127160000Y-124360000D01*
X125120000Y-124360000D01*
X125120000Y-125650000D01*
X124620000Y-125650000D01*
X124620000Y-124360000D01*
X122580000Y-124360000D01*
X122580000Y-125650000D01*
X122080000Y-125650000D01*
X122080000Y-124360000D01*
X121075000Y-124360000D01*
X121075000Y-125197844D01*
X109720500Y-125197844D01*
X109720500Y-123022155D01*
X121075000Y-123022155D01*
X121075000Y-123860000D01*
X122080000Y-123860000D01*
X122580000Y-123860000D01*
X124620000Y-123860000D01*
X125120000Y-123860000D01*
X127160000Y-123860000D01*
X127660000Y-123860000D01*
X128665000Y-123860000D01*
X128665000Y-123022172D01*
X128664999Y-123022155D01*
X133755000Y-123022155D01*
X133755000Y-123860000D01*
X134760000Y-123860000D01*
X135260000Y-123860000D01*
X137300000Y-123860000D01*
X137300000Y-122570000D01*
X136747155Y-122570000D01*
X136687627Y-122576401D01*
X136687620Y-122576403D01*
X136552913Y-122626645D01*
X136552906Y-122626649D01*
X136437812Y-122712809D01*
X136379266Y-122791016D01*
X136323332Y-122832886D01*
X136253640Y-122837870D01*
X136192317Y-122804384D01*
X136180734Y-122791016D01*
X136122187Y-122712809D01*
X136007093Y-122626649D01*
X136007086Y-122626645D01*
X135872379Y-122576403D01*
X135872372Y-122576401D01*
X135812844Y-122570000D01*
X135260000Y-122570000D01*
X135260000Y-123860000D01*
X134760000Y-123860000D01*
X134760000Y-122570000D01*
X134207155Y-122570000D01*
X134147627Y-122576401D01*
X134147620Y-122576403D01*
X134012913Y-122626645D01*
X134012906Y-122626649D01*
X133897812Y-122712809D01*
X133897809Y-122712812D01*
X133811649Y-122827906D01*
X133811645Y-122827913D01*
X133761403Y-122962620D01*
X133761401Y-122962627D01*
X133755000Y-123022155D01*
X128664999Y-123022155D01*
X128658598Y-122962627D01*
X128658596Y-122962620D01*
X128608354Y-122827913D01*
X128608350Y-122827906D01*
X128522190Y-122712812D01*
X128522187Y-122712809D01*
X128407093Y-122626649D01*
X128407086Y-122626645D01*
X128272379Y-122576403D01*
X128272372Y-122576401D01*
X128212844Y-122570000D01*
X127660000Y-122570000D01*
X127660000Y-123860000D01*
X127160000Y-123860000D01*
X127160000Y-122570000D01*
X126607155Y-122570000D01*
X126547627Y-122576401D01*
X126547620Y-122576403D01*
X126412913Y-122626645D01*
X126412906Y-122626649D01*
X126297812Y-122712809D01*
X126239266Y-122791016D01*
X126183332Y-122832886D01*
X126113640Y-122837870D01*
X126052317Y-122804384D01*
X126040734Y-122791016D01*
X125982187Y-122712809D01*
X125867093Y-122626649D01*
X125867086Y-122626645D01*
X125732379Y-122576403D01*
X125732372Y-122576401D01*
X125672844Y-122570000D01*
X125120000Y-122570000D01*
X125120000Y-123860000D01*
X124620000Y-123860000D01*
X124620000Y-122570000D01*
X124067155Y-122570000D01*
X124007627Y-122576401D01*
X124007620Y-122576403D01*
X123872913Y-122626645D01*
X123872906Y-122626649D01*
X123757812Y-122712809D01*
X123699266Y-122791016D01*
X123643332Y-122832886D01*
X123573640Y-122837870D01*
X123512317Y-122804384D01*
X123500734Y-122791016D01*
X123442187Y-122712809D01*
X123327093Y-122626649D01*
X123327086Y-122626645D01*
X123192379Y-122576403D01*
X123192372Y-122576401D01*
X123132844Y-122570000D01*
X122580000Y-122570000D01*
X122580000Y-123860000D01*
X122080000Y-123860000D01*
X122080000Y-122570000D01*
X121527155Y-122570000D01*
X121467627Y-122576401D01*
X121467620Y-122576403D01*
X121332913Y-122626645D01*
X121332906Y-122626649D01*
X121217812Y-122712809D01*
X121217809Y-122712812D01*
X121131649Y-122827906D01*
X121131645Y-122827913D01*
X121081403Y-122962620D01*
X121081401Y-122962627D01*
X121075000Y-123022155D01*
X109720500Y-123022155D01*
X109720500Y-102047844D01*
X121075000Y-102047844D01*
X121081401Y-102107372D01*
X121081403Y-102107379D01*
X121131645Y-102242086D01*
X121131649Y-102242093D01*
X121217809Y-102357187D01*
X121217812Y-102357190D01*
X121332906Y-102443350D01*
X121332913Y-102443354D01*
X121467620Y-102493596D01*
X121467627Y-102493598D01*
X121527155Y-102499999D01*
X121527172Y-102500000D01*
X122080000Y-102500000D01*
X122080000Y-101210000D01*
X121075000Y-101210000D01*
X121075000Y-102047844D01*
X109720500Y-102047844D01*
X109720500Y-99905258D01*
X110969500Y-99905258D01*
X110969500Y-100134741D01*
X110994446Y-100324215D01*
X110999452Y-100362238D01*
X111035153Y-100495478D01*
X111058842Y-100583887D01*
X111146650Y-100795876D01*
X111146657Y-100795890D01*
X111261392Y-100994617D01*
X111401081Y-101176661D01*
X111401089Y-101176670D01*
X111563330Y-101338911D01*
X111563338Y-101338918D01*
X111563339Y-101338919D01*
X111575159Y-101347989D01*
X111745382Y-101478607D01*
X111745385Y-101478608D01*
X111745388Y-101478611D01*
X111944112Y-101593344D01*
X111944117Y-101593346D01*
X111944123Y-101593349D01*
X111984832Y-101610211D01*
X112156113Y-101681158D01*
X112377762Y-101740548D01*
X112605266Y-101770500D01*
X112605273Y-101770500D01*
X112834727Y-101770500D01*
X112834734Y-101770500D01*
X113062238Y-101740548D01*
X113283887Y-101681158D01*
X113495888Y-101593344D01*
X113694612Y-101478611D01*
X113876661Y-101338919D01*
X113876665Y-101338914D01*
X113876670Y-101338911D01*
X114038910Y-101176670D01*
X114038919Y-101176661D01*
X114178611Y-100994612D01*
X114293344Y-100795888D01*
X114381158Y-100583887D01*
X114440548Y-100362238D01*
X114470500Y-100134734D01*
X114470500Y-99905266D01*
X114466141Y-99872155D01*
X121075000Y-99872155D01*
X121075000Y-100710000D01*
X122080000Y-100710000D01*
X122080000Y-99420000D01*
X122580000Y-99420000D01*
X122580000Y-102500000D01*
X123132828Y-102500000D01*
X123132844Y-102499999D01*
X123192372Y-102493598D01*
X123192379Y-102493596D01*
X123327086Y-102443354D01*
X123327093Y-102443350D01*
X123442186Y-102357191D01*
X123500420Y-102279401D01*
X123556354Y-102237530D01*
X123626045Y-102232546D01*
X123687368Y-102266031D01*
X123698953Y-102279400D01*
X123744337Y-102340024D01*
X123757187Y-102357190D01*
X123757455Y-102357547D01*
X123872664Y-102443793D01*
X123872671Y-102443797D01*
X124007517Y-102494091D01*
X124007516Y-102494091D01*
X124014444Y-102494835D01*
X124067127Y-102500500D01*
X125672872Y-102500499D01*
X125732483Y-102494091D01*
X125867331Y-102443796D01*
X125982546Y-102357546D01*
X126008618Y-102322717D01*
X126041046Y-102279401D01*
X126096979Y-102237530D01*
X126166671Y-102232546D01*
X126227994Y-102266032D01*
X126239578Y-102279401D01*
X126297809Y-102357187D01*
X126297812Y-102357190D01*
X126412906Y-102443350D01*
X126412913Y-102443354D01*
X126547620Y-102493596D01*
X126547627Y-102493598D01*
X126607155Y-102499999D01*
X126607172Y-102500000D01*
X127160000Y-102500000D01*
X127660000Y-102500000D01*
X128212828Y-102500000D01*
X128212844Y-102499999D01*
X128272372Y-102493598D01*
X128272379Y-102493596D01*
X128407086Y-102443354D01*
X128407093Y-102443350D01*
X128522187Y-102357190D01*
X128522190Y-102357187D01*
X128608350Y-102242093D01*
X128608354Y-102242086D01*
X128658596Y-102107379D01*
X128658598Y-102107372D01*
X128664999Y-102047844D01*
X128665000Y-102047827D01*
X128665000Y-101210000D01*
X127660000Y-101210000D01*
X127660000Y-102500000D01*
X127160000Y-102500000D01*
X127160000Y-100710000D01*
X127660000Y-100710000D01*
X128665000Y-100710000D01*
X128665000Y-99872172D01*
X128664999Y-99872155D01*
X128658598Y-99812627D01*
X128658596Y-99812620D01*
X128608354Y-99677913D01*
X128608350Y-99677906D01*
X128522190Y-99562812D01*
X128522187Y-99562809D01*
X128407093Y-99476649D01*
X128407086Y-99476645D01*
X128272379Y-99426403D01*
X128272372Y-99426401D01*
X128212844Y-99420000D01*
X127660000Y-99420000D01*
X127660000Y-100710000D01*
X127160000Y-100710000D01*
X127160000Y-99420000D01*
X126607155Y-99420000D01*
X126547627Y-99426401D01*
X126547620Y-99426403D01*
X126412913Y-99476645D01*
X126412906Y-99476649D01*
X126297812Y-99562809D01*
X126239578Y-99640599D01*
X126183644Y-99682469D01*
X126113952Y-99687453D01*
X126052629Y-99653967D01*
X126041046Y-99640599D01*
X125982814Y-99562812D01*
X125982546Y-99562454D01*
X125982544Y-99562453D01*
X125982544Y-99562452D01*
X125867335Y-99476206D01*
X125867328Y-99476202D01*
X125732482Y-99425908D01*
X125732483Y-99425908D01*
X125672883Y-99419501D01*
X125672881Y-99419500D01*
X125672873Y-99419500D01*
X125672864Y-99419500D01*
X124067129Y-99419500D01*
X124067123Y-99419501D01*
X124007516Y-99425908D01*
X123872671Y-99476202D01*
X123872664Y-99476206D01*
X123757455Y-99562452D01*
X123757454Y-99562453D01*
X123698952Y-99640600D01*
X123643018Y-99682470D01*
X123573326Y-99687453D01*
X123512004Y-99653966D01*
X123500421Y-99640598D01*
X123442190Y-99562812D01*
X123442187Y-99562809D01*
X123327093Y-99476649D01*
X123327086Y-99476645D01*
X123192379Y-99426403D01*
X123192372Y-99426401D01*
X123132844Y-99420000D01*
X122580000Y-99420000D01*
X122080000Y-99420000D01*
X121527155Y-99420000D01*
X121467627Y-99426401D01*
X121467620Y-99426403D01*
X121332913Y-99476645D01*
X121332906Y-99476649D01*
X121217812Y-99562809D01*
X121217809Y-99562812D01*
X121131649Y-99677906D01*
X121131645Y-99677913D01*
X121081403Y-99812620D01*
X121081401Y-99812627D01*
X121075000Y-99872155D01*
X114466141Y-99872155D01*
X114466137Y-99872128D01*
X114456961Y-99802432D01*
X114440548Y-99677762D01*
X114381158Y-99456113D01*
X114308787Y-99281394D01*
X114293349Y-99244123D01*
X114293346Y-99244117D01*
X114293344Y-99244112D01*
X114178611Y-99045388D01*
X114178608Y-99045385D01*
X114178607Y-99045382D01*
X114038918Y-98863338D01*
X114038911Y-98863330D01*
X113876670Y-98701089D01*
X113876661Y-98701081D01*
X113694617Y-98561392D01*
X113669623Y-98546962D01*
X113495888Y-98446656D01*
X113495876Y-98446650D01*
X113283887Y-98358842D01*
X113230305Y-98344485D01*
X113062238Y-98299452D01*
X113024215Y-98294446D01*
X112834741Y-98269500D01*
X112834734Y-98269500D01*
X112605266Y-98269500D01*
X112605258Y-98269500D01*
X112388715Y-98298009D01*
X112377762Y-98299452D01*
X112284076Y-98324554D01*
X112156112Y-98358842D01*
X111944123Y-98446650D01*
X111944109Y-98446657D01*
X111745382Y-98561392D01*
X111563338Y-98701081D01*
X111401081Y-98863338D01*
X111261392Y-99045382D01*
X111146657Y-99244109D01*
X111146650Y-99244123D01*
X111058842Y-99456112D01*
X111053339Y-99476649D01*
X110999477Y-99677671D01*
X110999453Y-99677759D01*
X110999451Y-99677770D01*
X110969500Y-99905258D01*
X109720500Y-99905258D01*
X109720500Y-99084066D01*
X109720765Y-99075957D01*
X109721014Y-99072155D01*
X109737588Y-98819272D01*
X109739702Y-98803218D01*
X109789093Y-98554918D01*
X109793285Y-98539275D01*
X109874659Y-98299554D01*
X109880860Y-98284583D01*
X109992829Y-98057533D01*
X110000932Y-98043498D01*
X110141581Y-97833001D01*
X110151438Y-97820156D01*
X110318360Y-97629818D01*
X110329818Y-97618360D01*
X110520156Y-97451438D01*
X110533001Y-97441581D01*
X110743498Y-97300932D01*
X110757533Y-97292829D01*
X110984583Y-97180860D01*
X110999554Y-97174659D01*
X111239275Y-97093285D01*
X111254918Y-97089093D01*
X111503218Y-97039702D01*
X111519272Y-97037588D01*
X111754217Y-97022189D01*
X111775958Y-97020765D01*
X111784067Y-97020500D01*
X111845892Y-97020500D01*
X139107594Y-97020500D01*
X139174633Y-97040185D01*
G37*
%TD.AperFunction*%
%TD*%
M02*
