G04 #@! TF.GenerationSoftware,KiCad,Pcbnew,8.0.8*
G04 #@! TF.CreationDate,2025-02-15T12:45:03+02:00*
G04 #@! TF.ProjectId,E900M30S shield,45393030-4d33-4305-9320-736869656c64,rev?*
G04 #@! TF.SameCoordinates,Original*
G04 #@! TF.FileFunction,Copper,L1,Top*
G04 #@! TF.FilePolarity,Positive*
%FSLAX46Y46*%
G04 Gerber Fmt 4.6, Leading zero omitted, Abs format (unit mm)*
G04 Created by KiCad (PCBNEW 8.0.8) date 2025-02-15 12:45:03*
%MOMM*%
%LPD*%
G01*
G04 APERTURE LIST*
G04 Aperture macros list*
%AMRoundRect*
0 Rectangle with rounded corners*
0 $1 Rounding radius*
0 $2 $3 $4 $5 $6 $7 $8 $9 X,Y pos of 4 corners*
0 Add a 4 corners polygon primitive as box body*
4,1,4,$2,$3,$4,$5,$6,$7,$8,$9,$2,$3,0*
0 Add four circle primitives for the rounded corners*
1,1,$1+$1,$2,$3*
1,1,$1+$1,$4,$5*
1,1,$1+$1,$6,$7*
1,1,$1+$1,$8,$9*
0 Add four rect primitives between the rounded corners*
20,1,$1+$1,$2,$3,$4,$5,0*
20,1,$1+$1,$4,$5,$6,$7,0*
20,1,$1+$1,$6,$7,$8,$9,0*
20,1,$1+$1,$8,$9,$2,$3,0*%
G04 Aperture macros list end*
G04 #@! TA.AperFunction,ComponentPad*
%ADD10R,1.700000X1.700000*%
G04 #@! TD*
G04 #@! TA.AperFunction,ComponentPad*
%ADD11O,1.700000X1.700000*%
G04 #@! TD*
G04 #@! TA.AperFunction,SMDPad,CuDef*
%ADD12RoundRect,0.250000X-1.100000X0.325000X-1.100000X-0.325000X1.100000X-0.325000X1.100000X0.325000X0*%
G04 #@! TD*
G04 #@! TA.AperFunction,SMDPad,CuDef*
%ADD13R,1.510000X2.080000*%
G04 #@! TD*
G04 #@! TA.AperFunction,ViaPad*
%ADD14C,0.600000*%
G04 #@! TD*
G04 #@! TA.AperFunction,Conductor*
%ADD15C,0.400000*%
G04 #@! TD*
G04 #@! TA.AperFunction,Conductor*
%ADD16C,0.200000*%
G04 #@! TD*
G04 APERTURE END LIST*
D10*
G04 #@! TO.P,J1,1*
G04 #@! TO.N,NSS*
X119380000Y-128905000D03*
D11*
G04 #@! TO.P,J1,2*
G04 #@! TO.N,SCK*
X121920000Y-128905000D03*
G04 #@! TO.P,J1,3*
G04 #@! TO.N,MOSI*
X124460000Y-128905000D03*
G04 #@! TO.P,J1,4*
G04 #@! TO.N,MISO*
X127000000Y-128905000D03*
G04 #@! TO.P,J1,5*
G04 #@! TO.N,RST*
X129540000Y-128905000D03*
G04 #@! TO.P,J1,6*
G04 #@! TO.N,BUSY*
X132080000Y-128905000D03*
G04 #@! TO.P,J1,7*
G04 #@! TO.N,RXEN*
X134620000Y-128905000D03*
G04 #@! TO.P,J1,8*
G04 #@! TO.N,TXEN*
X137160000Y-128905000D03*
G04 #@! TO.P,J1,9*
G04 #@! TO.N,DIO2*
X139700000Y-128905000D03*
G04 #@! TO.P,J1,10*
G04 #@! TO.N,DIO1*
X142240000Y-128905000D03*
G04 #@! TD*
D10*
G04 #@! TO.P,J2,1*
G04 #@! TO.N,+5V*
X158750000Y-124460000D03*
D11*
G04 #@! TO.P,J2,2*
G04 #@! TO.N,GND*
X158750000Y-121920000D03*
G04 #@! TD*
D12*
G04 #@! TO.P,C1,1*
G04 #@! TO.N,+5V*
X148590000Y-128065000D03*
G04 #@! TO.P,C1,2*
G04 #@! TO.N,GND*
X148590000Y-131015000D03*
G04 #@! TD*
D13*
G04 #@! TO.P,U1,1,GND*
G04 #@! TO.N,GND*
X122330000Y-124110000D03*
G04 #@! TO.P,U1,2,GND*
X124870000Y-124110000D03*
G04 #@! TO.P,U1,3,GND*
X127410000Y-124110000D03*
G04 #@! TO.P,U1,4,GND*
X135010000Y-124110000D03*
G04 #@! TO.P,U1,5,GND*
X137550000Y-124110000D03*
G04 #@! TO.P,U1,6,RXEN*
G04 #@! TO.N,RXEN*
X140090000Y-124110000D03*
G04 #@! TO.P,U1,7,TXEN*
G04 #@! TO.N,TXEN*
X142630000Y-124110000D03*
G04 #@! TO.P,U1,8,DIO2*
G04 #@! TO.N,DIO2*
X145170000Y-124110000D03*
G04 #@! TO.P,U1,9,VCC*
G04 #@! TO.N,+5V*
X147710000Y-124110000D03*
G04 #@! TO.P,U1,10,VCC*
X150250000Y-124110000D03*
G04 #@! TO.P,U1,11,GND*
G04 #@! TO.N,GND*
X152790000Y-124110000D03*
G04 #@! TO.P,U1,12,GND*
X152790000Y-100960000D03*
G04 #@! TO.P,U1,13,DIO1*
G04 #@! TO.N,DIO1*
X150250000Y-100960000D03*
G04 #@! TO.P,U1,14,BUSY*
G04 #@! TO.N,BUSY*
X147710000Y-100960000D03*
G04 #@! TO.P,U1,15,~{RST}*
G04 #@! TO.N,RST*
X145170000Y-100960000D03*
G04 #@! TO.P,U1,16,MISO*
G04 #@! TO.N,MISO*
X142630000Y-100960000D03*
G04 #@! TO.P,U1,17,MOSI*
G04 #@! TO.N,MOSI*
X140090000Y-100960000D03*
G04 #@! TO.P,U1,18,SCK*
G04 #@! TO.N,SCK*
X137550000Y-100960000D03*
G04 #@! TO.P,U1,19,NSS*
G04 #@! TO.N,NSS*
X135010000Y-100960000D03*
G04 #@! TO.P,U1,20,GND*
G04 #@! TO.N,GND*
X127410000Y-100960000D03*
G04 #@! TO.P,U1,21,ANT*
G04 #@! TO.N,unconnected-(U1-ANT-Pad21)*
X124870000Y-100960000D03*
G04 #@! TO.P,U1,22,GND*
G04 #@! TO.N,GND*
X122330000Y-100960000D03*
G04 #@! TD*
D12*
G04 #@! TO.P,C2,1*
G04 #@! TO.N,+5V*
X153670000Y-128065000D03*
G04 #@! TO.P,C2,2*
G04 #@! TO.N,GND*
X153670000Y-131015000D03*
G04 #@! TD*
D14*
G04 #@! TO.N,GND*
X130889632Y-121781551D03*
X122309986Y-103173605D03*
X152741659Y-121781551D03*
X127381931Y-103173605D03*
X133307102Y-116946612D03*
X135108353Y-121781551D03*
X152783863Y-103173605D03*
X127429333Y-121781551D03*
X124917061Y-121781551D03*
X137620625Y-121781551D03*
X122357387Y-121781551D03*
G04 #@! TD*
D15*
G04 #@! TO.N,+5V*
X158750000Y-125730000D02*
X156415000Y-128065000D01*
X148590000Y-128065000D02*
X147710000Y-127185000D01*
X156415000Y-128065000D02*
X153670000Y-128065000D01*
X148590000Y-128065000D02*
X150250000Y-126405000D01*
X147710000Y-124110000D02*
X150250000Y-124110000D01*
X147710000Y-127185000D02*
X147710000Y-124110000D01*
X153670000Y-128065000D02*
X148590000Y-128065000D01*
X150250000Y-126405000D02*
X150250000Y-124110000D01*
X158750000Y-124460000D02*
X158750000Y-125730000D01*
D16*
G04 #@! TO.N,GND*
X127000000Y-123700000D02*
X127410000Y-124110000D01*
X134620000Y-123720000D02*
X135010000Y-124110000D01*
G04 #@! TO.N,MISO*
X129540000Y-124460000D02*
X127000000Y-127000000D01*
X127000000Y-127000000D02*
X127000000Y-128905000D01*
X129540000Y-114300000D02*
X129540000Y-124460000D01*
X142630000Y-100960000D02*
X142630000Y-101210000D01*
X142630000Y-101210000D02*
X129540000Y-114300000D01*
G04 #@! TO.N,RXEN*
X135295000Y-128905000D02*
X134620000Y-128905000D01*
X140090000Y-124110000D02*
X135295000Y-128905000D01*
G04 #@! TO.N,MOSI*
X126355000Y-127010000D02*
X124460000Y-128905000D01*
X140090000Y-100960000D02*
X126355000Y-114695000D01*
X126355000Y-114695000D02*
X126355000Y-127010000D01*
G04 #@! TO.N,DIO1*
X150250000Y-116635000D02*
X146225000Y-120660000D01*
X142875000Y-128905000D02*
X142240000Y-128905000D01*
X150250000Y-100960000D02*
X150250000Y-116635000D01*
X146225000Y-125555000D02*
X142875000Y-128905000D01*
X146225000Y-120660000D02*
X146225000Y-125555000D01*
G04 #@! TO.N,NSS*
X135010000Y-100960000D02*
X119380000Y-116590000D01*
X119380000Y-116590000D02*
X119380000Y-128905000D01*
G04 #@! TO.N,DIO2*
X140375000Y-128905000D02*
X139700000Y-128905000D01*
X145170000Y-124110000D02*
X140375000Y-128905000D01*
G04 #@! TO.N,TXEN*
X137835000Y-128905000D02*
X137160000Y-128905000D01*
X142630000Y-124110000D02*
X137835000Y-128905000D01*
G04 #@! TO.N,BUSY*
X134620000Y-119380000D02*
X132480000Y-121520000D01*
X132610000Y-128905000D02*
X132080000Y-128905000D01*
X132480000Y-121520000D02*
X132480000Y-128505000D01*
X134620000Y-114050000D02*
X134620000Y-119380000D01*
X132480000Y-128505000D02*
X132080000Y-128905000D01*
X147710000Y-100960000D02*
X134620000Y-114050000D01*
G04 #@! TO.N,SCK*
X123385000Y-127440000D02*
X121920000Y-128905000D01*
X123385000Y-115125000D02*
X123385000Y-127440000D01*
X137550000Y-100960000D02*
X123385000Y-115125000D01*
G04 #@! TO.N,RST*
X132080000Y-114300000D02*
X132080000Y-126365000D01*
X145170000Y-100960000D02*
X145170000Y-101210000D01*
X145170000Y-101210000D02*
X132080000Y-114300000D01*
X132080000Y-126365000D02*
X129540000Y-128905000D01*
G04 #@! TD*
G04 #@! TA.AperFunction,Conductor*
G04 #@! TO.N,GND*
G36*
X142797941Y-102520184D02*
G01*
X142843696Y-102572988D01*
X142853640Y-102642146D01*
X142824615Y-102705702D01*
X142818583Y-102712180D01*
X131711286Y-113819478D01*
X131599481Y-113931282D01*
X131599479Y-113931285D01*
X131549361Y-114018094D01*
X131549359Y-114018096D01*
X131520425Y-114068209D01*
X131520424Y-114068210D01*
X131520423Y-114068215D01*
X131479499Y-114220943D01*
X131479499Y-114220945D01*
X131479499Y-114389046D01*
X131479500Y-114389059D01*
X131479500Y-126064902D01*
X131459815Y-126131941D01*
X131443181Y-126152583D01*
X130023530Y-127572233D01*
X129962207Y-127605718D01*
X129903756Y-127604327D01*
X129775413Y-127569938D01*
X129775403Y-127569936D01*
X129540001Y-127549341D01*
X129539999Y-127549341D01*
X129304596Y-127569936D01*
X129304586Y-127569938D01*
X129076344Y-127631094D01*
X129076335Y-127631098D01*
X128862171Y-127730964D01*
X128862169Y-127730965D01*
X128668597Y-127866505D01*
X128501505Y-128033597D01*
X128371575Y-128219158D01*
X128316998Y-128262783D01*
X128247500Y-128269977D01*
X128185145Y-128238454D01*
X128168425Y-128219158D01*
X128038494Y-128033597D01*
X127871402Y-127866506D01*
X127871395Y-127866501D01*
X127843673Y-127847090D01*
X127794518Y-127812671D01*
X127677831Y-127730965D01*
X127677826Y-127730962D01*
X127672091Y-127728288D01*
X127619653Y-127682113D01*
X127600500Y-127615908D01*
X127600500Y-127300096D01*
X127620185Y-127233057D01*
X127636814Y-127212420D01*
X129898506Y-124950727D01*
X129898511Y-124950724D01*
X129908714Y-124940520D01*
X129908716Y-124940520D01*
X130020520Y-124828716D01*
X130099577Y-124691784D01*
X130140500Y-124539057D01*
X130140500Y-114600097D01*
X130160185Y-114533058D01*
X130176819Y-114512416D01*
X142152417Y-102536818D01*
X142213740Y-102503333D01*
X142240098Y-102500499D01*
X142730902Y-102500499D01*
X142797941Y-102520184D01*
G37*
G04 #@! TD.AperFunction*
G04 #@! TA.AperFunction,Conductor*
G36*
X149067682Y-102266447D02*
G01*
X149079259Y-102279808D01*
X149137454Y-102357546D01*
X149137455Y-102357546D01*
X149137456Y-102357548D01*
X149252664Y-102443793D01*
X149252671Y-102443797D01*
X149297618Y-102460561D01*
X149387517Y-102494091D01*
X149447127Y-102500500D01*
X149525500Y-102500499D01*
X149592538Y-102520183D01*
X149638294Y-102572986D01*
X149649500Y-102624499D01*
X149649500Y-116334902D01*
X149629815Y-116401941D01*
X149613181Y-116422583D01*
X145744481Y-120291282D01*
X145744479Y-120291285D01*
X145694361Y-120378094D01*
X145694359Y-120378096D01*
X145665425Y-120428209D01*
X145665424Y-120428210D01*
X145649544Y-120487472D01*
X145624499Y-120580943D01*
X145624499Y-120580945D01*
X145624499Y-120749046D01*
X145624500Y-120749059D01*
X145624500Y-122445500D01*
X145604815Y-122512539D01*
X145552011Y-122558294D01*
X145500500Y-122569500D01*
X144367129Y-122569500D01*
X144367123Y-122569501D01*
X144307516Y-122575908D01*
X144172671Y-122626202D01*
X144172664Y-122626206D01*
X144057455Y-122712452D01*
X144057452Y-122712455D01*
X143999266Y-122790182D01*
X143943332Y-122832053D01*
X143873641Y-122837037D01*
X143812318Y-122803551D01*
X143800734Y-122790182D01*
X143742547Y-122712455D01*
X143742544Y-122712452D01*
X143627335Y-122626206D01*
X143627328Y-122626202D01*
X143492482Y-122575908D01*
X143492483Y-122575908D01*
X143432883Y-122569501D01*
X143432881Y-122569500D01*
X143432873Y-122569500D01*
X143432864Y-122569500D01*
X141827129Y-122569500D01*
X141827123Y-122569501D01*
X141767516Y-122575908D01*
X141632671Y-122626202D01*
X141632664Y-122626206D01*
X141517455Y-122712452D01*
X141517452Y-122712455D01*
X141459266Y-122790182D01*
X141403332Y-122832053D01*
X141333641Y-122837037D01*
X141272318Y-122803551D01*
X141260734Y-122790182D01*
X141202547Y-122712455D01*
X141202544Y-122712452D01*
X141087335Y-122626206D01*
X141087328Y-122626202D01*
X140952482Y-122575908D01*
X140952483Y-122575908D01*
X140892883Y-122569501D01*
X140892881Y-122569500D01*
X140892873Y-122569500D01*
X140892864Y-122569500D01*
X139287129Y-122569500D01*
X139287123Y-122569501D01*
X139227516Y-122575908D01*
X139092671Y-122626202D01*
X139092664Y-122626206D01*
X138977455Y-122712452D01*
X138977454Y-122712453D01*
X138918952Y-122790600D01*
X138863018Y-122832470D01*
X138793326Y-122837453D01*
X138732004Y-122803966D01*
X138720421Y-122790598D01*
X138662190Y-122712812D01*
X138662187Y-122712809D01*
X138547093Y-122626649D01*
X138547086Y-122626645D01*
X138412379Y-122576403D01*
X138412372Y-122576401D01*
X138352844Y-122570000D01*
X137800000Y-122570000D01*
X137800000Y-123986000D01*
X137780315Y-124053039D01*
X137727511Y-124098794D01*
X137676000Y-124110000D01*
X137550000Y-124110000D01*
X137550000Y-124236000D01*
X137530315Y-124303039D01*
X137477511Y-124348794D01*
X137426000Y-124360000D01*
X135260000Y-124360000D01*
X135260000Y-125650000D01*
X135812828Y-125650000D01*
X135812844Y-125649999D01*
X135872372Y-125643598D01*
X135872379Y-125643596D01*
X136007086Y-125593354D01*
X136007093Y-125593350D01*
X136122187Y-125507190D01*
X136122190Y-125507187D01*
X136180734Y-125428984D01*
X136236668Y-125387113D01*
X136306359Y-125382129D01*
X136367682Y-125415615D01*
X136379266Y-125428984D01*
X136437809Y-125507187D01*
X136437812Y-125507190D01*
X136552906Y-125593350D01*
X136552913Y-125593354D01*
X136687620Y-125643596D01*
X136687627Y-125643598D01*
X136747155Y-125649999D01*
X136747172Y-125650000D01*
X137401402Y-125650000D01*
X137468441Y-125669685D01*
X137514196Y-125722489D01*
X137524140Y-125791647D01*
X137495115Y-125855203D01*
X137489083Y-125861681D01*
X135560773Y-127789990D01*
X135499450Y-127823475D01*
X135429758Y-127818491D01*
X135401970Y-127803885D01*
X135297830Y-127730965D01*
X135297829Y-127730964D01*
X135297827Y-127730963D01*
X135184387Y-127678065D01*
X135083663Y-127631097D01*
X135083659Y-127631096D01*
X135083655Y-127631094D01*
X134855413Y-127569938D01*
X134855403Y-127569936D01*
X134620001Y-127549341D01*
X134619999Y-127549341D01*
X134384596Y-127569936D01*
X134384586Y-127569938D01*
X134156344Y-127631094D01*
X134156335Y-127631098D01*
X133942171Y-127730964D01*
X133942169Y-127730965D01*
X133748597Y-127866505D01*
X133581505Y-128033597D01*
X133451575Y-128219158D01*
X133396998Y-128262783D01*
X133327500Y-128269977D01*
X133265145Y-128238454D01*
X133248425Y-128219158D01*
X133118494Y-128033597D01*
X133116819Y-128031922D01*
X133116315Y-128031000D01*
X133115014Y-128029449D01*
X133115325Y-128029187D01*
X133083334Y-127970599D01*
X133080500Y-127944241D01*
X133080500Y-125197844D01*
X133755000Y-125197844D01*
X133761401Y-125257372D01*
X133761403Y-125257379D01*
X133811645Y-125392086D01*
X133811649Y-125392093D01*
X133897809Y-125507187D01*
X133897812Y-125507190D01*
X134012906Y-125593350D01*
X134012913Y-125593354D01*
X134147620Y-125643596D01*
X134147627Y-125643598D01*
X134207155Y-125649999D01*
X134207172Y-125650000D01*
X134760000Y-125650000D01*
X134760000Y-124360000D01*
X133755000Y-124360000D01*
X133755000Y-125197844D01*
X133080500Y-125197844D01*
X133080500Y-123022155D01*
X133755000Y-123022155D01*
X133755000Y-123860000D01*
X134760000Y-123860000D01*
X135260000Y-123860000D01*
X137300000Y-123860000D01*
X137300000Y-122570000D01*
X136747155Y-122570000D01*
X136687627Y-122576401D01*
X136687620Y-122576403D01*
X136552913Y-122626645D01*
X136552906Y-122626649D01*
X136437812Y-122712809D01*
X136379266Y-122791016D01*
X136323332Y-122832886D01*
X136253640Y-122837870D01*
X136192317Y-122804384D01*
X136180734Y-122791016D01*
X136122187Y-122712809D01*
X136007093Y-122626649D01*
X136007086Y-122626645D01*
X135872379Y-122576403D01*
X135872372Y-122576401D01*
X135812844Y-122570000D01*
X135260000Y-122570000D01*
X135260000Y-123860000D01*
X134760000Y-123860000D01*
X134760000Y-122570000D01*
X134207155Y-122570000D01*
X134147627Y-122576401D01*
X134147620Y-122576403D01*
X134012913Y-122626645D01*
X134012906Y-122626649D01*
X133897812Y-122712809D01*
X133897809Y-122712812D01*
X133811649Y-122827906D01*
X133811645Y-122827913D01*
X133761403Y-122962620D01*
X133761401Y-122962627D01*
X133755000Y-123022155D01*
X133080500Y-123022155D01*
X133080500Y-121820096D01*
X133100185Y-121753057D01*
X133116814Y-121732420D01*
X134988713Y-119860521D01*
X134988716Y-119860520D01*
X135100520Y-119748716D01*
X135150639Y-119661904D01*
X135179577Y-119611785D01*
X135220501Y-119459057D01*
X135220501Y-119300943D01*
X135220501Y-119293348D01*
X135220500Y-119293330D01*
X135220500Y-114350096D01*
X135240185Y-114283057D01*
X135256814Y-114262420D01*
X146982416Y-102536817D01*
X147043739Y-102503333D01*
X147070097Y-102500499D01*
X148512871Y-102500499D01*
X148512872Y-102500499D01*
X148572483Y-102494091D01*
X148707331Y-102443796D01*
X148822546Y-102357546D01*
X148880735Y-102279815D01*
X148936667Y-102237946D01*
X149006359Y-102232962D01*
X149067682Y-102266447D01*
G37*
G04 #@! TD.AperFunction*
G04 #@! TA.AperFunction,Conductor*
G36*
X134927942Y-102520184D02*
G01*
X134973697Y-102572988D01*
X134983641Y-102642146D01*
X134954616Y-102705702D01*
X134948584Y-102712180D01*
X122904481Y-114756282D01*
X122904479Y-114756285D01*
X122854361Y-114843094D01*
X122854359Y-114843096D01*
X122825425Y-114893209D01*
X122825424Y-114893210D01*
X122825423Y-114893215D01*
X122784499Y-115045943D01*
X122784499Y-115045945D01*
X122784499Y-115214046D01*
X122784500Y-115214059D01*
X122784500Y-122446000D01*
X122764815Y-122513039D01*
X122712011Y-122558794D01*
X122660500Y-122570000D01*
X122580000Y-122570000D01*
X122580000Y-123860000D01*
X122660500Y-123860000D01*
X122727539Y-123879685D01*
X122773294Y-123932489D01*
X122784500Y-123984000D01*
X122784500Y-124236000D01*
X122764815Y-124303039D01*
X122712011Y-124348794D01*
X122660500Y-124360000D01*
X122580000Y-124360000D01*
X122580000Y-125650000D01*
X122660500Y-125650000D01*
X122727539Y-125669685D01*
X122773294Y-125722489D01*
X122784500Y-125774000D01*
X122784500Y-127139902D01*
X122764815Y-127206941D01*
X122748181Y-127227583D01*
X122403530Y-127572233D01*
X122342207Y-127605718D01*
X122283756Y-127604327D01*
X122155413Y-127569938D01*
X122155403Y-127569936D01*
X121920001Y-127549341D01*
X121919999Y-127549341D01*
X121684596Y-127569936D01*
X121684586Y-127569938D01*
X121456344Y-127631094D01*
X121456335Y-127631098D01*
X121242171Y-127730964D01*
X121242169Y-127730965D01*
X121048600Y-127866503D01*
X120926673Y-127988430D01*
X120865350Y-128021914D01*
X120795658Y-128016930D01*
X120739725Y-127975058D01*
X120722810Y-127944081D01*
X120673797Y-127812671D01*
X120673793Y-127812664D01*
X120587547Y-127697455D01*
X120587544Y-127697452D01*
X120472335Y-127611206D01*
X120472328Y-127611202D01*
X120337482Y-127560908D01*
X120337483Y-127560908D01*
X120277883Y-127554501D01*
X120277881Y-127554500D01*
X120277873Y-127554500D01*
X120277865Y-127554500D01*
X120104500Y-127554500D01*
X120037461Y-127534815D01*
X119991706Y-127482011D01*
X119980500Y-127430500D01*
X119980500Y-125197844D01*
X121075000Y-125197844D01*
X121081401Y-125257372D01*
X121081403Y-125257379D01*
X121131645Y-125392086D01*
X121131649Y-125392093D01*
X121217809Y-125507187D01*
X121217812Y-125507190D01*
X121332906Y-125593350D01*
X121332913Y-125593354D01*
X121467620Y-125643596D01*
X121467627Y-125643598D01*
X121527155Y-125649999D01*
X121527172Y-125650000D01*
X122080000Y-125650000D01*
X122080000Y-124360000D01*
X121075000Y-124360000D01*
X121075000Y-125197844D01*
X119980500Y-125197844D01*
X119980500Y-123022155D01*
X121075000Y-123022155D01*
X121075000Y-123860000D01*
X122080000Y-123860000D01*
X122080000Y-122570000D01*
X121527155Y-122570000D01*
X121467627Y-122576401D01*
X121467620Y-122576403D01*
X121332913Y-122626645D01*
X121332906Y-122626649D01*
X121217812Y-122712809D01*
X121217809Y-122712812D01*
X121131649Y-122827906D01*
X121131645Y-122827913D01*
X121081403Y-122962620D01*
X121081401Y-122962627D01*
X121075000Y-123022155D01*
X119980500Y-123022155D01*
X119980500Y-116890096D01*
X120000185Y-116823057D01*
X120016814Y-116802420D01*
X134282416Y-102536817D01*
X134343739Y-102503333D01*
X134370097Y-102500499D01*
X134860903Y-102500499D01*
X134927942Y-102520184D01*
G37*
G04 #@! TD.AperFunction*
G04 #@! TA.AperFunction,Conductor*
G36*
X137467942Y-102520184D02*
G01*
X137513697Y-102572988D01*
X137523641Y-102642146D01*
X137494616Y-102705702D01*
X137488584Y-102712180D01*
X125874481Y-114326282D01*
X125874479Y-114326284D01*
X125860732Y-114350096D01*
X125844012Y-114379057D01*
X125795423Y-114463215D01*
X125754499Y-114615943D01*
X125754499Y-114615945D01*
X125754499Y-114784046D01*
X125754500Y-114784059D01*
X125754500Y-122446000D01*
X125734815Y-122513039D01*
X125682011Y-122558794D01*
X125630500Y-122570000D01*
X125120000Y-122570000D01*
X125120000Y-123860000D01*
X125630500Y-123860000D01*
X125697539Y-123879685D01*
X125743294Y-123932489D01*
X125754500Y-123984000D01*
X125754500Y-124236000D01*
X125734815Y-124303039D01*
X125682011Y-124348794D01*
X125630500Y-124360000D01*
X125120000Y-124360000D01*
X125120000Y-125650000D01*
X125630500Y-125650000D01*
X125697539Y-125669685D01*
X125743294Y-125722489D01*
X125754500Y-125774000D01*
X125754500Y-126709902D01*
X125734815Y-126776941D01*
X125718181Y-126797583D01*
X124943530Y-127572233D01*
X124882207Y-127605718D01*
X124823756Y-127604327D01*
X124695413Y-127569938D01*
X124695403Y-127569936D01*
X124460001Y-127549341D01*
X124459999Y-127549341D01*
X124224596Y-127569936D01*
X124224586Y-127569938D01*
X124141594Y-127592176D01*
X124071744Y-127590513D01*
X124013882Y-127551350D01*
X123986378Y-127487122D01*
X123985501Y-127472401D01*
X123985501Y-127353348D01*
X123985500Y-127353330D01*
X123985500Y-125774000D01*
X124005185Y-125706961D01*
X124057989Y-125661206D01*
X124109500Y-125650000D01*
X124620000Y-125650000D01*
X124620000Y-124360000D01*
X124109500Y-124360000D01*
X124042461Y-124340315D01*
X123996706Y-124287511D01*
X123985500Y-124236000D01*
X123985500Y-123984000D01*
X124005185Y-123916961D01*
X124057989Y-123871206D01*
X124109500Y-123860000D01*
X124620000Y-123860000D01*
X124620000Y-122570000D01*
X124109500Y-122570000D01*
X124042461Y-122550315D01*
X123996706Y-122497511D01*
X123985500Y-122446000D01*
X123985500Y-115425096D01*
X124005185Y-115358057D01*
X124021814Y-115337420D01*
X136822416Y-102536817D01*
X136883739Y-102503333D01*
X136910097Y-102500499D01*
X137400903Y-102500499D01*
X137467942Y-102520184D01*
G37*
G04 #@! TD.AperFunction*
G04 #@! TA.AperFunction,Conductor*
G36*
X140257941Y-102520184D02*
G01*
X140303696Y-102572988D01*
X140313640Y-102642146D01*
X140284615Y-102705702D01*
X140278583Y-102712180D01*
X129171286Y-113819478D01*
X129059481Y-113931282D01*
X129059479Y-113931285D01*
X129009361Y-114018094D01*
X129009359Y-114018096D01*
X128980425Y-114068209D01*
X128980424Y-114068210D01*
X128980423Y-114068215D01*
X128939499Y-114220943D01*
X128939499Y-114220945D01*
X128939499Y-114389046D01*
X128939500Y-114389059D01*
X128939500Y-124159903D01*
X128919815Y-124226942D01*
X128903185Y-124247579D01*
X128847726Y-124303039D01*
X128815563Y-124335202D01*
X128754239Y-124368686D01*
X128684548Y-124363702D01*
X128678788Y-124360000D01*
X127079500Y-124360000D01*
X127012461Y-124340315D01*
X126966706Y-124287511D01*
X126955500Y-124236000D01*
X126955500Y-123984000D01*
X126975185Y-123916961D01*
X127027989Y-123871206D01*
X127079500Y-123860000D01*
X127160000Y-123860000D01*
X127660000Y-123860000D01*
X128665000Y-123860000D01*
X128665000Y-123022172D01*
X128664999Y-123022155D01*
X128658598Y-122962627D01*
X128658596Y-122962620D01*
X128608354Y-122827913D01*
X128608350Y-122827906D01*
X128522190Y-122712812D01*
X128522187Y-122712809D01*
X128407093Y-122626649D01*
X128407086Y-122626645D01*
X128272379Y-122576403D01*
X128272372Y-122576401D01*
X128212844Y-122570000D01*
X127660000Y-122570000D01*
X127660000Y-123860000D01*
X127160000Y-123860000D01*
X127160000Y-122570000D01*
X127079500Y-122570000D01*
X127012461Y-122550315D01*
X126966706Y-122497511D01*
X126955500Y-122446000D01*
X126955500Y-114995096D01*
X126975185Y-114928057D01*
X126991814Y-114907420D01*
X139362416Y-102536817D01*
X139423739Y-102503333D01*
X139450097Y-102500499D01*
X140190902Y-102500499D01*
X140257941Y-102520184D01*
G37*
G04 #@! TD.AperFunction*
G04 #@! TA.AperFunction,Conductor*
G36*
X145087941Y-102520184D02*
G01*
X145133696Y-102572988D01*
X145143640Y-102642146D01*
X145114615Y-102705702D01*
X145108583Y-102712180D01*
X134251286Y-113569478D01*
X134139481Y-113681282D01*
X134139479Y-113681285D01*
X134089361Y-113768094D01*
X134089359Y-113768096D01*
X134060425Y-113818209D01*
X134060424Y-113818210D01*
X134060084Y-113819480D01*
X134019499Y-113970943D01*
X134019499Y-113970945D01*
X134019499Y-114139046D01*
X134019500Y-114139059D01*
X134019500Y-119079903D01*
X133999815Y-119146942D01*
X133983181Y-119167584D01*
X132892181Y-120258584D01*
X132830858Y-120292069D01*
X132761166Y-120287085D01*
X132705233Y-120245213D01*
X132680816Y-120179749D01*
X132680500Y-120170903D01*
X132680500Y-114600097D01*
X132700185Y-114533058D01*
X132716819Y-114512416D01*
X144692417Y-102536818D01*
X144753740Y-102503333D01*
X144780098Y-102500499D01*
X145020902Y-102500499D01*
X145087941Y-102520184D01*
G37*
G04 #@! TD.AperFunction*
G04 #@! TA.AperFunction,Conductor*
G36*
X160721121Y-98020020D02*
G01*
X160805223Y-98021520D01*
X160871901Y-98042397D01*
X160916707Y-98096008D01*
X160925416Y-98165333D01*
X160895262Y-98228361D01*
X160835820Y-98265081D01*
X160803012Y-98269500D01*
X160588812Y-98269500D01*
X160440452Y-98291863D01*
X160329385Y-98308604D01*
X160329382Y-98308605D01*
X160329376Y-98308606D01*
X160078673Y-98385938D01*
X159842303Y-98499767D01*
X159842302Y-98499768D01*
X159625520Y-98647567D01*
X159433198Y-98826014D01*
X159269614Y-99031143D01*
X159138432Y-99258356D01*
X159042582Y-99502578D01*
X159042576Y-99502597D01*
X158984197Y-99758374D01*
X158984196Y-99758379D01*
X158964592Y-100019995D01*
X158964592Y-100020004D01*
X158984196Y-100281620D01*
X158984197Y-100281625D01*
X159042576Y-100537402D01*
X159042578Y-100537411D01*
X159042580Y-100537416D01*
X159138432Y-100781643D01*
X159269614Y-101008857D01*
X159401736Y-101174533D01*
X159433198Y-101213985D01*
X159541962Y-101314902D01*
X159625521Y-101392433D01*
X159842296Y-101540228D01*
X159842301Y-101540230D01*
X159842302Y-101540231D01*
X159842303Y-101540232D01*
X159967843Y-101600688D01*
X160078673Y-101654061D01*
X160078674Y-101654061D01*
X160078677Y-101654063D01*
X160329385Y-101731396D01*
X160588818Y-101770500D01*
X160851182Y-101770500D01*
X161110615Y-101731396D01*
X161361323Y-101654063D01*
X161597704Y-101540228D01*
X161814479Y-101392433D01*
X162006805Y-101213981D01*
X162170386Y-101008857D01*
X162301568Y-100781643D01*
X162397420Y-100537416D01*
X162455802Y-100281630D01*
X162462910Y-100186779D01*
X162472347Y-100060852D01*
X162496986Y-99995471D01*
X162553061Y-99953790D01*
X162622769Y-99949042D01*
X162683979Y-99982735D01*
X162717255Y-100044172D01*
X162720000Y-100070118D01*
X162720000Y-132969881D01*
X162700315Y-133036920D01*
X162647511Y-133082675D01*
X162578353Y-133092619D01*
X162514797Y-133063594D01*
X162477023Y-133004816D01*
X162472347Y-132979147D01*
X162455803Y-132758379D01*
X162455802Y-132758374D01*
X162455802Y-132758370D01*
X162397420Y-132502584D01*
X162301568Y-132258357D01*
X162170386Y-132031143D01*
X162006805Y-131826019D01*
X162006804Y-131826018D01*
X162006801Y-131826014D01*
X161814479Y-131647567D01*
X161597704Y-131499772D01*
X161597700Y-131499770D01*
X161597697Y-131499768D01*
X161597696Y-131499767D01*
X161361325Y-131385938D01*
X161361327Y-131385938D01*
X161110623Y-131308606D01*
X161110619Y-131308605D01*
X161110615Y-131308604D01*
X160985823Y-131289794D01*
X160851187Y-131269500D01*
X160851182Y-131269500D01*
X160588818Y-131269500D01*
X160588812Y-131269500D01*
X160427247Y-131293853D01*
X160329385Y-131308604D01*
X160329382Y-131308605D01*
X160329376Y-131308606D01*
X160078673Y-131385938D01*
X159842303Y-131499767D01*
X159842302Y-131499768D01*
X159625520Y-131647567D01*
X159433198Y-131826014D01*
X159269614Y-132031143D01*
X159138432Y-132258356D01*
X159042582Y-132502578D01*
X159042576Y-132502597D01*
X158984197Y-132758374D01*
X158984196Y-132758379D01*
X158964592Y-133019995D01*
X158964592Y-133020004D01*
X158984196Y-133281620D01*
X158984197Y-133281625D01*
X159042576Y-133537402D01*
X159042578Y-133537411D01*
X159042580Y-133537416D01*
X159138432Y-133781643D01*
X159269614Y-134008857D01*
X159358562Y-134120394D01*
X159433198Y-134213985D01*
X159614753Y-134382441D01*
X159625521Y-134392433D01*
X159842296Y-134540228D01*
X159842301Y-134540230D01*
X159842302Y-134540231D01*
X159842303Y-134540232D01*
X159967843Y-134600688D01*
X160078673Y-134654061D01*
X160078674Y-134654061D01*
X160078677Y-134654063D01*
X160329385Y-134731396D01*
X160588818Y-134770500D01*
X160803012Y-134770500D01*
X160870051Y-134790185D01*
X160915806Y-134842989D01*
X160925750Y-134912147D01*
X160896725Y-134975703D01*
X160837947Y-135013477D01*
X160805223Y-135018480D01*
X160721121Y-135019980D01*
X160718910Y-135020000D01*
X112721090Y-135020000D01*
X112718879Y-135019980D01*
X112634777Y-135018480D01*
X112568099Y-134997603D01*
X112523293Y-134943992D01*
X112514584Y-134874667D01*
X112544738Y-134811639D01*
X112604180Y-134774919D01*
X112636988Y-134770500D01*
X112851182Y-134770500D01*
X113110615Y-134731396D01*
X113361323Y-134654063D01*
X113597704Y-134540228D01*
X113814479Y-134392433D01*
X113963733Y-134253945D01*
X114006801Y-134213985D01*
X114006801Y-134213983D01*
X114006805Y-134213981D01*
X114170386Y-134008857D01*
X114301568Y-133781643D01*
X114397420Y-133537416D01*
X114455802Y-133281630D01*
X114470091Y-133090957D01*
X114475408Y-133020004D01*
X114475408Y-133019995D01*
X114455803Y-132758379D01*
X114455802Y-132758374D01*
X114455802Y-132758370D01*
X114397420Y-132502584D01*
X114301568Y-132258357D01*
X114170386Y-132031143D01*
X114006805Y-131826019D01*
X114006804Y-131826018D01*
X114006801Y-131826014D01*
X113814479Y-131647567D01*
X113597704Y-131499772D01*
X113597700Y-131499770D01*
X113597697Y-131499768D01*
X113597696Y-131499767D01*
X113369731Y-131389986D01*
X146740001Y-131389986D01*
X146750494Y-131492697D01*
X146805641Y-131659119D01*
X146805643Y-131659124D01*
X146897684Y-131808345D01*
X147021654Y-131932315D01*
X147170875Y-132024356D01*
X147170880Y-132024358D01*
X147337302Y-132079505D01*
X147337309Y-132079506D01*
X147440019Y-132089999D01*
X148339999Y-132089999D01*
X148840000Y-132089999D01*
X149739972Y-132089999D01*
X149739986Y-132089998D01*
X149842697Y-132079505D01*
X150009119Y-132024358D01*
X150009124Y-132024356D01*
X150158345Y-131932315D01*
X150282315Y-131808345D01*
X150374356Y-131659124D01*
X150374358Y-131659119D01*
X150429505Y-131492697D01*
X150429506Y-131492690D01*
X150439999Y-131389986D01*
X151820001Y-131389986D01*
X151830494Y-131492697D01*
X151885641Y-131659119D01*
X151885643Y-131659124D01*
X151977684Y-131808345D01*
X152101654Y-131932315D01*
X152250875Y-132024356D01*
X152250880Y-132024358D01*
X152417302Y-132079505D01*
X152417309Y-132079506D01*
X152520019Y-132089999D01*
X153419999Y-132089999D01*
X153920000Y-132089999D01*
X154819972Y-132089999D01*
X154819986Y-132089998D01*
X154922697Y-132079505D01*
X155089119Y-132024358D01*
X155089124Y-132024356D01*
X155238345Y-131932315D01*
X155362315Y-131808345D01*
X155454356Y-131659124D01*
X155454358Y-131659119D01*
X155509505Y-131492697D01*
X155509506Y-131492690D01*
X155519999Y-131389986D01*
X155520000Y-131389973D01*
X155520000Y-131265000D01*
X153920000Y-131265000D01*
X153920000Y-132089999D01*
X153419999Y-132089999D01*
X153420000Y-132089998D01*
X153420000Y-131265000D01*
X151820001Y-131265000D01*
X151820001Y-131389986D01*
X150439999Y-131389986D01*
X150440000Y-131389973D01*
X150440000Y-131265000D01*
X148840000Y-131265000D01*
X148840000Y-132089999D01*
X148339999Y-132089999D01*
X148340000Y-132089998D01*
X148340000Y-131265000D01*
X146740001Y-131265000D01*
X146740001Y-131389986D01*
X113369731Y-131389986D01*
X113361325Y-131385938D01*
X113361327Y-131385938D01*
X113110623Y-131308606D01*
X113110619Y-131308605D01*
X113110615Y-131308604D01*
X112985823Y-131289794D01*
X112851187Y-131269500D01*
X112851182Y-131269500D01*
X112588818Y-131269500D01*
X112588812Y-131269500D01*
X112427247Y-131293853D01*
X112329385Y-131308604D01*
X112329382Y-131308605D01*
X112329376Y-131308606D01*
X112078673Y-131385938D01*
X111842303Y-131499767D01*
X111842302Y-131499768D01*
X111625520Y-131647567D01*
X111433198Y-131826014D01*
X111269614Y-132031143D01*
X111138432Y-132258356D01*
X111042582Y-132502578D01*
X111042576Y-132502597D01*
X110984197Y-132758374D01*
X110984196Y-132758379D01*
X110967653Y-132979147D01*
X110943014Y-133044528D01*
X110886939Y-133086209D01*
X110817230Y-133090957D01*
X110756021Y-133057264D01*
X110722745Y-132995827D01*
X110720000Y-132969881D01*
X110720000Y-130640013D01*
X146740000Y-130640013D01*
X146740000Y-130765000D01*
X148340000Y-130765000D01*
X148840000Y-130765000D01*
X150439999Y-130765000D01*
X150439999Y-130640028D01*
X150439998Y-130640013D01*
X151820000Y-130640013D01*
X151820000Y-130765000D01*
X153420000Y-130765000D01*
X153920000Y-130765000D01*
X155519999Y-130765000D01*
X155519999Y-130640028D01*
X155519998Y-130640013D01*
X155509505Y-130537302D01*
X155454358Y-130370880D01*
X155454356Y-130370875D01*
X155362315Y-130221654D01*
X155238345Y-130097684D01*
X155089124Y-130005643D01*
X155089119Y-130005641D01*
X154922697Y-129950494D01*
X154922690Y-129950493D01*
X154819986Y-129940000D01*
X153920000Y-129940000D01*
X153920000Y-130765000D01*
X153420000Y-130765000D01*
X153420000Y-129940000D01*
X152520028Y-129940000D01*
X152520012Y-129940001D01*
X152417302Y-129950494D01*
X152250880Y-130005641D01*
X152250875Y-130005643D01*
X152101654Y-130097684D01*
X151977684Y-130221654D01*
X151885643Y-130370875D01*
X151885641Y-130370880D01*
X151830494Y-130537302D01*
X151830493Y-130537309D01*
X151820000Y-130640013D01*
X150439998Y-130640013D01*
X150429505Y-130537302D01*
X150374358Y-130370880D01*
X150374356Y-130370875D01*
X150282315Y-130221654D01*
X150158345Y-130097684D01*
X150009124Y-130005643D01*
X150009119Y-130005641D01*
X149842697Y-129950494D01*
X149842690Y-129950493D01*
X149739986Y-129940000D01*
X148840000Y-129940000D01*
X148840000Y-130765000D01*
X148340000Y-130765000D01*
X148340000Y-129940000D01*
X147440028Y-129940000D01*
X147440012Y-129940001D01*
X147337302Y-129950494D01*
X147170880Y-130005641D01*
X147170875Y-130005643D01*
X147021654Y-130097684D01*
X146897684Y-130221654D01*
X146805643Y-130370875D01*
X146805641Y-130370880D01*
X146750494Y-130537302D01*
X146750493Y-130537309D01*
X146740000Y-130640013D01*
X110720000Y-130640013D01*
X110720000Y-128007135D01*
X118029500Y-128007135D01*
X118029500Y-129802870D01*
X118029501Y-129802876D01*
X118035908Y-129862483D01*
X118086202Y-129997328D01*
X118086206Y-129997335D01*
X118172452Y-130112544D01*
X118172455Y-130112547D01*
X118287664Y-130198793D01*
X118287671Y-130198797D01*
X118422517Y-130249091D01*
X118422516Y-130249091D01*
X118429444Y-130249835D01*
X118482127Y-130255500D01*
X120277872Y-130255499D01*
X120337483Y-130249091D01*
X120472331Y-130198796D01*
X120587546Y-130112546D01*
X120673796Y-129997331D01*
X120722810Y-129865916D01*
X120764681Y-129809984D01*
X120830145Y-129785566D01*
X120898418Y-129800417D01*
X120926673Y-129821569D01*
X121048599Y-129943495D01*
X121145384Y-130011265D01*
X121242165Y-130079032D01*
X121242167Y-130079033D01*
X121242170Y-130079035D01*
X121456337Y-130178903D01*
X121684592Y-130240063D01*
X121861034Y-130255500D01*
X121919999Y-130260659D01*
X121920000Y-130260659D01*
X121920001Y-130260659D01*
X121978966Y-130255500D01*
X122155408Y-130240063D01*
X122383663Y-130178903D01*
X122597830Y-130079035D01*
X122791401Y-129943495D01*
X122958495Y-129776401D01*
X123088425Y-129590842D01*
X123143002Y-129547217D01*
X123212500Y-129540023D01*
X123274855Y-129571546D01*
X123291575Y-129590842D01*
X123421500Y-129776395D01*
X123421505Y-129776401D01*
X123588599Y-129943495D01*
X123685384Y-130011265D01*
X123782165Y-130079032D01*
X123782167Y-130079033D01*
X123782170Y-130079035D01*
X123996337Y-130178903D01*
X124224592Y-130240063D01*
X124401034Y-130255500D01*
X124459999Y-130260659D01*
X124460000Y-130260659D01*
X124460001Y-130260659D01*
X124518966Y-130255500D01*
X124695408Y-130240063D01*
X124923663Y-130178903D01*
X125137830Y-130079035D01*
X125331401Y-129943495D01*
X125498495Y-129776401D01*
X125628425Y-129590842D01*
X125683002Y-129547217D01*
X125752500Y-129540023D01*
X125814855Y-129571546D01*
X125831575Y-129590842D01*
X125961500Y-129776395D01*
X125961505Y-129776401D01*
X126128599Y-129943495D01*
X126225384Y-130011265D01*
X126322165Y-130079032D01*
X126322167Y-130079033D01*
X126322170Y-130079035D01*
X126536337Y-130178903D01*
X126764592Y-130240063D01*
X126941034Y-130255500D01*
X126999999Y-130260659D01*
X127000000Y-130260659D01*
X127000001Y-130260659D01*
X127058966Y-130255500D01*
X127235408Y-130240063D01*
X127463663Y-130178903D01*
X127677830Y-130079035D01*
X127871401Y-129943495D01*
X128038495Y-129776401D01*
X128168425Y-129590842D01*
X128223002Y-129547217D01*
X128292500Y-129540023D01*
X128354855Y-129571546D01*
X128371575Y-129590842D01*
X128501500Y-129776395D01*
X128501505Y-129776401D01*
X128668599Y-129943495D01*
X128765384Y-130011265D01*
X128862165Y-130079032D01*
X128862167Y-130079033D01*
X128862170Y-130079035D01*
X129076337Y-130178903D01*
X129304592Y-130240063D01*
X129481034Y-130255500D01*
X129539999Y-130260659D01*
X129540000Y-130260659D01*
X129540001Y-130260659D01*
X129598966Y-130255500D01*
X129775408Y-130240063D01*
X130003663Y-130178903D01*
X130217830Y-130079035D01*
X130411401Y-129943495D01*
X130578495Y-129776401D01*
X130708425Y-129590842D01*
X130763002Y-129547217D01*
X130832500Y-129540023D01*
X130894855Y-129571546D01*
X130911575Y-129590842D01*
X131041500Y-129776395D01*
X131041505Y-129776401D01*
X131208599Y-129943495D01*
X131305384Y-130011265D01*
X131402165Y-130079032D01*
X131402167Y-130079033D01*
X131402170Y-130079035D01*
X131616337Y-130178903D01*
X131844592Y-130240063D01*
X132021034Y-130255500D01*
X132079999Y-130260659D01*
X132080000Y-130260659D01*
X132080001Y-130260659D01*
X132138966Y-130255500D01*
X132315408Y-130240063D01*
X132543663Y-130178903D01*
X132757830Y-130079035D01*
X132951401Y-129943495D01*
X133118495Y-129776401D01*
X133248425Y-129590842D01*
X133303002Y-129547217D01*
X133372500Y-129540023D01*
X133434855Y-129571546D01*
X133451575Y-129590842D01*
X133581500Y-129776395D01*
X133581505Y-129776401D01*
X133748599Y-129943495D01*
X133845384Y-130011265D01*
X133942165Y-130079032D01*
X133942167Y-130079033D01*
X133942170Y-130079035D01*
X134156337Y-130178903D01*
X134384592Y-130240063D01*
X134561034Y-130255500D01*
X134619999Y-130260659D01*
X134620000Y-130260659D01*
X134620001Y-130260659D01*
X134678966Y-130255500D01*
X134855408Y-130240063D01*
X135083663Y-130178903D01*
X135297830Y-130079035D01*
X135491401Y-129943495D01*
X135658495Y-129776401D01*
X135788425Y-129590842D01*
X135843002Y-129547217D01*
X135912500Y-129540023D01*
X135974855Y-129571546D01*
X135991575Y-129590842D01*
X136121500Y-129776395D01*
X136121505Y-129776401D01*
X136288599Y-129943495D01*
X136385384Y-130011265D01*
X136482165Y-130079032D01*
X136482167Y-130079033D01*
X136482170Y-130079035D01*
X136696337Y-130178903D01*
X136924592Y-130240063D01*
X137101034Y-130255500D01*
X137159999Y-130260659D01*
X137160000Y-130260659D01*
X137160001Y-130260659D01*
X137218966Y-130255500D01*
X137395408Y-130240063D01*
X137623663Y-130178903D01*
X137837830Y-130079035D01*
X138031401Y-129943495D01*
X138198495Y-129776401D01*
X138328425Y-129590842D01*
X138383002Y-129547217D01*
X138452500Y-129540023D01*
X138514855Y-129571546D01*
X138531575Y-129590842D01*
X138661500Y-129776395D01*
X138661505Y-129776401D01*
X138828599Y-129943495D01*
X138925384Y-130011265D01*
X139022165Y-130079032D01*
X139022167Y-130079033D01*
X139022170Y-130079035D01*
X139236337Y-130178903D01*
X139464592Y-130240063D01*
X139641034Y-130255500D01*
X139699999Y-130260659D01*
X139700000Y-130260659D01*
X139700001Y-130260659D01*
X139758966Y-130255500D01*
X139935408Y-130240063D01*
X140163663Y-130178903D01*
X140377830Y-130079035D01*
X140571401Y-129943495D01*
X140738495Y-129776401D01*
X140868425Y-129590842D01*
X140923002Y-129547217D01*
X140992500Y-129540023D01*
X141054855Y-129571546D01*
X141071575Y-129590842D01*
X141201500Y-129776395D01*
X141201505Y-129776401D01*
X141368599Y-129943495D01*
X141465384Y-130011265D01*
X141562165Y-130079032D01*
X141562167Y-130079033D01*
X141562170Y-130079035D01*
X141776337Y-130178903D01*
X142004592Y-130240063D01*
X142181034Y-130255500D01*
X142239999Y-130260659D01*
X142240000Y-130260659D01*
X142240001Y-130260659D01*
X142298966Y-130255500D01*
X142475408Y-130240063D01*
X142703663Y-130178903D01*
X142917830Y-130079035D01*
X143111401Y-129943495D01*
X143278495Y-129776401D01*
X143414035Y-129582830D01*
X143513903Y-129368663D01*
X143575063Y-129140408D01*
X143579397Y-129090862D01*
X143604849Y-129025795D01*
X143615236Y-129013997D01*
X146583506Y-126045728D01*
X146583511Y-126045724D01*
X146593714Y-126035520D01*
X146593716Y-126035520D01*
X146705520Y-125923716D01*
X146778113Y-125797980D01*
X146828679Y-125749765D01*
X146897286Y-125736541D01*
X146962151Y-125762509D01*
X147002680Y-125819423D01*
X147009500Y-125859980D01*
X147009500Y-127107770D01*
X146989815Y-127174809D01*
X146973181Y-127195451D01*
X146897289Y-127271342D01*
X146805187Y-127420663D01*
X146805185Y-127420668D01*
X146792042Y-127460331D01*
X146750001Y-127587203D01*
X146750001Y-127587204D01*
X146750000Y-127587204D01*
X146739500Y-127689983D01*
X146739500Y-128440001D01*
X146739501Y-128440019D01*
X146750000Y-128542796D01*
X146750001Y-128542799D01*
X146805185Y-128709331D01*
X146805187Y-128709336D01*
X146839829Y-128765500D01*
X146897288Y-128858656D01*
X147021344Y-128982712D01*
X147170666Y-129074814D01*
X147337203Y-129129999D01*
X147439991Y-129140500D01*
X149740008Y-129140499D01*
X149740919Y-129140406D01*
X149757895Y-129138671D01*
X149842797Y-129129999D01*
X150009334Y-129074814D01*
X150158656Y-128982712D01*
X150282712Y-128858656D01*
X150303839Y-128824402D01*
X150355787Y-128777679D01*
X150409378Y-128765500D01*
X151850622Y-128765500D01*
X151917661Y-128785185D01*
X151956159Y-128824401D01*
X151977288Y-128858656D01*
X152101344Y-128982712D01*
X152250666Y-129074814D01*
X152417203Y-129129999D01*
X152519991Y-129140500D01*
X154820008Y-129140499D01*
X154820919Y-129140406D01*
X154837895Y-129138671D01*
X154922797Y-129129999D01*
X155089334Y-129074814D01*
X155238656Y-128982712D01*
X155362712Y-128858656D01*
X155383839Y-128824402D01*
X155435787Y-128777679D01*
X155489378Y-128765500D01*
X156483996Y-128765500D01*
X156575040Y-128747389D01*
X156619328Y-128738580D01*
X156689942Y-128709331D01*
X156746807Y-128685777D01*
X156746808Y-128685776D01*
X156746811Y-128685775D01*
X156861543Y-128609114D01*
X159294114Y-126176543D01*
X159370775Y-126061811D01*
X159377439Y-126045724D01*
X159423578Y-125934332D01*
X159423580Y-125934328D01*
X159428358Y-125910306D01*
X159460742Y-125848398D01*
X159521457Y-125813823D01*
X159549975Y-125810499D01*
X159647871Y-125810499D01*
X159647872Y-125810499D01*
X159707483Y-125804091D01*
X159842331Y-125753796D01*
X159957546Y-125667546D01*
X160043796Y-125552331D01*
X160094091Y-125417483D01*
X160100500Y-125357873D01*
X160100499Y-123562128D01*
X160094091Y-123502517D01*
X160043796Y-123367669D01*
X160043795Y-123367668D01*
X160043793Y-123367664D01*
X159957547Y-123252455D01*
X159957544Y-123252452D01*
X159842335Y-123166206D01*
X159842328Y-123166202D01*
X159710401Y-123116997D01*
X159654467Y-123075126D01*
X159630050Y-123009662D01*
X159644902Y-122941389D01*
X159666053Y-122913133D01*
X159788108Y-122791078D01*
X159923600Y-122597578D01*
X160023429Y-122383492D01*
X160023432Y-122383486D01*
X160080636Y-122170000D01*
X159183012Y-122170000D01*
X159215925Y-122112993D01*
X159250000Y-121985826D01*
X159250000Y-121854174D01*
X159215925Y-121727007D01*
X159183012Y-121670000D01*
X160080636Y-121670000D01*
X160080635Y-121669999D01*
X160023432Y-121456513D01*
X160023429Y-121456507D01*
X159923600Y-121242422D01*
X159923599Y-121242420D01*
X159788113Y-121048926D01*
X159788108Y-121048920D01*
X159621082Y-120881894D01*
X159427578Y-120746399D01*
X159213492Y-120646570D01*
X159213486Y-120646567D01*
X159000000Y-120589364D01*
X159000000Y-121486988D01*
X158942993Y-121454075D01*
X158815826Y-121420000D01*
X158684174Y-121420000D01*
X158557007Y-121454075D01*
X158500000Y-121486988D01*
X158500000Y-120589364D01*
X158499999Y-120589364D01*
X158286513Y-120646567D01*
X158286507Y-120646570D01*
X158072422Y-120746399D01*
X158072420Y-120746400D01*
X157878926Y-120881886D01*
X157878920Y-120881891D01*
X157711891Y-121048920D01*
X157711886Y-121048926D01*
X157576400Y-121242420D01*
X157576399Y-121242422D01*
X157476570Y-121456507D01*
X157476567Y-121456513D01*
X157419364Y-121669999D01*
X157419364Y-121670000D01*
X158316988Y-121670000D01*
X158284075Y-121727007D01*
X158250000Y-121854174D01*
X158250000Y-121985826D01*
X158284075Y-122112993D01*
X158316988Y-122170000D01*
X157419364Y-122170000D01*
X157476567Y-122383486D01*
X157476570Y-122383492D01*
X157576399Y-122597578D01*
X157711894Y-122791082D01*
X157833946Y-122913134D01*
X157867431Y-122974457D01*
X157862447Y-123044149D01*
X157820575Y-123100082D01*
X157789598Y-123116997D01*
X157657671Y-123166202D01*
X157657664Y-123166206D01*
X157542455Y-123252452D01*
X157542452Y-123252455D01*
X157456206Y-123367664D01*
X157456202Y-123367671D01*
X157405908Y-123502517D01*
X157399501Y-123562116D01*
X157399501Y-123562123D01*
X157399500Y-123562135D01*
X157399500Y-125357870D01*
X157399501Y-125357876D01*
X157405908Y-125417483D01*
X157456202Y-125552328D01*
X157456206Y-125552335D01*
X157542452Y-125667544D01*
X157542455Y-125667547D01*
X157587647Y-125701378D01*
X157629518Y-125757311D01*
X157634502Y-125827003D01*
X157601017Y-125888325D01*
X156161162Y-127328181D01*
X156099839Y-127361666D01*
X156073481Y-127364500D01*
X155489378Y-127364500D01*
X155422339Y-127344815D01*
X155383839Y-127305597D01*
X155375459Y-127292011D01*
X155362712Y-127271344D01*
X155238656Y-127147288D01*
X155089334Y-127055186D01*
X154922797Y-127000001D01*
X154922795Y-127000000D01*
X154820010Y-126989500D01*
X152519998Y-126989500D01*
X152519981Y-126989501D01*
X152417203Y-127000000D01*
X152417200Y-127000001D01*
X152250668Y-127055185D01*
X152250663Y-127055187D01*
X152101342Y-127147289D01*
X151977289Y-127271342D01*
X151956161Y-127305597D01*
X151904213Y-127352321D01*
X151850622Y-127364500D01*
X150580519Y-127364500D01*
X150513480Y-127344815D01*
X150467725Y-127292011D01*
X150457781Y-127222853D01*
X150486806Y-127159297D01*
X150492838Y-127152819D01*
X150794112Y-126851545D01*
X150794112Y-126851544D01*
X150794114Y-126851543D01*
X150870775Y-126736811D01*
X150923580Y-126609328D01*
X150950500Y-126473993D01*
X150950500Y-126336006D01*
X150950500Y-125772888D01*
X150970185Y-125705849D01*
X151022989Y-125660094D01*
X151061244Y-125649598D01*
X151112483Y-125644091D01*
X151247331Y-125593796D01*
X151362546Y-125507546D01*
X151388618Y-125472717D01*
X151421046Y-125429401D01*
X151476979Y-125387530D01*
X151546671Y-125382546D01*
X151607994Y-125416032D01*
X151619578Y-125429401D01*
X151677809Y-125507187D01*
X151677812Y-125507190D01*
X151792906Y-125593350D01*
X151792913Y-125593354D01*
X151927620Y-125643596D01*
X151927627Y-125643598D01*
X151987155Y-125649999D01*
X151987172Y-125650000D01*
X152540000Y-125650000D01*
X153040000Y-125650000D01*
X153592828Y-125650000D01*
X153592844Y-125649999D01*
X153652372Y-125643598D01*
X153652379Y-125643596D01*
X153787086Y-125593354D01*
X153787093Y-125593350D01*
X153902187Y-125507190D01*
X153902190Y-125507187D01*
X153988350Y-125392093D01*
X153988354Y-125392086D01*
X154038596Y-125257379D01*
X154038598Y-125257372D01*
X154044999Y-125197844D01*
X154045000Y-125197827D01*
X154045000Y-124360000D01*
X153040000Y-124360000D01*
X153040000Y-125650000D01*
X152540000Y-125650000D01*
X152540000Y-123860000D01*
X153040000Y-123860000D01*
X154045000Y-123860000D01*
X154045000Y-123022172D01*
X154044999Y-123022155D01*
X154038598Y-122962627D01*
X154038596Y-122962620D01*
X153988354Y-122827913D01*
X153988350Y-122827906D01*
X153902190Y-122712812D01*
X153902187Y-122712809D01*
X153787093Y-122626649D01*
X153787086Y-122626645D01*
X153652379Y-122576403D01*
X153652372Y-122576401D01*
X153592844Y-122570000D01*
X153040000Y-122570000D01*
X153040000Y-123860000D01*
X152540000Y-123860000D01*
X152540000Y-122570000D01*
X151987155Y-122570000D01*
X151927627Y-122576401D01*
X151927620Y-122576403D01*
X151792913Y-122626645D01*
X151792906Y-122626649D01*
X151677812Y-122712809D01*
X151619578Y-122790599D01*
X151563644Y-122832469D01*
X151493952Y-122837453D01*
X151432629Y-122803967D01*
X151421046Y-122790599D01*
X151362814Y-122712812D01*
X151362546Y-122712454D01*
X151362544Y-122712453D01*
X151362544Y-122712452D01*
X151247335Y-122626206D01*
X151247328Y-122626202D01*
X151112482Y-122575908D01*
X151112483Y-122575908D01*
X151052883Y-122569501D01*
X151052881Y-122569500D01*
X151052873Y-122569500D01*
X151052864Y-122569500D01*
X149447129Y-122569500D01*
X149447123Y-122569501D01*
X149387516Y-122575908D01*
X149252671Y-122626202D01*
X149252664Y-122626206D01*
X149137455Y-122712452D01*
X149137452Y-122712455D01*
X149079266Y-122790182D01*
X149023332Y-122832053D01*
X148953641Y-122837037D01*
X148892318Y-122803551D01*
X148880734Y-122790182D01*
X148822547Y-122712455D01*
X148822544Y-122712452D01*
X148707335Y-122626206D01*
X148707328Y-122626202D01*
X148572482Y-122575908D01*
X148572483Y-122575908D01*
X148512883Y-122569501D01*
X148512881Y-122569500D01*
X148512873Y-122569500D01*
X148512865Y-122569500D01*
X146949500Y-122569500D01*
X146882461Y-122549815D01*
X146836706Y-122497011D01*
X146825500Y-122445500D01*
X146825500Y-120960097D01*
X146845185Y-120893058D01*
X146861819Y-120872416D01*
X148654332Y-119079903D01*
X150730520Y-117003716D01*
X150809577Y-116866784D01*
X150850501Y-116714057D01*
X150850501Y-116555942D01*
X150850501Y-116548347D01*
X150850500Y-116548329D01*
X150850500Y-102624499D01*
X150870185Y-102557460D01*
X150922989Y-102511705D01*
X150974500Y-102500499D01*
X151052871Y-102500499D01*
X151052872Y-102500499D01*
X151112483Y-102494091D01*
X151247331Y-102443796D01*
X151362546Y-102357546D01*
X151388618Y-102322717D01*
X151421046Y-102279401D01*
X151476979Y-102237530D01*
X151546671Y-102232546D01*
X151607994Y-102266032D01*
X151619578Y-102279401D01*
X151677809Y-102357187D01*
X151677812Y-102357190D01*
X151792906Y-102443350D01*
X151792913Y-102443354D01*
X151927620Y-102493596D01*
X151927627Y-102493598D01*
X151987155Y-102499999D01*
X151987172Y-102500000D01*
X152540000Y-102500000D01*
X153040000Y-102500000D01*
X153592828Y-102500000D01*
X153592844Y-102499999D01*
X153652372Y-102493598D01*
X153652379Y-102493596D01*
X153787086Y-102443354D01*
X153787093Y-102443350D01*
X153902187Y-102357190D01*
X153902190Y-102357187D01*
X153988350Y-102242093D01*
X153988354Y-102242086D01*
X154038596Y-102107379D01*
X154038598Y-102107372D01*
X154044999Y-102047844D01*
X154045000Y-102047827D01*
X154045000Y-101210000D01*
X153040000Y-101210000D01*
X153040000Y-102500000D01*
X152540000Y-102500000D01*
X152540000Y-100710000D01*
X153040000Y-100710000D01*
X154045000Y-100710000D01*
X154045000Y-99872172D01*
X154044999Y-99872155D01*
X154038598Y-99812627D01*
X154038596Y-99812620D01*
X153988354Y-99677913D01*
X153988350Y-99677906D01*
X153902190Y-99562812D01*
X153902187Y-99562809D01*
X153787093Y-99476649D01*
X153787086Y-99476645D01*
X153652379Y-99426403D01*
X153652372Y-99426401D01*
X153592844Y-99420000D01*
X153040000Y-99420000D01*
X153040000Y-100710000D01*
X152540000Y-100710000D01*
X152540000Y-99420000D01*
X151987155Y-99420000D01*
X151927627Y-99426401D01*
X151927620Y-99426403D01*
X151792913Y-99476645D01*
X151792906Y-99476649D01*
X151677812Y-99562809D01*
X151619578Y-99640599D01*
X151563644Y-99682469D01*
X151493952Y-99687453D01*
X151432629Y-99653967D01*
X151421046Y-99640599D01*
X151362814Y-99562812D01*
X151362546Y-99562454D01*
X151362544Y-99562453D01*
X151362544Y-99562452D01*
X151247335Y-99476206D01*
X151247328Y-99476202D01*
X151112482Y-99425908D01*
X151112483Y-99425908D01*
X151052883Y-99419501D01*
X151052881Y-99419500D01*
X151052873Y-99419500D01*
X151052864Y-99419500D01*
X149447129Y-99419500D01*
X149447123Y-99419501D01*
X149387516Y-99425908D01*
X149252671Y-99476202D01*
X149252664Y-99476206D01*
X149137455Y-99562452D01*
X149137452Y-99562455D01*
X149079266Y-99640182D01*
X149023332Y-99682053D01*
X148953641Y-99687037D01*
X148892318Y-99653551D01*
X148880734Y-99640182D01*
X148822547Y-99562455D01*
X148822544Y-99562452D01*
X148707335Y-99476206D01*
X148707328Y-99476202D01*
X148572482Y-99425908D01*
X148572483Y-99425908D01*
X148512883Y-99419501D01*
X148512881Y-99419500D01*
X148512873Y-99419500D01*
X148512864Y-99419500D01*
X146907129Y-99419500D01*
X146907123Y-99419501D01*
X146847516Y-99425908D01*
X146712671Y-99476202D01*
X146712664Y-99476206D01*
X146597455Y-99562452D01*
X146597452Y-99562455D01*
X146539266Y-99640182D01*
X146483332Y-99682053D01*
X146413641Y-99687037D01*
X146352318Y-99653551D01*
X146340734Y-99640182D01*
X146282547Y-99562455D01*
X146282544Y-99562452D01*
X146167335Y-99476206D01*
X146167328Y-99476202D01*
X146032482Y-99425908D01*
X146032483Y-99425908D01*
X145972883Y-99419501D01*
X145972881Y-99419500D01*
X145972873Y-99419500D01*
X145972864Y-99419500D01*
X144367129Y-99419500D01*
X144367123Y-99419501D01*
X144307516Y-99425908D01*
X144172671Y-99476202D01*
X144172664Y-99476206D01*
X144057455Y-99562452D01*
X144057452Y-99562455D01*
X143999266Y-99640182D01*
X143943332Y-99682053D01*
X143873641Y-99687037D01*
X143812318Y-99653551D01*
X143800734Y-99640182D01*
X143742547Y-99562455D01*
X143742544Y-99562452D01*
X143627335Y-99476206D01*
X143627328Y-99476202D01*
X143492482Y-99425908D01*
X143492483Y-99425908D01*
X143432883Y-99419501D01*
X143432881Y-99419500D01*
X143432873Y-99419500D01*
X143432864Y-99419500D01*
X141827129Y-99419500D01*
X141827123Y-99419501D01*
X141767516Y-99425908D01*
X141632671Y-99476202D01*
X141632664Y-99476206D01*
X141517455Y-99562452D01*
X141517452Y-99562455D01*
X141459266Y-99640182D01*
X141403332Y-99682053D01*
X141333641Y-99687037D01*
X141272318Y-99653551D01*
X141260734Y-99640182D01*
X141202547Y-99562455D01*
X141202544Y-99562452D01*
X141087335Y-99476206D01*
X141087328Y-99476202D01*
X140952482Y-99425908D01*
X140952483Y-99425908D01*
X140892883Y-99419501D01*
X140892881Y-99419500D01*
X140892873Y-99419500D01*
X140892864Y-99419500D01*
X139287129Y-99419500D01*
X139287123Y-99419501D01*
X139227516Y-99425908D01*
X139092671Y-99476202D01*
X139092664Y-99476206D01*
X138977455Y-99562452D01*
X138977452Y-99562455D01*
X138919266Y-99640182D01*
X138863332Y-99682053D01*
X138793641Y-99687037D01*
X138732318Y-99653551D01*
X138720734Y-99640182D01*
X138662547Y-99562455D01*
X138662544Y-99562452D01*
X138547335Y-99476206D01*
X138547328Y-99476202D01*
X138412482Y-99425908D01*
X138412483Y-99425908D01*
X138352883Y-99419501D01*
X138352881Y-99419500D01*
X138352873Y-99419500D01*
X138352864Y-99419500D01*
X136747129Y-99419500D01*
X136747123Y-99419501D01*
X136687516Y-99425908D01*
X136552671Y-99476202D01*
X136552664Y-99476206D01*
X136437455Y-99562452D01*
X136437452Y-99562455D01*
X136379266Y-99640182D01*
X136323332Y-99682053D01*
X136253641Y-99687037D01*
X136192318Y-99653551D01*
X136180734Y-99640182D01*
X136122547Y-99562455D01*
X136122544Y-99562452D01*
X136007335Y-99476206D01*
X136007328Y-99476202D01*
X135872482Y-99425908D01*
X135872483Y-99425908D01*
X135812883Y-99419501D01*
X135812881Y-99419500D01*
X135812873Y-99419500D01*
X135812864Y-99419500D01*
X134207129Y-99419500D01*
X134207123Y-99419501D01*
X134147516Y-99425908D01*
X134012671Y-99476202D01*
X134012664Y-99476206D01*
X133897455Y-99562452D01*
X133897452Y-99562455D01*
X133811206Y-99677664D01*
X133811202Y-99677671D01*
X133760908Y-99812517D01*
X133754501Y-99872116D01*
X133754500Y-99872135D01*
X133754500Y-101314902D01*
X133734815Y-101381941D01*
X133718181Y-101402583D01*
X118899481Y-116221282D01*
X118899479Y-116221285D01*
X118849361Y-116308094D01*
X118849359Y-116308096D01*
X118820425Y-116358209D01*
X118820424Y-116358210D01*
X118820423Y-116358215D01*
X118779499Y-116510943D01*
X118779499Y-116510945D01*
X118779499Y-116679046D01*
X118779500Y-116679059D01*
X118779500Y-127430500D01*
X118759815Y-127497539D01*
X118707011Y-127543294D01*
X118655501Y-127554500D01*
X118482130Y-127554500D01*
X118482123Y-127554501D01*
X118422516Y-127560908D01*
X118287671Y-127611202D01*
X118287664Y-127611206D01*
X118172455Y-127697452D01*
X118172452Y-127697455D01*
X118086206Y-127812664D01*
X118086202Y-127812671D01*
X118035908Y-127947517D01*
X118029501Y-128007116D01*
X118029500Y-128007135D01*
X110720000Y-128007135D01*
X110720000Y-102047844D01*
X121075000Y-102047844D01*
X121081401Y-102107372D01*
X121081403Y-102107379D01*
X121131645Y-102242086D01*
X121131649Y-102242093D01*
X121217809Y-102357187D01*
X121217812Y-102357190D01*
X121332906Y-102443350D01*
X121332913Y-102443354D01*
X121467620Y-102493596D01*
X121467627Y-102493598D01*
X121527155Y-102499999D01*
X121527172Y-102500000D01*
X122080000Y-102500000D01*
X122080000Y-101210000D01*
X121075000Y-101210000D01*
X121075000Y-102047844D01*
X110720000Y-102047844D01*
X110720000Y-100070118D01*
X110739685Y-100003079D01*
X110792489Y-99957324D01*
X110861647Y-99947380D01*
X110925203Y-99976405D01*
X110962977Y-100035183D01*
X110967653Y-100060852D01*
X110984196Y-100281620D01*
X110984197Y-100281625D01*
X111042576Y-100537402D01*
X111042578Y-100537411D01*
X111042580Y-100537416D01*
X111138432Y-100781643D01*
X111269614Y-101008857D01*
X111401736Y-101174533D01*
X111433198Y-101213985D01*
X111541962Y-101314902D01*
X111625521Y-101392433D01*
X111842296Y-101540228D01*
X111842301Y-101540230D01*
X111842302Y-101540231D01*
X111842303Y-101540232D01*
X111967843Y-101600688D01*
X112078673Y-101654061D01*
X112078674Y-101654061D01*
X112078677Y-101654063D01*
X112329385Y-101731396D01*
X112588818Y-101770500D01*
X112851182Y-101770500D01*
X113110615Y-101731396D01*
X113361323Y-101654063D01*
X113597704Y-101540228D01*
X113814479Y-101392433D01*
X114006805Y-101213981D01*
X114170386Y-101008857D01*
X114301568Y-100781643D01*
X114397420Y-100537416D01*
X114455802Y-100281630D01*
X114462910Y-100186779D01*
X114475408Y-100020004D01*
X114475408Y-100019995D01*
X114464329Y-99872155D01*
X121075000Y-99872155D01*
X121075000Y-100710000D01*
X122080000Y-100710000D01*
X122080000Y-99420000D01*
X122580000Y-99420000D01*
X122580000Y-102500000D01*
X123132828Y-102500000D01*
X123132844Y-102499999D01*
X123192372Y-102493598D01*
X123192379Y-102493596D01*
X123327086Y-102443354D01*
X123327093Y-102443350D01*
X123442186Y-102357191D01*
X123500420Y-102279401D01*
X123556354Y-102237530D01*
X123626045Y-102232546D01*
X123687368Y-102266031D01*
X123698953Y-102279400D01*
X123744337Y-102340024D01*
X123757187Y-102357190D01*
X123757455Y-102357547D01*
X123872664Y-102443793D01*
X123872671Y-102443797D01*
X124007517Y-102494091D01*
X124007516Y-102494091D01*
X124014444Y-102494835D01*
X124067127Y-102500500D01*
X125672872Y-102500499D01*
X125732483Y-102494091D01*
X125867331Y-102443796D01*
X125982546Y-102357546D01*
X126008618Y-102322717D01*
X126041046Y-102279401D01*
X126096979Y-102237530D01*
X126166671Y-102232546D01*
X126227994Y-102266032D01*
X126239578Y-102279401D01*
X126297809Y-102357187D01*
X126297812Y-102357190D01*
X126412906Y-102443350D01*
X126412913Y-102443354D01*
X126547620Y-102493596D01*
X126547627Y-102493598D01*
X126607155Y-102499999D01*
X126607172Y-102500000D01*
X127160000Y-102500000D01*
X127660000Y-102500000D01*
X128212828Y-102500000D01*
X128212844Y-102499999D01*
X128272372Y-102493598D01*
X128272379Y-102493596D01*
X128407086Y-102443354D01*
X128407093Y-102443350D01*
X128522187Y-102357190D01*
X128522190Y-102357187D01*
X128608350Y-102242093D01*
X128608354Y-102242086D01*
X128658596Y-102107379D01*
X128658598Y-102107372D01*
X128664999Y-102047844D01*
X128665000Y-102047827D01*
X128665000Y-101210000D01*
X127660000Y-101210000D01*
X127660000Y-102500000D01*
X127160000Y-102500000D01*
X127160000Y-100710000D01*
X127660000Y-100710000D01*
X128665000Y-100710000D01*
X128665000Y-99872172D01*
X128664999Y-99872155D01*
X128658598Y-99812627D01*
X128658596Y-99812620D01*
X128608354Y-99677913D01*
X128608350Y-99677906D01*
X128522190Y-99562812D01*
X128522187Y-99562809D01*
X128407093Y-99476649D01*
X128407086Y-99476645D01*
X128272379Y-99426403D01*
X128272372Y-99426401D01*
X128212844Y-99420000D01*
X127660000Y-99420000D01*
X127660000Y-100710000D01*
X127160000Y-100710000D01*
X127160000Y-99420000D01*
X126607155Y-99420000D01*
X126547627Y-99426401D01*
X126547620Y-99426403D01*
X126412913Y-99476645D01*
X126412906Y-99476649D01*
X126297812Y-99562809D01*
X126239578Y-99640599D01*
X126183644Y-99682469D01*
X126113952Y-99687453D01*
X126052629Y-99653967D01*
X126041046Y-99640599D01*
X125982814Y-99562812D01*
X125982546Y-99562454D01*
X125982544Y-99562453D01*
X125982544Y-99562452D01*
X125867335Y-99476206D01*
X125867328Y-99476202D01*
X125732482Y-99425908D01*
X125732483Y-99425908D01*
X125672883Y-99419501D01*
X125672881Y-99419500D01*
X125672873Y-99419500D01*
X125672864Y-99419500D01*
X124067129Y-99419500D01*
X124067123Y-99419501D01*
X124007516Y-99425908D01*
X123872671Y-99476202D01*
X123872664Y-99476206D01*
X123757455Y-99562452D01*
X123757454Y-99562453D01*
X123698952Y-99640600D01*
X123643018Y-99682470D01*
X123573326Y-99687453D01*
X123512004Y-99653966D01*
X123500421Y-99640598D01*
X123442190Y-99562812D01*
X123442187Y-99562809D01*
X123327093Y-99476649D01*
X123327086Y-99476645D01*
X123192379Y-99426403D01*
X123192372Y-99426401D01*
X123132844Y-99420000D01*
X122580000Y-99420000D01*
X122080000Y-99420000D01*
X121527155Y-99420000D01*
X121467627Y-99426401D01*
X121467620Y-99426403D01*
X121332913Y-99476645D01*
X121332906Y-99476649D01*
X121217812Y-99562809D01*
X121217809Y-99562812D01*
X121131649Y-99677906D01*
X121131645Y-99677913D01*
X121081403Y-99812620D01*
X121081401Y-99812627D01*
X121075000Y-99872155D01*
X114464329Y-99872155D01*
X114455803Y-99758379D01*
X114455802Y-99758374D01*
X114455802Y-99758370D01*
X114397420Y-99502584D01*
X114301568Y-99258357D01*
X114170386Y-99031143D01*
X114006805Y-98826019D01*
X114006804Y-98826018D01*
X114006801Y-98826014D01*
X113814479Y-98647567D01*
X113597704Y-98499772D01*
X113597700Y-98499770D01*
X113597697Y-98499768D01*
X113597696Y-98499767D01*
X113361325Y-98385938D01*
X113361327Y-98385938D01*
X113110623Y-98308606D01*
X113110619Y-98308605D01*
X113110615Y-98308604D01*
X112985823Y-98289794D01*
X112851187Y-98269500D01*
X112851182Y-98269500D01*
X112636988Y-98269500D01*
X112569949Y-98249815D01*
X112524194Y-98197011D01*
X112514250Y-98127853D01*
X112543275Y-98064297D01*
X112602053Y-98026523D01*
X112634777Y-98021520D01*
X112718879Y-98020020D01*
X112721090Y-98020000D01*
X160718910Y-98020000D01*
X160721121Y-98020020D01*
G37*
G04 #@! TD.AperFunction*
G04 #@! TD*
M02*
